<?xml version="1.0" encoding="UTF-8" standalone="no"?>
<!-- Created with Inkscape (http://www.inkscape.org/) -->

<svg
   xmlns:dc="http://purl.org/dc/elements/1.1/"
   xmlns:cc="http://creativecommons.org/ns#"
   xmlns:rdf="http://www.w3.org/1999/02/22-rdf-syntax-ns#"
   xmlns:svg="http://www.w3.org/2000/svg"
   xmlns="http://www.w3.org/2000/svg"
   xmlns:sodipodi="http://sodipodi.sourceforge.net/DTD/sodipodi-0.dtd"
   xmlns:inkscape="http://www.inkscape.org/namespaces/inkscape"
   width="512"
   height="512"
   viewBox="0 0 135.46667 135.46667"
   version="1.1"
   id="svg8"
   inkscape:version="0.92.2 2405546, 2018-03-11"
   sodipodi:docname="favicon.svg">
  <defs
     id="defs2" />
  <sodipodi:namedview
     id="base"
     pagecolor="#ffffff"
     bordercolor="#666666"
     borderopacity="1.0"
     inkscape:pageopacity="0.0"
     inkscape:pageshadow="2"
     inkscape:zoom="1.4142136"
     inkscape:cx="318.46535"
     inkscape:cy="279.35236"
     inkscape:document-units="mm"
     inkscape:current-layer="g4590"
     showgrid="false"
     showguides="true"
     inkscape:pagecheckerboard="true"
     inkscape:window-width="2560"
     inkscape:window-height="1304"
     inkscape:window-x="0"
     inkscape:window-y="64"
     inkscape:window-maximized="1"
     inkscape:guide-bbox="true"
     fit-margin-top="0"
     fit-margin-left="0"
     fit-margin-right="0"
     fit-margin-bottom="0"
     units="px" />
  <metadata
     id="metadata5">
    <rdf:RDF>
      <cc:Work
         rdf:about="">
        <dc:format>image/svg+xml</dc:format>
        <dc:type
           rdf:resource="http://purl.org/dc/dcmitype/StillImage" />
        <dc:title></dc:title>
      </cc:Work>
    </rdf:RDF>
  </metadata>
  <g
     inkscape:label="Layer 1"
     inkscape:groupmode="layer"
     id="layer1"
     transform="translate(-90.910114,-21.247301)">
    <g
       id="g4547"
       transform="rotate(-7.4787023,115.73036,135.03807)">
      <g
         id="g4590"
         transform="rotate(-0.99022029,116.33605,135.61665)">
        <g
           id="g4602"
           transform="matrix(2.4880227,0.03168917,-0.03168917,2.4880227,-119.18381,-245.21138)">
          <g
             aria-label="PP"
             transform="matrix(0.26458333,0,0,0.26458333,1.2284226,1.285119)"
             style="font-style:normal;font-weight:normal;font-size:40px;line-height:1.25;font-family:sans-serif;letter-spacing:0px;word-spacing:0px;fill:#000000;fill-opacity:1;stroke:none;stroke-width:2.89133859;stroke-miterlimit:4;stroke-dasharray:none"
             id="flowRoot4537">
            <path
               inkscape:connector-curvature="0"
               d="m 352.31716,444.39953 q 0.192,-1.536 1.152,-2.496 1.152,-1.152 2.688,-1.152 h 41.088 q 7.104,0 13.248,3.264 6.144,3.072 10.56,8.448 4.416,5.184 6.912,12.288 2.496,6.912 2.496,14.4 0,10.56 -3.648,19.2 -3.456,8.64 -9.6,14.976 -6.144,6.144 -14.4,9.6 -8.256,3.456 -17.472,3.456 h -19.584 l -6.336,45.12 q -0.192,1.536 -1.344,2.688 -1.152,0.96 -2.496,0.96 h -18.432 q -1.536,0 -2.304,-0.96 -0.768,-1.152 -0.384,-2.688 z m 34.56,58.56 q 3.456,0 6.72,-1.728 3.456,-1.92 5.952,-4.992 2.688,-3.072 4.224,-7.104 1.536,-4.224 1.536,-8.832 0,-6.72 -3.84,-11.328 -3.648,-4.608 -9.216,-4.608 h -17.856 l -5.376,38.592 z"
               style="font-style:normal;font-variant:normal;font-weight:normal;font-stretch:normal;font-size:192px;font-family:BrandonGrotesque-BoldItalic;-inkscape-font-specification:BrandonGrotesque-BoldItalic;fill:#000000;fill-opacity:1;stroke:none;stroke-width:2.89133859;stroke-miterlimit:4;stroke-dasharray:none;stroke-opacity:1"
               id="path4568" />
            <path
               inkscape:connector-curvature="0"
               d="m 457.69217,444.39953 q 0.192,-1.536 1.152,-2.496 1.152,-1.152 2.688,-1.152 h 41.088 q 7.104,0 13.248,3.264 6.144,3.072 10.56,8.448 4.416,5.184 6.912,12.288 2.496,6.912 2.496,14.4 0,10.56 -3.648,19.2 -3.456,8.64 -9.6,14.976 -6.144,6.144 -14.4,9.6 -8.256,3.456 -17.472,3.456 h -19.584 l -6.336,45.12 q -0.192,1.536 -1.344,2.688 -1.152,0.96 -2.496,0.96 h -18.432 q -1.536,0 -2.304,-0.96 -0.768,-1.152 -0.384,-2.688 z m 34.56,58.56 q 3.456,0 6.72,-1.728 3.456,-1.92 5.952,-4.992 2.688,-3.072 4.224,-7.104 1.536,-4.224 1.536,-8.832 0,-6.72 -3.84,-11.328 -3.648,-4.608 -9.216,-4.608 h -17.856 l -5.376,38.592 z"
               style="font-style:normal;font-variant:normal;font-weight:normal;font-stretch:normal;font-size:192px;font-family:BrandonGrotesque-BoldItalic;-inkscape-font-specification:BrandonGrotesque-BoldItalic;fill:#000000;fill-opacity:1;stroke:none;stroke-width:2.89133859;stroke-miterlimit:4;stroke-dasharray:none;stroke-opacity:1"
               id="path4570" />
          </g>
          <g
             aria-label="PP"
             transform="scale(0.26458333)"
             style="font-style:normal;font-weight:normal;font-size:40px;line-height:1.25;font-family:sans-serif;letter-spacing:0px;word-spacing:0px;fill:#000000;fill-opacity:1;stroke:none;stroke-width:2.89133859;stroke-miterlimit:4;stroke-dasharray:none"
             id="flowRoot4518">
            <g
               id="g4606"
               transform="translate(6.9209499e-6)">
              <path
                 id="path4573"
                 style="font-style:normal;font-variant:normal;font-weight:normal;font-stretch:normal;font-size:192px;font-family:BrandonGrotesque-BoldItalic;-inkscape-font-specification:BrandonGrotesque-BoldItalic;fill:#ffffff;fill-opacity:1;stroke:none;stroke-width:2.89133859;stroke-miterlimit:4;stroke-dasharray:none;stroke-opacity:1"
                 d="m 352.31716,444.39953 q 0.192,-1.536 1.152,-2.496 1.152,-1.152 2.688,-1.152 h 41.088 q 7.104,0 13.248,3.264 6.144,3.072 10.56,8.448 4.416,5.184 6.912,12.288 2.496,6.912 2.496,14.4 0,10.56 -3.648,19.2 -3.456,8.64 -9.6,14.976 -6.144,6.144 -14.4,9.6 -8.256,3.456 -17.472,3.456 h -19.584 l -6.336,45.12 q -0.192,1.536 -1.344,2.688 -1.152,0.96 -2.496,0.96 h -18.432 q -1.536,0 -2.304,-0.96 -0.768,-1.152 -0.384,-2.688 z m 34.56,58.56 q 3.456,0 6.72,-1.728 3.456,-1.92 5.952,-4.992 2.688,-3.072 4.224,-7.104 1.536,-4.224 1.536,-8.832 0,-6.72 -3.84,-11.328 -3.648,-4.608 -9.216,-4.608 h -17.856 l -5.376,38.592 z"
                 inkscape:connector-curvature="0" />
              <path
                 id="path4575"
                 style="font-style:normal;font-variant:normal;font-weight:normal;font-stretch:normal;font-size:192px;font-family:BrandonGrotesque-BoldItalic;-inkscape-font-specification:BrandonGrotesque-BoldItalic;fill:#ffffff;fill-opacity:1;stroke:none;stroke-width:2.89133859;stroke-miterlimit:4;stroke-dasharray:none;stroke-opacity:1"
                 d="m 457.69216,444.39953 q 0.192,-1.536 1.152,-2.496 1.152,-1.152 2.688,-1.152 h 41.088 q 7.104,0 13.248,3.264 6.144,3.072 10.56,8.448 4.416,5.184 6.912,12.288 2.496,6.912 2.496,14.4 0,10.56 -3.648,19.2 -3.456,8.64 -9.6,14.976 -6.144,6.144 -14.4,9.6 -8.256,3.456 -17.472,3.456 h -19.584 l -6.336,45.12 q -0.192,1.536 -1.344,2.688 -1.152,0.96 -2.496,0.96 h -18.432 q -1.536,0 -2.304,-0.96 -0.768,-1.152 -0.384,-2.688 z m 34.56,58.56 q 3.456,0 6.72,-1.728 3.456,-1.92 5.952,-4.992 2.688,-3.072 4.224,-7.104 1.536,-4.224 1.536,-8.832 0,-6.72 -3.84,-11.328 -3.648,-4.608 -9.216,-4.608 h -17.856 l -5.376,38.592 z"
                 inkscape:connector-curvature="0" />
            </g>
          </g>
        </g>
      </g>
    </g>
  </g>
</svg>
