<?xml version="1.0" encoding="utf-8"?>
<svg version="1.1" id="Layer_1" xmlns="http://www.w3.org/2000/svg" x="0px" y="0px"
	 viewBox="0 0 703.8 462.2" style="enable-background:new 0 0 703.8 462.2;" xml:space="preserve">
<style type="text/css">
	.st0{fill:#FFFFFF;}
</style>
<path class="st0" d="M0.4,102.8c-0.1-2.3,1.7-4.7,4-5.1l51-7.2c23.2-3.3,43.2,15.7,46.6,40.3c4.3,30.9-16.3,61-46.5,65.2l-19,2.7
	v55.6c0.1,2.4-1.9,4.8-4,5.1l-28.3,4c-2.3,0.3-3.8-1.6-3.9-4L0.4,102.8z M53.4,161.9c8.1-1.1,14.7-11.5,13-23.4
	c-1.1-8.1-6.7-13.7-12.9-12.9L36.6,128l0.1,36.2L53.4,161.9z M190.7,69.2c36-5.1,69.3,23.4,75,63.5c7.3,52.2-25.2,99.9-74,106.7
	c-35.7,5-69.2-22.9-74.9-62.8C109.4,124.2,142.4,76,190.7,69.2z M228.2,142.5c-3.1-21.8-18.6-38.1-37.2-35.5
	c-22.5,3.2-40.9,30.6-36.9,59.4c3,21.6,18.6,37.9,36.9,35.3C214,198.5,232.2,171.3,228.2,142.5L228.2,142.5z M294.6,61.5
	c-0.1-2.3,1.7-4.7,4-5.1l28.8-4c2.1-0.3,3.8,1.6,3.9,3.9v126.4l47.3-6.7c2.3-0.3,3.8,1.6,3.9,4l0.1,25.8c0.1,2.4-1.7,4.7-4,5.1
	l-79.8,11.2c-2.3,0.3-4-1.6-4.1-3.9L294.6,61.5z M403.9,46.1c-0.1-2.3,1.7-4.7,3.8-5l29-4.1c2.1-0.3,3.8,1.6,3.9,4v156.7
	c0.1,2.4-1.7,4.7-3.8,5l-29,4.1c-2.1,0.3-3.8-1.6-3.9-4V46.1z M470,192.8l22.6-162.2c0.4-2.2,1.3-4,3.9-4.3l3.2-0.5
	c1.4-0.2,2.9,0.5,3.6,1.9l48.2,95.5l0.5-0.1l51.8-109.6c0.7-1.5,1.5-2.6,3.6-2.9l3.5-0.5c1.6-0.2,3.2,1.2,3.5,3.3l23.1,155.8
	c0.4,3-1.8,5.5-4.2,5.8l-28.5,4c-1.9,0.3-3.7-1.4-4-3.2l-7.5-72.1c-0.2,0-0.2,0-0.5,0.1L559,185.2c-0.7,1.5-2,2.9-3.6,3.1l-3.7,0.5
	c-1.6,0.2-2.9-0.8-3.6-2.1l-34-71.9c-0.5,0.1-0.2,0-0.5,0.1l-7.1,74.1c-0.2,1.9-1.6,4-4.1,4.4l-28.5,4
	C471.6,197.8,469.5,195.9,470,192.8L470,192.8z M667.1,9.1c-0.1-2.3,1.7-4.7,3.8-5l29-4.1c2.1-0.3,3.8,1.6,3.9,4v156.7
	c0.1,2.4-1.7,4.7-3.8,5l-29,4.1c-2.1,0.3-3.8-1.6-3.9-4V9.1z M0,301.5c-0.1-2.3,1.7-4.7,4-5.1l51-7.2c23.2-3.3,43.1,15.7,46.6,40.3
	c4.3,30.9-16.3,61-46.4,65.2l-19,2.7V453c0.1,2.4-1.9,4.8-4,5.1l-28.3,4c-2.3,0.3-3.8-1.6-3.9-3.9L0,301.5z M53.1,360.6
	c8.1-1.1,14.7-11.5,13-23.4c-1.1-8.1-6.7-13.7-12.9-12.9l-16.9,2.4l0.1,36.2L53.1,360.6z M126.3,283.8c-0.1-2.3,1.7-4.7,3.8-5
	l62.7-8.8c24.4-3.4,43.6,14,47,37.9c3.5,24.8-7.7,47.7-30.6,58.5l28.5,56.1c1.6,2.9,0,6.9-3.5,7.3l-29.9,4.2
	c-1.6,0.2-3.1-0.5-3.5-1.6l-27.7-58.8l-10.2,1.4v60.4c0.1,2.4-1.7,4.7-3.8,5l-28.8,4c-2.3,0.3-4-1.6-3.9-4L126.3,283.8z
	 M188.1,341.3c10.9-1.5,17.4-12.9,15.8-24c-1.1-8.1-6.3-14.3-14.6-13.1l-26.7,3.7v36.9L188.1,341.3z M270.6,263.5
	c-0.1-2.3,1.7-4.7,3.8-5l29-4.1c2.1-0.3,3.8,1.6,3.9,3.9V415c0.1,2.4-1.7,4.7-3.8,5l-29,4.1c-2.1,0.3-3.8-1.6-3.9-3.9V263.5z
	 M346,252.9c-0.1-2.3,1.7-4.7,3.8-5l51.7-7.3c36.7-5.2,67.8,25.7,72.8,61.7c7.1,50.4-23.8,97.1-72.7,103.9l-52,7.3
	c-2.1,0.3-3.8-1.6-3.6-4V252.9z M399.8,371.4c23.9-3.4,40.4-30.5,36.2-60.9c-3.1-21.8-17.3-37.6-36.1-34.9l-17.4,2.4v95.9
	L399.8,371.4z M503.4,230.8c-0.1-2.3,1.7-4.7,3.8-5l87.5-12.3c2.3-0.3,4,1.6,4.1,3.9l-0.2,25.8c0.1,2.3-1.5,4.7-3.8,5l-55.2,7.8
	l-0.1,29.4l45-6.3c2.1-0.3,4,1.6,4.1,3.9l-0.1,25.8c-0.1,2.6-1.9,4.8-4,5.1l-44.8,6.3v31.9l55.2-7.8c2.3-0.3,3.8,1.6,3.9,3.9
	l0.1,25.8c0.1,2.4-1.7,4.7-4,5.1l-87.5,12.3c-2.3,0.3-4-1.6-3.9-3.9L503.4,230.8z"/>
</svg>
