<svg class="poliedro-logo-lands" data-name="Layer 1" version="1.1" viewBox="0 0 1600 800" xmlns="http://www.w3.org/2000/svg">
 <defs>
  <style>.cls-1{font-size:45px;font-family:BrandonGrotesque-Regular, Brandon Grotesque;letter-spacing:0.1em;}.cls-1,.cls-7,.cls-8{fill:#fff;}.cls-2{letter-spacing:0.05em;}.cls-3{font-size:30px;letter-spacing:0.1em;}.cls-3,.cls-7{font-family:BrandonGrotesque-Medium, Brandon Grotesque;}.cls-4{letter-spacing:0.09em;}.cls-5{letter-spacing:0.09em;}.cls-6{letter-spacing:0.13em;}.cls-7{font-size:70px;letter-spacing:0.14em;}.cls-9{fill:#f2f2f2;}.cls-10{fill:#e6e6e6;}.cls-11{fill:#ccc;}.cls-12{fill:#b3b3b3;}.cls-13{fill:#999;}</style>
 </defs>
 <a href="https://poliedro-polimi.it" target="_blank" rel="noopener">
 <g transform="matrix(.77828 0 0 .77828 138.68 -230.43)">
  <g transform="translate(-86.85,337.74)" fill="#fff">
   <g transform="translate(528.33,349.08)" aria-label="STUDENTI LGBTI+POLITECNICO DI MILANO">
    <g fill="#fff">
     <path d="m2.835-3.195q-0.27-0.225-0.495-0.54-0.18-0.36 0.225-0.99 0.18-0.225 0.315-0.405 0.18-0.225 0.36-0.45 0.36-0.45 0.72-0.63t0.855 0.225q0.135 0.09 0.765 0.675 0.63 0.54 1.62 1.17 1.035 0.585 2.385 1.08t2.835 0.495q1.35 0 2.475-0.405t1.89-1.08q0.81-0.675 1.215-1.575 0.45-0.9 0.45-1.89 0-2.34-1.98-3.915t-5.895-3.195q-1.845-0.81-3.33-1.62-1.485-0.855-2.52-1.89-0.99-1.08-1.53-2.475t-0.54-3.33q0-1.125 0.495-2.52t1.62-2.61 2.925-2.025q1.845-0.855 4.545-0.855 1.665 0 3.06 0.36t2.43 0.81q1.17 0.495 2.205 1.125 0.225 0.09 0.45 0.495t-0.18 1.035q-0.135 0.225-0.27 0.45-0.135 0.18-0.27 0.405-0.315 0.495-0.675 0.63-0.36 0.09-0.9-0.225-0.135-0.045-0.675-0.36-0.54-0.36-1.35-0.72-0.81-0.405-1.845-0.675-0.99-0.315-2.025-0.315-1.8 0-3.015 0.54-1.17 0.495-1.89 1.26-0.72 0.72-1.035 1.575-0.27 0.855-0.27 1.575 0 2.25 1.62 3.735 1.62 1.44 4.455 2.61 2.295 0.945 4.14 1.89t3.15 2.115q1.305 1.125 1.98 2.61 0.72 1.44 0.72 3.375 0 1.755-0.81 3.24-0.765 1.485-2.115 2.565-1.305 1.08-3.06 1.71-1.755 0.585-3.735 0.585t-3.645-0.495-2.88-1.125-1.98-1.215-0.99-0.81z"/>
     <path d="m37.539-28.485h-7.83q-0.36 0-0.63-0.225-0.225-0.27-0.225-0.63v-1.305q0-0.36 0.225-0.585 0.27-0.27 0.63-0.27h19.08q0.36 0 0.585 0.27 0.27 0.225 0.27 0.585v1.305q0 0.36-0.27 0.63-0.225 0.225-0.585 0.225h-7.83v27.63q0 0.36-0.27 0.63-0.225 0.225-0.585 0.225h-1.71q-0.36 0-0.63-0.225-0.225-0.27-0.225-0.63z"/>
     <path d="m58.712-30.645q0-0.36 0.225-0.585 0.27-0.27 0.63-0.27h1.71q0.36 0 0.585 0.27 0.27 0.225 0.27 0.585v18.765q0 1.935 0.585 3.6t1.665 2.925q1.08 1.215 2.655 1.935 1.575 0.675 3.555 0.675t3.555-0.675q1.62-0.72 2.7-1.935 1.125-1.215 1.71-2.835 0.585-1.665 0.585-3.6v-18.855q0-0.36 0.225-0.585 0.27-0.27 0.63-0.27h1.71q0.36 0 0.585 0.27 0.27 0.225 0.27 0.585v19.035q0 2.565-0.9 4.77-0.855 2.205-2.43 3.825t-3.78 2.565q-2.205 0.9-4.86 0.9t-4.86-0.9q-2.16-0.945-3.735-2.565t-2.43-3.825-0.855-4.77z"/>
     <path d="m95.873-30.645q0-0.36 0.225-0.585 0.225-0.27 0.585-0.27h10.08q3.24 0 6.12 1.26 2.88 1.215 5.04 3.375 2.16 2.115 3.375 4.995 1.26 2.835 1.26 6.075 0 3.285-1.26 6.165-1.215 2.88-3.375 5.04-2.16 2.115-5.04 3.375-2.88 1.215-6.12 1.215h-10.08q-0.36 0-0.585-0.225-0.225-0.27-0.225-0.63zm10.17 27.54q2.745 0 5.085-0.945t4.05-2.61q1.71-1.71 2.655-4.005 0.945-2.34 0.945-5.13 0-2.745-0.945-5.085t-2.655-4.005-4.05-2.61-5.085-0.945h-6.75v25.335z"/>
     <path d="m133.95-30.645q0-0.36 0.225-0.585 0.27-0.27 0.63-0.27h17.73q0.36 0 0.585 0.27 0.27 0.225 0.27 0.585v1.305q0 0.36-0.27 0.63-0.225 0.225-0.585 0.225h-15.12v10.98h12.915q0.36 0 0.585 0.27 0.27 0.225 0.27 0.585v1.305q0 0.36-0.27 0.63-0.225 0.225-0.585 0.225h-12.915v11.475h15.12q0.36 0 0.585 0.27 0.27 0.225 0.27 0.585v1.305q0 0.36-0.27 0.63-0.225 0.225-0.585 0.225h-17.73q-0.36 0-0.63-0.225-0.225-0.27-0.225-0.63z"/>
     <path d="m165.08-31.14q0-0.36 0.225-0.585 0.27-0.225 0.63-0.225h1.125l20.295 25.29h0.09v-23.985q0-0.36 0.225-0.585 0.27-0.27 0.63-0.27h1.575q0.36 0 0.585 0.27 0.27 0.225 0.27 0.585v30.285q0 0.36-0.27 0.585-0.225 0.225-0.585 0.225h-0.81l-20.655-25.785h-0.045v24.48q0 0.36-0.27 0.63-0.225 0.225-0.585 0.225h-1.575q-0.36 0-0.63-0.225-0.225-0.27-0.225-0.63z"/>
     <path d="m208.84-28.485h-7.83q-0.36 0-0.63-0.225-0.225-0.27-0.225-0.63v-1.305q0-0.36 0.225-0.585 0.27-0.27 0.63-0.27h19.08q0.36 0 0.585 0.27 0.27 0.225 0.27 0.585v1.305q0 0.36-0.27 0.63-0.225 0.225-0.585 0.225h-7.83v27.63q0 0.36-0.27 0.63-0.225 0.225-0.585 0.225h-1.71q-0.36 0-0.63-0.225-0.225-0.27-0.225-0.63z"/>
     <path d="m230.42-30.645q0-0.36 0.225-0.585 0.27-0.27 0.63-0.27h1.8q0.36 0 0.585 0.27 0.27 0.225 0.27 0.585v29.79q0 0.36-0.27 0.63-0.225 0.225-0.585 0.225h-1.8q-0.36 0-0.63-0.225-0.225-0.27-0.225-0.63z"/>
     <path d="m262.09-30.645q0-0.36 0.225-0.585 0.27-0.27 0.63-0.27h1.755q0.36 0 0.585 0.27 0.27 0.225 0.27 0.585v27.63h12.96q0.36 0 0.585 0.27 0.27 0.225 0.27 0.585v1.305q0 0.36-0.27 0.63-0.225 0.225-0.585 0.225h-15.57q-0.36 0-0.63-0.225-0.225-0.27-0.225-0.63z"/>
     <path d="m285.92-15.705q0-3.375 1.26-6.345 1.305-2.97 3.465-5.13 2.205-2.205 5.175-3.465 2.97-1.305 6.345-1.305 3.42 0 5.985 1.125 2.61 1.08 4.905 3.06 0.27 0.27 0.27 0.63 0.045 0.36-0.225 0.63-0.315 0.315-0.675 0.63-0.315 0.315-0.585 0.63-0.315 0.36-0.585 0.36-0.225-0.045-0.585-0.405-1.71-1.53-4.005-2.52-2.25-0.99-4.545-0.99-2.655 0-4.95 1.035t-4.005 2.835q-1.665 1.755-2.61 4.095t-0.945 4.95 0.945 4.995q0.945 2.34 2.61 4.14 1.71 1.755 4.005 2.835 2.295 1.035 4.95 1.035 1.89 0 3.375-0.27 1.485-0.315 2.52-0.675 1.215-0.405 2.205-0.945v-6.3h-5.175q-0.36 0-0.63-0.225-0.225-0.225-0.225-0.585v-1.665q0-0.855 0.855-0.855h7.785q0.36 0 0.585 0.27 0.225 0.225 0.225 0.585v10.305q0 0.45-0.36 0.72-1.35 0.855-3.105 1.485-1.485 0.585-3.555 1.035-2.025 0.45-4.455 0.45-3.375 0-6.345-1.26t-5.175-3.42q-2.16-2.205-3.465-5.13-1.26-2.97-1.26-6.345z"/>
     <path d="m325.67-30.645q0-0.36 0.225-0.585 0.27-0.27 0.63-0.27h9.855q2.07 0 3.735 0.63 1.71 0.63 2.925 1.755 1.215 1.08 1.89 2.61t0.675 3.285q0 1.305-0.405 2.43-0.36 1.125-0.99 2.025t-1.44 1.62q-0.765 0.675-1.575 1.125 0.9 0.36 1.845 0.99 0.945 0.585 1.71 1.485 0.81 0.9 1.305 2.115 0.54 1.215 0.54 2.745 0 1.89-0.72 3.51-0.72 1.575-2.025 2.745-1.26 1.125-3.105 1.8-1.8 0.63-3.96 0.63h-10.26q-0.36 0-0.63-0.225-0.225-0.27-0.225-0.63zm10.71 13.275q2.61 0 4.005-1.62t1.395-4.005q0-2.43-1.395-3.915t-4.005-1.485h-7.335v11.025zm0.765 14.355q1.215 0 2.25-0.405 1.08-0.45 1.8-1.215 0.765-0.81 1.17-1.845 0.45-1.035 0.45-2.25t-0.54-2.205q-0.495-1.035-1.395-1.755-0.855-0.765-2.025-1.17t-2.475-0.405h-7.425v11.25z"/>
     <path d="m362.75-28.485h-7.83q-0.36 0-0.63-0.225-0.225-0.27-0.225-0.63v-1.305q0-0.36 0.225-0.585 0.27-0.27 0.63-0.27h19.08q0.36 0 0.585 0.27 0.27 0.225 0.27 0.585v1.305q0 0.36-0.27 0.63-0.225 0.225-0.585 0.225h-7.83v27.63q0 0.36-0.27 0.63-0.225 0.225-0.585 0.225h-1.71q-0.36 0-0.63-0.225-0.225-0.27-0.225-0.63z"/>
    </g>
    <path d="m384.74-30.645q0-0.36 0.225-0.585 0.27-0.27 0.63-0.27h1.8q0.36 0 0.585 0.27 0.27 0.225 0.27 0.585v29.79q0 0.36-0.27 0.63-0.225 0.225-0.585 0.225h-1.8q-0.36 0-0.63-0.225-0.225-0.27-0.225-0.63z"/>
    <path d="m404.82-14.13h-7.065q-0.36 0-0.63-0.225-0.225-0.27-0.225-0.63v-1.26q0-0.36 0.225-0.585 0.27-0.27 0.63-0.27h7.065v-7.11q0-0.36 0.225-0.585 0.27-0.225 0.63-0.225h1.26q0.36 0 0.585 0.225 0.27 0.225 0.27 0.585v7.11h7.11q0.36 0 0.585 0.27 0.225 0.225 0.225 0.585v1.26q0 0.36-0.225 0.63-0.225 0.225-0.585 0.225h-7.11v7.065q0 0.36-0.27 0.585-0.225 0.225-0.585 0.225h-1.26q-0.36 0-0.63-0.225-0.225-0.225-0.225-0.585z"/>
    <path d="m2.98 19.57q0-0.24 0.15-0.39 0.18-0.18 0.42-0.18h6.84q1.38 0 2.61 0.54 1.23 0.51 2.13 1.41 0.93 0.9 1.44 2.13 0.54 1.2 0.54 2.55 0 1.41-0.54 2.64-0.51 1.2-1.44 2.13-0.9 0.93-2.13 1.47-1.2 0.51-2.58 0.51h-4.35v7.05q0 0.24-0.18 0.42-0.15 0.15-0.39 0.15h-1.95q-0.24 0-0.42-0.15-0.15-0.18-0.15-0.42zm7.23 9.87q0.78 0 1.47-0.3t1.2-0.81q0.54-0.51 0.84-1.2 0.3-0.72 0.3-1.53 0-0.75-0.3-1.41t-0.84-1.14q-0.51-0.51-1.2-0.78t-1.47-0.27h-4.14v7.44z"/>
    <path d="m22.262 29.53q0-2.25 0.84-4.23t2.28-3.42q1.47-1.47 3.42-2.31 1.98-0.87 4.23-0.87t4.2 0.87q1.98 0.84 3.45 2.31 1.47 1.44 2.31 3.42t0.84 4.23-0.84 4.23q-0.84 1.95-2.31 3.42-1.47 1.44-3.45 2.28-1.95 0.84-4.2 0.84t-4.23-0.84q-1.95-0.84-3.42-2.28-1.44-1.47-2.28-3.42-0.84-1.98-0.84-4.23zm3 0q0 1.62 0.6 3.03 0.63 1.41 1.68 2.46t2.46 1.68q1.44 0.6 3.03 0.6 1.62 0 3.03-0.6 1.41-0.63 2.46-1.68 1.08-1.05 1.68-2.46 0.63-1.41 0.63-3.03 0-1.59-0.63-3-0.6-1.44-1.68-2.49-1.05-1.08-2.46-1.71t-3.03-0.63q-1.59 0-3.03 0.63-1.41 0.63-2.46 1.71-1.05 1.05-1.68 2.49-0.6 1.41-0.6 3z"/>
    <path d="m51.109 19.57q0-0.24 0.15-0.39 0.18-0.18 0.42-0.18h1.98q0.24 0 0.39 0.18 0.18 0.15 0.18 0.39v17.64h8.13q0.24 0 0.39 0.18 0.18 0.15 0.18 0.39v1.65q0 0.24-0.18 0.42-0.15 0.15-0.39 0.15h-10.68q-0.24 0-0.42-0.15-0.15-0.18-0.15-0.42z"/>
    <path d="m69.05 19.57q0-0.24 0.15-0.39 0.18-0.18 0.42-0.18h1.98q0.24 0 0.39 0.18 0.18 0.15 0.18 0.39v19.86q0 0.24-0.18 0.42-0.15 0.15-0.39 0.15h-1.98q-0.24 0-0.42-0.15-0.15-0.18-0.15-0.42z"/>
    <path d="m83.895 21.82h-4.89q-0.24 0-0.42-0.15-0.15-0.18-0.15-0.42v-1.68q0-0.24 0.15-0.39 0.18-0.18 0.42-0.18h12.9q0.24 0 0.39 0.18 0.18 0.15 0.18 0.39v1.68q0 0.24-0.18 0.42-0.15 0.15-0.39 0.15h-4.89v17.61q0 0.24-0.18 0.42-0.15 0.15-0.39 0.15h-1.98q-0.24 0-0.42-0.15-0.15-0.18-0.15-0.42z"/>
    <path d="m98.29 19.57q0-0.24 0.15-0.39 0.18-0.18 0.42-0.18h12q0.24 0 0.39 0.18 0.18 0.15 0.18 0.39v1.68q0 0.24-0.18 0.42-0.15 0.15-0.39 0.15h-9.48v6.12h8.01q0.24 0 0.39 0.18 0.18 0.15 0.18 0.39v1.68q0 0.24-0.18 0.42-0.15 0.15-0.39 0.15h-8.01v6.45h9.48q0.24 0 0.39 0.18 0.18 0.15 0.18 0.39v1.65q0 0.24-0.18 0.42-0.15 0.15-0.39 0.15h-12q-0.24 0-0.42-0.15-0.15-0.18-0.15-0.42z"/>
    <path d="m117.25 29.53q0-2.25 0.84-4.23 0.87-1.98 2.31-3.42 1.47-1.47 3.45-2.31 1.98-0.87 4.23-0.87 2.28 0 3.99 0.72 1.74 0.72 3.27 2.07 0.45 0.42 0.03 0.84l-1.32 1.35q-0.33 0.42-0.75 0-1.05-0.93-2.43-1.47-1.35-0.54-2.76-0.54-1.62 0-3 0.63-1.35 0.63-2.37 1.71-1.02 1.05-1.59 2.49-0.57 1.41-0.57 2.97 0 1.59 0.57 3 0.6 1.41 1.59 2.46 1.02 1.05 2.4 1.68t3 0.63q1.65 0 2.85-0.57 1.23-0.57 2.31-1.41 0.39-0.3 0.72-0.03l1.38 1.35q0.18 0.15 0.15 0.42-0.03 0.24-0.18 0.39-1.53 1.5-3.42 2.22-1.86 0.69-3.87 0.69-2.25 0-4.23-0.84t-3.45-2.28q-1.44-1.47-2.31-3.42-0.84-1.98-0.84-4.23z"/>
    <path d="m142.64 19.24q0-0.24 0.15-0.39 0.18-0.15 0.42-0.15h0.75l13.02 15.06h0.03v-14.19q0-0.24 0.15-0.39 0.18-0.18 0.42-0.18h1.92q0.24 0 0.39 0.18 0.18 0.15 0.18 0.39v20.19q0 0.24-0.18 0.39-0.15 0.15-0.39 0.15h-0.78l-13.02-15.48h-0.03v14.61q0 0.24-0.18 0.42-0.15 0.15-0.39 0.15h-1.89q-0.24 0-0.42-0.15-0.15-0.18-0.15-0.42z"/>
    <path d="m168.9 19.57q0-0.24 0.15-0.39 0.18-0.18 0.42-0.18h1.98q0.24 0 0.39 0.18 0.18 0.15 0.18 0.39v19.86q0 0.24-0.18 0.42-0.15 0.15-0.39 0.15h-1.98q-0.24 0-0.42-0.15-0.15-0.18-0.15-0.42z"/>
    <path d="m179.05 29.53q0-2.25 0.84-4.23 0.87-1.98 2.31-3.42 1.47-1.47 3.45-2.31 1.98-0.87 4.23-0.87 2.28 0 3.99 0.72 1.74 0.72 3.27 2.07 0.45 0.42 0.03 0.84l-1.32 1.35q-0.33 0.42-0.75 0-1.05-0.93-2.43-1.47-1.35-0.54-2.76-0.54-1.62 0-3 0.63-1.35 0.63-2.37 1.71-1.02 1.05-1.59 2.49-0.57 1.41-0.57 2.97 0 1.59 0.57 3 0.6 1.41 1.59 2.46 1.02 1.05 2.4 1.68t3 0.63q1.65 0 2.85-0.57 1.23-0.57 2.31-1.41 0.39-0.3 0.72-0.03l1.38 1.35q0.18 0.15 0.15 0.42-0.03 0.24-0.18 0.39-1.53 1.5-3.42 2.22-1.86 0.69-3.87 0.69-2.25 0-4.23-0.84t-3.45-2.28q-1.44-1.47-2.31-3.42-0.84-1.98-0.84-4.23z"/>
    <path d="m202.75 29.53q0-2.25 0.84-4.23t2.28-3.42q1.47-1.47 3.42-2.31 1.98-0.87 4.23-0.87t4.2 0.87q1.98 0.84 3.45 2.31 1.47 1.44 2.31 3.42t0.84 4.23-0.84 4.23q-0.84 1.95-2.31 3.42-1.47 1.44-3.45 2.28-1.95 0.84-4.2 0.84t-4.23-0.84q-1.95-0.84-3.42-2.28-1.44-1.47-2.28-3.42-0.84-1.98-0.84-4.23zm3 0q0 1.62 0.6 3.03 0.63 1.41 1.68 2.46t2.46 1.68q1.44 0.6 3.03 0.6 1.62 0 3.03-0.6 1.41-0.63 2.46-1.68 1.08-1.05 1.68-2.46 0.63-1.41 0.63-3.03 0-1.59-0.63-3-0.6-1.44-1.68-2.49-1.05-1.08-2.46-1.71t-3.03-0.63q-1.59 0-3.03 0.63-1.41 0.63-2.46 1.71-1.05 1.05-1.68 2.49-0.6 1.41-0.6 3z"/>
    <path d="m241.22 19.57q0-0.24 0.15-0.39 0.15-0.18 0.39-0.18h6.9q2.16 0 4.08 0.84 1.92 0.81 3.36 2.25 1.44 1.41 2.25 3.33 0.84 1.89 0.84 4.05 0 2.19-0.84 4.11-0.81 1.92-2.25 3.36-1.44 1.41-3.36 2.25-1.92 0.81-4.08 0.81h-6.9q-0.24 0-0.39-0.15-0.15-0.18-0.15-0.42zm7.02 17.58q1.65 0 3.03-0.57 1.41-0.57 2.43-1.59 1.02-1.05 1.59-2.43 0.57-1.41 0.57-3.09 0-1.65-0.57-3.03-0.57-1.41-1.59-2.43t-2.43-1.59q-1.38-0.57-3.03-0.57h-3.96v15.3z"/>
    <path d="m266.48 19.57q0-0.24 0.15-0.39 0.18-0.18 0.42-0.18h1.98q0.24 0 0.39 0.18 0.18 0.15 0.18 0.39v19.86q0 0.24-0.18 0.42-0.15 0.15-0.39 0.15h-1.98q-0.24 0-0.42-0.15-0.15-0.18-0.15-0.42z"/>
    <path d="m290.35 19.15q0.06-0.18 0.21-0.3 0.15-0.15 0.33-0.15h0.48q0.15 0 0.3 0.09t0.21 0.24l6.27 15.33h0.12l6.24-15.33q0.12-0.33 0.51-0.33h0.48q0.18 0 0.33 0.15 0.15 0.12 0.21 0.3l3.69 20.16q0.15 0.69-0.54 0.69h-1.95q-0.21 0-0.36-0.12-0.15-0.15-0.21-0.3l-2.22-13.41h-0.09l-5.4 13.8q-0.12 0.33-0.51 0.33h-0.54q-0.39 0-0.51-0.33l-5.43-13.8h-0.12l-2.16 13.41q-0.03 0.15-0.21 0.3-0.15 0.12-0.33 0.12h-1.95q-0.66 0-0.57-0.69z"/>
    <path d="m317.14 19.57q0-0.24 0.15-0.39 0.18-0.18 0.42-0.18h1.98q0.24 0 0.39 0.18 0.18 0.15 0.18 0.39v19.86q0 0.24-0.18 0.42-0.15 0.15-0.39 0.15h-1.98q-0.24 0-0.42-0.15-0.15-0.18-0.15-0.42z"/>
    <path d="m328.41 19.57q0-0.24 0.15-0.39 0.18-0.18 0.42-0.18h1.98q0.24 0 0.39 0.18 0.18 0.15 0.18 0.39v17.64h8.13q0.24 0 0.39 0.18 0.18 0.15 0.18 0.39v1.65q0 0.24-0.18 0.42-0.15 0.15-0.39 0.15h-10.68q-0.24 0-0.42-0.15-0.15-0.18-0.15-0.42z"/>
    <path d="m344.91 40q-0.33 0-0.51-0.24-0.15-0.24 0-0.54l9.21-20.19q0.06-0.15 0.21-0.24 0.18-0.09 0.3-0.09h0.3q0.12 0 0.27 0.09 0.18 0.09 0.24 0.24l9.15 20.19q0.15 0.3-0.03 0.54-0.15 0.24-0.48 0.24h-1.89q-0.48 0-0.69-0.45l-1.86-4.11h-9.81q-0.45 1.05-0.93 2.07-0.45 0.99-0.9 2.04-0.06 0.15-0.24 0.3t-0.45 0.15zm13.08-7.14-3.69-8.22h-0.15l-3.66 8.22z"/>
    <path d="m370.08 19.24q0-0.24 0.15-0.39 0.18-0.15 0.42-0.15h0.75l13.02 15.06h0.03v-14.19q0-0.24 0.15-0.39 0.18-0.18 0.42-0.18h1.92q0.24 0 0.39 0.18 0.18 0.15 0.18 0.39v20.19q0 0.24-0.18 0.39-0.15 0.15-0.39 0.15h-0.78l-13.02-15.48h-0.03v14.61q0 0.24-0.18 0.42-0.15 0.15-0.39 0.15h-1.89q-0.24 0-0.42-0.15-0.15-0.18-0.15-0.42z"/>
    <path d="m394.82 29.53q0-2.25 0.84-4.23t2.28-3.42q1.47-1.47 3.42-2.31 1.98-0.87 4.23-0.87t4.2 0.87q1.98 0.84 3.45 2.31 1.47 1.44 2.31 3.42t0.84 4.23-0.84 4.23q-0.84 1.95-2.31 3.42-1.47 1.44-3.45 2.28-1.95 0.84-4.2 0.84t-4.23-0.84q-1.95-0.84-3.42-2.28-1.44-1.47-2.28-3.42-0.84-1.98-0.84-4.23zm3 0q0 1.62 0.6 3.03 0.63 1.41 1.68 2.46t2.46 1.68q1.44 0.6 3.03 0.6 1.62 0 3.03-0.6 1.41-0.63 2.46-1.68 1.08-1.05 1.68-2.46 0.63-1.41 0.63-3.03 0-1.59-0.63-3-0.6-1.44-1.68-2.49-1.05-1.08-2.46-1.71t-3.03-0.63q-1.59 0-3.03 0.63-1.41 0.63-2.46 1.71-1.05 1.05-1.68 2.49-0.6 1.41-0.6 3z"/>
   </g>
   <g transform="translate(525.5,266.17)" aria-label="POLIEDRO">
    <path d="m6.79-47.67q0-0.56 0.35-0.91 0.42-0.42 0.98-0.42h15.96q3.22 0 6.09 1.26 2.87 1.19 4.97 3.29 2.17 2.1 3.36 4.97 1.26 2.8 1.26 5.95 0 3.29-1.26 6.16-1.19 2.8-3.36 4.97-2.1 2.17-4.97 3.43-2.8 1.19-6.02 1.19h-10.15v16.45q0 0.56-0.42 0.98-0.35 0.35-0.91 0.35h-4.55q-0.56 0-0.98-0.35-0.35-0.42-0.35-0.98zm16.87 23.03q1.82 0 3.43-0.7t2.8-1.89q1.26-1.19 1.96-2.8 0.7-1.68 0.7-3.57 0-1.75-0.7-3.29t-1.96-2.66q-1.19-1.19-2.8-1.82t-3.43-0.63h-9.66v17.36z"/>
    <path d="m54.582-24.43q0-5.25 1.96-9.87t5.32-7.98q3.43-3.43 7.98-5.39 4.62-2.03 9.87-2.03t9.8 2.03q4.62 1.96 8.05 5.39 3.43 3.36 5.39 7.98t1.96 9.87-1.96 9.87q-1.96 4.55-5.39 7.98-3.43 3.36-8.05 5.32-4.55 1.96-9.8 1.96t-9.87-1.96q-4.55-1.96-7.98-5.32-3.36-3.43-5.32-7.98-1.96-4.62-1.96-9.87zm7 0q0 3.78 1.4 7.07 1.47 3.29 3.92 5.74t5.74 3.92q3.36 1.4 7.07 1.4 3.78 0 7.07-1.4 3.29-1.47 5.74-3.92 2.52-2.45 3.92-5.74 1.47-3.29 1.47-7.07 0-3.71-1.47-7-1.4-3.36-3.92-5.81-2.45-2.52-5.74-3.99t-7.07-1.47q-3.71 0-7.07 1.47-3.29 1.47-5.74 3.99-2.45 2.45-3.92 5.81-1.4 3.29-1.4 7z"/>
    <path d="m124.69-47.67q0-0.56 0.35-0.91 0.42-0.42 0.98-0.42h4.62q0.56 0 0.91 0.42 0.42 0.35 0.42 0.91v41.16h18.97q0.56 0 0.91 0.42 0.42 0.35 0.42 0.91v3.85q0 0.56-0.42 0.98-0.35 0.35-0.91 0.35h-24.92q-0.56 0-0.98-0.35-0.35-0.42-0.35-0.98z"/>
    <path d="m169.35-47.67q0-0.56 0.35-0.91 0.42-0.42 0.98-0.42h4.62q0.56 0 0.91 0.42 0.42 0.35 0.42 0.91v46.34q0 0.56-0.42 0.98-0.35 0.35-0.91 0.35h-4.62q-0.56 0-0.98-0.35-0.35-0.42-0.35-0.98z"/>
    <path d="m200.07-47.67q0-0.56 0.35-0.91 0.42-0.42 0.98-0.42h28q0.56 0 0.91 0.42 0.42 0.35 0.42 0.91v3.92q0 0.56-0.42 0.98-0.35 0.35-0.91 0.35h-22.12v14.28h18.69q0.56 0 0.91 0.42 0.42 0.35 0.42 0.91v3.92q0 0.56-0.42 0.98-0.35 0.35-0.91 0.35h-18.69v15.05h22.12q0.56 0 0.91 0.42 0.42 0.35 0.42 0.91v3.85q0 0.56-0.42 0.98-0.35 0.35-0.91 0.35h-28q-0.56 0-0.98-0.35-0.35-0.42-0.35-0.98z"/>
    <path d="m251.16-47.67q0-0.56 0.35-0.91 0.35-0.42 0.91-0.42h16.1q5.04 0 9.52 1.96 4.48 1.89 7.84 5.25 3.36 3.29 5.25 7.77 1.96 4.41 1.96 9.45 0 5.11-1.96 9.59-1.89 4.48-5.25 7.84-3.36 3.29-7.84 5.25-4.48 1.89-9.52 1.89h-16.1q-0.56 0-0.91-0.35-0.35-0.42-0.35-0.98zm16.38 41.02q3.85 0 7.07-1.33 3.29-1.33 5.67-3.71 2.38-2.45 3.71-5.67 1.33-3.29 1.33-7.21 0-3.85-1.33-7.07-1.33-3.29-3.71-5.67t-5.67-3.71q-3.22-1.33-7.07-1.33h-9.24v35.7z"/>
    <path d="m312.91-47.67q0-0.56 0.35-0.91 0.42-0.42 0.98-0.42h19.04q3.15 0 5.88 1.19 2.8 1.12 4.9 3.15t3.29 4.76 1.19 5.88q0 2.45-0.77 4.62t-2.17 3.99q-1.33 1.82-3.22 3.29-1.89 1.4-4.2 2.31l9.59 17.78q0.35 0.7 0 1.4-0.28 0.63-1.19 0.63h-5.46q-0.42 0-0.7-0.21t-0.42-0.42l-9.31-18.55h-10.57v17.85q0 0.56-0.42 0.98-0.35 0.35-0.91 0.35h-4.55q-0.56 0-0.98-0.35-0.35-0.42-0.35-0.98zm19.81 22.47q1.68 0 3.22-0.63 1.61-0.7 2.73-1.89 1.19-1.19 1.89-2.73 0.7-1.61 0.7-3.43 0-1.68-0.7-3.22t-1.89-2.66q-1.12-1.12-2.73-1.75-1.54-0.7-3.22-0.7h-12.46v17.01z"/>
    <path d="m365.63-24.43q0-5.25 1.96-9.87t5.32-7.98q3.43-3.43 7.98-5.39 4.62-2.03 9.87-2.03t9.8 2.03q4.62 1.96 8.05 5.39 3.43 3.36 5.39 7.98t1.96 9.87-1.96 9.87q-1.96 4.55-5.39 7.98-3.43 3.36-8.05 5.32-4.55 1.96-9.8 1.96t-9.87-1.96q-4.55-1.96-7.98-5.32-3.36-3.43-5.32-7.98-1.96-4.62-1.96-9.87zm7 0q0 3.78 1.4 7.07 1.47 3.29 3.92 5.74t5.74 3.92q3.36 1.4 7.07 1.4 3.78 0 7.07-1.4 3.29-1.47 5.74-3.92 2.52-2.45 3.92-5.74 1.47-3.29 1.47-7.07 0-3.71-1.47-7-1.4-3.36-3.92-5.81-2.45-2.52-5.74-3.99t-7.07-1.47q-3.71 0-7.07 1.47-3.29 1.47-5.74 3.99-2.45 2.45-3.92 5.81-1.4 3.29-1.4 7z"/>
   </g>
   <path transform="rotate(90,560.65,291.55)" d="m557.34 261.96h6.62v59.18h-6.62z"/>
  </g>
  <path d="m574.37 625.98v6.62h-59.18v-6.62z" fill="#f2f2f2"/>
  <path d="m645.36 625.99v6.62h-59.18v-6.62z" fill="#e6e6e6"/>
  <path d="m716.39 625.98v6.62h-59.18v-6.62z" fill="#ccc"/>
  <path d="m787.29 625.98v6.62h-59.18v-6.62z" fill="#b3b3b3"/>
  <path d="m858.29 625.98v6.62h-59.18v-6.62z" fill="#999"/>
  <path d="m156.75 400-94.5 42.43 34.15 105.12h120.58l34.17-105.16z" fill="#fff"/>
  <path d="m216.98 547.55 37.26 114.68h90.43l10.42-96.15-64.95-71.68z" fill="#f2f2f2"/>
  <path d="m254.24 662.23-97.55 70.87 21.73 66.9 87.95-18.4 44.77-78.03z" fill="#e6e6e6"/>
  <path d="m59.14 662.23 37.26-114.68-40.64-29.53-55.76 61.54 8.91 82.67z" fill="#b3b3b3"/>
  <path d="m156.69 733.1-97.55-70.87-40.64 29.53 41.29 72.04 81.38 17.08z" fill="#ccc"/>
 </g>
 </a>

 <a href="https://milanopride.it" target="_blank" rel="noopener">
 <path d="m1111.7 342.74c-4.4767-4.9553-7.8425-12.19-9.6587-20.762-5.4936-25.929 6.0634-71.626 32.754-129.51 6.7245-14.583 24.904-49.554 27.667-53.22 1.1486-1.5242 0.1571 4.2114-3.5418 20.49-2.8253 12.434-13.521 59.59-23.769 104.79-10.248 45.202-18.907 82.186-19.243 82.187-0.336 9.2e-4 -2.2297-1.7899-4.2081-3.9798zm-82.119 0.53429c-6.7231-9.5364-8.5192-16.901-8.4459-34.634 0.049-11.913 0.5251-16.669 2.7016-26.994 3.0749-14.586 12.547-43.55 20.336-62.183 5.8311-13.949 28.446-60.129 29.118-59.457 0.3871 0.38705-39.423 178.93-40.971 183.75l-0.7507 2.337zm135.02 0.518c-20.01-12.82-20.904-73.056-2.3967-161.45 2.1094-10.075 4.8411-22.439 6.0704-27.476l2.2352-9.1586 0.3062 11.087c0.1685 6.0978-0.1593 46.444-0.7276 89.659-0.5693 43.215-1.0328 83.236-1.0294 88.936 0 5.7002-0.32 10.357-0.7184 10.348-0.3974-6e-3 -2.0805-0.8859-3.7397-1.9489zm30.493-50.634v-52.599l37.276 0.59715 4.6384 2.8922c3.2005 1.9956 5.5426 4.4999 7.5554 8.0788 2.5877 4.6004 2.967 6.3016 3.3561 15.054 0.5376 12.082-1.0293 17.754-6.3281 22.918-5.2927 5.1572-9.8315 6.7084-21.191 7.243l-9.8818 0.46445v47.951h-15.425zm31.546-9.7497c4.6788-2.2203 6.3466-6.5424 5.8706-15.215-0.6536-11.914-3.7505-15.068-15.484-15.776l-6.5076-0.39286v32.996h6.3619c3.9491 0 7.6503-0.61147 9.7594-1.6122zm30.154 9.7272v-52.622l16.63 0.33465c14.974 0.30207 17.134 0.56166 21.684 2.605 10.572 4.7491 15.407 14.205 14.445 28.25-0.3326 4.8477-1.2569 9.0405-2.6099 11.835-1.9764 4.0828-6.1522 8.5073-8.8908 9.4202-0.9019 0.3009 0.4235 5.5709 4.9299 19.615 3.3893 10.562 7.1481 22.349 8.3528 26.193l2.1905 6.9895-15.758-0.0246-7.3501-23.85-7.35-23.85-10.848-0.57853v48.3h-15.425zm29.581-9.9886c5.4358-2.4678 7.4614-6.4328 7.5031-14.686 0.057-10.2-4.6532-15.118-15.277-15.971l-6.3823-0.51217v33.043l5.0614-0.0233c2.8705-0.0123 6.8072-0.81412 9.0947-1.8524zm35.976 10.068v-52.542h15.425v105.08h-15.425zm31.814-0.0123v-52.675l18.558 0.31429c20.919 0.35386 23.704 1.1239 29.491 8.1446 4.9198 5.9688 5.457 10.227 5.457 43.266 0 25.573-0.2404 30.66-1.6619 35.25-2.3014 7.4278-6.4079 12.729-11.99 15.477-4.3104 2.1222-6.0065 2.32-22.26 2.5978l-17.594 0.30033zm32.813 38.574c4.5203-4.0305 4.7856-6.1652 4.7856-38.51 0-25.421-0.2479-31-1.5211-34.181-1.9841-4.9588-5.9181-6.8424-14.291-6.8424h-6.3619v82.151l7.6145-0.34629c5.916-0.26889 8.0959-0.77547 9.7738-2.2712zm33.708-38.56v-52.541h40.491v11.569h-25.066v32.779h18.318v12.533h-18.318v36.635h25.066v11.569h-40.491zm-443.48 46.569c-3.0661-7.0786-3.7112-20.676-1.504-31.7 6.7878-33.905 32.595-83.873 72.479-140.34 14.348-20.312 30.5-41.876 30.996-41.38 0.3825 0.38239-97.932 216.49-99.064 217.76-0.3811 0.42604-1.6896-1.526-2.9077-4.3383zm79.035 2.0845c-3.2881-4.6178-5.7609-13.762-5.7609-21.303 0-30.227 25.535-79.425 72.49-139.66 10.313-13.231 17.57-21.532 16.857-19.281-0.542 1.7078-80.736 182.55-81.145 182.99-0.154 0.16297-1.252-1.0703-2.441-2.7396zm-127.82-2.2893c-0.35464-0.92464-0.40946-6.5281-0.12165-12.453 1.5544-32.01 23.672-72.007 66.848-120.88 12.119-13.719 56.128-57.643 56.941-56.831 0.3734 0.37366-120.1 188.6-122.23 190.96-0.4609 0.51217-1.0666 0.17752-1.4403-0.79597zm502.36-107.96c-3.8139-1.6618-8.6057-7.1955-10.244-11.83-0.9793-2.77-1.3071-10.368-1.3071-30.278 0.1752-11.56 0.4156-28.022 2.0143-30.714 1.7836-7.9262 9.6248-12.083 19.677-12.049 9.8559 0.0349 14.684 2.8054 18.686 10.728 2.3341 4.6196 2.3312 60.561 0 65.171-3.8234 7.5506-8.9333 10.332-18.886 10.278-3.8654-0.0232-8.3376-0.60803-9.9382-1.3058zm17.592-6.9316c5.1185-3.296 5.54-5.6591 5.8623-32.862 0.3277-27.671-0.1248-31.184-4.5767-35.448-5.8603-5.6144-16.981-3.8194-20.546 3.3163-1.4809 2.9647-1.6857 6.5669-1.6871 29.676 0 26.372 0.2752 28.94 3.6453 33.776 2.5926 3.7202 12.542 4.6074 17.302 1.5428zm-253.29-34.677v-41.988l10.083-0.20138 7.3035 34.045c3.9321 18.329 7.6071 34.072 7.8037 35.064 8.3872-32.337 15.84-68.652 15.84-68.652l10.065-0.15368v83.874h-6.7225l-0.2539-31.864-0.254-31.864-7.2912 31.623-7.2912 31.622-3.5026 0.29625c-4.1266 0.34864-2.77 4.2958-11.45-33.316-3.3347-14.449-6.4047-26.271-6.8223-26.271-0.418 0-0.7595 13.449-0.7595 29.886v29.886h-6.7485zm64.593 0.0465v-41.937h7.7127v83.874h-7.7127zm22.174 0v-41.937h7.7125v77.126h23.138v6.7484h-30.85zm33.785 40.25c0.023-0.92803 3.6077-19.691 7.9648-41.696l7.9216-40.009 10.583-0.55524 7.983 40.769c4.3906 22.423 7.9696 41.311 7.9536 41.974-0.023 0.75384-1.4436 1.2051-3.8091 1.2051-3.3541 0-3.8382-0.29857-4.3011-2.6511-0.2871-1.4582-1.2485-6.4473-2.1368-11.087l-1.6151-8.4356h-18.684l-1.1959 6.5075c-3.0006 16.328-2.7078 15.666-6.93 15.666-2.9702 0-3.7672-0.35967-3.7335-1.687zm29.014-25.763c0.6319-0.63195-7.1135-43.892-7.8584-43.892-0.6113 0-7.7778 39.561-7.7281 42.66 0.023 1.4609 1.0396 1.6872 7.579 1.6872 4.1535 0 7.7569-0.20487 8.0075-0.45572zm23.004-14.488v-41.937h6.3846l25.334 63.147 0.046-31.573 0.046-31.574h6.7487v83.874h-2.7959c-3.17 0-1.5351 3.3922-18.971-39.361l-9.5653-23.454-0.2538 31.408-0.2538 31.408h-6.722z" fill="#ffffff" stroke-width=".96407"/>
 </a>

<a href="/">
 <g class="cls-1" transform="matrix(.68901 0 0 .68901 266.25 446.73)" fill="#fff">
  <g data-name="Livello 2">
   <g id="HomePage_Fissa" data-name="HomePage Fissa">
    <g class="cls-2">
     <path class="cls-3" d="m6.16 92.36a4.23 4.23 0 0 1 3.4-4.26l43-6c19.62-2.8 36.44 13.2 39.34 33.9 3.66 26-13.73 51.41-39.17 55l-16 2.26v46.89a4.41 4.41 0 0 1-3.4 4.27l-23.89 3.38c-2 0.27-3.19-1.35-3.26-3.34zm44.71 49.79c6.85-1 12.4-9.73 11-19.7-1-6.85-5.62-11.58-10.9-10.84l-14.28 2 0.11 30.52zm115.71-78.15c30.33-4.27 58.45 19.72 63.2 53.57 6.19 44-21.29 84.2-62.38 90-30.13 4.23-58.39-19.33-63.12-53-6.21-44.19 21.6-84.82 62.3-90.57zm31.64 61.8c-2.58-18.39-15.69-32.11-31.34-29.91-19 2.67-34.48 25.79-31.07 50.06 2.56 18.2 15.66 31.93 31.12 29.75 19.36-2.7 34.7-25.61 31.29-49.87zm56-68.34a4.22 4.22 0 0 1 3.38-4.26l24.27-3.41c1.76-0.25 3.18 1.35 3.27 3.33v106.59l39.92-5.61c2-0.27 3.19 1.35 3.27 3.34l0.07 21.74a4.24 4.24 0 0 1-3.4 4.27l-67.31 9.46c-2 0.28-3.38-1.32-3.45-3.31zm92.15-13a4.2 4.2 0 0 1 3.19-4.23l24.46-3.44c1.76-0.25 3.18 1.36 3.27 3.34v132.17a4.21 4.21 0 0 1-3.2 4.24l-24.4 3.46c-1.77 0.25-3.19-1.35-3.27-3.34zm55.73 123.76 19.09-136.78c0.34-1.84 1.12-3.35 3.29-3.65l2.74-0.39a3 3 0 0 1 3 1.57l40.63 80.49 0.39-0.06 43.69-92.34a3.61 3.61 0 0 1 3.07-2.41l2.94-0.41a2.92 2.92 0 0 1 3 2.77l19.46 131.36a4.35 4.35 0 0 1-3.51 4.88l-24.07 3.38a3.21 3.21 0 0 1-3.37-2.72l-6.35-60.77h-0.39l-28.46 68.65a4.29 4.29 0 0 1-3 2.62l-3.13 0.44a3 3 0 0 1-3-1.77l-28.68-60.62-0.39 0.06-6 62.5a4.07 4.07 0 0 1-3.48 3.68l-24.07 3.38c-2.01 0.34-3.83-1.21-3.4-3.86zm166.19-154.85a4.21 4.21 0 0 1 3.19-4.24l24.46-3.44c1.76-0.25 3.19 1.31 3.26 3.31v132.11a4.21 4.21 0 0 1-3.2 4.24l-24.46 3.44c-1.77 0.25-3.19-1.35-3.26-3.34zm-562.63 246.51a4.23 4.23 0 0 1 3.4-4.27l43-6c19.56-2.75 36.38 13.24 39.29 34 3.66 26-13.73 51.42-39.16 55l-16.05 2.26v46.89a4.39 4.39 0 0 1-3.38 4.26l-23.82 3.28c-1.94 0.27-3.19-1.3-3.26-3.3zm44.71 49.79c6.85-1 12.41-9.73 11-19.71-1-6.85-5.62-11.58-10.9-10.84l-14.28 2 0.09 30.52zm61.73-64.75a4.2 4.2 0 0 1 3.19-4.23l52.83-7.42c20.56-2.89 36.78 11.79 39.62 31.94 2.94 20.93-6.52 40.23-25.8 49.31l24 47.31a4.19 4.19 0 0 1-2.94 6.17l-25.24 3.55a2.71 2.71 0 0 1-3-1.38l-23.33-49.61-8.61 1.21v50.89a4.19 4.19 0 0 1-3.19 4.23l-24.26 3.41a2.92 2.92 0 0 1-3.26-3.34zm52.11 48.55c9.2-1.29 14.64-10.84 13.32-20.23-1-6.85-5.29-12-12.32-11l-22.51 3.16v31.13zm69.59-65.65a4.19 4.19 0 0 1 3.19-4.23l24.46-3.43c1.76-0.25 3.18 1.35 3.26 3.33v132.07a4.18 4.18 0 0 1-3.19 4.23l-24.45 3.44c-1.77 0.25-3.19-1.34-3.27-3.33zm63.59-8.93a4.21 4.21 0 0 1 3.19-4.24l43.63-6.13c30.92-4.35 57.13 21.7 61.39 52 6 42.47-20 81.83-61.31 87.64l-43.84 6.16c-1.76 0.25-3.18-1.34-3.06-3.36zm45.37 100c20.15-2.84 34.09-25.74 30.49-51.38-2.58-18.39-14.63-31.67-30.47-29.44l-14.68 2.06v80.82zm87.24-118.66a4.21 4.21 0 0 1 3.19-4.23l73.81-10.37c2-0.27 3.38 1.32 3.45 3.3l-0.13 21.77a4 4 0 0 1-3.19 4.23l-46.57 6.54-0.11 24.77 38-5.34a3.25 3.25 0 0 1 3.45 3.3l-0.15 21.8a4.38 4.38 0 0 1-3.4 4.26l-37.76 5.31v26.94l46.57-6.54c2-0.27 3.19 1.35 3.27 3.33v21.75a4.2 4.2 0 0 1-3.38 4.26l-73.77 10.37a2.93 2.93 0 0 1-3.27-3.33z"/>
    </g>
    <path class="cls-4" d="m0.5 86.7a4.23 4.23 0 0 1 3.39-4.26l43-6c19.58-2.75 36.39 13.24 39.3 34 3.66 26-13.73 51.41-39.17 55l-16 2.26v46.89a4.41 4.41 0 0 1-3.4 4.27l-23.84 3.28c-2 0.27-3.19-1.35-3.26-3.34zm44.71 49.79c6.85-1 12.4-9.73 11-19.7-1-6.85-5.62-11.58-10.9-10.84l-14.31 2.05 0.11 30.52zm115.71-78.11c30.33-4.27 58.45 19.72 63.2 53.57 6.19 44-21.29 84.2-62.38 90-30.13 4.23-58.39-19.33-63.12-53-6.21-44.23 21.6-84.86 62.3-90.57zm31.64 61.8c-2.58-18.39-15.69-32.11-31.34-29.91-19 2.67-34.48 25.79-31.07 50.06 2.56 18.2 15.66 31.93 31.12 29.75 19.36-2.73 34.73-25.65 31.29-49.91zm56-68.34a4.22 4.22 0 0 1 3.44-4.26l24.27-3.41c1.76-0.25 3.18 1.35 3.27 3.33v106.5l39.92-5.61c2-0.27 3.19 1.35 3.27 3.34l0.07 21.74a4.24 4.24 0 0 1-3.4 4.27l-67.31 9.46c-2 0.28-3.38-1.32-3.45-3.31zm92.15-13a4.2 4.2 0 0 1 3.19-4.23l24.46-3.44c1.76-0.25 3.18 1.36 3.27 3.34v132.13a4.21 4.21 0 0 1-3.2 4.24l-24.43 3.44c-1.77 0.25-3.19-1.35-3.27-3.34zm55.68 123.68 19.14-136.74c0.34-1.84 1.12-3.35 3.29-3.65l2.74-0.39a3 3 0 0 1 3 1.57l40.63 80.49 0.39-0.06 43.69-92.34a3.61 3.61 0 0 1 3.07-2.4l2.94-0.41a2.92 2.92 0 0 1 3 2.77l19.46 131.36a4.35 4.35 0 0 1-3.51 4.88l-24.09 3.4a3.21 3.21 0 0 1-3.37-2.72l-6.35-60.77h-0.39l-28.46 68.65a4.29 4.29 0 0 1-3 2.62l-3.13 0.44a3 3 0 0 1-3-1.77l-28.75-60.59-0.39 0.06-6 62.5a4.07 4.07 0 0 1-3.48 3.68l-24.07 3.38c-1.92 0.28-3.75-1.27-3.31-3.92zm166.23-154.81a4.21 4.21 0 0 1 3.19-4.24l24.47-3.47c1.76-0.25 3.18 1.36 3.26 3.34v132.11a4.21 4.21 0 0 1-3.2 4.24l-24.46 3.44c-1.77 0.25-3.19-1.35-3.26-3.34zm-562.62 246.51a4.23 4.23 0 0 1 3.4-4.27l43-6c19.56-2.75 36.38 13.24 39.29 34 3.66 26-13.73 51.42-39.16 55l-16.05 2.26v46.79a4.39 4.39 0 0 1-3.38 4.26l-23.83 3.38c-2 0.27-3.19-1.34-3.26-3.33zm44.71 49.78c6.85-1 12.41-9.73 11-19.71-1-6.85-5.62-11.58-10.9-10.84l-14.28 2 0.09 30.55zm61.73-64.75a4.2 4.2 0 0 1 3.19-4.23l52.83-7.42c20.56-2.89 36.78 11.79 39.62 31.94 2.94 20.93-6.52 40.23-25.8 49.31l24 47.31a4.19 4.19 0 0 1-2.91 6.19l-25.24 3.55a2.71 2.71 0 0 1-3-1.38l-23.33-49.61-8.61 1.21v50.89a4.19 4.19 0 0 1-3.19 4.23l-24.26 3.41a2.92 2.92 0 0 1-3.26-3.34zm52.11 48.55c9.2-1.29 14.64-10.84 13.32-20.23-1-6.85-5.29-12-12.32-11l-22.55 3.13v31.13zm69.59-65.65a4.19 4.19 0 0 1 3.19-4.23l24.46-3.43c1.76-0.25 3.18 1.35 3.26 3.33v132.08a4.18 4.18 0 0 1-3.19 4.23l-24.45 3.44c-1.77 0.25-3.19-1.34-3.27-3.33zm63.59-8.93a4.21 4.21 0 0 1 3.19-4.24l43.63-6.13c30.92-4.35 57.13 21.7 61.39 52 6 42.47-20 81.83-61.31 87.64l-43.84 6.16c-1.76 0.25-3.18-1.34-3.06-3.36zm45.37 100c20.15-2.84 34.09-25.74 30.49-51.38-2.59-18.42-14.59-31.69-30.47-29.47l-14.68 2.06v80.82zm87.28-118.62a4.21 4.21 0 0 1 3.19-4.23l73.78-10.37c2-0.27 3.38 1.32 3.45 3.3l-0.13 21.7a4 4 0 0 1-3.19 4.23l-46.57 6.54-0.11 24.77 38-5.34a3.25 3.25 0 0 1 3.45 3.3l-0.13 21.77a4.38 4.38 0 0 1-3.4 4.26l-37.76 5.31v26.94l46.57-6.54c2-0.27 3.19 1.35 3.27 3.33v21.75a4.2 4.2 0 0 1-3.38 4.26l-73.76 10.42a2.93 2.93 0 0 1-3.27-3.33z"/>
   </g>
  </g>
 </g>
</a>

 <a href="https://facebook.com/coordinamento.arcobaleno.9/" target="_blank" rel="noopener">
 <g transform="matrix(1.4999 0 0 1.4999 -624.8 -268.81)" fill="#fff" aria-label="Coordinamento Arcobaleno Milano">
  <path d="m1087.7 529.88q2.52 0 4.4 0.72t3.68 2.2l-2.68 3.12q-2.44-1.96-5.12-1.96-3.08 0-4.96 2.48-1.84 2.48-1.84 7.8 0 5.2 1.84 7.72t4.96 2.52q1.64 0 2.92-0.56 1.28-0.6 2.72-1.68l2.48 3.12q-1.4 1.44-3.56 2.4-2.12 0.96-4.76 0.96-3.6 0-6.36-1.68t-4.28-4.92q-1.52-3.28-1.52-7.88 0-4.52 1.56-7.76 1.6-3.24 4.32-4.92 2.76-1.68 6.2-1.68z"/>
  <path d="m1107.5 536.36q4.68 0 7.28 3 2.64 2.96 2.64 8.16 0 3.32-1.2 5.88-1.2 2.52-3.44 3.92t-5.32 1.4q-4.68 0-7.32-2.96-2.64-3-2.64-8.24 0-3.32 1.2-5.84t3.44-3.92q2.28-1.4 5.36-1.4zm0 3.88q-4.6 0-4.6 7.28 0 3.76 1.12 5.56 1.16 1.76 3.44 1.76t3.4-1.8q1.16-1.8 1.16-5.52t-1.16-5.48q-1.12-1.8-3.36-1.8z"/>
  <path d="m1130.9 536.36q4.68 0 7.28 3 2.64 2.96 2.64 8.16 0 3.32-1.2 5.88-1.2 2.52-3.44 3.92t-5.32 1.4q-4.68 0-7.32-2.96-2.64-3-2.64-8.24 0-3.32 1.2-5.84t3.44-3.92q2.28-1.4 5.36-1.4zm0 3.88q-4.6 0-4.6 7.28 0 3.76 1.12 5.56 1.16 1.76 3.44 1.76t3.4-1.8q1.16-1.8 1.16-5.52t-1.16-5.48q-1.12-1.8-3.36-1.8z"/>
  <path d="m1156.1 536.4q1.16 0 2.12 0.28l-0.88 4.96q-0.96-0.24-1.88-0.24-1.88 0-2.96 1.36-1.08 1.32-1.72 4.08v11.28h-5.12v-21.16h4.44l0.48 4.16q0.76-2.28 2.2-3.48 1.44-1.24 3.32-1.24z"/>
  <path d="m1178 528.48v29.64h-4.52l-0.36-2.68q-1 1.52-2.56 2.4-1.52 0.88-3.48 0.88-3.88 0-5.96-3t-2.08-8.16q0-3.24 1.04-5.76 1.04-2.56 2.96-4 1.96-1.44 4.52-1.44 3.04 0 5.32 2.28v-10.72zm-9.48 26.36q1.36 0 2.4-0.64 1.04-0.68 1.96-2.08v-9.68q-0.92-1.12-1.88-1.68-0.92-0.56-2.16-0.56-2.04 0-3.24 1.84-1.16 1.8-1.16 5.48 0 3.92 1.04 5.64 1.04 1.68 3.04 1.68z"/>
  <path d="m1186.7 526.24q1.44 0 2.32 0.92 0.92 0.88 0.92 2.2t-0.92 2.2q-0.88 0.88-2.32 0.88-1.4 0-2.32-0.88-0.88-0.88-0.88-2.2t0.88-2.2q0.92-0.92 2.32-0.92zm2.6 10.72v21.16h-5.12v-21.16z"/>
  <path d="m1206.7 536.36q2.84 0 4.4 1.72 1.6 1.68 1.6 4.72v15.32h-5.12v-14.52q0-1.88-0.68-2.64-0.64-0.76-1.92-0.76-1.32 0-2.4 0.84-1.04 0.8-2.04 2.36v14.72h-5.12v-21.16h4.44l0.4 2.76q2.6-3.36 6.44-3.36z"/>
  <path d="m1234.3 552.52q0 1.24 0.36 1.84 0.4 0.56 1.24 0.88l-1.08 3.4q-1.8-0.16-2.96-0.88-1.12-0.72-1.72-2.2-1.08 1.6-2.72 2.4-1.6 0.76-3.6 0.76-3.16 0-5-1.8t-1.84-4.72q0-3.44 2.48-5.24 2.52-1.84 7.16-1.84h2.64v-1.2q0-2.04-0.96-2.84-0.92-0.84-3-0.84-2.32 0-5.6 1.12l-1.2-3.48q3.96-1.52 7.68-1.52 8.12 0 8.12 7.28zm-9.12 2.48q2.6 0 4.08-2.6v-4.28h-2.12q-4.96 0-4.96 3.68 0 1.52 0.76 2.36t2.24 0.84z"/>
  <path d="m1263 536.36q2.56 0 4.08 1.76 1.52 1.72 1.52 4.68v15.32h-5.12v-14.52q0-3.4-2.32-3.4-1.24 0-2.16 0.8-0.88 0.76-1.84 2.4v14.72h-5.12v-14.52q0-3.4-2.32-3.4-1.28 0-2.2 0.8-0.88 0.76-1.84 2.4v14.72h-5.12v-21.16h4.44l0.4 2.76q2.4-3.36 6.12-3.36 1.84 0 3.16 0.96 1.36 0.92 1.96 2.6 1.28-1.72 2.8-2.64 1.56-0.92 3.56-0.92z"/>
  <path d="m1291.9 547.04q0 0.4-0.12 2.08h-13.28q0.24 3.08 1.6 4.4t3.6 1.32q1.4 0 2.64-0.44 1.24-0.48 2.64-1.44l2.12 2.92q-3.52 2.84-7.84 2.84-4.84 0-7.48-2.96-2.6-2.96-2.6-8.08 0-3.24 1.12-5.8 1.12-2.6 3.24-4.04 2.12-1.48 5.04-1.48 4.44 0 6.88 2.84 2.44 2.8 2.44 7.84zm-5.08-1.48q0-5.56-4.12-5.56-1.88 0-2.96 1.4-1.04 1.36-1.24 4.4h8.32z"/>
  <path d="m1307.8 536.36q2.84 0 4.4 1.72 1.6 1.68 1.6 4.72v15.32h-5.12v-14.52q0-1.88-0.68-2.64-0.64-0.76-1.92-0.76-1.32 0-2.4 0.84-1.04 0.8-2.04 2.36v14.72h-5.12v-21.16h4.44l0.4 2.76q2.6-3.36 6.44-3.36z"/>
  <path d="m1331.8 557.12q-1.12 0.8-2.52 1.2-1.36 0.4-2.8 0.4-3.12-0.04-4.76-1.76-1.6-1.76-1.6-5.16v-11.16h-3.32v-3.68h3.32v-4.68l5.12-0.6v5.28h4.92l-0.52 3.68h-4.4v11.04q0 1.56 0.52 2.24 0.56 0.68 1.72 0.68t2.52-0.76z"/>
  <path d="m1342.6 536.36q4.68 0 7.28 3 2.64 2.96 2.64 8.16 0 3.32-1.2 5.88-1.2 2.52-3.44 3.92t-5.32 1.4q-4.68 0-7.32-2.96-2.64-3-2.64-8.24 0-3.32 1.2-5.84t3.44-3.92q2.28-1.4 5.36-1.4zm0 3.88q-4.6 0-4.6 7.28 0 3.76 1.12 5.56 1.16 1.76 3.44 1.76t3.4-1.8q1.16-1.8 1.16-5.52t-1.16-5.48q-1.12-1.8-3.36-1.8z"/>
  <path d="m1063.4 608.89-1.72-6.4h-9.16l-1.72 6.4h-5.48l8.6-27.64h6.52l8.56 27.64zm-9.84-10.4h7.04l-3.52-13.2z"/>
  <path d="m1082.4 587.17q1.16 0 2.12 0.28l-0.88 4.96q-0.96-0.24-1.88-0.24-1.88 0-2.96 1.36-1.08 1.32-1.72 4.08v11.28h-5.12v-21.16h4.44l0.48 4.16q0.76-2.28 2.2-3.48 1.44-1.24 3.32-1.24z"/>
  <path d="m1095 587.13q2.08 0 3.72 0.6 1.68 0.6 3.16 1.88l-2.28 3.08q-1.08-0.8-2.08-1.16t-2.2-0.36q-4.76 0-4.76 7.24 0 3.68 1.24 5.32 1.24 1.6 3.52 1.6 1.12 0 2.04-0.36 0.96-0.36 2.24-1.16l2.28 3.24q-3 2.44-6.84 2.44-3.04 0-5.28-1.32-2.24-1.36-3.44-3.84t-1.2-5.84 1.2-5.92q1.2-2.6 3.44-4 2.24-1.44 5.24-1.44z"/>
  <path d="m1113.5 587.13q4.68 0 7.28 3 2.64 2.96 2.64 8.16 0 3.32-1.2 5.88-1.2 2.52-3.44 3.92t-5.32 1.4q-4.68 0-7.32-2.96-2.64-3-2.64-8.24 0-3.32 1.2-5.84t3.44-3.92q2.28-1.4 5.36-1.4zm0 3.88q-4.6 0-4.6 7.28 0 3.76 1.12 5.56 1.16 1.76 3.44 1.76t3.4-1.8q1.16-1.8 1.16-5.52t-1.16-5.48q-1.12-1.8-3.36-1.8z"/>
  <path d="m1139.2 587.13q3.68 0 5.76 2.96 2.08 2.92 2.08 8.2 0 3.28-1.04 5.84-1 2.52-2.88 3.96-1.88 1.4-4.44 1.4-1.72 0-3.16-0.72-1.4-0.72-2.44-2.04l-0.32 2.16h-4.52v-29.64l5.12-0.56v11.44q1.04-1.44 2.52-2.2 1.52-0.8 3.32-0.8zm-1.92 18.52q2.08 0 3.24-1.76 1.16-1.8 1.16-5.6 0-4-1.08-5.64-1.08-1.68-3.04-1.68-2.44 0-4.2 2.88v9.36q0.68 1.16 1.68 1.8 1.04 0.64 2.24 0.64z"/>
  <path d="m1167.3 603.29q0 1.24 0.36 1.84 0.4 0.56 1.24 0.88l-1.08 3.4q-1.8-0.16-2.96-0.88-1.12-0.72-1.72-2.2-1.08 1.6-2.72 2.4-1.6 0.76-3.6 0.76-3.16 0-5-1.8t-1.84-4.72q0-3.44 2.48-5.24 2.52-1.84 7.16-1.84h2.64v-1.2q0-2.04-0.96-2.84-0.92-0.84-3-0.84-2.32 0-5.6 1.12l-1.2-3.48q3.96-1.52 7.68-1.52 8.12 0 8.12 7.28zm-9.12 2.48q2.6 0 4.08-2.6v-4.28h-2.12q-4.96 0-4.96 3.68 0 1.52 0.76 2.36t2.24 0.84z"/>
  <path d="m1178.2 609.49q-2.44 0-3.84-1.4-1.36-1.44-1.36-4.04v-24.8l5.12-0.56v25.2q0 1.48 1.2 1.48 0.6 0 1.2-0.2l1.08 3.6q-1.6 0.72-3.4 0.72z"/>
  <path d="m1202.1 597.81q0 0.4-0.12 2.08h-13.28q0.24 3.08 1.6 4.4t3.6 1.32q1.4 0 2.64-0.44 1.24-0.48 2.64-1.44l2.12 2.92q-3.52 2.84-7.84 2.84-4.84 0-7.48-2.96-2.6-2.96-2.6-8.08 0-3.24 1.12-5.8 1.12-2.6 3.24-4.04 2.12-1.48 5.04-1.48 4.44 0 6.88 2.84 2.44 2.8 2.44 7.84zm-5.08-1.48q0-5.56-4.12-5.56-1.88 0-2.96 1.4-1.04 1.36-1.24 4.4h8.32z"/>
  <path d="m1218 587.13q2.84 0 4.4 1.72 1.6 1.68 1.6 4.72v15.32h-5.12v-14.52q0-1.88-0.68-2.64-0.64-0.76-1.92-0.76-1.32 0-2.4 0.84-1.04 0.8-2.04 2.36v14.72h-5.12v-21.16h4.44l0.4 2.76q2.6-3.36 6.44-3.36z"/>
  <path d="m1238.5 587.13q4.68 0 7.28 3 2.64 2.96 2.64 8.16 0 3.32-1.2 5.88-1.2 2.52-3.44 3.92t-5.32 1.4q-4.68 0-7.32-2.96-2.64-3-2.64-8.24 0-3.32 1.2-5.84t3.44-3.92q2.28-1.4 5.36-1.4zm0 3.88q-4.6 0-4.6 7.28 0 3.76 1.12 5.56 1.16 1.76 3.44 1.76t3.4-1.8q1.16-1.8 1.16-5.52t-1.16-5.48q-1.12-1.8-3.36-1.8z"/>
  <path d="m1289.6 608.89h-5.16l-0.72-11.56q-0.36-6.2-0.36-9.84v-1.44l-5.04 19.84h-5l-5.36-19.88q0.08 2.64 0.08 4 0 3.64-0.24 7.48l-0.68 11.4h-5.12l2.2-27.64h6.8l4.92 19.36 4.64-19.36h6.88z"/>
  <path d="m1297 577.01q1.44 0 2.32 0.92 0.92 0.88 0.92 2.2t-0.92 2.2q-0.88 0.88-2.32 0.88-1.4 0-2.32-0.88-0.88-0.88-0.88-2.2t0.88-2.2q0.92-0.92 2.32-0.92zm2.6 10.72v21.16h-5.12v-21.16z"/>
  <path d="m1310.7 609.49q-2.44 0-3.84-1.4-1.36-1.44-1.36-4.04v-24.8l5.12-0.56v25.2q0 1.48 1.2 1.48 0.6 0 1.2-0.2l1.08 3.6q-1.6 0.72-3.4 0.72z"/>
  <path d="m1332.9 603.29q0 1.24 0.36 1.84 0.4 0.56 1.24 0.88l-1.08 3.4q-1.8-0.16-2.96-0.88-1.12-0.72-1.72-2.2-1.08 1.6-2.72 2.4-1.6 0.76-3.6 0.76-3.16 0-5-1.8t-1.84-4.72q0-3.44 2.48-5.24 2.52-1.84 7.16-1.84h2.64v-1.2q0-2.04-0.96-2.84-0.92-0.84-3-0.84-2.32 0-5.6 1.12l-1.2-3.48q3.96-1.52 7.68-1.52 8.12 0 8.12 7.28zm-9.12 2.48q2.6 0 4.08-2.6v-4.28h-2.12q-4.96 0-4.96 3.68 0 1.52 0.76 2.36t2.24 0.84z"/>
  <path d="m1350.5 587.13q2.84 0 4.4 1.72 1.6 1.68 1.6 4.72v15.32h-5.12v-14.52q0-1.88-0.68-2.64-0.64-0.76-1.92-0.76-1.32 0-2.4 0.84-1.04 0.8-2.04 2.36v14.72h-5.12v-21.16h4.44l0.4 2.76q2.6-3.36 6.44-3.36z"/>
  <path d="m1371 587.13q4.68 0 7.28 3 2.64 2.96 2.64 8.16 0 3.32-1.2 5.88-1.2 2.52-3.44 3.92t-5.32 1.4q-4.68 0-7.32-2.96-2.64-3-2.64-8.24 0-3.32 1.2-5.84t3.44-3.92q2.28-1.4 5.36-1.4zm0 3.88q-4.6 0-4.6 7.28 0 3.76 1.12 5.56 1.16 1.76 3.44 1.76t3.4-1.8q1.16-1.8 1.16-5.52t-1.16-5.48q-1.12-1.8-3.36-1.8z"/>
 </g>
</a>
</svg>
