<svg version="1.1" viewBox="0 0 162.57 67.182" xmlns="http://www.w3.org/2000/svg">
 <g transform="translate(-10.183 -66.861)">
  <g stroke-width=".29393">
   <path d="m66.154 132.83c-1.3649-1.5108-2.391-3.7165-2.9447-6.3299-1.6749-7.9052 1.8486-21.837 9.986-39.485 2.0502-4.4461 7.5927-15.108 8.4351-16.226 0.35018-0.4647 0.0479 1.284-1.0798 6.247-0.86138 3.7909-4.1223 18.168-7.2467 31.948-3.1244 13.781-5.7644 25.057-5.8668 25.057-0.10244 2.8e-4 -0.67979-0.5457-1.283-1.2134z" fill="#2e3192"/>
   <path d="m41.118 132.99c-2.0497-2.9074-2.5973-5.1528-2.575-10.559 0.01494-3.632 0.16009-5.082 0.82366-8.2299 0.93747-4.447 3.8253-13.277 6.2-18.958 1.7778-4.2528 8.6726-18.332 8.8775-18.127 0.11802 0.118-12.019 54.552-12.491 56.022l-0.22887 0.7125z" fill="#d7df23"/>
   <path d="m82.283 133.15c-6.1006-3.9086-6.3732-22.273-0.7307-49.223 0.64311-3.0717 1.476-6.8412 1.8507-8.3769l0.68147-2.7923 0.09335 3.3802c0.05137 1.8591-0.04857 14.16-0.22183 27.335-0.17357 13.175-0.31488 25.377-0.31384 27.115 0 1.7379-0.09756 3.1576-0.21903 3.1549-0.12116-2e-3 -0.6343-0.27009-1.1402-0.59418z" fill="#91278f"/>
  </g>
  <g>
   <path transform="scale(.26458)" d="m346.13 384.3v121.22h17.773v-55.254l11.389-0.53515c13.09-0.61599 18.319-2.405 24.418-8.3477 6.1058-5.9504 7.9105-12.486 7.291-26.408-0.44837-10.085-0.88537-12.045-3.8672-17.346-2.3194-4.124-5.0171-7.011-8.7051-9.3106l-5.3457-3.332zm17.773 13.211 7.5 0.45312c13.521 0.81585 17.089 4.4492 17.842 18.178 0.54848 9.9934-1.3723 14.975-6.7637 17.533-2.4303 1.1531-6.6956 1.8574-11.246 1.8574h-7.332z" stroke-width="1.1109"/>
   <path transform="scale(.26458)" d="m417.22 384.25v121.27h17.773v-55.656l12.5 0.66601 8.4707 27.482 8.4688 27.482 18.158 0.0274-2.5234-8.0547c-1.3882-4.4294-5.7195-18.011-9.625-30.182-5.1927-16.183-6.7209-22.257-5.6816-22.604 3.1557-1.0519 7.9687-6.1509 10.246-10.855 1.559-3.2201 2.6226-8.0507 3.0059-13.637 1.1085-16.184-4.4624-27.08-16.645-32.553-5.243-2.3545-7.7318-2.6539-24.986-3.002zm17.773 13.211 7.3535 0.58985c12.242 0.9829 17.669 6.6489 17.604 18.402-0.048 9.5102-2.3808 14.08-8.6445 16.924v-2e-3c-2.6359 1.1964-7.1728 2.1196-10.48 2.1348l-5.832 0.0254z" stroke-width="1.1109"/>
   <path d="m130.38 117.73v-16.019h4.7028v32.037h-4.7028z" stroke-width=".29393"/>
   <path transform="scale(.26458)" d="m529.42 384.26v121.39l20.275-0.3457c18.729-0.32009 20.682-0.54875 25.648-2.9941 6.4323-3.1665 11.164-9.275 13.816-17.834 1.638-5.2891 1.916-11.151 1.916-40.619 0-38.071-0.61996-42.978-6.2891-49.855-6.6683-8.09-9.8775-8.977-33.982-9.3848zm17.775 13.5h7.3301c9.6481 0 14.181 2.1708 16.467 7.8848 1.467 3.6655 1.7539 10.094 1.7539 39.387 0 37.271-0.30687 39.731-5.5156 44.375-1.9334 1.7235-4.4447 2.3073-11.262 2.6172l-8.7734 0.39844z" stroke-width="1.1109"/>
   <path d="m160.36 117.73v-16.019h12.345v3.5272h-7.6421v9.9936h5.5848v3.8211h-5.5848v11.169h7.6421v3.5272h-12.345z" stroke-width=".29393"/>
  </g>
  <g stroke-width=".29393">
   <path d="m25.15 131.93c-0.93479-2.1581-1.1315-6.3037-0.45854-9.6647 2.0695-10.337 9.9375-25.571 22.097-42.787 4.3744-6.1927 9.2988-12.767 9.45-12.616 0.11662 0.11658-29.857 66.003-30.203 66.391-0.11619 0.12989-0.51512-0.46524-0.8865-1.3226z" fill="#f7931e"/>
   <path d="m49.246 132.57c-1.0025-1.4079-1.7564-4.1958-1.7564-6.4948 0-9.2156 7.7851-24.215 22.101-42.579 3.1442-4.0339 5.3567-6.5647 5.1394-5.8784-0.16524 0.52067-24.615 55.656-24.739 55.79-0.04695 0.0497-0.38171-0.32632-0.74421-0.83525z" fill="#00a651"/>
   <path d="m10.276 131.87c-0.10812-0.28191-0.12484-1.9903-0.03709-3.7967 0.4739-9.7592 7.2171-21.953 20.381-36.854 3.6948-4.1826 17.112-17.574 17.36-17.327 0.11384 0.11392-36.616 57.5-37.265 58.22-0.14052 0.15615-0.32518 0.0541-0.43912-0.24267z" fill="#ed1c24"/>
  </g>
  <g>
   <path transform="scale(.26458)" d="m629.39 276.2c-11.583-0.0392-20.619 4.7514-22.674 13.885-1.8422 3.102-2.1204 22.072-2.3223 35.393 0 22.942 0.3774 31.697 1.5059 34.889 1.8878 5.3403 7.4099 11.716 11.805 13.631l2e-3 2e-3c1.8444 0.80404 6.999 1.4771 11.453 1.5039 11.468 0.0622 17.356-3.1432 21.762-11.844 2.6862-5.3121 2.6896-69.773 0-75.096-4.6115-9.1292-10.174-12.323-21.531-12.363zm0.69141 7.2949c3.4583 0.15049 6.8446 1.3767 9.377 3.8027 5.1301 4.9134 5.651 8.9604 5.2734 40.846-0.37142 31.346-0.8578 34.069-6.7559 37.867v2e-3c-5.4849 3.5313-16.95 2.5075-19.938-1.7793-3.8834-5.5725-4.2012-8.5315-4.2012-38.92 2e-3 -26.629 0.23889-30.779 1.9453-34.195 2.5675-5.139 8.5349-7.8739 14.299-7.623z" stroke-width="1.1109"/>
   <g stroke-width=".29393">
    <path d="m91.576 86.268v-12.801l3.0741-0.0614 2.2267 10.38c1.1988 5.5881 2.3192 10.388 2.3792 10.69 2.5571-9.8589 4.8293-20.931 4.8293-20.931l3.0686-0.04685v25.571h-2.0496l-0.0774-9.7147-0.0774-9.7147-2.2229 9.6412-2.2229 9.6409-1.0679 0.09032c-1.2581 0.10629-0.84452 1.3097-3.4909-10.157-1.0167-4.4052-1.9527-8.0095-2.08-8.0095-0.12744 0-0.23156 4.1003-0.23156 9.1116v9.1116h-2.0575z"/>
    <path d="m111.27 86.282v-12.786h2.3514v25.571h-2.3514z"/>
    <path d="m118.03 86.282v-12.786h2.3514v23.514h7.0543v2.0574h-9.4055z"/>
   </g>
   <path transform="scale(.26458)" d="m515.53 277.7-12.195 0.63867-9.127 46.104c-5.0207 25.356-9.1513 46.976-9.1777 48.045v2e-3c-0.0388 1.5295 0.88019 1.9434 4.3027 1.9434 4.8652 0 4.5268 0.76202 7.9844-18.053l1.3789-7.498h21.529l1.8613 9.7207c1.0236 5.3463 2.1302 11.095 2.4609 12.775 0.53337 2.7108 1.0921 3.0547 4.957 3.0547 2.7258 0 4.3622-0.52002 4.3887-1.3887 0.0185-0.76398-4.1048-22.529-9.1641-48.367zm-6.123 14.523c0.85809 0 9.7772 49.821 9.0547 50.576-0.28875 0.28906-4.4405 0.52539-9.2266 0.52539-7.5354 0-8.706-0.25996-8.7324-1.9434-0.0573-3.571 8.1999-49.158 8.9043-49.158z" stroke-width="1.1109"/>
   <path d="m144.19 86.282v-12.786h1.9465l7.7238 19.252 0.014-9.626 0.014-9.6263h2.0575v25.571h-0.85241c-0.96647 0-0.46802 1.0342-5.7839-12l-2.9163-7.1506-0.15475 19.151h-2.0494z" stroke-width=".29393"/>
  </g>
 </g>
</svg>
