<svg xmlns="http://www.w3.org/2000/svg" viewBox="0 0 225.63 66.29"><defs><style>.cls-3{fill:#fff;}.cls-4,.cls-6,
    .cls-7{fill:none;}.cls-4{stroke:#929497;stroke-miterlimit:10;stroke-width:0.48px;}.cls-5{fill:#8eb6ce;}.cls-6,.cls-7{stroke:#231f20;stroke-linecap:round;stroke-linejoin:round;}.cls-6{stroke-width:0.28px;}.cls-7{stroke-width:0.25px;}</style></defs><title>Politecnico di Milano</title><g id="Livello_2" data-name="Livello 2"><g id="HomePage_Fissa" data-name="HomePage Fissa"><path class="cls-3" d="M64.95,35.21a31.64,31.64,0,1,1,0-.62"/><path class="cls-4" d="M66.22,35.41l-2.93-.19M66.08,37l-2.92-.34m2.71,1.86L63,38m2.62,2-2.87-.6m2.52,2.11-2.84-.74M64.81,43,62,42.11m2.31,2.33-2.76-1m2.2,2.43L61,44.77m2.08,2.54-2.65-1.26m2,2.64-2.59-1.38M61.67,50l-2.52-1.51m1.7,2.82-2.44-1.63M60,52.61,57.6,50.9M59,53.84,56.75,52M58,55l-2.21-1.94M57,56.16l-2.11-2m1,3.13-2-2.14m.86,3.17-1.91-2.23m.71,3.21-1.8-2.32m.56,3.24-1.69-2.4M51,61l-1.6-2.46m.28,3.27-1.48-2.54m.12,3.28L47,60m0,3.28-1.23-2.67m-.19,3.28-1.1-2.72m-.35,3.27-1-2.77m-.51,3.25-.83-2.82m-.65,3.22-.72-2.85m-.79,3.18-.58-2.88m-.95,3.14L37.68,63m-1.1,3.1-.29-2.92m-1.24,3-.18-2.93m-1.37,3,0-2.93m-1.52,2.91.12-2.93m-1.65,2.84.23-2.93M28.88,66l.38-2.91m-1.91,2.68.53-2.89m-2,2.59.63-2.87M24.34,65.1l.78-2.83m-2.26,2.38.92-2.79m-2.38,2.27,1.05-2.74M20,63.57l1.16-2.7m-2.56,2,1.29-2.64M17.19,62.2l1.41-2.57m-2.75,1.79,1.54-2.5m-2.84,1.66,1.66-2.42m-2.92,1.52,1.77-2.34m-3,1.4,1.85-2.28m-3,1.26,2-2.18M9.8,56.67l2.06-2.09m-3.14,1,2.16-2m-3.18.82L10,52.51m-3.22.67,2.34-1.77m-3.25.52,2.42-1.66M5,50.63l2.5-1.54m-3.28.22,2.55-1.45m-3.28.08,2.62-1.32m-3.28-.08,2.68-1.2m-3.27-.23L5,44.05m-3.26-.39,2.78-.93m-3.24-.55,2.83-.79M.86,40.68,3.72,40M.55,39.18l2.88-.54m-3.13-1,2.91-.4M.13,36.11l2.92-.25M0,34.58,3,34.44M0,33H2.94M0,31.48,3,31.64M.15,30l2.92.27M.34,28.41l2.91.42M.59,26.88l2.88.56M.92,25.38l2.86.67M1.31,23.89l2.82.81M1.78,22.41l2.78,1M2.32,21,5,22M2.92,19.53l2.67,1.22m-2-2.6L6.2,19.46M4.31,16.78l2.56,1.45M5.11,15.45,7.59,17M6,14.17l2.4,1.69M6.88,12.92l2.32,1.8m-1.34-3,2.23,1.91m-1.2-3.06,2.14,2M10,9.47,12,11.55m-.93-3.14,2,2.18m-.78-3.19,1.85,2.28m-.63-3.22,1.74,2.36m-.48-3.25L16.38,8m-.32-3.27,1.51,2.52M17.4,4l1.39,2.59m0-3.29L20,5.92m.13-3.28,1.16,2.69m.28-3.27,1,2.75m.43-3.25L24,4.35m.59-3.23L25.32,4m.75-3.2.61,2.87M27.57.46l.51,2.89m1-3.11.36,2.91M30.65.09,30.86,3M32.2,0l.07,2.93M33.73,0l0,2.93M35.28.07,35.08,3M36.82.2l-.34,2.92M38.34.41l-.45,2.9m2-2.62-.59,2.87M41.38,1l-.74,2.84m2.21-2.43L42,4.26m2.31-2.33-1,2.77m2.42-2.21L44.65,5.2m2.53-2.09L45.94,5.77m2.63-2L47.2,6.39m2.72-1.84L48.43,7.07m2.81-1.71L49.62,7.81m2.89-1.58L50.79,8.61m3-1.44L51.91,9.46m3-1.31L53,10.37m3.06-1.18-2,2.13m3.11-1-2.12,2m3.16-.89L56,13.36m3.2-.74-2.3,1.82m3.23-.59-2.38,1.71M61,15.13l-2.46,1.6m3.27-.28-2.54,1.48m3.29-.12-2.6,1.36m3.29,0-2.66,1.23m3.28.19-2.72,1.1m3.27.34-2.77,1m3.25.48-2.8.87m3.22.63-2.84.73m3.19.78-2.88.59m3.15.94-2.9.45m3.1,1.09-2.92.3m3,1.22-2.93.19m3,1.36-2.93,0m2.92,1.5-2.93-.1"/><path class="cls-3" d="M28,34.23c0-.05.31.18.35.09l.77,1s1.2.68,1.4.56.38-.43.51-.45.3-.2.46-.23.34-.4.34-.4.54.13.55-.19,0-1.11,0-1.11a1.29,1.29,0,0,0,.53-.86c.13,0,.83-.08.83-.08.59-.19.5-.83.39-1.16s-.79-.72-.79-.72a.51.51,0,0,0-.05-.74.8.8,0,0,0-.68-.51l-.3,0-1.44-.8-2.49-.11-2.29,3-.78-.35V29.14l1-2.68,1-1,1.07.88,3.45.11s1.26.1,1.43-.16l.76-1.2,0,.07a.86.86,0,0,1,.18.13,1.31,1.31,0,0,1,.41.08c0-.06.09-.2.47-.48s.08-.63.19-1a.72.72,0,0,0-.2-.63l2.74.83.05,0c-.17.29-.19.68-.34.77s.06.63,0,.89a.47.47,0,0,0,.19.46h.13a5.27,5.27,0,0,0,.06,1,2.44,2.44,0,0,0,.47,1.09h0l-.09,0A1.61,1.61,0,0,1,38,29c-.17.12-1,1.16-.81,1.83s.5,1.85.5,1.85l.33,0v.09a3.67,3.67,0,0,1-.42.92,3.3,3.3,0,0,0-1.08,1.77h0a.86.86,0,0,0-1.17.17l-.57.52h0c-.45.61-.42.56-.48.72A9.63,9.63,0,0,0,34,38c0,.13,0,.4-.1.45s-.45.31-.49.25-.37-.53-.51-.56-.38-.05-.29.16-.59.1-.12.51l.47.41a2.32,2.32,0,0,0,.7.43.86.86,0,0,0,.92-.32h.06a2.33,2.33,0,0,1-.15.6,1.74,1.74,0,0,0-.22.85s.18.57.48.16l.3-.41.32-.51h0c-.24.81-.51,1.64-.65,1.95a5.7,5.7,0,0,0-.74,1.7,2.36,2.36,0,0,0,.13,1.22h0c-.93-.53-1.55.22-2.53.55a8.19,8.19,0,0,1-2,.36v-.1c-.86-.1-1.92-1.31-1.92-1.31L26,42.75c.47-2.29,1.49-2.43,1.49-2.43l0,0a35.8,35.8,0,0,0,1-3.91,3.3,3.3,0,0,1-.07-.81"/><path class="cls-3" d="M28.77,28.39a2.33,2.33,0,0,0-.56.26,9.28,9.28,0,0,1-.93.69,10.82,10.82,0,0,0-1.22,1.12,1.15,1.15,0,0,0-.08.67c.05.13.53,1.35.56,1.46s.45.23.51.39.1.47.74.81l-.13,1,.35-.27s1.48.08,1.64-.21a3.08,3.08,0,0,1,1.07-1c.39-.19,1.29-.79,1.56-.9s.82.28,1,.28,1.49-.28.93-1.05-.85-1.14-.8-1.32-.26-.82-1.06-.9a1.62,1.62,0,0,1-1.17-.69Z"/><path class="cls-3" d="M43.85,22.94s-1.39-.56-1.75-.64a6.73,6.73,0,0,0-2.53.56c-.52.29-.8.49-.88.72s-.81.43-.81.61a9.31,9.31,0,0,1-.31.93,2.28,2.28,0,0,0,.11,1c.13.13.09.88.2,1s.38,1.13.89,1.49,1.21.53,1.31.72.61,1.29.85,1.15.43-.46.74-.3a1.48,1.48,0,0,0,1.57-.11c.48-.45,1-1.48,1.54-1.75a2.92,2.92,0,0,0,1.49-1.49,5.18,5.18,0,0,0,.45-2.71,1.46,1.46,0,0,0-1.2-1c-.31,0-1.67-.21-1.67-.21"/><path class="cls-3" d="M44.85,42.86a28.63,28.63,0,0,1,6-14.95v0a2.51,2.51,0,0,0,2-.38l0,0c-7.38-2-2.56-6.84-1.81-7.55l0-.1c.53.23,1.11-.26,3.05.8.15.09,1-.52,1.39-.53.58,0,2,1.36,2.15,1.65a1.9,1.9,0,0,1,0,1.3c-.2.47-.66.76-.57,1a13.43,13.43,0,0,1,1.14,4.42,33.11,33.11,0,0,1,.42,3.79c.07,1.49-.07,3.12,0,4.27.06,2-1.51,5.58-1.51,7.71,0,.65.33,3.43,1.29,3.67,0,0-3.22.35-4.59.3l-1.29,0a42.65,42.65,0,0,1-4.67-.33l-.1,0a3.15,3.15,0,0,1,0-1.76c.33-.65,3.9-5.63,3.66-9.17l0,0h0a2,2,0,0,0-.5.49,35.68,35.68,0,0,1-4.31,3.86l-1.15.92a7,7,0,0,0-.57.76"/><path class="cls-3" d="M44.71,49.08a4,4,0,0,1,.28-.69,5.65,5.65,0,0,0,.35-1.46A6.68,6.68,0,0,1,46,45a22.84,22.84,0,0,0,.66-3.79l-.06-.08a35.59,35.59,0,0,0,4.31-3.86,2,2,0,0,1,.5-.49l0,0c.24,3.54-3.33,8.51-3.66,9.17a3.15,3.15,0,0,0,0,1.76c0,.19.08.31.08.31a5.26,5.26,0,0,1,.71,1.29c0,.29-.42.67-.57.78s-.49.23-.67.34a1.29,1.29,0,0,1-.7.05,3.63,3.63,0,0,1-.71-.19,3,3,0,0,1-.84.07c-.33,0-.36-.43-.4-.89a1.37,1.37,0,0,1,.05-.49"/><path class="cls-3" d="M41.45,22.11a3.7,3.7,0,0,1,1.29-1,2.46,2.46,0,0,1,.6-.18,8.46,8.46,0,0,1,4-1.23,7.54,7.54,0,0,1,2.21,0v.18h0c-1.92.79-2.92,3.89-2.92,4h0c-.13-.54-.33-.59-.8-.72a25,25,0,0,1-3.17-.64v0a4.86,4.86,0,0,1-.64-.29,1.35,1.35,0,0,0-.56,0v-.14Z"/><path class="cls-3" d="M40.08,36.91a5.3,5.3,0,0,0,.67-2.58l1-2.09-.17-.08a2.26,2.26,0,0,0,.85-.51c.38-.42,1.44-2.18,1.44-2.18h0c.1-.14.2-.31.3-.49,0,0-.1-.2.42-.68l.11-.12.18-.14.12-.12s.91.2.87.48-.47,1.88-.52,2.22a2,2,0,0,0,.08,1.08,6.42,6.42,0,0,1,.37,1.92,20,20,0,0,1-.4,2.34l-.07.32,0,0s-.63,0-1.68.08h0a27,27,0,0,0-3.42.54Z"/><polygon class="cls-3" points="43.2 51.42 34.31 54.03 34.28 53.28 34.28 53.28 34.32 52.71 43.24 50.18 43.2 51.42"/><path class="cls-3" d="M41.06,18.18h0a1.32,1.32,0,0,0,.22-.23c.22-.29.07-1,.08-1.07a.68.68,0,0,1,.25-.43c.17-.13.17-.66.17-.77s.19-.23.29-.35-.07-.71-.09-.88a1,1,0,0,1,.08-.46l.12,0a7.32,7.32,0,0,1,3.45,3,4,4,0,0,1,.5,1.29c0,.14,0,.2,0,.21h0l0,0a6,6,0,0,1,1.17,1.06l-.34.09a10,10,0,0,0-3.59,1.23,2.43,2.43,0,0,0-.6.18l0-.06c-2-1.41-1.63-2.86-1.63-2.86h0Z"/><path class="cls-3" d="M39.49,46.11c-.71-.09-.59-.85-.59-.85s.3-.92.35-1.07a3.24,3.24,0,0,0,0-.94,3,3,0,0,1,.55-1.39,3.28,3.28,0,0,0,.2-1.62c0-.23,0-2.73,0-2.73l0,0h0q.17-.3.31-.61l.06,0a25.42,25.42,0,0,1,3.25-.51v.14a7.63,7.63,0,0,1-.78,3.35S41.6,41.72,41.44,42A2.37,2.37,0,0,0,41.31,43a2.73,2.73,0,0,1-.11.55,1.4,1.4,0,0,0,.34,1c.18.24.46.41.57.65s-.19.62-.57.81a4.78,4.78,0,0,1-2.05.09"/><path class="cls-3" d="M35.71,13.8a12.21,12.21,0,0,1,.39-1.48,5.87,5.87,0,0,1,.45-1.22,2.93,2.93,0,0,1,.32-.42h0a7.86,7.86,0,0,1,.71-.72,7.28,7.28,0,0,1,1.23-.39,2.69,2.69,0,0,1,2,.58s.78,0,1,.52a5.7,5.7,0,0,1,.61,1.54c0,.24-.19.48-.16.61a4.34,4.34,0,0,1-.13,1.08l0,.07a1,1,0,0,0-.08.46c0,.18.19.76.09.89s-.28.24-.29.35,0,.64-.17.77a.68.68,0,0,0-.25.43c0,.1.15.78-.08,1.07a1.28,1.28,0,0,1-.22.23h0c-.13.1-.22.12-.26.06s-.22.22-.22.2l-.07.2s-.05.48-.16.44-.29-.56-.29-.56l.2-1.15.15-1.43v-.07l1.12-1.82a1.94,1.94,0,0,0-.25-.91,2.36,2.36,0,0,1-.55-.72c0-.16-.15-.69-.15-.69s-.82.67-1,.77a2.69,2.69,0,0,1-.94,0,.79.79,0,0,0-.62.28c-.09.19-.41.76-.5.88a3.06,3.06,0,0,0-.19,1,.7.7,0,0,1-.14.38,1.69,1.69,0,0,0-.18.3c-.08.2,0,.4.07.72a3.67,3.67,0,0,1-.06,1c0,.16-.31.16-.37.15a2.16,2.16,0,0,0-.41.2s.07-.44.1-.55a7,7,0,0,0-.34-1,17.28,17.28,0,0,1-.27-2.11"/><path class="cls-3" d="M34.9,49.89l-.32.08.31-2.24h0a2.56,2.56,0,0,0,.26-.66,7,7,0,0,1,.63-1.77,1.18,1.18,0,0,1,.83-.48l.05.58.57,4-.11.29L36.06,47Z"/><path class="cls-3" d="M37.33,14.65a3.07,3.07,0,0,1,.19-1c.09-.12.41-.7.5-.88a.79.79,0,0,1,.62-.28,2.64,2.64,0,0,0,.94,0c.18-.1,1-.77,1-.77s.13.53.15.69a2.31,2.31,0,0,0,.55.72,1.94,1.94,0,0,1,.25.91l-1.12,1.82v.07h-.06a3.5,3.5,0,0,1-2,.65c-.71-.19-1.09-1.53-1.09-1.53h-.07a.7.7,0,0,0,.14-.38"/><polygon class="cls-3" points="29.56 51.14 34.58 49.97 34.9 49.89 36.73 49.47 37.03 49.4 38.14 49.14 43.24 50.18 34.32 52.71 29.56 51.14"/><path class="cls-3" d="M34.06,43.68a5.7,5.7,0,0,1,.74-1.7c.14-.31.4-1.14.65-1.95.29-1,.56-1.91.56-1.91a13.43,13.43,0,0,1,.56-2.67,3.3,3.3,0,0,1,1.09-1.77,3.71,3.71,0,0,0,.42-.92v-.09l3-.37a4.34,4.34,0,0,0,.46-.15l.17.08-1,2.09a5.3,5.3,0,0,1-.67,2.58c-.1.21-.21.43-.33.64-1.1,2-2.72,3.94-2.8,4.18s-.17.66.14,2a2,2,0,0,1-.37,1.71h-.07l-.05-.58a1.18,1.18,0,0,0-.83.48,7,7,0,0,0-.63,1.77,2.55,2.55,0,0,1-.27.65h0c-.34,0-.31-.47-.31-.47l-.12-2.06a.92.92,0,0,1-.26-.29,2.35,2.35,0,0,1-.13-1.22"/><polyline class="cls-5" points="34.78 36.14 34.78 36.14 34.79 36.13 34.78 36.14"/><path class="cls-5" d="M34.78,36.14h0Z"/><path class="cls-3" d="M32.54,38.83c-.47-.41.21-.3.12-.51s.14-.19.29-.16.47.5.51.56.42-.2.49-.25.1-.33.1-.45a9.45,9.45,0,0,1,.26-1.17c.06-.16,0-.11.48-.72h0l.57-.52a.86.86,0,0,1,1.17-.17h0A13.43,13.43,0,0,0,36,38.13s-.26.94-.56,1.91h0l-.31.51-.3.41c-.3.41-.48-.16-.48-.16a1.73,1.73,0,0,1,.22-.85,2.39,2.39,0,0,0,.15-.6h-.06a.86.86,0,0,1-.92.32,2.32,2.32,0,0,1-.7-.43Z"/><path class="cls-5" d="M34.78,36.14h0Z"/><path class="cls-3" d="M35.15,23.27s.05-.26.06-.38-.32-.38-.37-.41,0-.19-.05-.35a3.05,3.05,0,0,1-.17-.58,1.09,1.09,0,0,0,0-.14h0l.76-1.22a4.39,4.39,0,0,0,0-3.94c-.15-.38-.74.33-.77.37h0a1,1,0,0,0,0-1c-.34-.77-1.66-1.38-2.13-1.57a.71.71,0,0,0-.4,0l0-.15A1.65,1.65,0,0,1,32.35,12c.81-1,1.07-1.08,1.41-1.13l.93-.12a2,2,0,0,1,2.18-.11h0a2.93,2.93,0,0,0-.32.42,5.88,5.88,0,0,0-.45,1.22,12.13,12.13,0,0,0-.39,1.47A17.28,17.28,0,0,0,36,15.91a7,7,0,0,1,.34,1c0,.11-.1.55-.1.55a2.23,2.23,0,0,1,.41-.2c.06,0,.33,0,.37-.15a3.67,3.67,0,0,0,.06-1c0-.32-.14-.52-.07-.72a1.63,1.63,0,0,1,.18-.3h.07s.38,1.35,1.09,1.53a3.5,3.5,0,0,0,2-.65h.06l-.15,1.43-.2,1.15s.18.52.29.56.2-.5.2-.5l.07-.22s.12-.2.18-.12.14,0,.26-.06h0s-.36,1.45,1.63,2.86l0,.06a3.7,3.7,0,0,0-1.29,1h0v.14l-.46.06a6.82,6.82,0,0,1-.87.26c-.16,0-.54.32-1,.45s-.2.69-.79.81a.6.6,0,0,0-.41.3"/><path class="cls-3" d="M30.09,20.86a1.93,1.93,0,0,1,.62-1.14,2.22,2.22,0,0,1,1.63-.18l.43.38a3.42,3.42,0,0,1,.58.32.63.63,0,0,1,.23.4,3.89,3.89,0,0,0,.28.46,5,5,0,0,1,.25.77c0,.11.11.6.1.68s.19.69,0,.85,0,1.66-.18,1.77c-.27.4-.48,1-.89,1.15a5.05,5.05,0,0,1-2.19,0l.2-2.06A3.06,3.06,0,0,0,31,23.8a3,3,0,0,1-.26-1.2,1.55,1.55,0,0,0-.31-.86,1.09,1.09,0,0,1-.35-.89"/><path class="cls-3" d="M28.66,35l-.44.13-.31-.86c.13-.25,1.21-.08,1.31-.16s.45,0,.49-.12.23-.12.43-.26.24-.3.37-.33a.69.69,0,0,0,.37-.3c0-.1.33-.14.49-.19a7.1,7.1,0,0,0,.89-.52.55.55,0,0,1,.48-.07c.16,0,.2.33.2.33a1.28,1.28,0,0,1-.53.86s0,.8,0,1.11-.55.19-.55.19-.18.37-.34.4-.33.2-.46.23a3,3,0,0,0-.56.32c-.2.11-1.13-.26-1.13-.26Z"/><path class="cls-3" d="M29.6,16.79a.62.62,0,0,1-.6-.32c-.05-.1.47-.32.47-.32a3.14,3.14,0,0,1,1.16-.38l.27,0a1.45,1.45,0,0,1,1.07.17l.47.29h.09L32.41,16a.29.29,0,0,1,0-.31c.1-.13.33,0,.36,0a3.38,3.38,0,0,0,.35.34c.19.15.16,0,.32.72a1,1,0,0,1,0,.36c-.05.37-.45.36-1,.61a1.49,1.49,0,0,1-1.27,0s-1-.91-1-1-.16-.08-.25,0,0,.11-.41.11"/><path class="cls-3" d="M30.9,15.68s0-.92.26-1.15A2.06,2.06,0,0,1,32,14a.71.71,0,0,1,.4,0c.47.19,1.79.8,2.13,1.57a1,1,0,0,1,0,1,.75.75,0,0,1-.28.24,3.82,3.82,0,0,1-.79.23h0a1,1,0,0,0,0-.36c-.16-.71-.13-.56-.32-.72a3.25,3.25,0,0,1-.35-.34s-.27-.13-.36,0a.28.28,0,0,0,0,.31l.12.23h-.09L32,15.91a1.45,1.45,0,0,0-1.07-.17v-.05Z"/><polygon class="cls-3" points="29.56 51.14 34.32 52.71 34.28 53.28 34.28 53.48 34.31 53.59 34.27 53.98 29.52 52.42 29.56 51.14 29.56 51.14"/><path class="cls-3" d="M29.65,26.48c-.23-.17-1.18.07-1.3-.23s-.29-.36-.91-.81.05-1,.21-1,.09-.14.09-.14.14-.26.37-.47.13-.18.18-.85.35-.81.35-.81a1.91,1.91,0,0,1,.23-1.32c0-.44.68-.87.68-.87a.87.87,0,0,1,1.13-.48l.62-.27a1.78,1.78,0,0,0,.49,0,1.3,1.3,0,0,1,.63-.06.55.55,0,0,1,.47.28s.41,0,.47.25.55.12.49.62a1.75,1.75,0,0,1,.3.63c0,.21.35.14.45.54a1.09,1.09,0,0,1,0,.14,3,3,0,0,0,.17.58c.09.16,0,.32,0,.35s.38.28.37.41-.06.38-.06.38a.71.71,0,0,1,.2.63c-.1.33.24.64-.19,1s-.5.43-.47.48a2.92,2.92,0,0,0-.46-.17,1.88,1.88,0,0,1-.25-.11.64.64,0,0,1-.23-.22c0-.08-.18-.11-.15-.92l-.06-.12a3.54,3.54,0,0,0,.66-.43c.19-.16,0-.78,0-.85s-.1-.57-.1-.68a4.41,4.41,0,0,0-.19-.61,1.32,1.32,0,0,0-.06-.16,3.8,3.8,0,0,1-.28-.46.62.62,0,0,0-.23-.4,3.51,3.51,0,0,0-.58-.32l-.43-.38a2.21,2.21,0,0,0-1.63.18,1.92,1.92,0,0,0-.62,1.14,1.09,1.09,0,0,0,.35.89,1.55,1.55,0,0,1,.31.86A3,3,0,0,0,31,23.8a3,3,0,0,1,.15.43,1.78,1.78,0,0,1,.06.93,2.79,2.79,0,0,0-.15.89c0,.23-.41.44-.45.48s-.74.11-1-.06"/><path class="cls-3" d="M21.29,13.7c-.16-.42.67-.9.67-.92,0-.52.66-.48.66-.48,0-.43.9-.3.9-.3.41-.5.41-.52.41-.52A6.09,6.09,0,0,1,26,11.42c1.15-.19,1.21.28,1.21.28a1.64,1.64,0,0,1,1.09.4c.23-.19.57.13.57.13a1,1,0,0,1,.81.78c.86.26.46.81.46.81.5.46,0,.69,0,.8s0,.32-.47.39a.92.92,0,0,1-.49-.1c-.36-.16-.73-.45-.93-.51s-.25-.22-.25-.22c-.2,0-.17.14-.27-.15l-.13,0s0,.52-.17.73-.3.2-.44.2-.46.31-.66.42a1,1,0,0,1-.41.17c-.11,0-.35.5-.61.31,0,0-.19-.23-.36-.07a.8.8,0,0,1-.84.12c-.26-.14-.67-.2-.76-.43s-.44-.27-.72-.45l-.07,0a2.73,2.73,0,0,0-.79-1,3.08,3.08,0,0,0-.52-.32l0-.06Z"/><path class="cls-3" d="M23.6,22.58a1.94,1.94,0,0,1,.31-1,1.24,1.24,0,0,1,.74-.39l.52.14.51.13.31,0,.87.12c.1,0,.8.14.8.14.07.2-.35.34-.35.34l-.75.12.23.38c.23.38-.28.68-.28.68.15.72-.31.94-.31.94a1.69,1.69,0,0,1-1.89-.22,2.8,2.8,0,0,0-.33-.17c-.5-.2-.37-.66-.38-1.13"/><path class="cls-3" d="M20.85,22.39a1.26,1.26,0,0,1,0-.83l-.05-.11,1-.48s1.43-.49,2.21-.84l.23.06s.95.67,1,1l0,.08-.52-.14a2.44,2.44,0,0,0-.74.39,1.79,1.79,0,0,0-.31,1c0,.46-.12.93.38,1.13a3,3,0,0,1,.33.17l0,0-1.49-.06a2.35,2.35,0,0,1-2-1.47"/><path class="cls-3" d="M22.19,18a3.86,3.86,0,0,0,.51-1A2.6,2.6,0,0,0,22.56,15l.07,0c.28.18.67.3.72.45s.49.28.76.43a.8.8,0,0,0,.84-.12c.17-.16.36.07.36.07.26.19.5-.31.61-.31a1,1,0,0,0,.41-.17c.2-.12.52-.43.66-.42s.22,0,.44-.2.17-.73.17-.73l.17-.11a.5.5,0,0,0,.3.28s-.12.14.18.22.57.35.93.51l0,0a1.06,1.06,0,0,0-.18.33,16.18,16.18,0,0,0-.66,1.85c-.1.52-.46.12-.46.12a1.72,1.72,0,0,1-.25.25,1.11,1.11,0,0,1-.39.07s-.16.21-.23.22a.45.45,0,0,0-.23.27c0,.09,0,.21-.23.25A2.37,2.37,0,0,1,25.7,18l-.91-.5-.13-.07-2.32.6Z"/><path class="cls-3" d="M14.19,36c-.31-.24-.16-.55-.2-1.41s1.44-1.19,1.83-1.23,1.94-.43,1.94-.43l1.51-.64h0l.1.11c.16.13.34.35.5.48a.94.94,0,0,0,.62.09,1.41,1.41,0,0,0,.47-.23c.12-.06.11-.28.12-.45a5.76,5.76,0,0,1,.11-.69c0-.11.15-.42.17-.48h0c.11-.14.39-.22.46-.26s.19-.16.27-.16a1.2,1.2,0,0,1,.34.14,1.68,1.68,0,0,0,.91,0c.19-.06.24-.14.21-.21h0a10.35,10.35,0,0,1,2.46,1l0,0h0l0,0a1.35,1.35,0,0,1,.7,1c0,.15.13.19.23.3s0,.13.14.28.44.43.58.62.24.56.3.62h0c.14.54.27,1.22.27,1.22l.15.63h0c-.06.64-.35,2.58-2,2.79l0,0h0a3.26,3.26,0,0,1-.82.89,3.61,3.61,0,0,1-1.68.59h0a1.79,1.79,0,0,1-1.48-.56l-.18,0a6.27,6.27,0,0,0,.57-1.48s1.13-.15,1.16-.69.43-1.35-2.82-2.53a4.69,4.69,0,0,0-1.44,1.64,9.87,9.87,0,0,0-.66,1.77l-.12,0a22.81,22.81,0,0,1-3-2.79h0l0,0a12,12,0,0,0-1.13.64l0,0a3.91,3.91,0,0,1-.58-.39"/><path class="cls-3" d="M18.81,40.89a8,8,0,0,1,.26-2.29,9.81,9.81,0,0,1,.66-1.77,4.7,4.7,0,0,1,1.44-1.64c3.25,1.19,2.85,2,2.82,2.53s-1.16.69-1.16.69a6.21,6.21,0,0,1-.57,1.48l-.19.37-.46.94A18.52,18.52,0,0,0,20.91,43c0,.31.49.38.69.42a4,4,0,0,1,.86.48,3.86,3.86,0,0,1,.47.49.67.67,0,0,0,.18.21,3.36,3.36,0,0,1,.45.29l.75.92c.07.07.13.2.08.27a.35.35,0,0,1-.2.08l-.91-.58-.67-.26a3.35,3.35,0,0,1,.62.86l.33.77c.1.26,0,.32-.17.37s-.31-.16-.31-.16l-.38-.64-.73-1,.15.44.16.39.19.65s.13.45.17.56,0,.17-.11.23-.29-.05-.29-.05l-.73-1.53,0,.34c0,.19-.45.38-.54.4a.53.53,0,0,0-.31.17c-.09.11-.17.05-.17.05-.17-.1-.09-.35-.06-.4s.29-.19.35-.26-.06-.4-.1-.49a3.45,3.45,0,0,0-.54-.43l-.55-.46a3.64,3.64,0,0,1-.67-2.27h0c-.05-.66-.07-1.38-.1-2.06"/><path class="cls-3" d="M19.46,22.06c-.06-.24,0-.26,0-.26a5.47,5.47,0,0,0,1-2.19c.17-.52.51-.59.86-.76a2.79,2.79,0,0,0,.84-.85l.15.07,2.32-.6.13.07,0,0A2.09,2.09,0,0,1,24.4,19h0l.06,0a4.68,4.68,0,0,1,0,.81,1.33,1.33,0,0,1-.5.29h0c-.78.35-2.21.84-2.21.84l-1,.48-1.21.61Z"/><path class="cls-3" d="M14.28,17.75c-.76-1-.18-1.79.89-3S19,13.45,19.68,13.4v0a3.89,3.89,0,0,1,1.58.39,3.06,3.06,0,0,1,.52.32,2.74,2.74,0,0,1,.79,1A2.61,2.61,0,0,1,22.7,17a3.86,3.86,0,0,1-.51,1,2.83,2.83,0,0,1-.84.85c-.35.17-.69.25-.86.76a5.48,5.48,0,0,1-1,2.19s-.09,0,0,.26a1.78,1.78,0,0,0,.09.27,8,8,0,0,1,.88,2.83,9.14,9.14,0,0,0,.41,2.75c.24.78.71,1.72.9,1.73a1.26,1.26,0,0,1,.7.28,3.23,3.23,0,0,0,.79.43c.09,0,.29.13.33.23s0,.14-.21.21a1.69,1.69,0,0,1-.91,0,1.17,1.17,0,0,0-.34-.14c-.08,0-.2.12-.27.16s-.35.12-.46.26h0c0,.06-.14.37-.17.48a5.56,5.56,0,0,0-.11.69c0,.17,0,.38-.12.45a1.41,1.41,0,0,1-.47.24,1,1,0,0,1-.62-.09c-.16-.13-.34-.36-.5-.48l-.1-.11a1.16,1.16,0,0,1-.2-.89,5.34,5.34,0,0,1,.4-1.05c0-.12-.57-1.64-.57-1.64s-.89-1.2-1-1.5a6.17,6.17,0,0,1-1-2.05,9.29,9.29,0,0,1-.26-1.59,3.08,3.08,0,0,1-.1-1c0-.15,0-.3,0-.48a23.17,23.17,0,0,0,.1-2.49c0-.06,0-.17,0-.33h-.11c-.78.29-1.6-.53-2.35-1.48"/><path class="cls-3" d="M10.87,35.79a5.18,5.18,0,0,1,.17-1,21.86,21.86,0,0,0,.43-2.21C11.48,32,11,29.64,11,28a4,4,0,0,1,1-2.62v0a26.21,26.21,0,0,0,4.89-.22h0a6.21,6.21,0,0,0,1,2.05c.15.3,1,1.5,1,1.5s.58,1.52.57,1.64a5.27,5.27,0,0,0-.4,1.05,1.17,1.17,0,0,0,.19.89h0l-1.51.64s-1.56.39-1.94.43-1.87.37-1.83,1.23-.1,1.17.2,1.41a3.81,3.81,0,0,0,.58.39l0,0a3.25,3.25,0,0,0-.66.53,3.46,3.46,0,0,0-.8,1.39h-.08a8.79,8.79,0,0,0-1.2-.71l-.66-.09v-.09h0a3.61,3.61,0,0,1-.53-1.68"/><path class="cls-3" d="M8.51,24.72c-.89-1.35-.32-1.9-.24-2a1.77,1.77,0,0,0,1.41.6c1-.14,2-.5,2.55-.14s1.36,1.28,2.36.62c.72-.47,1.38-.95,1.7-1.18l.2-.14h.08a3.08,3.08,0,0,0,.1,1,9.33,9.33,0,0,0,.26,1.59h0a26.17,26.17,0,0,1-4.89.22,15.11,15.11,0,0,1-2-.23,9.52,9.52,0,0,1-1-.25H9l-.51-.17"/><path class="cls-3" d="M7.74,22.2c-.23-.2-.41-1.13-.16-1.35s1-1.09,1-1.09c1.13-2,2.29-2.3,2.29-2.3h.07c-.14.8-.23,1.89-.25,2.08a3.48,3.48,0,0,0,1,1.45,4,4,0,0,0,1.31.5c.29,0,1.64.58,1.88.64l1.41.47,0,.06c-.32.23-1,.7-1.7,1.18-1,.66-1.85-.25-2.36-.62s-1.58,0-2.55.14a1.77,1.77,0,0,1-1.41-.6c-.25-.24-.44-.48-.53-.57"/><path class="cls-3" d="M11.84,50.82a14.6,14.6,0,0,1-.74-1.55,8.4,8.4,0,0,1,.73-2.13,4,4,0,0,0,.28-1.49.93.93,0,0,1,.29-.56l0-.06.08.07a18.3,18.3,0,0,0,3.78,3c1.46.7,4.67,2,5,2.09l.38.14h0l.69.06c2.83.1,3-1.13,3.52-2.25a2.23,2.23,0,0,0,.16-.41l.11,0a9.21,9.21,0,0,1,.66,1,4.24,4.24,0,0,1,.1,2.14c0,.41-.29.45-.86,1.1s-1.87.4-2.47.24a23.3,23.3,0,0,0-2.8-.55A12.22,12.22,0,0,1,18,50.4a24.69,24.69,0,0,1-2.46-1.93,2.28,2.28,0,0,0-.95-.36,8.43,8.43,0,0,0-1.68,1,1,1,0,0,0-.35.37c-.06.15,0,.24.07.39s.22.14.34.19l.47.16c.13,0-.23.48-.31.51s-.06.16-.06.26-.2.15-.27.16a3.39,3.39,0,0,1-.35,0,2,2,0,0,1-.39,0,.8.8,0,0,1-.23-.27"/><path class="cls-3" d="M10.67,19.55c0-.2.11-1.28.25-2.08,0-.18.06-.35.1-.48.19-.75.83-1,1.27-1.26s.94-1.24,1.43-1.54a13.22,13.22,0,0,1,2.82-.79,12.45,12.45,0,0,1,3,0h.16v0c-.64,0-3.55.34-4.51,1.39s-1.65,2-.89,3,1.57,1.77,2.35,1.48h.11c0,.15,0,.27,0,.33a23.17,23.17,0,0,1-.1,2.49c0,.17,0,.33,0,.48h-.08l-.2.14,0-.06-1.41-.47c-.23-.06-1.59-.62-1.88-.64A4,4,0,0,1,11.64,21a3.47,3.47,0,0,1-1-1.45"/><path class="cls-3" d="M11.74,42.19a5.09,5.09,0,0,0,3.05,1.3c1.55.09,3.2.32,4.11-.54a3.65,3.65,0,0,0,.67,2.27l.55.46a3.42,3.42,0,0,1,.54.43c0,.1.17.43.1.49s-.32.21-.35.26-.11.3.06.4c0,0,.08.06.17-.05a.53.53,0,0,1,.31-.17c.09,0,.53-.21.54-.4l0-.34.73,1.53s.22.11.29,0,.15-.12.11-.23-.17-.56-.17-.56l-.19-.65L22.12,46,22,45.6l.73,1,.38.64s.19.22.31.16.27-.11.17-.37l-.32-.77a3.36,3.36,0,0,0-.62-.86l.67.26.91.58a.35.35,0,0,0,.2-.08c.05-.07,0-.2-.08-.27l-.75-.92a3.32,3.32,0,0,0-.45-.29.69.69,0,0,1-.18-.21,3.86,3.86,0,0,0-.47-.49,4,4,0,0,0-.86-.48c-.2,0-.74-.11-.69-.42a18.78,18.78,0,0,1,.68-1.82l.46-.94.19-.37.18,0a1.79,1.79,0,0,0,1.48.56v.07a11.19,11.19,0,0,1,.74,1.86c0,.29.42,1.5.72,2.46.2.62.37,1.13.4,1.21a2.08,2.08,0,0,1,.33,1.46c0,.05,0,.1,0,.16a2.3,2.3,0,0,1-.16.41c-.54,1.12-.68,2.35-3.52,2.25l-.69-.06v0l-.38-.14c-.35-.12-3.56-1.39-5-2.09a18.3,18.3,0,0,1-3.78-3L12.45,45a3.18,3.18,0,0,1-.74-2.82l0,0Z"/><path class="cls-3" d="M7.86,36.69c-.6,0-.4-.32-.4-.32s.2-.44.27-.57c1.22-1.69.93-4.65.9-6.88A5.2,5.2,0,0,1,10,25.21v-.06a14.88,14.88,0,0,0,2,.23v0A4,4,0,0,0,11,28c0,1.6.46,4,.45,4.52A21.55,21.55,0,0,1,11,34.78l-.2.94.25,1.34s.21.53-.67.43a1.39,1.39,0,0,1-1.48-.33,1.25,1.25,0,0,0-1.08-.47"/><path class="cls-3" d="M11.62,42.06a3.34,3.34,0,0,1-.46-1.4l-.19,0,.1-.11a4.76,4.76,0,0,1,1.65-1c.13,0,.68,0,1.15,0v0a1.37,1.37,0,0,1-.58-1,1.18,1.18,0,0,1,0-.18,3.45,3.45,0,0,1,.8-1.4,3.26,3.26,0,0,1,.66-.53,11.69,11.69,0,0,1,1.13-.64l0,0a23,23,0,0,0,3,2.79l.12,0a8,8,0,0,0-.26,2.29c0,.67,0,1.39.1,2.06h0c-.92.86-2.56.64-4.11.54a5.09,5.09,0,0,1-3.05-1.3l-.12-.13"/><path class="cls-6" d="M10,25.2a4.06,4.06,0,0,0-1.42,3.39c0,2.23.35,5.3-.57,7a3.9,3.9,0,0,1-.22.36s-.71.84-.11.87.95,0,1.24.32a1.53,1.53,0,0,0,.4.35,3.85,3.85,0,0,0,1.27,0M12,25.42A4,4,0,0,0,11,28c0,1.6.46,4,.45,4.53a14.16,14.16,0,0,1-.32,2,4.71,4.71,0,0,0,.11,2.85m-3-14.66h0c-.08.07-.65.61.24,2m8-2.19-.2.14c-.32.23-1,.7-1.7,1.18-1,.66-1.85-.25-2.36-.62s-1.58,0-2.55.14a1.77,1.77,0,0,1-1.41-.6c-.25-.24-.44-.48-.53-.57s-.41-1.13-.16-1.35,1-1.09,1-1.09c1.13-2,2.29-2.3,2.29-2.3M21.37,31.11c0,.06-.14.37-.17.48a5.78,5.78,0,0,0-.11.69c0,.17,0,.39-.12.45a1.41,1.41,0,0,1-.47.23.94.94,0,0,1-.62-.09c-.16-.13-.34-.36-.5-.48l-.1-.11a1.17,1.17,0,0,1-.2-.89,5.23,5.23,0,0,1,.4-1.05c0-.12-.57-1.64-.57-1.64s-.89-1.2-1-1.5a6.19,6.19,0,0,1-1-2.05,9.42,9.42,0,0,1-.26-1.59,3.08,3.08,0,0,1-.1-1c0-.14,0-.3,0-.48a23.19,23.19,0,0,0,.1-2.49c0-.06,0-.17,0-.33a9.2,9.2,0,0,1,.41-1.87,26.66,26.66,0,0,1,1.38-2.58m2.85,16.32h0M16.23,22.6l-1.41-.47c-.23-.06-1.59-.62-1.88-.64a3.94,3.94,0,0,1-1.31-.5,3.49,3.49,0,0,1-1-1.45c0-.2.11-1.28.25-2.08,0-.18.06-.34.1-.48.19-.75.83-1,1.27-1.26s.94-1.24,1.43-1.54a13.25,13.25,0,0,1,2.83-.79,12.47,12.47,0,0,1,3,0h.16a3.89,3.89,0,0,1,1.58.39,3.11,3.11,0,0,1,.52.32,2.75,2.75,0,0,1,.79,1A2.61,2.61,0,0,1,22.7,17a3.89,3.89,0,0,1-.51,1,2.84,2.84,0,0,1-.84.85c-.35.17-.69.25-.86.76a5.5,5.5,0,0,1-1,2.19s-.09,0,0,.26a1.9,1.9,0,0,0,.09.27,8,8,0,0,1,.88,2.83,9.13,9.13,0,0,0,.41,2.75c.24.78.71,1.72.9,1.73a1.28,1.28,0,0,1,.7.28,3.17,3.17,0,0,0,.79.43c.09,0,.29.13.33.23s0,.14-.21.21a1.69,1.69,0,0,1-.91,0,1.18,1.18,0,0,0-.34-.14c-.08,0-.2.12-.27.16s-.35.12-.46.26h0l0,0M16.62,19.22c-.78.29-1.6-.53-2.35-1.48s-.18-1.79.9-3,3.86-1.34,4.51-1.39m-.13,8.67,1.22-.61,1-.48s1.43-.5,2.21-.84a1.32,1.32,0,0,0,.5-.29,4.6,4.6,0,0,0,0-.81m.3-1.47A2.1,2.1,0,0,1,24.4,19a1.25,1.25,0,0,1-.28.25l-.8.53m4.53-2.53s.36.4.46-.12A16.18,16.18,0,0,1,29,15.27a1.06,1.06,0,0,1,.18-.33m-6.82,3.12,2.32-.6.13.07.91.5a2.37,2.37,0,0,0,.82.29c.22,0,.22-.16.23-.25a.44.44,0,0,1,.23-.27c.07,0,.23-.23.23-.23a1.11,1.11,0,0,0,.39-.07,1.63,1.63,0,0,0,.25-.25h0m-6.57-3.55c-.14-.36.24-.7.4-.8l.27-.07v-.06c0-.52,1.56-.77,1.56-.77,0-1,2.48-.59,2.48-.59a3.53,3.53,0,0,1,2.31.68c.9-.17,1.38.91,1.38.91.86.26.49,1.5.46,1.61s0,.32-.47.39a.92.92,0,0,1-.49-.1,3.89,3.89,0,0,1-.93-.41L27.6,14s0,.51-.17.73-.3.2-.44.2-.46.31-.66.42a2,2,0,0,1-1,.48,3,3,0,0,1-1.2.05c-.26-.14-.86.13-.94-.1a1.22,1.22,0,0,0-.49-.54m4.23,2,.31.34m-6.39,3.9a1.53,1.53,0,0,0,0,.93,2.34,2.34,0,0,0,2,1.47l1.49.06m-.14-3.73s.95.67,1,1M19.25,32.3l-1.51.65s-1.56.39-1.94.43-1.87.37-1.83,1.23-.1,1.17.2,1.41a3.92,3.92,0,0,0,.58.39m1.15-.6a11.68,11.68,0,0,0-1.13.64,3.3,3.3,0,0,0-.66.53,3.47,3.47,0,0,0-.8,1.4,1.09,1.09,0,0,0,.55,1.21m-.63-1.22a8.93,8.93,0,0,0-1.2-.71l-.66-.09a4.29,4.29,0,0,0-.86-.06c-.36,0-1.48.68-1.55,1.34S8.37,41.3,10,41.27a6.43,6.43,0,0,0,.93-.62l.1-.11a4.78,4.78,0,0,1,1.66-1c.13,0,.68,0,1.15,0a1.19,1.19,0,0,1,.69.2c.21.27.35,1.17.47,1.27l1.1.9M22,45.6h0l.73,1,.38.64s.19.22.31.16.27-.11.17-.37l-.33-.77a3.33,3.33,0,0,0-.62-.86l.67.26.91.58a.35.35,0,0,0,.2-.08c.05-.07,0-.2-.08-.27l-.75-.92a3.41,3.41,0,0,0-.45-.29.69.69,0,0,1-.18-.21,3.93,3.93,0,0,0-.47-.49,4,4,0,0,0-.86-.48c-.2,0-.74-.12-.69-.43a18.82,18.82,0,0,1,.68-1.83l.46-.94.19-.37a6.25,6.25,0,0,0,.57-1.48s1.13-.15,1.16-.7.43-1.35-2.82-2.53a4.7,4.7,0,0,0-1.44,1.64,9.91,9.91,0,0,0-.66,1.77,8,8,0,0,0-.26,2.29c0,.67,0,1.4.1,2.06m2.6,3.34h0l.73,1.53s.22.11.29.05.15-.12.11-.23-.17-.56-.17-.56l-.19-.65L22.11,46,22,45.61M18.9,43a3.65,3.65,0,0,0,.67,2.27l.55.46a3.45,3.45,0,0,1,.54.43c0,.1.17.43.1.49s-.33.21-.35.26-.11.3.06.4c0,0,.08.06.17-.05a.53.53,0,0,1,.31-.17c.09,0,.53-.21.54-.4l0-.34M15.59,35.4l.35.38a23,23,0,0,0,3,2.79m-7.79,2.09a3.36,3.36,0,0,0,.46,1.4l.12.13a5.09,5.09,0,0,0,3.05,1.3c1.56.09,3.2.32,4.12-.54h0m-7.21-.72a3.18,3.18,0,0,0,.74,2.82l.08.07a18.29,18.29,0,0,0,3.78,3c1.46.7,4.67,2,5,2.09l.38.14a12,12,0,0,1,2,1M12.39,45.11a.93.93,0,0,0-.29.56,4,4,0,0,1-.28,1.49,8.36,8.36,0,0,0-.73,2.13,14.62,14.62,0,0,0,.75,1.55.8.8,0,0,0,.23.27,2.06,2.06,0,0,0,.39,0,3.1,3.1,0,0,0,.35,0c.07,0,.27-.07.27-.16s0-.23.06-.26.44-.47.31-.51L13,50.06c-.12,0-.27,0-.34-.19s-.13-.24-.07-.39a1,1,0,0,1,.35-.38,8.45,8.45,0,0,1,1.68-1,2.29,2.29,0,0,1,.95.36A24.87,24.87,0,0,0,18,50.41a12.32,12.32,0,0,0,2.8,1.23,23.37,23.37,0,0,1,2.8.55c.6.17,1.9.42,2.47-.24s.82-.69.86-1.1a4.25,4.25,0,0,0-.1-2.14,9.21,9.21,0,0,0-.66-1m-2.6-17.17a10.37,10.37,0,0,1,2.46,1l0,0a1.11,1.11,0,0,1,.21.2m-2.37,8.8a11.19,11.19,0,0,1,.74,1.86c0,.29.42,1.5.72,2.46.2.62.37,1.13.4,1.22a2.07,2.07,0,0,1,.33,1.46l0,.16a2.35,2.35,0,0,1-.16.41c-.54,1.12-.68,2.36-3.52,2.25l-.69-.06M26.46,39c1.62-.21,1.93-2.22,2-2.86a5.25,5.25,0,0,0-.15-.63s-.13-.61-.27-1.15a30.64,30.64,0,0,0-1.73-2.64m-.22-.26s-.25-1,.18-1.24l.06-.05c.08-.07.22-.2.31-.31s.45-.52.64-.54a1,1,0,0,0,.53-.35,1.35,1.35,0,0,1,1.19-.6,17.26,17.26,0,0,1,2.22.29,7.89,7.89,0,0,0,1.17.74,2.32,2.32,0,0,1,.31,0,.8.8,0,0,1,.68.51.51.51,0,0,1,.05.74s.68.39.79.72.2,1-.39,1.16c0,0-.71.09-.83.08s0-.29-.2-.33a.54.54,0,0,0-.48.07,7.11,7.11,0,0,1-.89.52c-.16,0-.45.1-.49.19s-.15.31-.74.63l-2.19.5m.62.27a4.07,4.07,0,0,0,.46.73,1.91,1.91,0,0,0,1.59.47c.22-.07.28-.24.41-.26s.3-.21.46-.23.34-.4.34-.4.54.13.55-.19,0-1.11,0-1.11a1.29,1.29,0,0,0,.53-.86m-1.78,2.51L31,35m.87-.17s-.4-.12-.4-.25m-9,5.34a1.79,1.79,0,0,0,1.48.56h0A3.7,3.7,0,0,0,26.41,39c.5-.95.88-2.24-.6-4.1m7.81-11A1.24,1.24,0,0,0,34,25l.15.27a1.15,1.15,0,0,0,.53-.07,2,2,0,0,0,.54-.38c.43-.32.08-.63.19-1a.72.72,0,0,0-.2-.63.12.12,0,0,0,.13-.11c0-.12-.33-.38-.37-.41s0-.19,0-.35a3,3,0,0,1-.17-.58c0-.05-.08-.36-.09-.41a.68.68,0,0,0-.39-.49c0-.23-.29-.41-.29-.41.07-.5-.43-.44-.49-.66s-.51-.43-.51-.43A1.17,1.17,0,0,0,32.3,19a3.65,3.65,0,0,0-1,.27,1.06,1.06,0,0,0-.67.07,1,1,0,0,0-1.15.61,2,2,0,0,0-.58.61,21.52,21.52,0,0,0-.67,2.33c-.09.65,0,.51-.1.68s-1.34,1.38-.72,1.83.8.51.91.81,1.89.51,2.27.34.6-1.43.6-1.43a2.48,2.48,0,0,0-.06-.94A3,3,0,0,0,31,23.8a3,3,0,0,1-.26-1.2,1.54,1.54,0,0,0-.31-.86,1.09,1.09,0,0,1-.35-.89,1.93,1.93,0,0,1,.62-1.14,2.23,2.23,0,0,1,1.63-.18l.43.38c.07.05.35.23.55.4a.87.87,0,0,1,.27.46m.48.64c0,.11.16,1.06.16,1.13s.28.78.09.94a4.15,4.15,0,0,1-.75.43A7.71,7.71,0,0,1,31,23.56m-3.52,1.89s-2.6,1.49-2.08,5.66m7.25-4.63.06,3m-5,14.83s-.25-3.59-.15-4.1M30.9,15.67s0-.92.26-1.15A2.07,2.07,0,0,1,32,14a.71.71,0,0,1,.4,0c.47.19,1.79.8,2.13,1.57a1,1,0,0,1,0,1,.75.75,0,0,1-.28.24,3.84,3.84,0,0,1-.79.23m3.36-6.4h0M32,13.87A1.65,1.65,0,0,1,32.35,12c.81-1,1.07-1.08,1.41-1.13l.93-.12a2,2,0,0,1,2.19-.11M34.76,21.56s.56-1.3.61-1.38a4.39,4.39,0,0,0,0-3.94c-.15-.38-.74.33-.77.37h0m6,1.74s-.16.75-.27.71-.42-.56-.42-.56l.33-1.15.15-1.43v-.07L41.54,14a2,2,0,0,0-.25-.91,2.32,2.32,0,0,1-.55-.72c0-.16-.15-.69-.15-.69s-.82.67-1,.77a2.69,2.69,0,0,1-.94,0,.79.79,0,0,0-.62.28c-.09.18-.41.76-.5.88a3.06,3.06,0,0,0-.19,1,.7.7,0,0,1-.14.38,1.57,1.57,0,0,0-.18.3c-.08.2,0,.4.07.72a3.6,3.6,0,0,1-.06,1c0,.16-.31.16-.37.15a2.16,2.16,0,0,0-.41.2s.07-.44.1-.55a7.15,7.15,0,0,0-.34-1,17.3,17.3,0,0,1-.27-2.11,12.15,12.15,0,0,1,.39-1.48,5.86,5.86,0,0,1,.45-1.22,3,3,0,0,1,.32-.42h0a8,8,0,0,1,.71-.72,7.31,7.31,0,0,1,1.24-.39,2.7,2.7,0,0,1,2,.58s.78,0,1,.52a5.8,5.8,0,0,1,.61,1.54c0,.24-.19.48-.16.62a4.3,4.3,0,0,1-.13,1.08l0,.07a1,1,0,0,0-.08.46c0,.18.19.76.09.89s-.28.24-.29.35,0,.64-.17.77a.68.68,0,0,0-.25.43c0,.1.15.78-.08,1.07a1.32,1.32,0,0,1-.22.23h0a.4.4,0,0,0-.26.06ZM37.26,15s.38,1.35,1.09,1.53a3.5,3.5,0,0,0,2-.65m5.78,2.57s0-.15,0-.15M42.19,14a7.32,7.32,0,0,1,3.45,3,4,4,0,0,1,.5,1.29c0,.14,0,.2,0,.21h0m1,1.12a3.56,3.56,0,0,0-1.05-1.07,6.52,6.52,0,0,0-1.33-.74m-3.7.38s-.36,1.45,1.63,2.86m-5.16,4.25-2-1M36.73,45.4a2,2,0,0,0,.37-1.71c-.31-1.29-.26-1.58-.14-2s1.69-2.17,2.8-4.18c.12-.21.23-.43.33-.64a5.31,5.31,0,0,0,.67-2.58l1-2.09v0M34.58,50l-.3,1.59.62-1.67L36.06,47l1.42,3.85-.81-5.42-.05-.58a1.18,1.18,0,0,0-.83.48,7.07,7.07,0,0,0-.63,1.77,2.56,2.56,0,0,1-.26.66h0c-.34,0-.31-.47-.31-.47l-.12-2.06a1,1,0,0,1-.26-.29,2.37,2.37,0,0,1-.13-1.22,5.68,5.68,0,0,1,.74-1.7c.14-.31.4-1.14.65-1.95.29-1,.55-1.91.55-1.91a13.46,13.46,0,0,1,.56-2.67,3.3,3.3,0,0,1,1.09-1.77,3.68,3.68,0,0,0,.42-.92m-3.16,15L34.58,50m3.78-21.55A1.64,1.64,0,0,1,38,29c-.17.12-1,1.16-.81,1.83s.5,1.85.5,1.85l.33,0,3-.37a4.24,4.24,0,0,0,.46-.15,2.25,2.25,0,0,0,.85-.51c.38-.42,1.44-2.18,1.44-2.18M29.56,51.16l4.76,1.56,8.89-2.53-5.07-1-3.24.76-.32.08-5,1.17h0m0,0v1.25L34.38,54l8.83-2.6V50.19m-8.89,2.53V54m3.47-27.7a.47.47,0,0,1-.19-.46c.07-.27-.21-.77,0-.89s.17-.48.34-.77a.6.6,0,0,1,.41-.3c.59-.12.35-.68.79-.81s.83-.46,1-.45a6.71,6.71,0,0,0,.87-.26l.46-.06a1.35,1.35,0,0,1,.56,0,5.15,5.15,0,0,0,.64.29,2.23,2.23,0,0,0,.47.15c.2,0,.94.31,1.07.32s.58,0,.53.21-.16.32-.06.37.38.2.35.29-.17.3-.14.42.32.53.37.67.07.35,0,.44-.21.17-.13.25A.3.3,0,0,1,45,26c-.08.07-.19.28-.28.38a5.64,5.64,0,0,1-.44.57c-.12.09-.47.05-.52.2s-.53.3-.64.29-.72.38-.83.15a1.51,1.51,0,0,1,0-.8c0-.15.23-.28.28-.39a.42.42,0,0,0,0-.35c-.05-.06-.35-.31-.1-.57a6.9,6.9,0,0,0,.83-1.42.67.67,0,0,0,0-.57,7.57,7.57,0,0,0-.77-.45,5.73,5.73,0,0,0-1.06-.2,2.29,2.29,0,0,0-.88.09c-.2.12-.7.31-.8.38s-.49.44-.49.44l-.55.47a3.1,3.1,0,0,0-.73,2,5.26,5.26,0,0,0,.06,1,2.43,2.43,0,0,0,.47,1.09c.11.13.92.76.92.76l.4.07a.58.58,0,0,1,.41.31c.1.22.35,1.1.84.95l.35-.33.61.25c.09,0,.9.45,1.87-.94a5.62,5.62,0,0,0,.3-.49s.33-.85.69-1.54c.08,0,.39-.23.49-.27a2.94,2.94,0,0,0,1.45-1.84s0-.2,0-.5m-.94,3.57c0,.28-.47,1.89-.52,2.22a2,2,0,0,0,.08,1.08,6.48,6.48,0,0,1,.36,1.92,20.05,20.05,0,0,1-.4,2.34l-.07.32-.09.37-.6,1.29s-1,1.93-1.17,2.38a5,5,0,0,0-.15,4.09l.33,1.21c.56,1.76.76,1.91,1.4,2m1.61-6.38A22.87,22.87,0,0,1,46,45.06a6.69,6.69,0,0,0-.62,1.88A5.64,5.64,0,0,1,45,48.4a4,4,0,0,0-.28.69,1.34,1.34,0,0,0-.05.49c0,.46.07.84.4.89a3.07,3.07,0,0,0,.84-.07,3.63,3.63,0,0,0,.71.19,1.3,1.3,0,0,0,.7-.05c.17-.11.52-.23.67-.35s.58-.49.57-.78a5.24,5.24,0,0,0-.71-1.29s0-.12-.08-.31a3.16,3.16,0,0,1,0-1.76c.33-.65,3.91-5.63,3.66-9.17m2.09-.5a3.46,3.46,0,0,0-2.12.46h0a2,2,0,0,0-.5.49,35.71,35.71,0,0,1-4.31,3.86l-1.15.92a7,7,0,0,0-.57.76,28.65,28.65,0,0,1,6-15m-9.43-5.8a3.71,3.71,0,0,1,1.29-1c.19-.08,3.9-2,7.25-1.42m-3.32,4.19c0-.12,1-3.21,2.92-4a1.9,1.9,0,0,1,1.53-.06c.41.17,1.57-.27,2.9.75l1.06-.33a2.33,2.33,0,0,1,2.72,2.26c0,1-1.33,2.22-1.33,2.22l-1.36,1.11c-.38.67-1.78,1.39-2.21,1.69a2.52,2.52,0,0,1-2,.38c-2.12-.44-4.09-3-4.09-3m2.31,21.44A6.56,6.56,0,0,0,51.54,48M41.88,30.23l.31-.19m-7.31,3.51s-.13-1.61-.09-2.25c0-.35.39-2.1.73-3.61m.59,5s-2.62,1.06-1.55,3.48m.23-.06c-.45.61-.42.56-.48.72A9.31,9.31,0,0,0,34,38c0,.13,0,.4-.1.45s-.45.31-.49.25-.37-.53-.52-.56-.38-.05-.29.16-.59.1-.12.51l.47.41a2.34,2.34,0,0,0,.7.43.86.86,0,0,0,.93-.32m.16-3.21h0m1.74-.69a.86.86,0,0,0-1.17.17l-.57.52h0m-.15,1.71c0,.18-.17.82.22.88a.37.37,0,0,0,.39-.36,1.86,1.86,0,0,1,.24-.69m-.71,1.1s0,.28-.08.57a2.3,2.3,0,0,1-.15.6,1.75,1.75,0,0,0-.22.85s.18.58.48.16l.3-.41.32-.51m2.94-24.2a.93.93,0,0,0,.49.19m-.18-.61s0,.08.29.1m-5.74,7a2.73,2.73,0,0,0,.78-.3m-2.74-1s.54-.74.81-.53m-.26.24.06.09m-.24,12.77-.17.15M27.66,15.81l-.12.18m10.87-1.84,0,.14m1.85.52,0,.22M41.25,28.9l.15.16M40.69,29,42,28.7M51.9,28l-1.17,4.6m2.16-5.13c-7.39-2-2.56-6.84-1.81-7.55M27.32,15.49l.79.53M38,13.85a2.19,2.19,0,0,0,.94.29m1,.53a2.19,2.19,0,0,0,.95.29M32,33.81s-.54-.14-.66-.36m-5.64-12,.31,0,.87.12c.1,0,.8.14.8.14.07.2-.35.34-.35.34l-.75.12.23.38c.23.38-.28.68-.28.68.15.72-.31.94-.31.94a1.69,1.69,0,0,1-1.89-.22A2.72,2.72,0,0,0,24,23.7c-.5-.2-.36-.66-.38-1.13a1.79,1.79,0,0,1,.31-1,2.44,2.44,0,0,1,.74-.39l.52.14.51.14h0s.23.37.13.44-.51.25-.68.16L25,21.92m10-7.25.47,1.8M55.31,48.1s-2.82-.54-2.93-5.05m-26.27-.2s2.62,2.78,3.48,2.88M31,38.87c-.09,1.38-.2,2.38-.2,2.38a21.07,21.07,0,0,1-1.22,4.48,8.26,8.26,0,0,0,2-.36c1-.33,1.6-1.09,2.53-.55m6-7.88a27.25,27.25,0,0,1,3.42-.54h0c1-.09,1.68-.09,1.68-.09m-5.2.7s0,3,0,3.24a3.28,3.28,0,0,1-.2,1.62,3,3,0,0,0-.55,1.39,3.24,3.24,0,0,1,0,.94c-.05.15-.35,1.07-.35,1.07s-.12.76.59.85A4.79,4.79,0,0,0,41.55,46c.38-.19.67-.57.57-.81s-.39-.42-.57-.65a1.41,1.41,0,0,1-.34-1,2.71,2.71,0,0,0,.11-.55A2.38,2.38,0,0,1,41.44,42c.16-.23,1.37-2.07,1.37-2.07a7.65,7.65,0,0,0,.78-3.35m-10.81-20-.23-.4L32.41,16a.29.29,0,0,1,0-.31c.1-.13.33,0,.36,0a3.22,3.22,0,0,0,.35.34c.19.15.16,0,.32.72a1,1,0,0,1,0,.36c-.05.37-.48.3-1,.61a1.23,1.23,0,0,1-1.27,0s-1-.91-1-1-.16-.08-.25,0,0,.11-.41.11a.62.62,0,0,1-.6-.32c-.05-.1.47-.32.47-.32a3.14,3.14,0,0,1,1.16-.38l.27,0A1.46,1.46,0,0,1,32,15.9l.54.32m-25,20.48s-1.58-.34-1.64-.55a.18.18,0,0,1,0-.2,3.09,3.09,0,0,0,.43-.52c0-.06.05-.09.21-.43l.59-1.3c.32-.83.27-1,.27-1l.36-4.55A4.85,4.85,0,0,1,9,25m7.9.2a26.12,26.12,0,0,1-4.89.22,15.1,15.1,0,0,1-2-.23,9.8,9.8,0,0,1-1-.25l-.51-.18s-1.06.39-1.39,3.08a21.78,21.78,0,0,1-.48,3.72,12.62,12.62,0,0,1-2.08,2.85.59.59,0,0,0,.09.86l1,.71M57.22,24a27.11,27.11,0,0,1,1.35,6.61,34.29,34.29,0,0,1-1.28,12.54c-.46,1.87.28,4.52,1.12,4.73,0,0-3.21.35-4.58.3l-1.29,0a42.67,42.67,0,0,1-4.67-.33"/><path class="cls-7" d="M45.3,42.22S43.84,43.38,46,44"/><path class="cls-6" d="M57,28.76A13.09,13.09,0,0,1,57,33c-.39,2.21.44,8.8.26,10.11"/><line class="cls-6" x1="52.35" y1="23" x2="53.6" y2="21.75"/><path class="cls-6" d="M34.79,31.72s1.12-3.47,1.83-3.75M25.19,33s2.64,1,3,2.28M17.46,26.67a9.67,9.67,0,0,0,.21,2.82c.34,1.65.83,3.17.83,3.17M31,26.36s2.56.58,3.12-1.25m-6,12.67a14.7,14.7,0,0,1-.63,2.54s-.24.65-.52,1.23S25,43.68,25,43.68m-3.88-8.49a2.8,2.8,0,0,1,2.14-.79s.64,0,1.15,0M44.64,23a1.74,1.74,0,0,1,2.14,1.79M33.55,21.76a.93.93,0,0,0,.54-.53A7.72,7.72,0,0,0,33,20.58c-.4-.17,0-.48,0-.48m11.61,7.1a10.86,10.86,0,0,1-.41,1.68m.84-.49,2.84-.14a3,3,0,0,0,1-.32M50.68,41c1.68,1.9,3.54,3.82,3.54,3.82M47,31.56A15.09,15.09,0,0,0,47.14,34"/><line class="cls-6" x1="28.55" y1="34.87" x2="28.25" y2="35.13"/><path class="cls-3" d="M168.41,50a4.1,4.1,0,0,0,3.33,1.45c2.24,0,3.67-1.33,3.67-3.1a3.18,3.18,0,0,0-2-2.7v0A3,3,0,0,0,175.12,43c0-1.82-1.51-3-3.4-3a4.41,4.41,0,0,0-3,1.43.29.29,0,0,0,0,.42l.6.54a.28.28,0,0,0,.42,0,2.48,2.48,0,0,1,1.89-.91,1.78,1.78,0,0,1,1.85,1.77c0,1-.76,1.74-2.29,1.74h-.91c-.23,0-.32.1-.32.34v.7a.3.3,0,0,0,.31.34h.91c1.74,0,2.57.93,2.57,1.9a1.87,1.87,0,0,1-2,1.75,3.24,3.24,0,0,1-2.21-1,.29.29,0,0,0-.44,0l-.63.59a.28.28,0,0,0,0,.39m-4.87,0c-1.77,0-2.37-1.85-2.24-3.22a2.6,2.6,0,0,1,2.23-1.23,2.23,2.23,0,0,1,0,4.45m-3.82-3.09c0,2.5,1.23,4.55,3.83,4.55a3.7,3.7,0,0,0,3.62-3.72,3.37,3.37,0,0,0-3.4-3.53,4.63,4.63,0,0,0-2.16.6c.54-2,3.12-3.35,3.87-3.59.31-.1.37-.28.29-.47l-.28-.67a.3.3,0,0,0-.41-.2c-1.5.57-5.38,2.49-5.38,7m-7.49,1.46a2.07,2.07,0,0,1,4.13,0,1.87,1.87,0,0,1-2.08,1.77,1.9,1.9,0,0,1-2-1.77m2.06-3.51c-1.27-.2-1.82-.86-1.82-1.74a1.71,1.71,0,0,1,1.77-1.71,1.74,1.74,0,0,1,1.87,1.71c0,.86-.57,1.56-1.82,1.74m-3.75,3.48c0,1.77,1.45,3.12,3.72,3.12S158,50.08,158,48.31a3.26,3.26,0,0,0-2-2.71v-.06a3,3,0,0,0,1.67-2.5c0-1.79-1.48-3-3.48-3s-3.45,1.19-3.45,3a3,3,0,0,0,1.67,2.52v0a3.42,3.42,0,0,0-2,2.71m-7.8,3h5.66a.3.3,0,0,0,.31-.29v-.7a.3.3,0,0,0-.31-.31H146.6V40.53a.31.31,0,0,0-.29-.31h-.8l-2.42,2.19a.31.31,0,0,0,0,.32l.2.57a.25.25,0,0,0,.36.11l1.41-.71V50h-2.27a.3.3,0,0,0-.31.31V51a.29.29,0,0,0,.31.29M127.93,45.6a4.22,4.22,0,1,1,4.21,4.21,4.26,4.26,0,0,1-4.21-4.21m-1.63,0a5.84,5.84,0,1,0,5.83-5.87,5.8,5.8,0,0,0-5.83,5.87M114.54,51a.32.32,0,0,0,.31.31h1a.31.31,0,0,0,.31-.31V43h0l7.05,8.39h.42a.31.31,0,0,0,.31-.29V40.2a.32.32,0,0,0-.31-.31h-1a.31.31,0,0,0-.31.31v7.69h0l-7.05-8.16h-.41a.31.31,0,0,0-.31.29Zm-9-3.56,2-4.45h.08l2,4.45Zm-3,3.87h1a.41.41,0,0,0,.37-.24c.32-.75.67-1.48,1-2.23h5.31l1,2.23a.38.38,0,0,0,.37.24h1a.29.29,0,0,0,.28-.42l-5-10.94a.38.38,0,0,0-.28-.18h-.16a.38.38,0,0,0-.28.18l-5,10.94a.29.29,0,0,0,.28.42M94.86,51a.31.31,0,0,0,.31.31H101a.31.31,0,0,0,.31-.31v-.89a.31.31,0,0,0-.31-.31h-4.4V40.2a.32.32,0,0,0-.31-.31H95.17a.31.31,0,0,0-.31.31ZM90,51a.32.32,0,0,0,.31.31H91.4a.32.32,0,0,0,.31-.31V40.2a.32.32,0,0,0-.31-.31H90.33a.32.32,0,0,0-.31.31Zm-14.9-.06a.29.29,0,0,0,.31.37h1.06a.32.32,0,0,0,.29-.23l1.17-7.26H78L81,51.25a.29.29,0,0,0,.28.18h.29a.28.28,0,0,0,.28-.18l2.92-7.47h0L86,51a.34.34,0,0,0,.31.23h1.06a.28.28,0,0,0,.29-.37L85.63,40a.33.33,0,0,0-.29-.24h-.26a.31.31,0,0,0-.28.18l-3.38,8.3h-.07L78,39.91a.33.33,0,0,0-.28-.18h-.26a.33.33,0,0,0-.29.24Z"/><path class="cls-3" d="M212,24.08a5.33,5.33,0,1,1,5.32,5.32A5.37,5.37,0,0,1,212,24.08m-3,0a8.35,8.35,0,1,0,8.33-8.38,8.28,8.28,0,0,0-8.33,8.38m-16.18,0a8.32,8.32,0,0,0,8.38,8.33,8,8,0,0,0,5.64-2.25.44.44,0,0,0,0-.63L205.36,28a.43.43,0,0,0-.58,0,5.57,5.57,0,0,1-3.55,1.32A5.26,5.26,0,0,1,196,24a5.26,5.26,0,0,1,5.18-5.41A5.49,5.49,0,0,1,204.78,20a.37.37,0,0,0,.58,0l1.42-1.46a.43.43,0,0,0,0-.65,7.85,7.85,0,0,0-5.62-2.16,8.36,8.36,0,0,0-8.38,8.38m-6.08,7.66a.46.46,0,0,0,.44.44h2.16a.46.46,0,0,0,.44-.44V16.37a.46.46,0,0,0-.44-.44h-2.16a.46.46,0,0,0-.44.44Zm-17.71,0a.46.46,0,0,0,.44.44h2.11a.44.44,0,0,0,.44-.44v-10h0l9.7,10.66h.56a.44.44,0,0,0,.44-.42V16.37a.46.46,0,0,0-.44-.44h-2.14a.44.44,0,0,0-.44.44V26h0L170,15.7h-.58a.44.44,0,0,0-.44.42Zm-17.11-7.66a8.32,8.32,0,0,0,8.38,8.33,8,8,0,0,0,5.64-2.25.44.44,0,0,0,0-.63L164.46,28a.43.43,0,0,0-.58,0,5.57,5.57,0,0,1-3.55,1.32,5.26,5.26,0,0,1-5.2-5.36,5.26,5.26,0,0,1,5.18-5.41A5.49,5.49,0,0,1,163.88,20a.37.37,0,0,0,.58,0l1.42-1.46a.43.43,0,0,0,0-.65,7.86,7.86,0,0,0-5.62-2.16,8.36,8.36,0,0,0-8.38,8.38m-12.7,7.66a.44.44,0,0,0,.44.44H149a.44.44,0,0,0,.44-.44v-1.9a.44.44,0,0,0-.44-.44h-6.87V25.33h5.73a.44.44,0,0,0,.44-.44V23a.46.46,0,0,0-.44-.44h-5.73V18.72H149a.44.44,0,0,0,.44-.44v-1.9a.44.44,0,0,0-.44-.44H139.6a.44.44,0,0,0-.44.44Zm-9.68,0a.46.46,0,0,0,.44.44h2.16a.46.46,0,0,0,.44-.44v-13h3.55a.44.44,0,0,0,.44-.44v-1.9a.44.44,0,0,0-.44-.44H125.93a.44.44,0,0,0-.44.44v1.9a.44.44,0,0,0,.44.44h3.55Zm-10,0a.46.46,0,0,0,.44.44h2.16a.46.46,0,0,0,.44-.44V16.37a.46.46,0,0,0-.44-.44H120a.46.46,0,0,0-.44.44Zm-12.42,0a.44.44,0,0,0,.44.44H116a.44.44,0,0,0,.44-.44v-1.9a.44.44,0,0,0-.44-.44h-5.92v-13a.46.46,0,0,0-.44-.44h-2.14a.44.44,0,0,0-.44.44ZM91,24.08a5.33,5.33,0,1,1,5.32,5.32A5.37,5.37,0,0,1,91,24.08m-3,0a8.35,8.35,0,1,0,8.33-8.38A8.28,8.28,0,0,0,88,24.08m-9.84-.63V18.79h2.69A2.32,2.32,0,0,1,83.21,21a2.39,2.39,0,0,1-2.39,2.42Zm-3,8.29a.44.44,0,0,0,.44.44h2.13a.46.46,0,0,0,.44-.44V26.28H81a5.18,5.18,0,1,0,0-10.35H75.55a.44.44,0,0,0-.44.44Z"/></g></g></svg>
