<svg version="1.1" viewBox="0 0 309.59 36.576" xmlns="http://www.w3.org/2000/svg">
 <g transform="translate(-4.7804 -63.433)">
  <g transform="scale(.26458)" aria-label="POLIMI PRIDE">
   <path d="m35.972 245.31q0.192-1.536 1.152-2.496 1.152-1.152 2.688-1.152h42.24q7.104 0 13.248 3.072 6.144 3.072 10.56 8.256t6.912 12.096 2.496 14.592q0 9.6-3.648 18.24-3.456 8.64-9.6 15.168-6.144 6.528-14.4 10.368-8.064 3.84-17.472 3.84h-15.744l-6.336 45.12q-0.192 1.536-1.344 2.688-1.152 0.96-2.496 0.96h-23.424q-1.536 0-2.304-0.96-0.576-1.152-0.384-2.688zm36.288 53.952q2.496 0 4.8-1.344 2.496-1.344 4.224-3.648 1.92-2.496 3.072-5.568 1.152-3.264 1.152-6.912 0-4.992-2.688-8.448-2.496-3.456-6.336-3.456h-14.016l-4.032 29.376z"/>
   <path d="m122.16 318.47q0-16.32 5.568-30.528 5.76-14.4 15.552-24.96 9.792-10.752 22.848-16.896 13.248-6.336 28.224-6.336 11.136 0 20.928 4.8 9.792 4.608 16.896 12.864 7.296 8.064 11.52 19.008t4.224 23.424q0 16.128-5.568 30.528-5.568 14.208-15.36 24.768t-23.04 16.704q-13.056 6.144-28.224 6.144-11.136 0-20.928-4.608-9.6-4.608-16.896-12.672t-11.52-18.816q-4.224-10.944-4.224-23.424zm57.408 28.8q7.104 0 13.632-3.456 6.72-3.456 11.904-9.408 5.184-6.144 8.256-14.016t3.072-16.896q0-6.72-1.92-12.672-1.92-6.144-5.376-10.56-3.456-4.608-8.256-7.104-4.8-2.688-10.56-2.688-6.912 0-13.632 3.648-6.528 3.456-11.712 9.408t-8.256 14.016-3.072 16.896q0 6.72 1.92 12.672t5.376 10.56q3.456 4.416 8.064 7.104 4.8 2.496 10.56 2.496z"/>
   <path d="m279.72 245.31q0.192-1.536 1.152-2.496 1.152-1.152 2.688-1.152h23.808q1.344 0 2.112 1.152 0.768 0.96 0.576 2.496l-14.4 102.53h39.168q1.536 0 2.112 1.152 0.768 0.96 0.576 2.496l-2.88 20.928q-0.192 1.536-1.344 2.688-0.96 0.96-2.496 0.96h-66.048q-1.536 0-2.304-0.96-0.768-1.152-0.576-2.688z"/>
   <path d="m370.1 245.31q0.192-1.536 1.152-2.496 1.152-1.152 2.496-1.152h24q1.344 0 2.112 1.152 0.768 0.96 0.576 2.496l-17.856 127.1q-0.192 1.536-1.344 2.688-0.96 0.96-2.304 0.96h-24q-1.344 0-2.112-0.96-0.768-1.152-0.576-2.688z"/>
   <path d="m409.5 376.07q-1.536 0-2.496-1.152-0.768-1.152-0.192-3.072l36.864-129.02q0.96-3.072 3.648-3.072h2.688q2.112 0 2.688 1.92l28.224 82.944h0.384l54.528-82.944q0.576-0.96 1.152-1.344 0.768-0.576 2.112-0.576h2.88q2.496 0 2.496 3.072l0.96 129.02q0 1.92-1.344 3.072-1.152 1.152-2.688 1.152h-23.616q-1.152 0-2.112-0.96-0.768-0.96-0.768-2.112l2.112-59.328h-0.384l-36.672 62.208q-1.344 2.112-3.264 2.112h-3.072q-1.92 0-2.688-2.112l-19.392-62.208h-0.384l-14.208 59.328q-0.384 1.152-1.344 2.112t-2.496 0.96h-23.616z"/>
   <path d="m587.6 245.31q0.192-1.536 1.152-2.496 1.152-1.152 2.496-1.152h24q1.344 0 2.112 1.152 0.768 0.96 0.576 2.496l-17.856 127.1q-0.192 1.536-1.344 2.688-0.96 0.96-2.304 0.96h-24q-1.344 0-2.112-0.96-0.768-1.152-0.576-2.688z"/>
   <path d="m692.97 245.31q0.192-1.536 1.152-2.496 1.152-1.152 2.688-1.152h42.24q7.104 0 13.248 3.072t10.56 8.256 6.912 12.096 2.496 14.592q0 9.6-3.648 18.24-3.456 8.64-9.6 15.168t-14.4 10.368q-8.064 3.84-17.472 3.84h-15.744l-6.336 45.12q-0.192 1.536-1.344 2.688-1.152 0.96-2.496 0.96h-23.424q-1.536 0-2.304-0.96-0.576-1.152-0.384-2.688zm36.288 53.952q2.496 0 4.8-1.344 2.496-1.344 4.224-3.648 1.92-2.496 3.072-5.568 1.152-3.264 1.152-6.912 0-4.992-2.688-8.448-2.496-3.456-6.336-3.456h-14.016l-4.032 29.376z"/>
   <path d="m797.6 245.31q0.192-1.536 1.152-2.496 1.152-1.152 2.496-1.152h51.84q7.488 0 13.632 2.88 6.336 2.88 10.752 7.872 4.608 4.8 6.912 11.328 2.496 6.528 2.496 14.016 0 7.68-2.112 14.784-2.112 6.912-6.144 12.672t-9.984 9.984q-5.76 4.224-13.248 6.528l16.704 48.768q0.768 1.92-0.384 3.84-1.152 1.728-3.264 1.728h-24.768q-2.304 0-2.688-1.728l-15.744-50.88h-8.448l-6.912 48.96q-0.192 1.536-1.344 2.688-0.96 0.96-2.304 0.96h-23.808q-1.536 0-2.304-0.96-0.768-1.152-0.384-2.688zm43.584 53.76q3.456 0 6.144-1.344 2.88-1.536 4.992-4.032t3.264-5.568q1.152-3.264 1.152-6.72 0-4.992-2.688-8.64-2.496-3.648-7.68-3.648h-22.08l-4.224 29.952z"/>
   <path d="m916.85 245.31q0.192-1.536 1.152-2.496 1.152-1.152 2.496-1.152h24q1.344 0 2.112 1.152 0.768 0.96 0.576 2.496l-17.856 127.1q-0.192 1.536-1.344 2.688-0.96 0.96-2.304 0.96h-24q-1.344 0-2.112-0.96-0.768-1.152-0.576-2.688z"/>
   <path d="m979.1 245.31q0.192-1.536 1.152-2.496 1.152-1.152 2.496-1.152h42.816q11.328 0 20.928 4.992 9.6 4.8 16.512 13.056 6.912 8.064 10.752 18.624t3.84 21.696q0 15.552-5.376 29.376t-14.976 24.192q-9.408 10.368-22.464 16.512-12.864 5.952-28.032 5.952h-43.008q-1.344 0-2.112-0.96-0.768-1.152-0.384-2.688zm30.144 102.34q7.488 0 14.016-3.456 6.528-3.648 11.52-9.792t7.872-14.4 2.88-17.664q0-6.72-1.728-12.672t-5.184-10.368q-3.264-4.416-8.064-6.912-4.608-2.496-10.368-2.496h-14.4l-10.944 77.76z"/>
   <path d="m1109.2 245.31q0.192-1.536 1.152-2.496 1.152-1.152 2.496-1.152h72.384q1.536 0 2.304 1.152 0.768 0.96 0.576 2.496l-3.072 20.928q-0.192 1.536-1.152 2.688-0.96 0.96-2.496 0.96h-45.696l-3.456 23.808h37.248q1.344 0 2.112 1.152 0.96 0.96 0.768 2.496l-3.072 20.928q-0.384 1.536-1.536 2.688-0.96 0.96-2.304 0.96h-37.056l-3.648 25.92h45.696q1.536 0 2.112 1.152 0.768 0.96 0.576 2.496l-2.88 20.928q-0.192 1.536-1.344 2.688-0.96 0.96-2.496 0.96h-72.384q-1.536 0-2.304-0.96-0.768-1.152-0.384-2.688z"/>
  </g>
 </g>
</svg>
