<svg class="poliedro-logo-lands" data-name="Layer 1" version="1.1" viewBox="0 0 858.29 400" xmlns="http://www.w3.org/2000/svg">
 <defs>
  <style>.cls-1{font-size:45px;font-family:BrandonGrotesque-Regular, Brandon Grotesque;letter-spacing:0.1em;}.cls-1,.cls-7,.cls-8{fill:#fff;}.cls-2{letter-spacing:0.05em;}.cls-3{font-size:30px;letter-spacing:0.1em;}.cls-3,.cls-7{font-family:BrandonGrotesque-Medium, Brandon Grotesque;}.cls-4{letter-spacing:0.09em;}.cls-5{letter-spacing:0.09em;}.cls-6{letter-spacing:0.13em;}.cls-7{font-size:70px;letter-spacing:0.14em;}.cls-9{fill:#f2f2f2;}.cls-10{fill:#e6e6e6;}.cls-11{fill:#ccc;}.cls-12{fill:#b3b3b3;}.cls-13{fill:#999;}</style>
 </defs>
 <g transform="translate(-86.85,-62.26)" fill="#fff">
  <g transform="translate(528.33,349.08)" aria-label="STUDENTI LGBTI+POLITECNICO DI MILANO">
   <g fill="#fff">
    <path d="m2.835-3.195q-0.27-0.225-0.495-0.54-0.18-0.36 0.225-0.99 0.18-0.225 0.315-0.405 0.18-0.225 0.36-0.45 0.36-0.45 0.72-0.63t0.855 0.225q0.135 0.09 0.765 0.675 0.63 0.54 1.62 1.17 1.035 0.585 2.385 1.08t2.835 0.495q1.35 0 2.475-0.405t1.89-1.08q0.81-0.675 1.215-1.575 0.45-0.9 0.45-1.89 0-2.34-1.98-3.915t-5.895-3.195q-1.845-0.81-3.33-1.62-1.485-0.855-2.52-1.89-0.99-1.08-1.53-2.475t-0.54-3.33q0-1.125 0.495-2.52t1.62-2.61 2.925-2.025q1.845-0.855 4.545-0.855 1.665 0 3.06 0.36t2.43 0.81q1.17 0.495 2.205 1.125 0.225 0.09 0.45 0.495t-0.18 1.035q-0.135 0.225-0.27 0.45-0.135 0.18-0.27 0.405-0.315 0.495-0.675 0.63-0.36 0.09-0.9-0.225-0.135-0.045-0.675-0.36-0.54-0.36-1.35-0.72-0.81-0.405-1.845-0.675-0.99-0.315-2.025-0.315-1.8 0-3.015 0.54-1.17 0.495-1.89 1.26-0.72 0.72-1.035 1.575-0.27 0.855-0.27 1.575 0 2.25 1.62 3.735 1.62 1.44 4.455 2.61 2.295 0.945 4.14 1.89t3.15 2.115q1.305 1.125 1.98 2.61 0.72 1.44 0.72 3.375 0 1.755-0.81 3.24-0.765 1.485-2.115 2.565-1.305 1.08-3.06 1.71-1.755 0.585-3.735 0.585t-3.645-0.495-2.88-1.125-1.98-1.215-0.99-0.81z"/>
    <path d="m37.539-28.485h-7.83q-0.36 0-0.63-0.225-0.225-0.27-0.225-0.63v-1.305q0-0.36 0.225-0.585 0.27-0.27 0.63-0.27h19.08q0.36 0 0.585 0.27 0.27 0.225 0.27 0.585v1.305q0 0.36-0.27 0.63-0.225 0.225-0.585 0.225h-7.83v27.63q0 0.36-0.27 0.63-0.225 0.225-0.585 0.225h-1.71q-0.36 0-0.63-0.225-0.225-0.27-0.225-0.63z"/>
    <path d="m58.712-30.645q0-0.36 0.225-0.585 0.27-0.27 0.63-0.27h1.71q0.36 0 0.585 0.27 0.27 0.225 0.27 0.585v18.765q0 1.935 0.585 3.6t1.665 2.925q1.08 1.215 2.655 1.935 1.575 0.675 3.555 0.675t3.555-0.675q1.62-0.72 2.7-1.935 1.125-1.215 1.71-2.835 0.585-1.665 0.585-3.6v-18.855q0-0.36 0.225-0.585 0.27-0.27 0.63-0.27h1.71q0.36 0 0.585 0.27 0.27 0.225 0.27 0.585v19.035q0 2.565-0.9 4.77-0.855 2.205-2.43 3.825t-3.78 2.565q-2.205 0.9-4.86 0.9t-4.86-0.9q-2.16-0.945-3.735-2.565t-2.43-3.825-0.855-4.77z"/>
    <path d="m95.873-30.645q0-0.36 0.225-0.585 0.225-0.27 0.585-0.27h10.08q3.24 0 6.12 1.26 2.88 1.215 5.04 3.375 2.16 2.115 3.375 4.995 1.26 2.835 1.26 6.075 0 3.285-1.26 6.165-1.215 2.88-3.375 5.04-2.16 2.115-5.04 3.375-2.88 1.215-6.12 1.215h-10.08q-0.36 0-0.585-0.225-0.225-0.27-0.225-0.63zm10.17 27.54q2.745 0 5.085-0.945t4.05-2.61q1.71-1.71 2.655-4.005 0.945-2.34 0.945-5.13 0-2.745-0.945-5.085t-2.655-4.005-4.05-2.61-5.085-0.945h-6.75v25.335z"/>
    <path d="m133.95-30.645q0-0.36 0.225-0.585 0.27-0.27 0.63-0.27h17.73q0.36 0 0.585 0.27 0.27 0.225 0.27 0.585v1.305q0 0.36-0.27 0.63-0.225 0.225-0.585 0.225h-15.12v10.98h12.915q0.36 0 0.585 0.27 0.27 0.225 0.27 0.585v1.305q0 0.36-0.27 0.63-0.225 0.225-0.585 0.225h-12.915v11.475h15.12q0.36 0 0.585 0.27 0.27 0.225 0.27 0.585v1.305q0 0.36-0.27 0.63-0.225 0.225-0.585 0.225h-17.73q-0.36 0-0.63-0.225-0.225-0.27-0.225-0.63z"/>
    <path d="m165.08-31.14q0-0.36 0.225-0.585 0.27-0.225 0.63-0.225h1.125l20.295 25.29h0.09v-23.985q0-0.36 0.225-0.585 0.27-0.27 0.63-0.27h1.575q0.36 0 0.585 0.27 0.27 0.225 0.27 0.585v30.285q0 0.36-0.27 0.585-0.225 0.225-0.585 0.225h-0.81l-20.655-25.785h-0.045v24.48q0 0.36-0.27 0.63-0.225 0.225-0.585 0.225h-1.575q-0.36 0-0.63-0.225-0.225-0.27-0.225-0.63z"/>
    <path d="m208.84-28.485h-7.83q-0.36 0-0.63-0.225-0.225-0.27-0.225-0.63v-1.305q0-0.36 0.225-0.585 0.27-0.27 0.63-0.27h19.08q0.36 0 0.585 0.27 0.27 0.225 0.27 0.585v1.305q0 0.36-0.27 0.63-0.225 0.225-0.585 0.225h-7.83v27.63q0 0.36-0.27 0.63-0.225 0.225-0.585 0.225h-1.71q-0.36 0-0.63-0.225-0.225-0.27-0.225-0.63z"/>
    <path d="m230.42-30.645q0-0.36 0.225-0.585 0.27-0.27 0.63-0.27h1.8q0.36 0 0.585 0.27 0.27 0.225 0.27 0.585v29.79q0 0.36-0.27 0.63-0.225 0.225-0.585 0.225h-1.8q-0.36 0-0.63-0.225-0.225-0.27-0.225-0.63z"/>
    <path d="m262.09-30.645q0-0.36 0.225-0.585 0.27-0.27 0.63-0.27h1.755q0.36 0 0.585 0.27 0.27 0.225 0.27 0.585v27.63h12.96q0.36 0 0.585 0.27 0.27 0.225 0.27 0.585v1.305q0 0.36-0.27 0.63-0.225 0.225-0.585 0.225h-15.57q-0.36 0-0.63-0.225-0.225-0.27-0.225-0.63z"/>
    <path d="m285.92-15.705q0-3.375 1.26-6.345 1.305-2.97 3.465-5.13 2.205-2.205 5.175-3.465 2.97-1.305 6.345-1.305 3.42 0 5.985 1.125 2.61 1.08 4.905 3.06 0.27 0.27 0.27 0.63 0.045 0.36-0.225 0.63-0.315 0.315-0.675 0.63-0.315 0.315-0.585 0.63-0.315 0.36-0.585 0.36-0.225-0.045-0.585-0.405-1.71-1.53-4.005-2.52-2.25-0.99-4.545-0.99-2.655 0-4.95 1.035t-4.005 2.835q-1.665 1.755-2.61 4.095t-0.945 4.95 0.945 4.995q0.945 2.34 2.61 4.14 1.71 1.755 4.005 2.835 2.295 1.035 4.95 1.035 1.89 0 3.375-0.27 1.485-0.315 2.52-0.675 1.215-0.405 2.205-0.945v-6.3h-5.175q-0.36 0-0.63-0.225-0.225-0.225-0.225-0.585v-1.665q0-0.855 0.855-0.855h7.785q0.36 0 0.585 0.27 0.225 0.225 0.225 0.585v10.305q0 0.45-0.36 0.72-1.35 0.855-3.105 1.485-1.485 0.585-3.555 1.035-2.025 0.45-4.455 0.45-3.375 0-6.345-1.26t-5.175-3.42q-2.16-2.205-3.465-5.13-1.26-2.97-1.26-6.345z"/>
    <path d="m325.67-30.645q0-0.36 0.225-0.585 0.27-0.27 0.63-0.27h9.855q2.07 0 3.735 0.63 1.71 0.63 2.925 1.755 1.215 1.08 1.89 2.61t0.675 3.285q0 1.305-0.405 2.43-0.36 1.125-0.99 2.025t-1.44 1.62q-0.765 0.675-1.575 1.125 0.9 0.36 1.845 0.99 0.945 0.585 1.71 1.485 0.81 0.9 1.305 2.115 0.54 1.215 0.54 2.745 0 1.89-0.72 3.51-0.72 1.575-2.025 2.745-1.26 1.125-3.105 1.8-1.8 0.63-3.96 0.63h-10.26q-0.36 0-0.63-0.225-0.225-0.27-0.225-0.63zm10.71 13.275q2.61 0 4.005-1.62t1.395-4.005q0-2.43-1.395-3.915t-4.005-1.485h-7.335v11.025zm0.765 14.355q1.215 0 2.25-0.405 1.08-0.45 1.8-1.215 0.765-0.81 1.17-1.845 0.45-1.035 0.45-2.25t-0.54-2.205q-0.495-1.035-1.395-1.755-0.855-0.765-2.025-1.17t-2.475-0.405h-7.425v11.25z"/>
    <path d="m362.75-28.485h-7.83q-0.36 0-0.63-0.225-0.225-0.27-0.225-0.63v-1.305q0-0.36 0.225-0.585 0.27-0.27 0.63-0.27h19.08q0.36 0 0.585 0.27 0.27 0.225 0.27 0.585v1.305q0 0.36-0.27 0.63-0.225 0.225-0.585 0.225h-7.83v27.63q0 0.36-0.27 0.63-0.225 0.225-0.585 0.225h-1.71q-0.36 0-0.63-0.225-0.225-0.27-0.225-0.63z"/>
   </g>
   <path d="m384.74-30.645q0-0.36 0.225-0.585 0.27-0.27 0.63-0.27h1.8q0.36 0 0.585 0.27 0.27 0.225 0.27 0.585v29.79q0 0.36-0.27 0.63-0.225 0.225-0.585 0.225h-1.8q-0.36 0-0.63-0.225-0.225-0.27-0.225-0.63z"/>
   <path d="m404.82-14.13h-7.065q-0.36 0-0.63-0.225-0.225-0.27-0.225-0.63v-1.26q0-0.36 0.225-0.585 0.27-0.27 0.63-0.27h7.065v-7.11q0-0.36 0.225-0.585 0.27-0.225 0.63-0.225h1.26q0.36 0 0.585 0.225 0.27 0.225 0.27 0.585v7.11h7.11q0.36 0 0.585 0.27 0.225 0.225 0.225 0.585v1.26q0 0.36-0.225 0.63-0.225 0.225-0.585 0.225h-7.11v7.065q0 0.36-0.27 0.585-0.225 0.225-0.585 0.225h-1.26q-0.36 0-0.63-0.225-0.225-0.225-0.225-0.585z"/>
   <path d="m2.98 19.57q0-0.24 0.15-0.39 0.18-0.18 0.42-0.18h6.84q1.38 0 2.61 0.54 1.23 0.51 2.13 1.41 0.93 0.9 1.44 2.13 0.54 1.2 0.54 2.55 0 1.41-0.54 2.64-0.51 1.2-1.44 2.13-0.9 0.93-2.13 1.47-1.2 0.51-2.58 0.51h-4.35v7.05q0 0.24-0.18 0.42-0.15 0.15-0.39 0.15h-1.95q-0.24 0-0.42-0.15-0.15-0.18-0.15-0.42zm7.23 9.87q0.78 0 1.47-0.3t1.2-0.81q0.54-0.51 0.84-1.2 0.3-0.72 0.3-1.53 0-0.75-0.3-1.41t-0.84-1.14q-0.51-0.51-1.2-0.78t-1.47-0.27h-4.14v7.44z"/>
   <path d="m22.262 29.53q0-2.25 0.84-4.23t2.28-3.42q1.47-1.47 3.42-2.31 1.98-0.87 4.23-0.87t4.2 0.87q1.98 0.84 3.45 2.31 1.47 1.44 2.31 3.42t0.84 4.23-0.84 4.23q-0.84 1.95-2.31 3.42-1.47 1.44-3.45 2.28-1.95 0.84-4.2 0.84t-4.23-0.84q-1.95-0.84-3.42-2.28-1.44-1.47-2.28-3.42-0.84-1.98-0.84-4.23zm3 0q0 1.62 0.6 3.03 0.63 1.41 1.68 2.46t2.46 1.68q1.44 0.6 3.03 0.6 1.62 0 3.03-0.6 1.41-0.63 2.46-1.68 1.08-1.05 1.68-2.46 0.63-1.41 0.63-3.03 0-1.59-0.63-3-0.6-1.44-1.68-2.49-1.05-1.08-2.46-1.71t-3.03-0.63q-1.59 0-3.03 0.63-1.41 0.63-2.46 1.71-1.05 1.05-1.68 2.49-0.6 1.41-0.6 3z"/>
   <path d="m51.109 19.57q0-0.24 0.15-0.39 0.18-0.18 0.42-0.18h1.98q0.24 0 0.39 0.18 0.18 0.15 0.18 0.39v17.64h8.13q0.24 0 0.39 0.18 0.18 0.15 0.18 0.39v1.65q0 0.24-0.18 0.42-0.15 0.15-0.39 0.15h-10.68q-0.24 0-0.42-0.15-0.15-0.18-0.15-0.42z"/>
   <path d="m69.05 19.57q0-0.24 0.15-0.39 0.18-0.18 0.42-0.18h1.98q0.24 0 0.39 0.18 0.18 0.15 0.18 0.39v19.86q0 0.24-0.18 0.42-0.15 0.15-0.39 0.15h-1.98q-0.24 0-0.42-0.15-0.15-0.18-0.15-0.42z"/>
   <path d="m83.895 21.82h-4.89q-0.24 0-0.42-0.15-0.15-0.18-0.15-0.42v-1.68q0-0.24 0.15-0.39 0.18-0.18 0.42-0.18h12.9q0.24 0 0.39 0.18 0.18 0.15 0.18 0.39v1.68q0 0.24-0.18 0.42-0.15 0.15-0.39 0.15h-4.89v17.61q0 0.24-0.18 0.42-0.15 0.15-0.39 0.15h-1.98q-0.24 0-0.42-0.15-0.15-0.18-0.15-0.42z"/>
   <path d="m98.29 19.57q0-0.24 0.15-0.39 0.18-0.18 0.42-0.18h12q0.24 0 0.39 0.18 0.18 0.15 0.18 0.39v1.68q0 0.24-0.18 0.42-0.15 0.15-0.39 0.15h-9.48v6.12h8.01q0.24 0 0.39 0.18 0.18 0.15 0.18 0.39v1.68q0 0.24-0.18 0.42-0.15 0.15-0.39 0.15h-8.01v6.45h9.48q0.24 0 0.39 0.18 0.18 0.15 0.18 0.39v1.65q0 0.24-0.18 0.42-0.15 0.15-0.39 0.15h-12q-0.24 0-0.42-0.15-0.15-0.18-0.15-0.42z"/>
   <path d="m117.25 29.53q0-2.25 0.84-4.23 0.87-1.98 2.31-3.42 1.47-1.47 3.45-2.31 1.98-0.87 4.23-0.87 2.28 0 3.99 0.72 1.74 0.72 3.27 2.07 0.45 0.42 0.03 0.84l-1.32 1.35q-0.33 0.42-0.75 0-1.05-0.93-2.43-1.47-1.35-0.54-2.76-0.54-1.62 0-3 0.63-1.35 0.63-2.37 1.71-1.02 1.05-1.59 2.49-0.57 1.41-0.57 2.97 0 1.59 0.57 3 0.6 1.41 1.59 2.46 1.02 1.05 2.4 1.68t3 0.63q1.65 0 2.85-0.57 1.23-0.57 2.31-1.41 0.39-0.3 0.72-0.03l1.38 1.35q0.18 0.15 0.15 0.42-0.03 0.24-0.18 0.39-1.53 1.5-3.42 2.22-1.86 0.69-3.87 0.69-2.25 0-4.23-0.84t-3.45-2.28q-1.44-1.47-2.31-3.42-0.84-1.98-0.84-4.23z"/>
   <path d="m142.64 19.24q0-0.24 0.15-0.39 0.18-0.15 0.42-0.15h0.75l13.02 15.06h0.03v-14.19q0-0.24 0.15-0.39 0.18-0.18 0.42-0.18h1.92q0.24 0 0.39 0.18 0.18 0.15 0.18 0.39v20.19q0 0.24-0.18 0.39-0.15 0.15-0.39 0.15h-0.78l-13.02-15.48h-0.03v14.61q0 0.24-0.18 0.42-0.15 0.15-0.39 0.15h-1.89q-0.24 0-0.42-0.15-0.15-0.18-0.15-0.42z"/>
   <path d="m168.9 19.57q0-0.24 0.15-0.39 0.18-0.18 0.42-0.18h1.98q0.24 0 0.39 0.18 0.18 0.15 0.18 0.39v19.86q0 0.24-0.18 0.42-0.15 0.15-0.39 0.15h-1.98q-0.24 0-0.42-0.15-0.15-0.18-0.15-0.42z"/>
   <path d="m179.05 29.53q0-2.25 0.84-4.23 0.87-1.98 2.31-3.42 1.47-1.47 3.45-2.31 1.98-0.87 4.23-0.87 2.28 0 3.99 0.72 1.74 0.72 3.27 2.07 0.45 0.42 0.03 0.84l-1.32 1.35q-0.33 0.42-0.75 0-1.05-0.93-2.43-1.47-1.35-0.54-2.76-0.54-1.62 0-3 0.63-1.35 0.63-2.37 1.71-1.02 1.05-1.59 2.49-0.57 1.41-0.57 2.97 0 1.59 0.57 3 0.6 1.41 1.59 2.46 1.02 1.05 2.4 1.68t3 0.63q1.65 0 2.85-0.57 1.23-0.57 2.31-1.41 0.39-0.3 0.72-0.03l1.38 1.35q0.18 0.15 0.15 0.42-0.03 0.24-0.18 0.39-1.53 1.5-3.42 2.22-1.86 0.69-3.87 0.69-2.25 0-4.23-0.84t-3.45-2.28q-1.44-1.47-2.31-3.42-0.84-1.98-0.84-4.23z"/>
   <path d="m202.75 29.53q0-2.25 0.84-4.23t2.28-3.42q1.47-1.47 3.42-2.31 1.98-0.87 4.23-0.87t4.2 0.87q1.98 0.84 3.45 2.31 1.47 1.44 2.31 3.42t0.84 4.23-0.84 4.23q-0.84 1.95-2.31 3.42-1.47 1.44-3.45 2.28-1.95 0.84-4.2 0.84t-4.23-0.84q-1.95-0.84-3.42-2.28-1.44-1.47-2.28-3.42-0.84-1.98-0.84-4.23zm3 0q0 1.62 0.6 3.03 0.63 1.41 1.68 2.46t2.46 1.68q1.44 0.6 3.03 0.6 1.62 0 3.03-0.6 1.41-0.63 2.46-1.68 1.08-1.05 1.68-2.46 0.63-1.41 0.63-3.03 0-1.59-0.63-3-0.6-1.44-1.68-2.49-1.05-1.08-2.46-1.71t-3.03-0.63q-1.59 0-3.03 0.63-1.41 0.63-2.46 1.71-1.05 1.05-1.68 2.49-0.6 1.41-0.6 3z"/>
   <path d="m241.22 19.57q0-0.24 0.15-0.39 0.15-0.18 0.39-0.18h6.9q2.16 0 4.08 0.84 1.92 0.81 3.36 2.25 1.44 1.41 2.25 3.33 0.84 1.89 0.84 4.05 0 2.19-0.84 4.11-0.81 1.92-2.25 3.36-1.44 1.41-3.36 2.25-1.92 0.81-4.08 0.81h-6.9q-0.24 0-0.39-0.15-0.15-0.18-0.15-0.42zm7.02 17.58q1.65 0 3.03-0.57 1.41-0.57 2.43-1.59 1.02-1.05 1.59-2.43 0.57-1.41 0.57-3.09 0-1.65-0.57-3.03-0.57-1.41-1.59-2.43t-2.43-1.59q-1.38-0.57-3.03-0.57h-3.96v15.3z"/>
   <path d="m266.48 19.57q0-0.24 0.15-0.39 0.18-0.18 0.42-0.18h1.98q0.24 0 0.39 0.18 0.18 0.15 0.18 0.39v19.86q0 0.24-0.18 0.42-0.15 0.15-0.39 0.15h-1.98q-0.24 0-0.42-0.15-0.15-0.18-0.15-0.42z"/>
   <path d="m290.35 19.15q0.06-0.18 0.21-0.3 0.15-0.15 0.33-0.15h0.48q0.15 0 0.3 0.09t0.21 0.24l6.27 15.33h0.12l6.24-15.33q0.12-0.33 0.51-0.33h0.48q0.18 0 0.33 0.15 0.15 0.12 0.21 0.3l3.69 20.16q0.15 0.69-0.54 0.69h-1.95q-0.21 0-0.36-0.12-0.15-0.15-0.21-0.3l-2.22-13.41h-0.09l-5.4 13.8q-0.12 0.33-0.51 0.33h-0.54q-0.39 0-0.51-0.33l-5.43-13.8h-0.12l-2.16 13.41q-0.03 0.15-0.21 0.3-0.15 0.12-0.33 0.12h-1.95q-0.66 0-0.57-0.69z"/>
   <path d="m317.14 19.57q0-0.24 0.15-0.39 0.18-0.18 0.42-0.18h1.98q0.24 0 0.39 0.18 0.18 0.15 0.18 0.39v19.86q0 0.24-0.18 0.42-0.15 0.15-0.39 0.15h-1.98q-0.24 0-0.42-0.15-0.15-0.18-0.15-0.42z"/>
   <path d="m328.41 19.57q0-0.24 0.15-0.39 0.18-0.18 0.42-0.18h1.98q0.24 0 0.39 0.18 0.18 0.15 0.18 0.39v17.64h8.13q0.24 0 0.39 0.18 0.18 0.15 0.18 0.39v1.65q0 0.24-0.18 0.42-0.15 0.15-0.39 0.15h-10.68q-0.24 0-0.42-0.15-0.15-0.18-0.15-0.42z"/>
   <path d="m344.91 40q-0.33 0-0.51-0.24-0.15-0.24 0-0.54l9.21-20.19q0.06-0.15 0.21-0.24 0.18-0.09 0.3-0.09h0.3q0.12 0 0.27 0.09 0.18 0.09 0.24 0.24l9.15 20.19q0.15 0.3-0.03 0.54-0.15 0.24-0.48 0.24h-1.89q-0.48 0-0.69-0.45l-1.86-4.11h-9.81q-0.45 1.05-0.93 2.07-0.45 0.99-0.9 2.04-0.06 0.15-0.24 0.3t-0.45 0.15zm13.08-7.14-3.69-8.22h-0.15l-3.66 8.22z"/>
   <path d="m370.08 19.24q0-0.24 0.15-0.39 0.18-0.15 0.42-0.15h0.75l13.02 15.06h0.03v-14.19q0-0.24 0.15-0.39 0.18-0.18 0.42-0.18h1.92q0.24 0 0.39 0.18 0.18 0.15 0.18 0.39v20.19q0 0.24-0.18 0.39-0.15 0.15-0.39 0.15h-0.78l-13.02-15.48h-0.03v14.61q0 0.24-0.18 0.42-0.15 0.15-0.39 0.15h-1.89q-0.24 0-0.42-0.15-0.15-0.18-0.15-0.42z"/>
   <path d="m394.82 29.53q0-2.25 0.84-4.23t2.28-3.42q1.47-1.47 3.42-2.31 1.98-0.87 4.23-0.87t4.2 0.87q1.98 0.84 3.45 2.31 1.47 1.44 2.31 3.42t0.84 4.23-0.84 4.23q-0.84 1.95-2.31 3.42-1.47 1.44-3.45 2.28-1.95 0.84-4.2 0.84t-4.23-0.84q-1.95-0.84-3.42-2.28-1.44-1.47-2.28-3.42-0.84-1.98-0.84-4.23zm3 0q0 1.62 0.6 3.03 0.63 1.41 1.68 2.46t2.46 1.68q1.44 0.6 3.03 0.6 1.62 0 3.03-0.6 1.41-0.63 2.46-1.68 1.08-1.05 1.68-2.46 0.63-1.41 0.63-3.03 0-1.59-0.63-3-0.6-1.44-1.68-2.49-1.05-1.08-2.46-1.71t-3.03-0.63q-1.59 0-3.03 0.63-1.41 0.63-2.46 1.71-1.05 1.05-1.68 2.49-0.6 1.41-0.6 3z"/>
  </g>
  <g transform="translate(525.5,266.17)" aria-label="POLIEDRO">
   <path d="m6.79-47.67q0-0.56 0.35-0.91 0.42-0.42 0.98-0.42h15.96q3.22 0 6.09 1.26 2.87 1.19 4.97 3.29 2.17 2.1 3.36 4.97 1.26 2.8 1.26 5.95 0 3.29-1.26 6.16-1.19 2.8-3.36 4.97-2.1 2.17-4.97 3.43-2.8 1.19-6.02 1.19h-10.15v16.45q0 0.56-0.42 0.98-0.35 0.35-0.91 0.35h-4.55q-0.56 0-0.98-0.35-0.35-0.42-0.35-0.98zm16.87 23.03q1.82 0 3.43-0.7t2.8-1.89q1.26-1.19 1.96-2.8 0.7-1.68 0.7-3.57 0-1.75-0.7-3.29t-1.96-2.66q-1.19-1.19-2.8-1.82t-3.43-0.63h-9.66v17.36z"/>
   <path d="m54.582-24.43q0-5.25 1.96-9.87t5.32-7.98q3.43-3.43 7.98-5.39 4.62-2.03 9.87-2.03t9.8 2.03q4.62 1.96 8.05 5.39 3.43 3.36 5.39 7.98t1.96 9.87-1.96 9.87q-1.96 4.55-5.39 7.98-3.43 3.36-8.05 5.32-4.55 1.96-9.8 1.96t-9.87-1.96q-4.55-1.96-7.98-5.32-3.36-3.43-5.32-7.98-1.96-4.62-1.96-9.87zm7 0q0 3.78 1.4 7.07 1.47 3.29 3.92 5.74t5.74 3.92q3.36 1.4 7.07 1.4 3.78 0 7.07-1.4 3.29-1.47 5.74-3.92 2.52-2.45 3.92-5.74 1.47-3.29 1.47-7.07 0-3.71-1.47-7-1.4-3.36-3.92-5.81-2.45-2.52-5.74-3.99t-7.07-1.47q-3.71 0-7.07 1.47-3.29 1.47-5.74 3.99-2.45 2.45-3.92 5.81-1.4 3.29-1.4 7z"/>
   <path d="m124.69-47.67q0-0.56 0.35-0.91 0.42-0.42 0.98-0.42h4.62q0.56 0 0.91 0.42 0.42 0.35 0.42 0.91v41.16h18.97q0.56 0 0.91 0.42 0.42 0.35 0.42 0.91v3.85q0 0.56-0.42 0.98-0.35 0.35-0.91 0.35h-24.92q-0.56 0-0.98-0.35-0.35-0.42-0.35-0.98z"/>
   <path d="m169.35-47.67q0-0.56 0.35-0.91 0.42-0.42 0.98-0.42h4.62q0.56 0 0.91 0.42 0.42 0.35 0.42 0.91v46.34q0 0.56-0.42 0.98-0.35 0.35-0.91 0.35h-4.62q-0.56 0-0.98-0.35-0.35-0.42-0.35-0.98z"/>
   <path d="m200.07-47.67q0-0.56 0.35-0.91 0.42-0.42 0.98-0.42h28q0.56 0 0.91 0.42 0.42 0.35 0.42 0.91v3.92q0 0.56-0.42 0.98-0.35 0.35-0.91 0.35h-22.12v14.28h18.69q0.56 0 0.91 0.42 0.42 0.35 0.42 0.91v3.92q0 0.56-0.42 0.98-0.35 0.35-0.91 0.35h-18.69v15.05h22.12q0.56 0 0.91 0.42 0.42 0.35 0.42 0.91v3.85q0 0.56-0.42 0.98-0.35 0.35-0.91 0.35h-28q-0.56 0-0.98-0.35-0.35-0.42-0.35-0.98z"/>
   <path d="m251.16-47.67q0-0.56 0.35-0.91 0.35-0.42 0.91-0.42h16.1q5.04 0 9.52 1.96 4.48 1.89 7.84 5.25 3.36 3.29 5.25 7.77 1.96 4.41 1.96 9.45 0 5.11-1.96 9.59-1.89 4.48-5.25 7.84-3.36 3.29-7.84 5.25-4.48 1.89-9.52 1.89h-16.1q-0.56 0-0.91-0.35-0.35-0.42-0.35-0.98zm16.38 41.02q3.85 0 7.07-1.33 3.29-1.33 5.67-3.71 2.38-2.45 3.71-5.67 1.33-3.29 1.33-7.21 0-3.85-1.33-7.07-1.33-3.29-3.71-5.67t-5.67-3.71q-3.22-1.33-7.07-1.33h-9.24v35.7z"/>
   <path d="m312.91-47.67q0-0.56 0.35-0.91 0.42-0.42 0.98-0.42h19.04q3.15 0 5.88 1.19 2.8 1.12 4.9 3.15t3.29 4.76 1.19 5.88q0 2.45-0.77 4.62t-2.17 3.99q-1.33 1.82-3.22 3.29-1.89 1.4-4.2 2.31l9.59 17.78q0.35 0.7 0 1.4-0.28 0.63-1.19 0.63h-5.46q-0.42 0-0.7-0.21t-0.42-0.42l-9.31-18.55h-10.57v17.85q0 0.56-0.42 0.98-0.35 0.35-0.91 0.35h-4.55q-0.56 0-0.98-0.35-0.35-0.42-0.35-0.98zm19.81 22.47q1.68 0 3.22-0.63 1.61-0.7 2.73-1.89 1.19-1.19 1.89-2.73 0.7-1.61 0.7-3.43 0-1.68-0.7-3.22t-1.89-2.66q-1.12-1.12-2.73-1.75-1.54-0.7-3.22-0.7h-12.46v17.01z"/>
   <path d="m365.63-24.43q0-5.25 1.96-9.87t5.32-7.98q3.43-3.43 7.98-5.39 4.62-2.03 9.87-2.03t9.8 2.03q4.62 1.96 8.05 5.39 3.43 3.36 5.39 7.98t1.96 9.87-1.96 9.87q-1.96 4.55-5.39 7.98-3.43 3.36-8.05 5.32-4.55 1.96-9.8 1.96t-9.87-1.96q-4.55-1.96-7.98-5.32-3.36-3.43-5.32-7.98-1.96-4.62-1.96-9.87zm7 0q0 3.78 1.4 7.07 1.47 3.29 3.92 5.74t5.74 3.92q3.36 1.4 7.07 1.4 3.78 0 7.07-1.4 3.29-1.47 5.74-3.92 2.52-2.45 3.92-5.74 1.47-3.29 1.47-7.07 0-3.71-1.47-7-1.4-3.36-3.92-5.81-2.45-2.52-5.74-3.99t-7.07-1.47q-3.71 0-7.07 1.47-3.29 1.47-5.74 3.99-2.45 2.45-3.92 5.81-1.4 3.29-1.4 7z"/>
  </g>
  <path transform="rotate(90,560.65,291.55)" d="m557.34 261.96h6.62v59.18h-6.62z"/>
 </g>
 <path d="m574.37 225.98v6.62h-59.18v-6.62z" fill="#f2f2f2"/>
 <path d="m645.36 225.99v6.62h-59.18v-6.62z" fill="#e6e6e6"/>
 <path d="m716.39 225.98v6.62h-59.18v-6.62z" fill="#ccc"/>
 <path d="m787.29 225.98v6.62h-59.18v-6.62z" fill="#b3b3b3"/>
 <path d="m858.29 225.98v6.62h-59.18v-6.62z" fill="#999"/>
 <path d="m156.75 0-94.5 42.43 34.15 105.12h120.58l34.17-105.16z" fill="#fff"/>
 <path d="m216.98 147.55 37.26 114.68h90.43l10.42-96.15-64.95-71.68z" fill="#f2f2f2"/>
 <path d="m254.24 262.23-97.55 70.87 21.73 66.9 87.95-18.4 44.77-78.03z" fill="#e6e6e6"/>
 <path d="m59.14 262.23 37.26-114.68-40.64-29.53-55.76 61.54 8.91 82.67z" fill="#b3b3b3"/>
 <path d="m156.69 333.1-97.55-70.87-40.64 29.53 41.29 72.04 81.38 17.08z" fill="#ccc"/>
</svg>
