<svg xmlns="http://www.w3.org/2000/svg" version="1.1" viewBox="0 0 123.69724 18.305685">
    <g transform="translate(-2.0393 -59.882)">
        <g aria-label="POLIEDRO" transform="matrix(.50849 0 0 .50849 -1.8799 -55.202)">
            <path d="m7.7074 227.77q0-0.4 0.25-0.65 0.3-0.3 0.7-0.3h11.4q2.3 0 4.35 0.9 2.05 0.85 3.55 2.35 1.55 1.5 2.4 3.55 0.9 2 0.9 4.25 0 2.35-0.9 4.4-0.85 2-2.4 3.55-1.5 1.55-3.55 2.45-2 0.85-4.3 0.85h-7.25v11.75q0 0.4-0.3 0.7-0.25 0.25-0.65 0.25h-3.2496q-0.4 0-0.7-0.25-0.25-0.3-0.25-0.7zm12.05 16.45q1.3 0 2.45-0.5t2-1.35q0.9-0.85 1.4-2 0.5-1.2 0.5-2.55 0-1.25-0.5-2.35t-1.4-1.9q-0.85-0.85-2-1.3t-2.45-0.45h-6.9v12.4z"/>
            <path d="m34.845 244.37q0-3.75 1.4-7.05t3.8-5.7q2.45-2.45 5.7-3.85 3.3-1.45 7.05-1.45t7 1.45q3.3 1.4 5.75 3.85 2.45 2.4 3.85 5.7t1.4 7.05-1.4 7.05q-1.4 3.25-3.85 5.7-2.45 2.4-5.75 3.8-3.25 1.4-7 1.4t-7.05-1.4q-3.25-1.4-5.7-3.8-2.4-2.45-3.8-5.7-1.4-3.3-1.4-7.05zm5 0q0 2.7 1 5.05 1.05 2.35 2.8 4.1t4.1 2.8q2.4 1 5.05 1 2.7 0 5.05-1 2.35-1.05 4.1-2.8 1.8-1.75 2.8-4.1 1.05-2.35 1.05-5.05 0-2.65-1.05-5-1-2.4-2.8-4.15-1.75-1.8-4.1-2.85t-5.05-1.05q-2.65 0-5.05 1.05-2.35 1.05-4.1 2.85-1.75 1.75-2.8 4.15-1 2.35-1 5z"/>
            <path d="m77.922 227.77q0-0.4 0.25-0.65 0.3-0.3 0.7-0.3h3.3q0.4 0 0.65 0.3 0.3 0.25 0.3 0.65v29.4h13.55q0.4 0 0.65 0.3 0.3 0.25 0.3 0.65v2.75q0 0.4-0.3 0.7-0.25 0.25-0.65 0.25h-17.8q-0.4 0-0.7-0.25-0.25-0.3-0.25-0.7z"/>
            <path d="m102.82 227.77q0-0.4 0.25-0.65 0.3-0.3 0.7-0.3h3.3q0.4 0 0.65 0.3 0.3 0.25 0.3 0.65v33.1q0 0.4-0.3 0.7-0.25 0.25-0.65 0.25h-3.3q-0.4 0-0.7-0.25-0.25-0.3-0.25-0.7z"/>
            <path d="m117.77 227.77q0-0.4 0.25-0.65 0.3-0.3 0.7-0.3h20q0.4 0 0.65 0.3 0.3 0.25 0.3 0.65v2.8q0 0.4-0.3 0.7-0.25 0.25-0.65 0.25h-15.8v10.2h13.35q0.4 0 0.65 0.3 0.3 0.25 0.3 0.65v2.8q0 0.4-0.3 0.7-0.25 0.25-0.65 0.25h-13.35v10.75h15.8q0.4 0 0.65 0.3 0.3 0.25 0.3 0.65v2.75q0 0.4-0.3 0.7-0.25 0.25-0.65 0.25h-20q-0.4 0-0.7-0.25-0.25-0.3-0.25-0.7z"/>
            <path d="m147.26 227.77q0-0.4 0.25-0.65 0.25-0.3 0.65-0.3h11.5q3.6 0 6.8 1.4 3.2 1.35 5.6 3.75 2.4 2.35 3.75 5.55 1.4 3.15 1.4 6.75 0 3.65-1.4 6.85-1.35 3.2-3.75 5.6-2.4 2.35-5.6 3.75-3.2 1.35-6.8 1.35h-11.5q-0.4 0-0.65-0.25-0.25-0.3-0.25-0.7zm11.7 29.3q2.75 0 5.05-0.95 2.35-0.95 4.05-2.65 1.7-1.75 2.65-4.05 0.95-2.35 0.95-5.15 0-2.75-0.95-5.05-0.95-2.35-2.65-4.05t-4.05-2.65q-2.3-0.95-5.05-0.95h-6.6v25.5z"/>
            <path d="m184.37 227.77q0-0.4 0.25-0.65 0.3-0.3 0.7-0.3h13.6q2.25 0 4.2 0.85 2 0.8 3.5 2.25t2.35 3.4 0.85 4.2q0 1.75-0.55 3.3t-1.55 2.85q-0.95 1.3-2.3 2.35-1.35 1-3 1.65l6.85 12.7q0.25 0.5 0 1-0.2 0.45-0.85 0.45h-3.9q-0.3 0-0.5-0.15t-0.3-0.3l-6.65-13.25h-7.55v12.75q0 0.4-0.3 0.7-0.25 0.25-0.65 0.25h-3.25q-0.4 0-0.7-0.25-0.25-0.3-0.25-0.7zm14.15 16.05q1.2 0 2.3-0.45 1.15-0.5 1.95-1.35 0.85-0.85 1.35-1.95 0.5-1.15 0.5-2.45 0-1.2-0.5-2.3t-1.35-1.9q-0.8-0.8-1.95-1.25-1.1-0.5-2.3-0.5h-8.9v12.15z"/>
            <path d="m215.02 244.37q0-3.75 1.4-7.05t3.8-5.7q2.45-2.45 5.7-3.85 3.3-1.45 7.05-1.45t7 1.45q3.3 1.4 5.75 3.85 2.45 2.4 3.85 5.7t1.4 7.05-1.4 7.05q-1.4 3.25-3.85 5.7-2.45 2.4-5.75 3.8-3.25 1.4-7 1.4t-7.05-1.4q-3.25-1.4-5.7-3.8-2.4-2.45-3.8-5.7-1.4-3.3-1.4-7.05zm5 0q0 2.7 1 5.05 1.05 2.35 2.8 4.1t4.1 2.8q2.4 1 5.05 1 2.7 0 5.05-1 2.35-1.05 4.1-2.8 1.8-1.75 2.8-4.1 1.05-2.35 1.05-5.05 0-2.65-1.05-5-1-2.4-2.8-4.15-1.75-1.8-4.1-2.85t-5.05-1.05q-2.65 0-5.05 1.05-2.35 1.05-4.1 2.85-1.75 1.75-2.8 4.15-1 2.35-1 5z"/>
        </g>
    </g>
</svg>