<svg version="1.1" viewBox="0 0 599.22 395.33" xmlns="http://www.w3.org/2000/svg">
 <defs>
  <style>.cls-1{isolation:isolate;}.cls-2{mix-blend-mode:multiply;}.cls-3{fill:#1d1d1b;}.cls-4{fill:#fff;}</style>
 </defs>
 <title>Risorsa 4</title>
 <g class="cls-1">
  <g data-name="Livello 2">
   <g id="HomePage_Fissa" data-name="HomePage Fissa">
    <g class="cls-2">
     <path class="cls-3" d="M6.16,92.36A4.23,4.23,0,0,1,9.56,88.1l43-6C72.18,79.3,89,95.3,91.9,116c3.66,26-13.73,51.41-39.17,55l-16,2.26v46.89a4.41,4.41,0,0,1-3.4,4.27L9.44,227.8c-2,.27-3.19-1.35-3.26-3.34Zm44.71,49.79c6.85-1,12.4-9.73,11-19.7-1-6.85-5.62-11.58-10.9-10.84l-14.28,2,.11,30.52ZM166.58,64c30.33-4.27,58.45,19.72,63.2,53.57,6.19,44-21.29,84.2-62.38,90-30.13,4.23-58.39-19.33-63.12-53C98.07,110.38,125.88,69.75,166.58,64Zm31.64,61.8c-2.58-18.39-15.69-32.11-31.34-29.91-19,2.67-34.48,25.79-31.07,50.06,2.56,18.2,15.66,31.93,31.12,29.75C186.29,173,201.63,150.09,198.22,125.83Zm56-68.34a4.22,4.22,0,0,1,3.38-4.26l24.27-3.41c1.76-.25,3.18,1.35,3.27,3.33V159.71l39.92-5.61c2-.27,3.19,1.35,3.27,3.34l.07,21.74a4.24,4.24,0,0,1-3.4,4.27l-67.31,9.46c-2,.28-3.38-1.32-3.45-3.31Zm92.15-13a4.2,4.2,0,0,1,3.19-4.23l24.46-3.44c1.76-.25,3.18,1.36,3.27,3.34V172.3a4.21,4.21,0,0,1-3.2,4.24L349.69,180c-1.77.25-3.19-1.35-3.27-3.34ZM402.1,168.22,421.19,31.44c.34-1.84,1.12-3.35,3.29-3.65l2.74-.39a3,3,0,0,1,3,1.57l40.63,80.49.39-.06,43.69-92.34A3.61,3.61,0,0,1,518,14.65l2.94-.41a2.92,2.92,0,0,1,3,2.77l19.46,131.36a4.35,4.35,0,0,1-3.51,4.88l-24.07,3.38a3.21,3.21,0,0,1-3.37-2.72l-6.35-60.77-.39,0-28.46,68.65a4.29,4.29,0,0,1-3,2.62l-3.13.44a3,3,0,0,1-3-1.77l-28.68-60.62-.39.06-6,62.5a4.07,4.07,0,0,1-3.48,3.68l-24.07,3.38C403.49,172.42,401.67,170.87,402.1,168.22ZM568.29,13.37a4.21,4.21,0,0,1,3.19-4.24l24.46-3.44C597.7,5.44,599.13,7,599.2,9V141.11a4.21,4.21,0,0,1-3.2,4.24l-24.46,3.44c-1.77.25-3.19-1.35-3.26-3.34ZM5.66,259.88a4.23,4.23,0,0,1,3.4-4.27l43-6c19.56-2.75,36.38,13.24,39.29,34,3.66,26-13.73,51.42-39.16,55l-16.05,2.26v46.89a4.39,4.39,0,0,1-3.38,4.26L8.94,395.3C7,395.57,5.75,394,5.68,392Zm44.71,49.79c6.85-1,12.41-9.73,11-19.71-1-6.85-5.62-11.58-10.9-10.84l-14.28,2,.09,30.52Zm61.73-64.75a4.2,4.2,0,0,1,3.19-4.23l52.83-7.42c20.56-2.89,36.78,11.79,39.62,31.94,2.94,20.93-6.52,40.23-25.8,49.31l24,47.31A4.19,4.19,0,0,1,203,368l-25.24,3.55a2.71,2.71,0,0,1-3-1.38l-23.33-49.61-8.61,1.21,0,50.89a4.19,4.19,0,0,1-3.19,4.23l-24.26,3.41a2.92,2.92,0,0,1-3.26-3.34Zm52.11,48.55c9.2-1.29,14.64-10.84,13.32-20.23-1-6.85-5.29-12-12.32-11l-22.51,3.16v31.13Zm69.59-65.65a4.19,4.19,0,0,1,3.19-4.23l24.46-3.43c1.76-.25,3.18,1.35,3.26,3.33V355.56a4.18,4.18,0,0,1-3.19,4.23l-24.45,3.44c-1.77.25-3.19-1.34-3.27-3.33Zm63.59-8.93a4.21,4.21,0,0,1,3.19-4.24l43.63-6.13c30.92-4.35,57.13,21.7,61.39,52,6,42.47-20,81.83-61.31,87.64l-43.84,6.16c-1.76.25-3.18-1.34-3.06-3.36Zm45.37,100c20.15-2.84,34.09-25.74,30.49-51.38-2.58-18.39-14.63-31.67-30.47-29.44l-14.68,2.06v80.82ZM430,200.23a4.21,4.21,0,0,1,3.19-4.23L507,185.63c2-.27,3.38,1.32,3.45,3.3l-.13,21.77a4,4,0,0,1-3.19,4.23l-46.57,6.54-.11,24.77,38-5.34a3.25,3.25,0,0,1,3.45,3.3L501.75,266a4.38,4.38,0,0,1-3.4,4.26l-37.76,5.31v26.94l46.57-6.54c2-.27,3.19,1.35,3.27,3.33l0,21.75a4.2,4.2,0,0,1-3.38,4.26l-73.77,10.37a2.93,2.93,0,0,1-3.27-3.33Z"/>
    </g>
    <path class="cls-4" d="M.5,86.7a4.23,4.23,0,0,1,3.39-4.26l43-6c19.58-2.75,36.39,13.24,39.3,34,3.66,26-13.73,51.41-39.17,55l-16,2.26v46.89a4.41,4.41,0,0,1-3.4,4.27L3.78,222.14c-2,.27-3.19-1.35-3.26-3.34Zm44.71,49.79c6.85-1,12.4-9.73,11-19.7-1-6.85-5.62-11.58-10.9-10.84L31,108l.11,30.52ZM160.92,58.38c30.33-4.27,58.45,19.72,63.2,53.57,6.19,44-21.29,84.2-62.38,90-30.13,4.23-58.39-19.33-63.12-53C92.41,104.72,120.22,64.09,160.92,58.38Zm31.64,61.8c-2.58-18.39-15.69-32.11-31.34-29.91-19,2.67-34.48,25.79-31.07,50.06,2.56,18.2,15.66,31.93,31.12,29.75C180.63,167.35,196,144.43,192.56,120.17Zm56-68.34A4.22,4.22,0,0,1,252,47.58l24.27-3.41c1.76-.25,3.18,1.35,3.27,3.33V154l39.92-5.61c2-.27,3.19,1.35,3.27,3.34l.07,21.74a4.24,4.24,0,0,1-3.4,4.27l-67.31,9.46c-2,.28-3.38-1.32-3.45-3.31Zm92.15-13a4.2,4.2,0,0,1,3.19-4.23l24.46-3.44c1.76-.25,3.18,1.36,3.27,3.34V166.64a4.21,4.21,0,0,1-3.2,4.24L344,174.32c-1.77.25-3.19-1.35-3.27-3.34Zm55.68,123.68L415.53,25.78c.34-1.84,1.12-3.35,3.29-3.65l2.74-.39a3,3,0,0,1,3,1.57l40.63,80.49.39-.06,43.69-92.34A3.61,3.61,0,0,1,512.34,9l2.94-.41a2.92,2.92,0,0,1,3,2.77l19.46,131.36a4.35,4.35,0,0,1-3.51,4.88L510.14,151a3.21,3.21,0,0,1-3.37-2.72l-6.35-60.77-.39,0-28.46,68.65a4.29,4.29,0,0,1-3,2.62l-3.13.44a3,3,0,0,1-3-1.77L433.69,96.86l-.39.06-6,62.5a4.07,4.07,0,0,1-3.48,3.68l-24.07,3.38C397.83,166.76,396,165.21,396.44,162.56ZM562.62,7.71a4.21,4.21,0,0,1,3.19-4.24L590.28,0c1.76-.25,3.18,1.36,3.26,3.34V135.45a4.21,4.21,0,0,1-3.2,4.24l-24.46,3.44c-1.77.25-3.19-1.35-3.26-3.34ZM0,254.22a4.23,4.23,0,0,1,3.4-4.27l43-6c19.56-2.75,36.38,13.24,39.29,34,3.66,26-13.73,51.42-39.16,55l-16.05,2.26V382a4.39,4.39,0,0,1-3.38,4.26L3.27,389.64c-2,.27-3.19-1.34-3.26-3.33ZM44.71,304c6.85-1,12.41-9.73,11-19.71-1-6.85-5.62-11.58-10.9-10.84l-14.28,2L30.62,306Zm61.73-64.75a4.2,4.2,0,0,1,3.19-4.23l52.83-7.42c20.56-2.89,36.78,11.79,39.62,31.94,2.94,20.93-6.52,40.23-25.8,49.31l24,47.31a4.19,4.19,0,0,1-2.91,6.19l-25.24,3.55a2.71,2.71,0,0,1-3-1.38l-23.33-49.61-8.61,1.21,0,50.89a4.19,4.19,0,0,1-3.19,4.23l-24.26,3.41a2.92,2.92,0,0,1-3.26-3.34Zm52.11,48.55c9.2-1.29,14.64-10.84,13.32-20.23-1-6.85-5.29-12-12.32-11L137,259.7v31.13Zm69.59-65.65a4.19,4.19,0,0,1,3.19-4.23l24.46-3.43c1.76-.25,3.18,1.35,3.26,3.33V349.9a4.18,4.18,0,0,1-3.19,4.23l-24.45,3.44c-1.77.25-3.19-1.34-3.27-3.33Zm63.59-8.93a4.21,4.21,0,0,1,3.19-4.24l43.63-6.13c30.92-4.35,57.13,21.7,61.39,52,6,42.47-20,81.83-61.31,87.64l-43.84,6.16c-1.76.25-3.18-1.34-3.06-3.36Zm45.37,100c20.15-2.84,34.09-25.74,30.49-51.38C365,243.42,353,230.15,337.12,232.37l-14.68,2.06v80.82Zm87.28-118.62a4.21,4.21,0,0,1,3.19-4.23L501.35,180c2-.27,3.38,1.32,3.45,3.3L504.67,205a4,4,0,0,1-3.19,4.23l-46.57,6.54-.11,24.77,38-5.34a3.25,3.25,0,0,1,3.45,3.3l-.13,21.77a4.38,4.38,0,0,1-3.4,4.26l-37.76,5.31v26.94l46.57-6.54c2-.27,3.19,1.35,3.27,3.33l0,21.75a4.2,4.2,0,0,1-3.38,4.26L427.66,330a2.93,2.93,0,0,1-3.27-3.33Z"/>
   </g>
  </g>
 </g>
</svg>
