<svg version="1.1" viewBox="0 0 223.19 25.4" xmlns="http://www.w3.org/2000/svg">
 <g transform="translate(61.59 -72.618)">
  <g transform="scale(.26458)" aria-label="POLIMI PRIDE">
   <path d="m-232.78 278.33q0-1.0667 0.66667-1.7333 0.8-0.8 1.8667-0.8h30.4q6.1333 0 11.6 2.4 5.4667 2.2667 9.4667 6.2667 4.1333 4 6.4 9.4667 2.4 5.3333 2.4 11.333 0 6.2667-2.4 11.733-2.2667 5.3333-6.4 9.4667-4 4.1333-9.4667 6.5333-5.3333 2.2667-11.467 2.2667h-19.333v31.333q0 1.0667-0.8 1.8667-0.66666 0.66666-1.7333 0.66666h-8.6667q-1.0667 0-1.8667-0.66666-0.66667-0.8-0.66667-1.8667zm32.133 43.867q3.4667 0 6.5333-1.3333 3.0667-1.3333 5.3333-3.6 2.4-2.2667 3.7333-5.3333 1.3333-3.2 1.3333-6.8 0-3.3333-1.3333-6.2667-1.3333-2.9333-3.7333-5.0667-2.2667-2.2667-5.3333-3.4667-3.0667-1.2-6.5333-1.2h-18.4v33.067z"/>
   <path d="m-160.41 322.6q0-10 3.7333-18.8 3.7333-8.8 10.133-15.2 6.5333-6.5333 15.2-10.267 8.8-3.8667 18.8-3.8667t18.667 3.8667q8.8 3.7333 15.333 10.267 6.5333 6.4 10.267 15.2t3.7333 18.8-3.7333 18.8q-3.7333 8.6667-10.267 15.2-6.5333 6.4-15.333 10.133-8.6667 3.7333-18.667 3.7333t-18.8-3.7333q-8.6667-3.7333-15.2-10.133-6.4-6.5333-10.133-15.2-3.7333-8.8-3.7333-18.8zm13.333 0q0 7.2 2.6667 13.467 2.8 6.2667 7.4667 10.933t10.933 7.4667q6.4 2.6667 13.467 2.6667 7.2 0 13.467-2.6667 6.2667-2.8 10.933-7.4667 4.8-4.6667 7.4667-10.933 2.8-6.2667 2.8-13.467 0-7.0667-2.8-13.333-2.6667-6.4-7.4667-11.067-4.6667-4.8-10.933-7.6-6.2667-2.8-13.467-2.8-7.0667 0-13.467 2.8-6.2667 2.8-10.933 7.6-4.6667 4.6667-7.4667 11.067-2.6667 6.2667-2.6667 13.333z"/>
   <path d="m-45.542 278.33q0-1.0667 0.66667-1.7333 0.8-0.8 1.8667-0.8h8.8q1.0667 0 1.7333 0.8 0.8 0.66667 0.8 1.7333v78.4h36.133q1.0667 0 1.7333 0.8 0.8 0.66667 0.8 1.7333v7.3333q0 1.0667-0.8 1.8667-0.66667 0.66666-1.7333 0.66666h-47.467q-1.0667 0-1.8667-0.66666-0.66667-0.8-0.66667-1.8667z"/>
   <path d="m20.864 278.33q0-1.0667 0.66667-1.7333 0.8-0.8 1.8667-0.8h8.8q1.0667 0 1.7333 0.8 0.8 0.66667 0.8 1.7333v88.267q0 1.0667-0.8 1.8667-0.66667 0.66666-1.7333 0.66666h-8.8q-1.0667 0-1.8667-0.66666-0.66667-0.8-0.66667-1.8667z"/>
   <path d="m70.841 276.46q0.26667-0.8 0.93333-1.3333 0.66667-0.66667 1.4667-0.66667h2.1333q0.66667 0 1.3333 0.4 0.66667 0.4 0.93333 1.0667l27.867 68.133h0.53333l27.733-68.133q0.53333-1.4667 2.2667-1.4667h2.1333q0.8 0 1.4667 0.66667 0.66667 0.53333 0.93334 1.3333l16.4 89.6q0.66666 3.0667-2.4 3.0667h-8.6667q-0.93333 0-1.6-0.53333-0.66667-0.66667-0.93333-1.3333l-9.8667-59.6h-0.4l-24 61.333q-0.53333 1.4667-2.2667 1.4667h-2.4q-1.7333 0-2.2667-1.4667l-24.133-61.333h-0.53333l-9.6 59.6q-0.13333 0.66666-0.93333 1.3333-0.66667 0.53333-1.4667 0.53333h-8.6667q-2.9333 0-2.5333-3.0667z"/>
   <path d="m176.59 278.33q0-1.0667 0.66667-1.7333 0.8-0.8 1.8667-0.8h8.8q1.0667 0 1.7333 0.8 0.8 0.66667 0.8 1.7333v88.267q0 1.0667-0.8 1.8667-0.66667 0.66666-1.7333 0.66666h-8.8q-1.0667 0-1.8667-0.66666-0.66667-0.8-0.66667-1.8667z"/>
   <path d="m245.86 278.33q0-1.0667 0.66667-1.7333 0.8-0.8 1.8667-0.8h30.4q6.1333 0 11.6 2.4 5.4667 2.2667 9.4667 6.2667 4.1333 4 6.4 9.4667 2.4 5.3333 2.4 11.333 0 6.2667-2.4 11.733-2.2667 5.3333-6.4 9.4667-4 4.1333-9.4667 6.5333-5.3333 2.2667-11.467 2.2667h-19.333v31.333q0 1.0667-0.8 1.8667-0.66666 0.66666-1.7333 0.66666h-8.6667q-1.0667 0-1.8667-0.66666-0.66667-0.8-0.66667-1.8667zm32.133 43.867q3.4667 0 6.5333-1.3333 3.0667-1.3333 5.3333-3.6 2.4-2.2667 3.7333-5.3333 1.3333-3.2 1.3333-6.8 0-3.3333-1.3333-6.2667-1.3333-2.9333-3.7333-5.0667-2.2667-2.2667-5.3333-3.4667-3.0667-1.2-6.5333-1.2h-18.4v33.067z"/>
   <path d="m325.03 278.33q0-1.0667 0.66667-1.7333 0.8-0.8 1.8667-0.8h36.267q6 0 11.2 2.2667 5.3333 2.1333 9.3333 6 4 3.8667 6.2667 9.0667 2.2667 5.2 2.2667 11.2 0 4.6667-1.4667 8.8-1.4667 4.1333-4.1333 7.6-2.5333 3.4667-6.1333 6.2667-3.6 2.6667-8 4.4l18.267 33.867q0.66666 1.3333 0 2.6667-0.53334 1.2-2.2667 1.2h-10.4q-0.8 0-1.3333-0.4-0.53334-0.4-0.8-0.8l-17.733-35.333h-20.133v34q0 1.0667-0.8 1.8667-0.66666 0.66666-1.7333 0.66666h-8.6667q-1.0667 0-1.8667-0.66666-0.66667-0.8-0.66667-1.8667zm37.733 42.8q3.2 0 6.1333-1.2 3.0667-1.3333 5.2-3.6 2.2667-2.2667 3.6-5.2 1.3333-3.0667 1.3333-6.5333 0-3.2-1.3333-6.1333-1.3333-2.9333-3.6-5.0667-2.1333-2.1333-5.2-3.3333-2.9333-1.3333-6.1333-1.3333h-23.733v32.4z"/>
   <path d="m413.57 278.33q0-1.0667 0.66666-1.7333 0.8-0.8 1.8667-0.8h8.8q1.0667 0 1.7333 0.8 0.8 0.66667 0.8 1.7333v88.267q0 1.0667-0.8 1.8667-0.66667 0.66666-1.7333 0.66666h-8.8q-1.0667 0-1.8667-0.66666-0.66666-0.8-0.66666-1.8667z"/>
   <path d="m453.42 278.33q0-1.0667 0.66666-1.7333 0.66667-0.8 1.7333-0.8h30.667q9.6 0 18.133 3.7333 8.5333 3.6 14.933 10 6.4 6.2667 10 14.8 3.7333 8.4 3.7333 18 0 9.7333-3.7333 18.267-3.6 8.5333-10 14.933-6.4 6.2667-14.933 10-8.5333 3.6-18.133 3.6h-30.667q-1.0667 0-1.7333-0.66666-0.66666-0.8-0.66666-1.8667zm31.2 78.133q7.3333 0 13.467-2.5333 6.2667-2.5333 10.8-7.0667 4.5333-4.6667 7.0667-10.8 2.5333-6.2667 2.5333-13.733 0-7.3333-2.5333-13.467-2.5333-6.2667-7.0667-10.8-4.5333-4.5333-10.8-7.0667-6.1333-2.5333-13.467-2.5333h-17.6v68z"/>
   <path d="m552.37 278.33q0-1.0667 0.66667-1.7333 0.8-0.8 1.8667-0.8h53.333q1.0667 0 1.7333 0.8 0.8 0.66667 0.8 1.7333v7.4667q0 1.0667-0.8 1.8667-0.66667 0.66666-1.7333 0.66666h-42.133v27.2h35.6q1.0667 0 1.7333 0.8 0.8 0.66667 0.8 1.7333v7.4667q0 1.0667-0.8 1.8667-0.66666 0.66667-1.7333 0.66667h-35.6v28.667h42.133q1.0667 0 1.7333 0.8 0.8 0.66667 0.8 1.7333v7.3333q0 1.0667-0.8 1.8667-0.66667 0.66666-1.7333 0.66666h-53.333q-1.0667 0-1.8667-0.66666-0.66667-0.8-0.66667-1.8667z"/>
  </g>
 </g>
</svg>
