<svg xmlns="http://www.w3.org/2000/svg" viewBox="0 0 226.6 66.26"><defs><style>.cls-1{fill:#fff;}.cls-2,.cls-4,.cls-5{fill:none;}.cls-2{stroke:#929497;stroke-miterlimit:10;stroke-width:0.48px;}.cls-3{fill:#8eb6ce;}.cls-4,.cls-5{stroke:#231f20;stroke-linecap:round;stroke-linejoin:round;}.cls-4{stroke-width:0.28px;}.cls-5{stroke-width:0.25px;}</style></defs><title>Risorsa 1logopolidef</title><g id="Livello_2" data-name="Livello 2"><g id="Livello_1-2" data-name="Livello 1"><g id="Livello_2-2" data-name="Livello 2"><g id="HomePage_Fissa" data-name="HomePage Fissa"><path class="cls-1" d="M64.8,33.44a31.64,31.64,0,1,1,0-.62"/><path class="cls-2" d="M66.23,35.42l-2.93-.19M66.09,37l-2.92-.34m2.71,1.86L63,38m2.62,2-2.87-.6m2.52,2.11-2.84-.74M64.82,43,62,42.12m2.31,2.33-2.76-1m2.2,2.43L61,44.78m2.08,2.54-2.65-1.26m2,2.64-2.59-1.38M61.68,50,59.16,48.5m1.7,2.82-2.44-1.63M60,52.62l-2.4-1.71M59,53.85,56.76,52M58,55,55.8,53.07M57,56.17l-2.11-2m1,3.13-2-2.14m.86,3.17L52.85,56.1m.71,3.21L51.76,57m.56,3.24-1.69-2.4M51,61l-1.6-2.46m.28,3.27-1.48-2.54m.12,3.28L47,60m0,3.28-1.23-2.67m-.19,3.28-1.1-2.72m-.35,3.27-1-2.77m-.51,3.25-.83-2.82m-.65,3.22-.72-2.85m-.79,3.18-.58-2.88m-1,3.14L37.69,63m-1.1,3.1-.29-2.92m-1.24,3-.18-2.93m-1.37,3V63.33M32,66.24l.12-2.93m-1.65,2.84.23-2.93M28.89,66l.38-2.91m-1.91,2.68.53-2.89m-2,2.59.63-2.87m-2.17,2.5.78-2.83m-2.26,2.38.92-2.79m-2.38,2.27,1-2.74M20,63.58l1.16-2.7m-2.56,2,1.29-2.64m-2.7,2,1.41-2.57m-2.75,1.79,1.54-2.5m-2.84,1.66,1.66-2.42M13.3,59.69l1.77-2.34m-3,1.4,1.85-2.28m-3,1.26,2-2.18M9.81,56.68l2.06-2.09m-3.14,1,2.16-2m-3.18.82L10,52.52m-3.22.67,2.34-1.77m-3.25.52L8.3,50.28M5,50.64l2.5-1.54m-3.28.22,2.55-1.45m-3.28.08,2.62-1.32m-3.28-.08,2.68-1.2m-3.27-.23L5,44.06m-3.26-.39,2.78-.93m-3.24-.55,2.83-.79M.87,40.69,3.73,40M.56,39.19l2.88-.54m-3.13-1,2.91-.4M.14,36.12l2.92-.25M0,34.59l3-.14M0,33H3M0,31.49l3,.16M.16,30l2.92.27M.35,28.42l2.91.42m-2.66-2,2.88.56M.93,25.39l2.86.67M1.32,23.9l2.82.81M1.79,22.42l2.78,1M2.33,21,5,22M2.93,19.54,5.6,20.76m-2-2.6,2.61,1.31M4.32,16.79l2.56,1.45M5.12,15.46,7.6,17M6,14.18l2.4,1.69M6.89,12.93l2.32,1.8m-1.34-3,2.23,1.91M8.9,10.58l2.14,2m-1-3.1,2,2.08m-.93-3.14,2,2.18M12.3,7.41l1.85,2.28m-.63-3.22,1.74,2.36m-.48-3.25L16.39,8m-.32-3.27,1.51,2.52M17.41,4,18.8,6.6m0-3.29L20,5.93m.13-3.28L21.3,5.34m.28-3.27,1,2.75M23,1.57l1,2.79m.59-3.23L25.33,4m.75-3.2.61,2.87M27.58.47l.51,2.89m1-3.11.36,2.91M30.66.1,30.87,3m1.34-3,.07,2.93M33.74,0V2.94M35.29.08,35.09,3M36.83.21l-.34,2.92M38.35.42l-.45,2.9M39.9.7l-.59,2.87M41.39,1l-.74,2.84m2.21-2.43L42,4.27m2.31-2.33-1,2.77M45.74,2.5,44.66,5.21m2.53-2.09L46,5.78m2.63-2L47.21,6.4m2.72-1.84L48.44,7.08m2.81-1.71L49.63,7.82m2.89-1.58L50.8,8.62m3-1.44L51.92,9.47m3-1.31L53,10.38M56.07,9.2l-2,2.13m3.11-1-2.12,2m3.16-.89L56,13.37m3.2-.74-2.3,1.82m3.23-.59-2.38,1.71M61,15.14l-2.46,1.6m3.27-.28-2.54,1.48m3.29-.12L60,19.18m3.29,0L60.6,20.41m3.28.19-2.72,1.1m3.27.34-2.77,1m3.25.48-2.8.87m3.22.63-2.84.73m3.19.78-2.88.59m3.15.94-2.9.45m3.1,1.09-2.92.3m3,1.22-2.93.19m3,1.36H63.37m2.92,1.5-2.93-.1"/><path class="cls-1" d="M28.9,32.37s.31.18.35.09l.77,1s1.2.68,1.4.56.38-.43.51-.45.3-.2.46-.23.34-.4.34-.4.54.13.55-.19,0-1.11,0-1.11a1.29,1.29,0,0,0,.53-.86c.13,0,.83-.08.83-.08.59-.19.5-.83.39-1.16s-.79-.72-.79-.72a.51.51,0,0,0,0-.72l0,0a.8.8,0,0,0-.68-.51h-.3l-1.44-.8-2.49-.11-2.29,3-.78-.35v-2l1-2.68,1-1,1.07.88,3.45.11s1.26.1,1.43-.16l.76-1.2v.07a.86.86,0,0,1,.18.13,1.31,1.31,0,0,1,.41.08c0-.06.09-.2.47-.48s.08-.63.19-1a.72.72,0,0,0-.2-.63l2.74.83h0c-.17.29-.19.68-.34.77s.06.63,0,.89a.47.47,0,0,0,.19.46h.13a5.27,5.27,0,0,0,.06,1,2.44,2.44,0,0,0,.47,1.09h-.09a1.61,1.61,0,0,1-.28.7c-.17.12-1,1.16-.81,1.83s.5,1.85.5,1.85h.33v.09a3.67,3.67,0,0,1-.42.92,3.3,3.3,0,0,0-1.08,1.77h0a.86.86,0,0,0-1.17.17l-.57.52h0c-.45.61-.42.56-.48.72a9.63,9.63,0,0,0-.3,1.13c0,.13,0,.4-.1.45s-.45.31-.49.25-.37-.53-.51-.56-.38,0-.29.16-.59.1-.12.51l.47.41a2.32,2.32,0,0,0,.7.43.86.86,0,0,0,.92-.32h.06a2.33,2.33,0,0,1-.15.6,1.74,1.74,0,0,0-.22.85s.18.57.48.16l.3-.41.32-.51h0c-.24.81-.51,1.64-.65,2a5.7,5.7,0,0,0-.74,1.7A2.36,2.36,0,0,0,35,43h0c-.93-.53-1.55.22-2.53.55a8.19,8.19,0,0,1-2,.36v-.1c-.86-.1-1.92-1.31-1.92-1.31L26.9,40.89c.47-2.29,1.49-2.43,1.49-2.43h0a35.8,35.8,0,0,0,1-3.91,3.3,3.3,0,0,1-.07-.81"/><path class="cls-1" d="M29.67,26.53a2.33,2.33,0,0,0-.56.26,9.28,9.28,0,0,1-.93.69A10.82,10.82,0,0,0,27,28.6a1.15,1.15,0,0,0-.08.67c0,.13.53,1.35.56,1.46s.45.23.51.39.1.47.74.81l-.13,1,.35-.27s1.48.08,1.64-.21a3.08,3.08,0,0,1,1.07-1c.39-.19,1.29-.79,1.56-.9s.82.28,1,.28,1.49-.28.93-1-.85-1.14-.8-1.32-.26-.82-1.06-.9a1.62,1.62,0,0,1-1.17-.69Z"/><path class="cls-1" d="M44.75,21.08s-1.39-.56-1.75-.64a6.73,6.73,0,0,0-2.53.56c-.52.29-.8.49-.88.72s-.81.43-.81.61a9.31,9.31,0,0,1-.31.93,2.28,2.28,0,0,0,.11,1c.13.13.09.88.2,1s.38,1.13.89,1.49,1.21.53,1.31.72.61,1.29.85,1.15.43-.46.74-.3a1.48,1.48,0,0,0,1.57-.11c.48-.45,1-1.48,1.54-1.75A2.92,2.92,0,0,0,47.17,25a5.18,5.18,0,0,0,.45-2.71,1.46,1.46,0,0,0-1.2-1c-.31,0-1.67-.21-1.67-.21"/><path class="cls-1" d="M45.75,41a28.63,28.63,0,0,1,6-15h0a2.51,2.51,0,0,0,2-.38h0c-7.38-2-2.56-6.84-1.81-7.55V18c.53.23,1.11-.26,3,.8.15.09,1-.52,1.39-.53.58,0,2,1.36,2.15,1.65a1.9,1.9,0,0,1,0,1.3c-.2.47-.66.76-.57,1a13.43,13.43,0,0,1,1.14,4.42,33.11,33.11,0,0,1,.42,3.79c.07,1.49-.07,3.12,0,4.27.06,2-1.51,5.58-1.51,7.71,0,.65.33,3.43,1.29,3.67,0,0-3.22.35-4.59.3H53.42a42.65,42.65,0,0,1-4.67-.33h-.1a3.15,3.15,0,0,1,0-1.76c.33-.65,3.9-5.63,3.66-9.17h0a2,2,0,0,0-.5.49,35.68,35.68,0,0,1-4.31,3.86l-1.15.92a7,7,0,0,0-.57.76"/><path class="cls-1" d="M45.61,47.22a4,4,0,0,1,.28-.69,5.65,5.65,0,0,0,.35-1.46,6.68,6.68,0,0,1,.66-1.93,22.84,22.84,0,0,0,.66-3.79l-.06-.08a35.59,35.59,0,0,0,4.31-3.86,2,2,0,0,1,.5-.49h0c.24,3.54-3.33,8.51-3.66,9.17a3.15,3.15,0,0,0,0,1.76.6.6,0,0,0,.08.31,5.26,5.26,0,0,1,.71,1.29c0,.29-.42.67-.57.78s-.49.23-.67.34a1.29,1.29,0,0,1-.7,0,3.63,3.63,0,0,1-.71-.19,3,3,0,0,1-.84.07c-.33,0-.36-.43-.4-.89a1.37,1.37,0,0,1,0-.49"/><path class="cls-1" d="M42.35,20.25a3.7,3.7,0,0,1,1.29-1,2.46,2.46,0,0,1,.6-.18,8.46,8.46,0,0,1,4-1.23,7.54,7.54,0,0,1,2.21,0V18h0c-1.92.79-2.92,3.89-2.92,4h0c-.13-.54-.33-.59-.8-.72a25,25,0,0,1-3.17-.64h0a4.86,4.86,0,0,1-.64-.29,1.35,1.35,0,0,0-.56,0v-.12Z"/><path class="cls-1" d="M41,35.05a5.3,5.3,0,0,0,.67-2.58l1-2.09-.17-.08a2.26,2.26,0,0,0,.85-.51,25.92,25.92,0,0,0,1.44-2.18h0a5.26,5.26,0,0,0,.3-.49s-.1-.2.42-.68l.11-.12.18-.14.12-.12s.91.2.87.48-.47,1.88-.52,2.22a2,2,0,0,0,.08,1.08,6.42,6.42,0,0,1,.37,1.92,20,20,0,0,1-.4,2.34l-.07.32h0s-.63,0-1.68.08h0a27,27,0,0,0-3.42.54Z"/><polygon class="cls-1" points="44.1 49.56 35.22 52.17 35.19 51.42 35.19 51.42 35.23 50.85 44.15 48.32 44.1 49.56"/><path class="cls-1" d="M42,16.32h0a1.32,1.32,0,0,0,.22-.23c.22-.29.07-1,.08-1.07a.68.68,0,0,1,.25-.43c.17-.13.17-.66.17-.77s.19-.23.29-.35-.07-.71-.09-.88a1,1,0,0,1,.08-.46h.12a7.32,7.32,0,0,1,3.45,3,4,4,0,0,1,.5,1.29v.21h0a6,6,0,0,1,1.17,1.06l-.34.09A10,10,0,0,0,44.27,19a2.43,2.43,0,0,0-.6.18v-.06c-2-1.41-1.63-2.86-1.63-2.86h0Z"/><path class="cls-1" d="M40.39,44.25c-.71-.09-.59-.85-.59-.85l.35-1.07a3.24,3.24,0,0,0,0-.94A3,3,0,0,1,40.7,40a3.28,3.28,0,0,0,.2-1.62V35.65h0q.17-.3.31-.61h.06a25.42,25.42,0,0,1,3.25-.51v.14A7.63,7.63,0,0,1,43.74,38s-1.24,1.84-1.4,2.12a2.37,2.37,0,0,0-.13,1,2.73,2.73,0,0,1-.11.55,1.4,1.4,0,0,0,.34,1c.18.24.46.41.57.65s-.19.62-.57.81a4.78,4.78,0,0,1-2,.09"/><path class="cls-1" d="M36.61,11.94A12.21,12.21,0,0,1,37,10.46a5.87,5.87,0,0,1,.45-1.22,2.93,2.93,0,0,1,.32-.42h0a7.86,7.86,0,0,1,.71-.72,7.28,7.28,0,0,1,1.23-.39,2.69,2.69,0,0,1,2,.58s.78,0,1,.52a5.7,5.7,0,0,1,.61,1.54c0,.24-.19.48-.16.61A4.34,4.34,0,0,1,43,12v.07a1,1,0,0,0-.08.46c0,.18.19.76.09.89s-.28.24-.29.35,0,.64-.17.77a.68.68,0,0,0-.25.43c0,.1.15.78-.08,1.07a1.28,1.28,0,0,1-.22.23h0c-.13.1-.22.12-.26.06s-.22.22-.22.2l-.07.2s0,.48-.16.44-.29-.56-.29-.56l.2-1.15.15-1.43V14l1.12-1.82a1.94,1.94,0,0,0-.25-.91,2.36,2.36,0,0,1-.55-.72,4.76,4.76,0,0,0-.15-.69s-.82.67-1,.77a2.69,2.69,0,0,1-.94,0,.79.79,0,0,0-.62.28,9.86,9.86,0,0,1-.5.88,3.06,3.06,0,0,0-.19,1,.7.7,0,0,1-.14.38,1.69,1.69,0,0,0-.18.3c-.08.2,0,.4.07.72a3.67,3.67,0,0,1-.06,1c0,.16-.31.16-.37.15a2.16,2.16,0,0,0-.41.2s.07-.44.1-.55A7,7,0,0,0,37,14a17.28,17.28,0,0,1-.27-2.11"/><path class="cls-1" d="M35.8,48l-.32.08.31-2.24h0a2.56,2.56,0,0,0,.26-.66,7,7,0,0,1,.63-1.77,1.18,1.18,0,0,1,.83-.48l0,.58.57,4-.11.29L37,45.14Z"/><path class="cls-1" d="M38.23,12.79a3.07,3.07,0,0,1,.19-1c.09-.12.41-.7.5-.88a.79.79,0,0,1,.62-.28,2.64,2.64,0,0,0,.94,0c.18-.1,1-.77,1-.77s.13.53.15.69a2.31,2.31,0,0,0,.55.72,1.94,1.94,0,0,1,.25.91L41.31,14v.07h-.06a3.5,3.5,0,0,1-2,.65c-.71-.19-1.09-1.53-1.09-1.53h-.07a.7.7,0,0,0,.14-.38"/><polygon class="cls-1" points="30.46 49.28 35.48 48.11 35.8 48.03 37.63 47.61 37.94 47.54 39.05 47.28 44.15 48.32 35.23 50.85 30.46 49.28"/><path class="cls-1" d="M35,41.82a5.7,5.7,0,0,1,.74-1.7c.14-.31.4-1.14.65-2,.29-1,.56-1.91.56-1.91a13.43,13.43,0,0,1,.56-2.67,3.3,3.3,0,0,1,1.09-1.77A3.71,3.71,0,0,0,39,30.9v-.09l3-.37.46-.15.17.08-1,2.09A5.3,5.3,0,0,1,40.94,35c-.1.21-.21.43-.33.64-1.1,2-2.72,3.94-2.8,4.18a3.62,3.62,0,0,0,.14,2,2,2,0,0,1-.37,1.71h-.07l0-.58a1.18,1.18,0,0,0-.83.48A7,7,0,0,0,36,45.24a2.55,2.55,0,0,1-.27.65h0c-.34,0-.31-.47-.31-.47l-.12-2.06a.92.92,0,0,1-.26-.29,2.35,2.35,0,0,1-.13-1.22"/><polyline class="cls-3" points="35.69 34.28 35.69 34.28 35.7 34.27 35.69 34.28"/><path class="cls-3" d="M35.68,34.28Z"/><path class="cls-1" d="M33.44,37c-.47-.41.21-.3.12-.51s.14-.19.29-.16.47.5.51.56.42-.2.49-.25.1-.33.1-.45A9.45,9.45,0,0,1,35.21,35c.06-.16,0-.11.48-.72h0l.57-.52a.86.86,0,0,1,1.17-.17h0a13.43,13.43,0,0,0-.53,2.69s-.26.94-.56,1.91h0l-.31.51-.3.41c-.3.41-.48-.16-.48-.16a1.73,1.73,0,0,1,.22-.85,2.39,2.39,0,0,0,.15-.6h-.06a.86.86,0,0,1-.92.32,2.32,2.32,0,0,1-.7-.43Z"/><path class="cls-3" d="M35.68,34.28Z"/><path class="cls-1" d="M36.05,21.41s0-.26.06-.38-.32-.38-.37-.41,0-.19,0-.35a3,3,0,0,1-.17-.58,1.09,1.09,0,0,0,0-.14h0l.76-1.22a4.39,4.39,0,0,0,0-3.94c-.15-.38-.74.33-.77.37h0a1,1,0,0,0,0-1c-.34-.77-1.66-1.38-2.13-1.57a.71.71,0,0,0-.4,0V12a1.65,1.65,0,0,1,.27-1.9c.81-1,1.07-1.08,1.41-1.13l.93-.12a2,2,0,0,1,2.18-.11h0a2.93,2.93,0,0,0-.32.42A5.88,5.88,0,0,0,37,10.42a12.13,12.13,0,0,0-.39,1.47,17.28,17.28,0,0,0,.29,2.16,7,7,0,0,1,.34,1,5.19,5.19,0,0,1-.1.55,2.23,2.23,0,0,1,.41-.2c.06,0,.33,0,.37-.15a3.67,3.67,0,0,0,.06-1c0-.32-.14-.52-.07-.72a1.63,1.63,0,0,1,.18-.3h.07s.38,1.35,1.09,1.53a3.5,3.5,0,0,0,2-.65h.06l-.15,1.43L41,16.69s.18.52.29.56.2-.5.2-.5l.07-.22s.12-.2.18-.12.14,0,.26-.06h0s-.36,1.45,1.63,2.86v.06a3.7,3.7,0,0,0-1.29,1h0v.14l-.46.06a6.82,6.82,0,0,1-.87.26c-.16,0-.54.32-1,.45s-.2.69-.79.81a.6.6,0,0,0-.41.3"/><path class="cls-1" d="M31,19a1.93,1.93,0,0,1,.62-1.14,2.22,2.22,0,0,1,1.63-.18l.43.38a3.42,3.42,0,0,1,.58.32.63.63,0,0,1,.23.4,3.89,3.89,0,0,0,.28.46A5,5,0,0,1,35,20c0,.11.11.6.1.68s.19.69,0,.85,0,1.66-.18,1.77c-.27.4-.48,1-.89,1.15a5.05,5.05,0,0,1-2.19,0l.2-2.06a3.06,3.06,0,0,0-.15-.46,3,3,0,0,1-.26-1.2,1.55,1.55,0,0,0-.31-.86A1.09,1.09,0,0,1,31,19"/><path class="cls-1" d="M29.56,33.14l-.44.13-.31-.86c.13-.25,1.21-.08,1.31-.16s.45,0,.49-.12.23-.12.43-.26.24-.3.37-.33a.69.69,0,0,0,.37-.3c0-.1.33-.14.49-.19a7.1,7.1,0,0,0,.89-.52.55.55,0,0,1,.48-.07c.16,0,.2.33.2.33a1.28,1.28,0,0,1-.53.86v1.11c0,.31-.55.19-.55.19s-.18.37-.34.4-.33.2-.46.23a3,3,0,0,0-.56.32c-.2.11-1.13-.26-1.13-.26Z"/><path class="cls-1" d="M30.5,14.93a.62.62,0,0,1-.6-.32c0-.1.47-.32.47-.32a3.14,3.14,0,0,1,1.16-.38h.27a1.45,1.45,0,0,1,1.07.17l.47.29h.09l-.12-.23a.29.29,0,0,1,0-.31c.1-.13.33,0,.36,0a3.38,3.38,0,0,0,.35.34c.19.15.16,0,.32.72a1,1,0,0,1,0,.36c0,.37-.45.36-1,.61a1.49,1.49,0,0,1-1.27,0,10.48,10.48,0,0,1-1-1c0-.09-.16-.08-.25,0s0,.11-.41.11"/><path class="cls-1" d="M31.8,13.82s0-.92.26-1.15a2.06,2.06,0,0,1,.84-.53.71.71,0,0,1,.4,0c.47.19,1.79.8,2.13,1.57a1,1,0,0,1,0,1,.75.75,0,0,1-.28.24,3.82,3.82,0,0,1-.79.23h0a1,1,0,0,0,0-.36c-.16-.71-.13-.56-.32-.72a3.25,3.25,0,0,1-.35-.34s-.27-.13-.36,0a.28.28,0,0,0,0,.31l.12.23h-.09l-.46-.25a1.45,1.45,0,0,0-1.07-.17v-.05Z"/><polygon class="cls-1" points="30.46 49.28 35.23 50.85 35.19 51.42 35.19 51.62 35.22 51.73 35.17 52.12 30.43 50.56 30.46 49.28 30.46 49.28"/><path class="cls-1" d="M30.55,24.62c-.23-.17-1.18.07-1.3-.23s-.29-.36-.91-.81,0-1,.21-1,.09-.14.09-.14A2,2,0,0,1,29,22c.23-.21.13-.18.18-.85s.35-.81.35-.81A1.91,1.91,0,0,1,29.77,19c0-.44.68-.87.68-.87a.87.87,0,0,1,1.13-.48l.62-.27a1.78,1.78,0,0,0,.49,0,1.3,1.3,0,0,1,.63-.06.55.55,0,0,1,.47.28s.41,0,.47.25.55.12.49.62a1.75,1.75,0,0,1,.3.63c0,.21.35.14.45.54a1.09,1.09,0,0,1,0,.14,3,3,0,0,0,.17.58.44.44,0,0,1,0,.35s.38.28.37.41-.06.38-.06.38a.71.71,0,0,1,.2.63c-.1.33.24.64-.19,1s-.5.43-.47.48a2.92,2.92,0,0,0-.46-.17l-.25-.11a.64.64,0,0,1-.23-.22c0-.08-.18-.11-.15-.92l-.06-.12a3.54,3.54,0,0,0,.66-.43c.19-.16,0-.78,0-.85s-.1-.57-.1-.68a4.41,4.41,0,0,0-.19-.61,1.32,1.32,0,0,0-.06-.16,3.8,3.8,0,0,1-.28-.46.62.62,0,0,0-.23-.4,3.51,3.51,0,0,0-.58-.32l-.43-.38a2.21,2.21,0,0,0-1.63.18,1.92,1.92,0,0,0-.62,1.14,1.09,1.09,0,0,0,.35.89,1.55,1.55,0,0,1,.31.86,3,3,0,0,0,.33,1.1,3,3,0,0,1,.15.43,1.78,1.78,0,0,1,.06.93,2.79,2.79,0,0,0-.15.89c0,.23-.41.44-.45.48a1.69,1.69,0,0,1-1-.06"/><path class="cls-1" d="M22.19,11.84c-.16-.42.67-.9.67-.92,0-.52.66-.48.66-.48,0-.43.9-.3.9-.3a5.48,5.48,0,0,0,.41-.52,6.09,6.09,0,0,1,2.07-.06c1.15-.19,1.21.28,1.21.28a1.64,1.64,0,0,1,1.09.4c.23-.19.57.13.57.13a1,1,0,0,1,.81.78c.86.26.46.81.46.81.5.46,0,.69,0,.8s0,.32-.47.39a.92.92,0,0,1-.49-.1c-.36-.16-.73-.45-.93-.51a.37.37,0,0,1-.25-.22c-.2,0-.17.14-.27-.15H28.5a1.52,1.52,0,0,1-.17.73.46.46,0,0,1-.44.2c-.14,0-.46.31-.66.42a1,1,0,0,1-.41.17c-.11,0-.35.5-.61.31,0,0-.19-.23-.36-.07a.8.8,0,0,1-.84.12c-.26-.14-.67-.2-.76-.43s-.44-.27-.72-.45h-.07a2.73,2.73,0,0,0-.79-1,3.08,3.08,0,0,0-.52-.32v-.06Z"/><path class="cls-1" d="M24.5,20.72a1.94,1.94,0,0,1,.31-1,1.24,1.24,0,0,1,.74-.39l.52.14.51.13h.31l.87.12c.1,0,.8.14.8.14.07.2-.35.34-.35.34l-.75.12.23.38c.23.38-.28.68-.28.68.15.72-.31.94-.31.94a1.69,1.69,0,0,1-1.89-.22l-.33-.17c-.5-.2-.37-.66-.38-1.13"/><path class="cls-1" d="M21.75,20.53a1.26,1.26,0,0,1,0-.83l0-.11,1-.48s1.43-.49,2.21-.84l.23.06s1,.67,1,1v.08l-.52-.14a2.44,2.44,0,0,0-.74.39,1.79,1.79,0,0,0-.31,1c0,.46-.12.93.38,1.13l.33.17h0l-1.49-.06a2.35,2.35,0,0,1-2-1.47"/><path class="cls-1" d="M23.09,16.14a3.86,3.86,0,0,0,.51-1,2.6,2.6,0,0,0-.14-2h.07c.28.18.67.3.72.45s.49.28.76.43a.8.8,0,0,0,.84-.12c.17-.16.36.07.36.07.26.19.5-.31.61-.31a1,1,0,0,0,.41-.17c.2-.12.52-.43.66-.42s.22,0,.44-.2.17-.73.17-.73l.17-.11a.5.5,0,0,0,.3.28s-.12.14.18.22a9.05,9.05,0,0,1,.93.51h0a1.06,1.06,0,0,0-.18.33,16.18,16.18,0,0,0-.66,1.85c-.1.52-.46.12-.46.12a1.72,1.72,0,0,1-.25.25,1.11,1.11,0,0,1-.39.07s-.16.21-.23.22a.45.45,0,0,0-.23.27c0,.09,0,.21-.23.25a2.37,2.37,0,0,1-.85-.26l-.91-.5-.13-.07-2.32.6Z"/><path class="cls-1" d="M15.09,34.14c-.31-.24-.16-.55-.2-1.41s1.44-1.19,1.83-1.23,1.94-.43,1.94-.43l1.51-.64h0l.1.11c.16.13.34.35.5.48a.94.94,0,0,0,.62.09,1.41,1.41,0,0,0,.47-.23c.12-.06.11-.28.12-.45a5.76,5.76,0,0,1,.11-.69,2.43,2.43,0,0,1,.17-.48h0a1.37,1.37,0,0,1,.46-.26c.07,0,.19-.16.27-.16a1.2,1.2,0,0,1,.34.14,1.68,1.68,0,0,0,.91,0c.19-.06.24-.14.21-.21h0a10.35,10.35,0,0,1,2.46,1h0a1.35,1.35,0,0,1,.7,1c0,.15.13.19.23.3s0,.13.14.28.44.43.58.62.24.56.3.62h0c.14.54.27,1.22.27,1.22l.15.63h0c-.06.64-.35,2.58-2,2.79h0a3.26,3.26,0,0,1-.82.89,3.61,3.61,0,0,1-1.68.59h0a1.79,1.79,0,0,1-1.48-.56h-.18a6.27,6.27,0,0,0,.57-1.48s1.13-.15,1.16-.69.43-1.35-2.82-2.53a4.69,4.69,0,0,0-1.44,1.64,9.87,9.87,0,0,0-.66,1.77h-.12a22.81,22.81,0,0,1-3-2.79h0a12,12,0,0,0-1.13.64h0a3.91,3.91,0,0,1-.58-.39"/><path class="cls-1" d="M19.71,39A8,8,0,0,1,20,36.74,9.81,9.81,0,0,1,20.63,35a4.7,4.7,0,0,1,1.44-1.64c3.25,1.19,2.85,2,2.82,2.53s-1.16.69-1.16.69A6.21,6.21,0,0,1,23.16,38L23,38.4l-.46.94a18.52,18.52,0,0,0-.7,1.8c0,.31.49.38.69.42a4,4,0,0,1,.86.48,3.86,3.86,0,0,1,.47.49.67.67,0,0,0,.18.21,3.36,3.36,0,0,1,.45.29l.75.92c.07.07.13.2.08.27a.35.35,0,0,1-.2.08l-.91-.58-.67-.26a3.35,3.35,0,0,1,.62.86l.33.77c.1.26,0,.32-.17.37S24,45.3,24,45.3l-.38-.64-.73-1,.15.44.16.39.19.65s.13.45.17.56,0,.17-.11.23-.29,0-.29,0l-.73-1.53v.34c0,.19-.45.38-.54.4a.53.53,0,0,0-.31.17c-.09.11-.17,0-.17,0-.17-.1-.09-.35-.06-.4s.29-.19.35-.26-.06-.4-.1-.49a3.45,3.45,0,0,0-.54-.43l-.55-.46A3.64,3.64,0,0,1,19.82,41h0c0-.66-.07-1.38-.1-2.06"/><path class="cls-1" d="M20.36,20.2c-.06-.24,0-.26,0-.26a5.47,5.47,0,0,0,1-2.19c.17-.52.51-.59.86-.76a2.79,2.79,0,0,0,.84-.85l.15.07,2.32-.6.13.07h0a2.09,2.09,0,0,1-.36,1.46h.06a4.68,4.68,0,0,1,0,.81,1.33,1.33,0,0,1-.5.29h0c-.78.35-2.21.84-2.21.84l-1,.48-1.21.61Z"/><path class="cls-1" d="M15.18,15.89c-.76-1-.18-1.79.89-3s3.83-1.3,4.51-1.35h0a3.89,3.89,0,0,1,1.58.39,3.06,3.06,0,0,1,.52.32,2.74,2.74,0,0,1,.79,1,2.61,2.61,0,0,1,.13,1.89,3.86,3.86,0,0,1-.51,1,2.83,2.83,0,0,1-.84.85c-.35.17-.69.25-.86.76a5.48,5.48,0,0,1-1,2.19s-.09,0,0,.26a1.78,1.78,0,0,0,.09.27,8,8,0,0,1,.88,2.83,9.14,9.14,0,0,0,.41,2.75c.24.78.71,1.72.9,1.73a1.26,1.26,0,0,1,.7.28,3.23,3.23,0,0,0,.79.43.51.51,0,0,1,.33.23c0,.1,0,.14-.21.21a1.69,1.69,0,0,1-.91,0,1.17,1.17,0,0,0-.34-.14c-.08,0-.2.12-.27.16a1.37,1.37,0,0,0-.46.26h0c0,.06-.14.37-.17.48a5.56,5.56,0,0,0-.11.69c0,.17,0,.38-.12.45a1.41,1.41,0,0,1-.47.24,1,1,0,0,1-.62-.09c-.16-.13-.34-.36-.5-.48l-.1-.11a1.16,1.16,0,0,1-.2-.89,5.34,5.34,0,0,1,.4-1c0-.12-.57-1.64-.57-1.64a14.24,14.24,0,0,1-1-1.5,6.17,6.17,0,0,1-1-2,9.29,9.29,0,0,1-.26-1.59,3.08,3.08,0,0,1-.1-1v-.48a23.17,23.17,0,0,0,.1-2.49v-.33h-.11c-.78.29-1.6-.53-2.35-1.48"/><path class="cls-1" d="M11.77,33.93a5.18,5.18,0,0,1,.17-1,21.86,21.86,0,0,0,.43-2.21c0-.58-.47-2.94-.47-4.58a4,4,0,0,1,1-2.62h0a26.21,26.21,0,0,0,4.89-.22h0a6.21,6.21,0,0,0,1,2c.15.3,1,1.5,1,1.5s.58,1.52.57,1.64a5.27,5.27,0,0,0-.4,1,1.17,1.17,0,0,0,.19.89h0l-1.51.64s-1.56.39-1.94.43-1.87.37-1.83,1.23-.1,1.17.2,1.41a3.81,3.81,0,0,0,.58.39h0a3.25,3.25,0,0,0-.66.53,3.46,3.46,0,0,0-.8,1.39h-.08a8.79,8.79,0,0,0-1.2-.71l-.66-.09v-.09h0a3.61,3.61,0,0,1-.53-1.68"/><path class="cls-1" d="M9.41,22.86c-.89-1.35-.32-1.9-.24-2a1.77,1.77,0,0,0,1.41.6c1-.14,2-.5,2.55-.14s1.36,1.28,2.36.62c.72-.47,1.38-1,1.7-1.18l.2-.14h.08a3.08,3.08,0,0,0,.1,1,9.33,9.33,0,0,0,.26,1.59h0a26.17,26.17,0,0,1-4.89.22,15.11,15.11,0,0,1-2-.23,9.52,9.52,0,0,1-1-.25h0l-.51-.17"/><path class="cls-1" d="M8.64,20.34c-.23-.2-.41-1.13-.16-1.35s1-1.09,1-1.09c1.13-2,2.29-2.3,2.29-2.3h.07c-.14.8-.23,1.89-.25,2.08a3.48,3.48,0,0,0,1,1.45,4,4,0,0,0,1.31.5,18,18,0,0,1,1.88.64l1.41.47v.06L15.49,22c-1,.66-1.85-.25-2.36-.62s-1.58,0-2.55.14a1.77,1.77,0,0,1-1.41-.6c-.25-.24-.44-.48-.53-.57"/><path class="cls-1" d="M12.74,49A14.6,14.6,0,0,1,12,47.41a8.4,8.4,0,0,1,.73-2.13A4,4,0,0,0,13,43.79a.93.93,0,0,1,.29-.56v-.06l.08.07a18.3,18.3,0,0,0,3.78,3c1.46.7,4.67,2,5,2.09l.38.14h0l.69.06c2.83.1,3-1.13,3.52-2.25a2.23,2.23,0,0,0,.16-.41H27a9.21,9.21,0,0,1,.66,1,4.24,4.24,0,0,1,.1,2.14c0,.41-.29.45-.86,1.1s-1.87.4-2.47.24a23.3,23.3,0,0,0-2.8-.55,12.22,12.22,0,0,1-2.75-1.26,24.69,24.69,0,0,1-2.46-1.93,2.28,2.28,0,0,0-.95-.36,8.43,8.43,0,0,0-1.68,1,1,1,0,0,0-.35.37c-.06.15,0,.24.07.39s.22.14.34.19l.47.16c.13,0-.23.48-.31.51S14,49,14,49.13s-.2.15-.27.16h-.35a2,2,0,0,1-.39,0,.8.8,0,0,1-.23-.27"/><path class="cls-1" d="M11.57,17.69a20.68,20.68,0,0,1,.25-2.08,1.63,1.63,0,0,1,.1-.48c.19-.75.83-1,1.27-1.26s.94-1.24,1.43-1.54a13.22,13.22,0,0,1,2.82-.79,12.45,12.45,0,0,1,3,0h.16c-.64,0-3.55.34-4.51,1.39s-1.65,2-.89,3,1.57,1.77,2.35,1.48h.11v.33a23.17,23.17,0,0,1-.1,2.49v.48h-.08l-.2.14v-.06l-1.41-.47c-.23-.06-1.59-.62-1.88-.64a4,4,0,0,1-1.45-.54,3.47,3.47,0,0,1-1-1.45"/><path class="cls-1" d="M12.64,40.33a5.09,5.09,0,0,0,3.05,1.3c1.55.09,3.2.32,4.11-.54a3.65,3.65,0,0,0,.67,2.27l.55.46a3.42,3.42,0,0,1,.54.43c0,.1.17.43.1.49a4,4,0,0,0-.35.26s-.11.3.06.4c0,0,.08.06.17,0a.53.53,0,0,1,.31-.17c.09,0,.53-.21.54-.4v-.34L23.12,46s.22.11.29,0,.15-.12.11-.23-.17-.56-.17-.56l-.19-.65L23,44.14l-.12-.4.73,1,.38.64s.19.22.31.16.27-.11.17-.37l-.32-.77a3.36,3.36,0,0,0-.62-.86l.67.26.91.58a.35.35,0,0,0,.2-.08c0-.07,0-.2-.08-.27l-.75-.92a3.32,3.32,0,0,0-.45-.29.69.69,0,0,1-.18-.21,3.86,3.86,0,0,0-.47-.49,4,4,0,0,0-.86-.48c-.2,0-.74-.11-.69-.42a18.78,18.78,0,0,1,.68-1.82l.46-.94.19-.37h.18a1.79,1.79,0,0,0,1.48.56v.07a11.19,11.19,0,0,1,.74,1.86A21,21,0,0,0,26.3,43c.2.62.37,1.13.4,1.21A2.08,2.08,0,0,1,27,45.71v.16a2.3,2.3,0,0,1-.16.41c-.54,1.12-.68,2.35-3.52,2.25l-.69-.06h0l-.38-.14c-.35-.12-3.56-1.39-5-2.09a18.3,18.3,0,0,1-3.78-3l-.15-.1a3.18,3.18,0,0,1-.74-2.82h0Z"/><path class="cls-1" d="M8.76,34.83c-.6,0-.4-.32-.4-.32s.2-.44.27-.57c1.22-1.69.93-4.65.9-6.88a5.2,5.2,0,0,1,1.37-3.71v-.06a14.88,14.88,0,0,0,2,.23h0a4,4,0,0,0-1,2.62c0,1.6.46,4,.45,4.52a21.55,21.55,0,0,1-.45,2.26l-.2.94L12,35.2s.21.53-.67.43A1.39,1.39,0,0,1,9.8,35.3a1.25,1.25,0,0,0-1.08-.47"/><path class="cls-1" d="M12.52,40.2a3.34,3.34,0,0,1-.46-1.4h-.19l.1-.11a4.76,4.76,0,0,1,1.65-1h1.15a1.37,1.37,0,0,1-.58-1,1.18,1.18,0,0,1,0-.18,3.45,3.45,0,0,1,.8-1.4,3.26,3.26,0,0,1,.66-.53,11.69,11.69,0,0,1,1.13-.64h0a23,23,0,0,0,3,2.79h.12A8,8,0,0,0,19.64,39a14.21,14.21,0,0,0,.1,2.06h0c-.92.86-2.56.64-4.11.54a5.09,5.09,0,0,1-3.05-1.3l-.12-.13"/><path class="cls-4" d="M10.9,23.34a4.06,4.06,0,0,0-1.42,3.39c0,2.23.35,5.3-.57,7a3.9,3.9,0,0,1-.22.36s-.71.84-.11.87.95,0,1.24.32a1.53,1.53,0,0,0,.4.35,3.85,3.85,0,0,0,1.27,0M12.9,23.56a4,4,0,0,0-1,2.58c0,1.6.46,4,.45,4.53a14.16,14.16,0,0,1-.32,2,4.71,4.71,0,0,0,.11,2.85m-3-14.66h0c-.08.07-.65.61.24,2m8-2.19-.2.14L15.48,22c-1,.66-1.85-.25-2.36-.62s-1.58,0-2.55.14a1.77,1.77,0,0,1-1.41-.6c-.25-.24-.44-.48-.53-.57S8.22,19.21,8.47,19s1-1.09,1-1.09c1.13-2,2.29-2.3,2.29-2.3M22.27,29.25c0,.06-.14.37-.17.48a5.78,5.78,0,0,0-.11.69c0,.17,0,.39-.12.45a1.41,1.41,0,0,1-.47.23.94.94,0,0,1-.62-.09c-.16-.13-.34-.36-.5-.48l-.1-.11a1.17,1.17,0,0,1-.2-.89,5.23,5.23,0,0,1,.4-1c0-.12-.57-1.64-.57-1.64a14.24,14.24,0,0,1-1-1.5,6.19,6.19,0,0,1-1-2,9.42,9.42,0,0,1-.26-1.59,3.08,3.08,0,0,1-.1-1v-.48a23.19,23.19,0,0,0,.1-2.49V17.4A9.2,9.2,0,0,1,18,15.53,26.66,26.66,0,0,1,19.34,13m2.85,16.32h0m-5.06-8.53-1.41-.47c-.23-.06-1.59-.62-1.88-.64a3.94,3.94,0,0,1-1.31-.5,3.49,3.49,0,0,1-1-1.45,20.68,20.68,0,0,1,.25-2.08,1.7,1.7,0,0,1,.1-.48c.19-.75.83-1,1.27-1.26s.94-1.24,1.43-1.54a13.25,13.25,0,0,1,2.83-.79,12.47,12.47,0,0,1,3,0h.16a3.89,3.89,0,0,1,1.58.39,3.11,3.11,0,0,1,.52.32,2.75,2.75,0,0,1,.79,1,2.61,2.61,0,0,1,.14,1.9,3.89,3.89,0,0,1-.51,1,2.84,2.84,0,0,1-.84.85c-.35.17-.69.25-.86.76a5.5,5.5,0,0,1-1,2.19s-.09,0,0,.26a1.9,1.9,0,0,0,.09.27,8,8,0,0,1,.88,2.83,9.13,9.13,0,0,0,.41,2.75c.24.78.71,1.72.9,1.73a1.28,1.28,0,0,1,.7.28,3.17,3.17,0,0,0,.79.43.51.51,0,0,1,.33.23c0,.1,0,.14-.21.21a1.69,1.69,0,0,1-.91,0,1.18,1.18,0,0,0-.34-.14c-.08,0-.2.12-.27.16a1.37,1.37,0,0,0-.46.26h0M17.52,17.36c-.78.29-1.6-.53-2.35-1.48s-.18-1.79.9-3,3.86-1.34,4.51-1.39m-.13,8.67,1.22-.61,1-.48s1.43-.5,2.21-.84a1.32,1.32,0,0,0,.5-.29,4.6,4.6,0,0,0,0-.81m.3-1.47a2.1,2.1,0,0,1-.38,1.48,1.25,1.25,0,0,1-.28.25l-.8.53m4.53-2.53s.36.4.46-.12a16.18,16.18,0,0,1,.69-1.86,1.06,1.06,0,0,1,.18-.33M23.26,16.2l2.32-.6.13.07.91.5a2.37,2.37,0,0,0,.82.29c.22,0,.22-.16.23-.25a.44.44,0,0,1,.23-.27c.07,0,.23-.23.23-.23a1.11,1.11,0,0,0,.39-.07,1.63,1.63,0,0,0,.25-.25h0M22.2,11.84c-.14-.36.24-.7.4-.8l.27-.07v-.06c0-.52,1.56-.77,1.56-.77,0-1,2.48-.59,2.48-.59a3.53,3.53,0,0,1,2.31.68c.9-.17,1.38.91,1.38.91.86.26.49,1.5.46,1.61s0,.32-.47.39a.92.92,0,0,1-.49-.1,3.89,3.89,0,0,1-.93-.41l-.67-.49a1.54,1.54,0,0,1-.17.73.44.44,0,0,1-.44.2c-.14,0-.46.31-.66.42a2,2,0,0,1-1,.48A3,3,0,0,1,25,14c-.26-.14-.86.13-.94-.1a1.22,1.22,0,0,0-.49-.54m4.23,2,.31.34m-6.39,3.9a1.53,1.53,0,0,0,0,.93,2.34,2.34,0,0,0,2,1.47l1.49.06m-.14-3.73s1,.67,1,1M20.15,30.44l-1.51.65s-1.56.39-1.94.43-1.87.37-1.83,1.23-.1,1.17.2,1.41a3.92,3.92,0,0,0,.58.39M16.8,34a11.68,11.68,0,0,0-1.13.64,3.3,3.3,0,0,0-.66.53,3.47,3.47,0,0,0-.8,1.4,1.09,1.09,0,0,0,.55,1.21m-.63-1.22a8.93,8.93,0,0,0-1.2-.71l-.66-.09a4.29,4.29,0,0,0-.86-.06c-.36,0-1.48.68-1.55,1.34s-.59,2.45,1,2.42a6.43,6.43,0,0,0,.93-.62l.1-.11a4.78,4.78,0,0,1,1.66-1h1.15a1.19,1.19,0,0,1,.69.2c.21.27.35,1.17.47,1.27l1.1.9m5.9,3.69h0l.73,1,.38.64s.19.22.31.16.27-.11.17-.37l-.33-.77a3.33,3.33,0,0,0-.62-.86l.67.26.91.58a.35.35,0,0,0,.2-.08c0-.07,0-.2-.08-.27l-.75-.92a3.41,3.41,0,0,0-.45-.29.69.69,0,0,1-.18-.21,3.93,3.93,0,0,0-.47-.49,4,4,0,0,0-.86-.48c-.2,0-.74-.12-.69-.43a18.82,18.82,0,0,1,.68-1.83l.46-.94.19-.37a6.25,6.25,0,0,0,.57-1.48s1.13-.15,1.16-.7.43-1.35-2.82-2.53A4.7,4.7,0,0,0,20.64,35,9.91,9.91,0,0,0,20,36.77a8,8,0,0,0-.26,2.29,14.15,14.15,0,0,0,.1,2.06m2.6,3.34h0L23.15,46s.22.11.29,0,.15-.12.11-.23-.17-.56-.17-.56l-.19-.65L23,44.14l-.11-.39m-3.1-2.61a3.65,3.65,0,0,0,.67,2.27l.55.46a3.45,3.45,0,0,1,.54.43c0,.1.17.43.1.49a2.89,2.89,0,0,0-.35.26s-.11.3.06.4c0,0,.08.06.17,0a.53.53,0,0,1,.31-.17c.09,0,.53-.21.54-.4v-.34m-5.9-11,.35.38a23,23,0,0,0,3,2.79M12.05,38.8a3.36,3.36,0,0,0,.46,1.4l.12.13a5.09,5.09,0,0,0,3.05,1.3c1.56.09,3.2.32,4.12-.54h0m-7.21-.72a3.18,3.18,0,0,0,.74,2.82l.08.07a18.29,18.29,0,0,0,3.78,3c1.46.7,4.67,2,5,2.09l.38.14a12,12,0,0,1,2,1M13.29,43.25a.93.93,0,0,0-.29.56,4,4,0,0,1-.28,1.49A8.36,8.36,0,0,0,12,47.43,14.62,14.62,0,0,0,12.74,49a.8.8,0,0,0,.23.27,2.06,2.06,0,0,0,.39,0h.35c.07,0,.27-.07.27-.16s0-.23.06-.26.44-.47.31-.51l-.45-.12c-.12,0-.27,0-.34-.19s-.13-.24-.07-.39a1,1,0,0,1,.35-.38,8.45,8.45,0,0,1,1.68-1,2.29,2.29,0,0,1,.95.36,24.87,24.87,0,0,0,2.43,1.95,12.32,12.32,0,0,0,2.8,1.23,23.37,23.37,0,0,1,2.8.55c.6.17,1.9.42,2.47-.24s.82-.69.86-1.1a4.25,4.25,0,0,0-.1-2.14,9.21,9.21,0,0,0-.66-1m-2.6-17.17a10.37,10.37,0,0,1,2.46,1h0a1.11,1.11,0,0,1,.21.2m-2.37,8.8a11.19,11.19,0,0,1,.74,1.86A21,21,0,0,0,26.23,43l.4,1.22A2.07,2.07,0,0,1,27,45.68v.16a2.35,2.35,0,0,1-.16.41c-.54,1.12-.68,2.36-3.52,2.25l-.69-.06m4.77-11.3c1.62-.21,1.93-2.22,2-2.86a5.25,5.25,0,0,0-.15-.63s-.13-.61-.27-1.15a30.64,30.64,0,0,0-1.73-2.64M27,29.6s-.25-1,.18-1.24l.06,0a3,3,0,0,0,.31-.31c.09-.11.45-.52.64-.54a1,1,0,0,0,.53-.35,1.35,1.35,0,0,1,1.19-.6,17.26,17.26,0,0,1,2.22.29,7.89,7.89,0,0,0,1.17.74h.31a.8.8,0,0,1,.68.51.51.51,0,0,1,.07.72l0,0s.68.39.79.72.2,1-.39,1.16c0,0-.71.09-.83.08s0-.29-.2-.33a.54.54,0,0,0-.48.07,7.11,7.11,0,0,1-.89.52c-.16,0-.45.1-.49.19s-.15.31-.74.63l-2.19.5m.62.27a4.07,4.07,0,0,0,.46.73,1.91,1.91,0,0,0,1.59.47c.22-.07.28-.24.41-.26s.3-.21.46-.23.34-.4.34-.4.54.13.55-.19,0-1.11,0-1.11a1.29,1.29,0,0,0,.53-.86m-1.78,2.51-.19-.12m.87-.17s-.4-.12-.4-.25m-9,5.34a1.79,1.79,0,0,0,1.48.56h0a3.7,3.7,0,0,0,2.46-1.48c.5-1,.88-2.24-.6-4.1m7.81-11a1.24,1.24,0,0,0,.38,1.1l.15.27a1.15,1.15,0,0,0,.53-.07,2,2,0,0,0,.54-.38c.43-.32.08-.63.19-1a.72.72,0,0,0-.2-.63.12.12,0,0,0,.13-.11h0c0-.12-.33-.38-.37-.41s0-.19,0-.35a3,3,0,0,1-.17-.58s-.08-.36-.09-.41a.68.68,0,0,0-.39-.49c0-.23-.29-.41-.29-.41.07-.5-.43-.44-.49-.66s-.51-.43-.51-.43a1.17,1.17,0,0,0-.73-.34,3.65,3.65,0,0,0-1,.27,1.06,1.06,0,0,0-.67.07,1,1,0,0,0-1.15.61,2,2,0,0,0-.58.61A21.52,21.52,0,0,0,29.13,21c-.09.65,0,.51-.1.68s-1.34,1.38-.72,1.83.8.51.91.81,1.89.51,2.27.34.6-1.43.6-1.43a2.48,2.48,0,0,0-.06-.94,3,3,0,0,0-.13-.38,3,3,0,0,1-.26-1.2,1.54,1.54,0,0,0-.31-.86A1.09,1.09,0,0,1,31,19a1.93,1.93,0,0,1,.62-1.14,2.23,2.23,0,0,1,1.63-.18l.43.38c.07,0,.35.23.55.4a.87.87,0,0,1,.27.46m.48.64c0,.11.16,1.06.16,1.13s.28.78.09.94a4.15,4.15,0,0,1-.75.43,7.71,7.71,0,0,1-2.56-.35m-3.52,1.89s-2.6,1.49-2.08,5.66m7.25-4.63.06,3m-5,14.83s-.25-3.59-.15-4.1M31.8,13.81s0-.92.26-1.15a2.07,2.07,0,0,1,.84-.52.71.71,0,0,1,.4,0c.47.19,1.79.8,2.13,1.57a1,1,0,0,1,0,1,.75.75,0,0,1-.28.24,3.84,3.84,0,0,1-.79.23m3.36-6.4h0M32.9,12a1.65,1.65,0,0,1,.35-1.87c.81-1,1.07-1.08,1.41-1.13l.93-.12a2,2,0,0,1,2.19-.11M35.66,19.7s.56-1.3.61-1.38a4.39,4.39,0,0,0,0-3.94c-.15-.38-.74.33-.77.37h0m6,1.74s-.16.75-.27.71-.42-.56-.42-.56l.33-1.15.15-1.43V14l1.15-1.85a2,2,0,0,0-.25-.91,2.32,2.32,0,0,1-.55-.72,4.76,4.76,0,0,0-.15-.69s-.82.67-1,.77a2.69,2.69,0,0,1-.94,0,.79.79,0,0,0-.62.28c-.09.18-.41.76-.5.88a3.06,3.06,0,0,0-.19,1,.7.7,0,0,1-.14.38,1.57,1.57,0,0,0-.18.3c-.08.2,0,.4.07.72a3.6,3.6,0,0,1-.06,1c0,.16-.31.16-.37.15a2.16,2.16,0,0,0-.41.2s.07-.44.1-.55a7.15,7.15,0,0,0-.34-1,17.3,17.3,0,0,1-.27-2.11A12.15,12.15,0,0,1,37,10.36a5.86,5.86,0,0,1,.45-1.22,3,3,0,0,1,.32-.42h0A8,8,0,0,1,38.51,8a7.31,7.31,0,0,1,1.24-.39,2.7,2.7,0,0,1,2,.58s.78,0,1,.52a5.8,5.8,0,0,1,.61,1.54c0,.24-.19.48-.16.62A4.3,4.3,0,0,1,43.07,12V12a1,1,0,0,0-.08.46c0,.18.19.76.09.89s-.28.24-.29.35,0,.64-.17.77a.68.68,0,0,0-.25.43c0,.1.15.78-.08,1.07a1.32,1.32,0,0,1-.22.23h0a.4.4,0,0,0-.26.06Zm-3.34-3.35s.38,1.35,1.09,1.53a3.5,3.5,0,0,0,2-.65M47,16.59v-.15m-3.94-4.3a7.32,7.32,0,0,1,3.45,3,4,4,0,0,1,.5,1.29v.21h0m1,1.12a3.56,3.56,0,0,0-1-1.07A6.52,6.52,0,0,0,45.66,16m-3.7.38s-.36,1.45,1.63,2.86m-5.16,4.25-2-1m1.2,21.1A2,2,0,0,0,38,41.83a3.31,3.31,0,0,1-.14-2c.12-.42,1.69-2.17,2.8-4.18.12-.21.23-.43.33-.64a5.31,5.31,0,0,0,.67-2.58l1-2.09h0m-7.18,17.8-.3,1.59.62-1.67L37,45.14,38.38,49l-.81-5.42,0-.58a1.18,1.18,0,0,0-.83.48,7.07,7.07,0,0,0-.63,1.77,2.56,2.56,0,0,1-.26.66h0c-.34,0-.31-.47-.31-.47l-.12-2.06a1,1,0,0,1-.26-.29A2.37,2.37,0,0,1,35,41.86a5.68,5.68,0,0,1,.74-1.7c.14-.31.4-1.14.65-2l.55-1.91a13.46,13.46,0,0,1,.56-2.67,3.3,3.3,0,0,1,1.09-1.77,3.68,3.68,0,0,0,.42-.92m-3.16,15-.35,2.2m3.78-21.55a1.64,1.64,0,0,1-.36.55c-.17.12-1,1.16-.81,1.83s.5,1.85.5,1.85h.33l3-.37.46-.15a2.25,2.25,0,0,0,.85-.51,25.92,25.92,0,0,0,1.44-2.18M30.46,49.3l4.76,1.56,8.89-2.53-5.07-1-3.24.76-.32.08-5,1.17h0m0,0v1.25l4.8,1.55,8.83-2.6V48.33m-8.89,2.53v1.28m3.47-27.7A.47.47,0,0,1,38.5,24c.07-.27-.21-.77,0-.89s.17-.48.34-.77a.6.6,0,0,1,.41-.3c.59-.12.35-.68.79-.81s.83-.46,1-.45a6.71,6.71,0,0,0,.87-.26l.46-.06a1.35,1.35,0,0,1,.56,0,5.15,5.15,0,0,0,.64.29,2.23,2.23,0,0,0,.47.15c.2,0,.94.31,1.07.32s.58,0,.53.21-.16.32-.06.37.38.2.35.29-.17.3-.14.42.32.53.37.67a.56.56,0,0,1,0,.44c-.07.09-.21.17-.13.25a.3.3,0,0,1-.13.29c-.08.07-.19.28-.28.38a5.64,5.64,0,0,1-.44.57c-.12.09-.47,0-.52.2s-.53.3-.64.29-.72.38-.83.15a1.51,1.51,0,0,1,0-.8c0-.15.23-.28.28-.39a.42.42,0,0,0,0-.35c0-.06-.35-.31-.1-.57a6.9,6.9,0,0,0,.83-1.42.67.67,0,0,0,0-.57,7.57,7.57,0,0,0-.77-.45,5.73,5.73,0,0,0-1.06-.2,2.29,2.29,0,0,0-.88.09c-.2.12-.7.31-.8.38s-.49.44-.49.44l-.55.47a3.1,3.1,0,0,0-.73,2,5.26,5.26,0,0,0,.06,1,2.43,2.43,0,0,0,.47,1.09c.11.13.92.76.92.76l.4.07a.58.58,0,0,1,.41.31c.1.22.35,1.1.84,1l.35-.33.61.25c.09,0,.9.45,1.87-.94a5.62,5.62,0,0,0,.3-.49s.33-.85.69-1.54a4.11,4.11,0,0,0,.49-.27,2.94,2.94,0,0,0,1.45-1.84v-.5m-.94,3.57c0,.28-.47,1.89-.52,2.22a2,2,0,0,0,.08,1.08,6.48,6.48,0,0,1,.36,1.92,20.05,20.05,0,0,1-.4,2.34l-.07.32-.09.37L45.6,36s-1,1.93-1.17,2.38a5,5,0,0,0-.15,4.09l.33,1.21c.56,1.76.76,1.91,1.4,2m1.61-6.38a22.87,22.87,0,0,1-.72,3.91,6.69,6.69,0,0,0-.62,1.88,5.64,5.64,0,0,1-.38,1.46,4,4,0,0,0-.28.69,1.34,1.34,0,0,0,0,.49c0,.46.07.84.4.89a3.07,3.07,0,0,0,.84-.07,3.63,3.63,0,0,0,.71.19,1.3,1.3,0,0,0,.7,0c.17-.11.52-.23.67-.35s.58-.49.57-.78a5.24,5.24,0,0,0-.71-1.29.89.89,0,0,0-.08-.31,3.16,3.16,0,0,1,0-1.76c.33-.65,3.91-5.63,3.66-9.17m2.09-.5A3.46,3.46,0,0,0,52.3,35h0a2,2,0,0,0-.5.49,35.71,35.71,0,0,1-4.31,3.86l-1.15.92a7,7,0,0,0-.57.76,28.65,28.65,0,0,1,6-15m-9.43-5.8a3.71,3.71,0,0,1,1.29-1c.19-.08,3.9-2,7.25-1.42M47.56,22c0-.12,1-3.21,2.92-4A1.9,1.9,0,0,1,52,17.92c.41.17,1.57-.27,2.9.75L56,18.34a2.33,2.33,0,0,1,2.72,2.26c0,1-1.33,2.22-1.33,2.22L56,23.93c-.38.67-1.78,1.39-2.21,1.69a2.52,2.52,0,0,1-2,.38c-2.12-.44-4.09-3-4.09-3M50,44.44a6.56,6.56,0,0,0,2.43,1.7M42.78,28.37l.31-.19m-7.31,3.51s-.13-1.61-.09-2.25c0-.35.39-2.1.73-3.61m.59,5s-2.62,1.06-1.55,3.48m.23-.06c-.45.61-.42.56-.48.72a9.31,9.31,0,0,0-.31,1.17c0,.13,0,.4-.1.45s-.45.31-.49.25-.37-.53-.52-.56-.38,0-.29.16-.59.1-.12.51l.47.41a2.34,2.34,0,0,0,.7.43.86.86,0,0,0,.93-.32m.16-3.21h0m1.74-.69a.86.86,0,0,0-1.17.17l-.57.52h0M35.49,36c0,.18-.17.82.22.88a.37.37,0,0,0,.39-.35h0a1.86,1.86,0,0,1,.24-.69m-.71,1.1a2.42,2.42,0,0,1-.08.57,2.3,2.3,0,0,1-.15.6,1.75,1.75,0,0,0-.22.85s.18.58.48.16l.3-.41.32-.51M39.22,14a.93.93,0,0,0,.49.19m-.18-.61s0,.08.29.1m-5.74,7a2.73,2.73,0,0,0,.78-.3m-2.74-1s.54-.74.81-.53m-.26.24.06.09m-.24,12.77-.17.15M28.56,14l-.12.18m10.87-1.84v.14m1.85.52v.22m1,13.87.15.16m-.71-.06,1.31-.3m9.9-.7-1.17,4.6m2.16-5.13c-7.39-2-2.56-6.84-1.81-7.55M28.22,13.63l.79.53M38.9,12a2.19,2.19,0,0,0,.94.29m1,.53a2.19,2.19,0,0,0,1,.29M32.9,32s-.54-.14-.66-.36m-5.64-12h.31l.87.12c.1,0,.8.14.8.14.07.2-.35.34-.35.34l-.75.12.23.38c.23.38-.28.68-.28.68.15.72-.31.94-.31.94a1.69,1.69,0,0,1-1.89-.22,2.72,2.72,0,0,0-.33-.25c-.5-.2-.36-.66-.38-1.13a1.79,1.79,0,0,1,.31-1,2.44,2.44,0,0,1,.74-.39l.52.14.51.14h0s.23.37.13.44-.51.25-.68.16l-.15-.14m10-7.25.47,1.8M56.21,46.24s-2.82-.54-2.93-5M27,41s2.62,2.78,3.48,2.88M31.9,37c-.09,1.38-.2,2.38-.2,2.38a21.07,21.07,0,0,1-1.22,4.48,8.26,8.26,0,0,0,2-.36c1-.33,1.6-1.09,2.53-.55m6-7.88a27.25,27.25,0,0,1,3.42-.54h0c1-.09,1.68-.09,1.68-.09m-5.2.7v3.24a3.28,3.28,0,0,1-.2,1.62,3,3,0,0,0-.55,1.39,3.24,3.24,0,0,1,0,.94l-.35,1.07s-.12.76.59.85a4.79,4.79,0,0,0,2-.12c.38-.19.67-.57.57-.81s-.39-.42-.57-.65a1.41,1.41,0,0,1-.34-1,2.71,2.71,0,0,0,.11-.55,2.38,2.38,0,0,1,.12-1c.16-.23,1.37-2.07,1.37-2.07a7.65,7.65,0,0,0,.78-3.35m-10.81-20-.23-.4-.14-.18a.29.29,0,0,1,0-.31c.1-.13.33,0,.36,0a3.22,3.22,0,0,0,.35.34c.19.15.16,0,.32.72a1,1,0,0,1,0,.36c0,.37-.48.3-1,.61a1.23,1.23,0,0,1-1.27,0,10.48,10.48,0,0,1-1-1c0-.09-.16-.08-.25,0s0,.11-.41.11a.62.62,0,0,1-.6-.32c0-.1.47-.32.47-.32A3.14,3.14,0,0,1,31.44,14h.27A1.46,1.46,0,0,1,32.9,14l.54.32m-25,20.48s-1.58-.34-1.64-.55a.18.18,0,0,1,0-.2,3.09,3.09,0,0,0,.43-.52c0-.06.05-.09.21-.43L8,31.84c.32-.83.27-1,.27-1l.36-4.55A4.85,4.85,0,0,1,9.9,23.14m7.9.2a26.12,26.12,0,0,1-4.89.22,15.1,15.1,0,0,1-2-.23,9.8,9.8,0,0,1-1-.25L9.4,22.9S8.34,23.29,8,26a21.78,21.78,0,0,1-.48,3.72,12.62,12.62,0,0,1-2.08,2.85.59.59,0,0,0,.06.83l0,0,1,.71m51.58-12a27.11,27.11,0,0,1,1.35,6.61,34.29,34.29,0,0,1-1.28,12.54c-.46,1.87.28,4.52,1.12,4.73,0,0-3.21.35-4.58.3H53.44A42.67,42.67,0,0,1,48.77,46"/><path class="cls-5" d="M46.2,40.36s-1.46,1.16.7,1.78"/><path class="cls-4" d="M57.9,26.9a13.09,13.09,0,0,1,0,4.24c-.39,2.21.44,8.8.26,10.11"/><line class="cls-4" x1="53.25" y1="21.14" x2="54.5" y2="19.89"/><path class="cls-4" d="M35.69,29.86s1.12-3.47,1.83-3.75m-11.43,5s2.64,1,3,2.28M18.36,24.81a9.67,9.67,0,0,0,.21,2.82c.34,1.65.83,3.17.83,3.17m12.5-6.3s2.56.58,3.12-1.25M29,35.92a14.7,14.7,0,0,1-.63,2.54s-.24.65-.52,1.23a14.56,14.56,0,0,1-2,2.13M22,33.33a2.8,2.8,0,0,1,2.14-.79h1.15m20.23-11.4a1.74,1.74,0,0,1,2.14,1.79m-13.23-3a.93.93,0,0,0,.54-.53,7.72,7.72,0,0,0-1.09-.65c-.4-.17,0-.48,0-.48m11.61,7.1A10.86,10.86,0,0,1,45.1,27m.84-.49,2.84-.14a3,3,0,0,0,1-.32m1.8,13.07C53.26,41,55.12,43,55.12,43M47.9,29.7A15.09,15.09,0,0,0,48,32.14"/><line class="cls-4" x1="29.45" y1="33.01" x2="29.15" y2="33.27"/><path class="cls-1" d="M169.31,48.14a4.1,4.1,0,0,0,3.33,1.45c2.24,0,3.67-1.33,3.67-3.1a3.18,3.18,0,0,0-2-2.7h0A3,3,0,0,0,176,41.14a3.11,3.11,0,0,0-3.4-3,4.41,4.41,0,0,0-3,1.43.29.29,0,0,0,0,.41h0l.6.54a.28.28,0,0,0,.4,0l0,0a2.48,2.48,0,0,1,1.89-.91,1.78,1.78,0,0,1,1.85,1.71s0,0,0,.06c0,1-.76,1.74-2.29,1.74h-.91c-.23,0-.32.1-.32.34v.7a.3.3,0,0,0,.26.34h1c1.74,0,2.57.93,2.57,1.9a1.87,1.87,0,0,1-2,1.75h0a3.24,3.24,0,0,1-2.21-1,.29.29,0,0,0-.41,0l0,0-.63.59a.28.28,0,0,0,0,.39m-4.87,0c-1.77,0-2.37-1.85-2.24-3.22a2.6,2.6,0,0,1,2.23-1.23,2.23,2.23,0,0,1,0,4.45m-3.82-3.09c0,2.5,1.23,4.55,3.83,4.55a3.7,3.7,0,0,0,3.62-3.72,3.37,3.37,0,0,0-3.21-3.53h-.19a4.63,4.63,0,0,0-2.16.6c.54-2,3.12-3.35,3.87-3.59.31-.1.37-.28.29-.47l-.28-.67a.3.3,0,0,0-.37-.22l0,0c-1.5.57-5.38,2.49-5.38,7m-7.49,1.46a2.07,2.07,0,0,1,4.13,0,1.87,1.87,0,0,1-2,1.78h-.12a1.9,1.9,0,0,1-2-1.77M155.27,43c-1.27-.2-1.82-.86-1.82-1.74a1.71,1.71,0,0,1,1.71-1.71h.06a1.74,1.74,0,0,1,1.87,1.6s0,.07,0,.11c0,.86-.57,1.56-1.82,1.74m-3.75,3.48c0,1.77,1.45,3.12,3.72,3.12s3.66-1.35,3.66-3.12a3.26,3.26,0,0,0-2-2.71v-.06a3,3,0,0,0,1.67-2.5c0-1.79-1.48-3-3.48-3s-3.45,1.19-3.45,3a3,3,0,0,0,1.67,2.52h0a3.42,3.42,0,0,0-2,2.71m-7.8,3h5.66a.3.3,0,0,0,.31-.29h0v-.7a.3.3,0,0,0-.29-.31H147.5V38.67a.31.31,0,0,0-.29-.31h-.8L144,40.55a.31.31,0,0,0,0,.32l.2.57a.25.25,0,0,0,.33.13l0,0,1.41-.71v7.3h-2.27a.3.3,0,0,0-.31.29s0,0,0,0v.69a.29.29,0,0,0,.29.29h0m-14.86-5.69A4.22,4.22,0,1,1,133.06,48h0a4.26,4.26,0,0,1-4.21-4.21m-1.63,0a5.8,5.8,0,1,0,0-.1s0,.07,0,.1m-11.76,5.4a.32.32,0,0,0,.31.31h1a.31.31,0,0,0,.31-.31v-8h0l7.05,8.39h.42a.31.31,0,0,0,.31-.29V38.34a.32.32,0,0,0-.31-.31h-1a.31.31,0,0,0-.31.31V46h0l-7.05-8.16h-.41a.31.31,0,0,0-.31.29Zm-9-3.56,2-4.45h.08l2,4.45Zm-3,3.87h1a.41.41,0,0,0,.37-.24c.32-.75.67-1.48,1-2.23h5.31l1,2.23a.38.38,0,0,0,.37.24h1a.29.29,0,0,0,.28-.42l-5-10.94a.38.38,0,0,0-.28-.18h-.16a.38.38,0,0,0-.28.18l-5,10.94a.29.29,0,0,0,.28.42m-7.57-.31a.31.31,0,0,0,.31.31h5.83a.31.31,0,0,0,.31-.31v-.89a.31.31,0,0,0-.31-.31H97.5v-9.6a.32.32,0,0,0-.31-.31H96.07a.31.31,0,0,0-.31.31Zm-4.86,0a.32.32,0,0,0,.31.31H92.3a.32.32,0,0,0,.31-.31V38.34A.32.32,0,0,0,92.3,38H91.23a.32.32,0,0,0-.31.31ZM76,49.08a.29.29,0,0,0,.2.36h1.17a.32.32,0,0,0,.29-.23L78.83,42h.07l3,7.43a.29.29,0,0,0,.28.18h.29a.28.28,0,0,0,.28-.18l2.92-7.47h0l1.23,7.22a.34.34,0,0,0,.31.23h1.06a.28.28,0,0,0,.29-.37l-2-10.86a.33.33,0,0,0-.29-.24H86a.31.31,0,0,0-.28.18l-3.38,8.3h-.07L78.9,38.05a.33.33,0,0,0-.28-.18h-.26a.33.33,0,0,0-.29.24Z"/><path class="cls-1" d="M212.9,22.22a5.33,5.33,0,1,1,5.34,5.32h0a5.37,5.37,0,0,1-5.32-5.32m-3,0a8.28,8.28,0,1,0,0-.15q0,.08,0,.15m-16.18,0A8.32,8.32,0,0,0,202,30.55h.07a8,8,0,0,0,5.64-2.25.44.44,0,0,0,0-.62h0l-1.48-1.53a.43.43,0,0,0-.58,0,5.57,5.57,0,0,1-3.55,1.32,5.26,5.26,0,0,1-5.23-5.29v0A5.26,5.26,0,0,1,202,16.73h.07a5.49,5.49,0,0,1,3.6,1.41.37.37,0,0,0,.52.06l.06-.06,1.42-1.46a.43.43,0,0,0,0-.61l0,0a7.85,7.85,0,0,0-5.62-2.16,8.36,8.36,0,0,0-8.38,8.34s0,0,0,0m-6.08,7.66a.46.46,0,0,0,.44.44h2.16a.46.46,0,0,0,.44-.44V14.51a.46.46,0,0,0-.44-.44H188a.46.46,0,0,0-.44.44Zm-17.71,0a.46.46,0,0,0,.44.44h2.11a.44.44,0,0,0,.44-.44h0v-10h0l9.7,10.66h.56a.44.44,0,0,0,.44-.42V14.51a.46.46,0,0,0-.44-.44H181a.44.44,0,0,0-.44.44h0v9.63h0l-9.66-10.3h-.58a.44.44,0,0,0-.44.42Zm-17.11-7.66a8.32,8.32,0,0,0,8.31,8.33h.07a8,8,0,0,0,5.64-2.25.44.44,0,0,0,0-.62h0l-1.44-1.56a.43.43,0,0,0-.58,0,5.57,5.57,0,0,1-3.55,1.32,5.26,5.26,0,0,1-5.2-5.32v0a5.26,5.26,0,0,1,5.11-5.41h.07a5.49,5.49,0,0,1,3.57,1.45.37.37,0,0,0,.52.06l.06-.06,1.42-1.46a.43.43,0,0,0,0-.61l0,0a7.86,7.86,0,0,0-5.62-2.16,8.36,8.36,0,0,0-8.38,8.34s0,0,0,0m-12.7,7.66a.44.44,0,0,0,.44.44h9.38a.44.44,0,0,0,.44-.44h0V28a.44.44,0,0,0-.44-.44H143v-4.1h5.73a.44.44,0,0,0,.44-.44h0V21.14a.46.46,0,0,0-.44-.44H143V16.86h6.87a.44.44,0,0,0,.44-.44h0v-1.9a.44.44,0,0,0-.44-.44h-9.4a.44.44,0,0,0-.44.44h0Zm-9.68,0a.46.46,0,0,0,.44.44H133a.46.46,0,0,0,.44-.44v-13H137a.44.44,0,0,0,.44-.44h0v-1.9a.44.44,0,0,0-.44-.44H126.83a.44.44,0,0,0-.44.44h0v1.9a.44.44,0,0,0,.44.44h3.55Zm-10,0a.46.46,0,0,0,.44.44H123a.46.46,0,0,0,.44-.44V14.51a.46.46,0,0,0-.44-.44h-2.1a.46.46,0,0,0-.44.44Zm-12.42,0a.44.44,0,0,0,.44.44h8.48a.44.44,0,0,0,.44-.44h0V28a.44.44,0,0,0-.44-.44H111v-13a.46.46,0,0,0-.44-.44H108.4a.44.44,0,0,0-.44.44h0ZM91.9,22.22a5.33,5.33,0,1,1,5.34,5.32h0a5.37,5.37,0,0,1-5.32-5.32m-3,0a8.28,8.28,0,1,0,0-.15q0,.08,0,.15m-9.84-.63V16.93h2.69a2.32,2.32,0,0,1,2.36,2.21,2.39,2.39,0,0,1-2.36,2.42h0Zm-3,8.29a.44.44,0,0,0,.44.44h2.13a.46.46,0,0,0,.44-.44V24.42H81.9a5.18,5.18,0,1,0,.46-10.35H76.45a.44.44,0,0,0-.44.44h0Z"/></g></g></g></g></svg>