<svg version="1.1" viewBox="0 0 1563.7 1168.8" xmlns="http://www.w3.org/2000/svg">
 <defs>
  <style>.ppsvg-dark{fill:#1d1e1c;}.cls-2{fill:#fff;}.cls-3,.cls-5{font-size:130.88px;font-family:BrandonGrotesque-BoldItalic, Brandon Grotesque;font-weight:700;font-style:italic;}.cls-4{letter-spacing:-0.02em;}.cls-5{fill:#fdfdfc;}</style>
 </defs>
 <title>Risorsa 4support21</title>
 <g data-name="Livello 2">
  <g id="HomePage_Fissa" data-name="HomePage Fissa">
   <path class="ppsvg-dark" d="M34.05,215.95c-.18-4.67,3.39-9.43,8-10.08l101.78-14.3c46.29-6.51,86,31.31,92.93,80.34,8.65,61.55-32.46,121.57-92.61,130l-37.94,5.35,0,110.88c.17,4.7-3.87,9.51-8,10.09L41.79,536.2c-4.65.65-7.54-3.19-7.7-7.89ZM139.77,333.69c16.21-2.27,29.32-23,26-46.59-2.27-16.19-13.28-27.38-25.79-25.64l-33.77,4.75.25,72.16ZM413.38,149c71.73-10.09,138.21,46.64,149.45,126.67,14.63,104.12-50.34,199.11-147.51,212.78-71.25,10-138.06-45.71-149.25-125.29C251.38,258.55,317.14,162.49,413.38,149ZM488.19,295.1c-6.11-43.48-37.11-75.93-74.12-70.73-44.88,6.31-81.54,61-73.47,118.37,6,43,37,75.5,73.59,70.35C460,406.66,496.25,352.46,488.19,295.1ZM620.71,133.51c-.18-4.68,3.39-9.43,8-10.08l57.38-8.07c4.17-.58,7.52,3.19,7.72,7.87v252l94.39-13.27c4.63-.65,7.54,3.19,7.72,7.89l.17,51.4c.18,4.7-3.42,9.45-8,10.09L628.89,453.68c-4.63.66-8-3.12-8.17-7.82Zm217.91-30.63c-.18-4.68,3.39-9.43,7.55-10L904,84.73c4.17-.58,7.52,3.2,7.72,7.89l0,312.35c.18,4.7-3.4,9.45-7.57,10l-57.81,8.14c-4.18.58-7.54-3.19-7.72-7.9ZM970.28,395.33,1015.42,71.9c.8-4.35,2.66-7.92,7.77-8.63l6.48-.91a7.08,7.08,0,0,1,7.12,3.72l96.09,190.33.93-.13L1237.12,37.93c1.46-3,3.06-5.16,7.24-5.74l6.94-1c3.22-.45,6.46,2.39,7,6.56l46,310.62a10.28,10.28,0,0,1-8.3,11.54l-56.92,8c-3.7.51-7.46-2.72-8-6.43l-15-143.69-.93.12-67.29,162.33c-1.46,3-3.92,5.74-7.16,6.19l-7.41,1a7,7,0,0,1-7.19-4.18L1058.38,240l-.93.13L1043.32,387.9a9.62,9.62,0,0,1-8.22,8.7l-56.92,8C973.57,405.25,969.27,401.59,970.28,395.33Zm393-366.18c-.18-4.68,3.4-9.45,7.55-10L1428.65,11c4.15-.58,7.52,3.2,7.7,7.89l0,312.35c.18,4.7-3.42,9.45-7.57,10L1371,349.39c-4.18.58-7.54-3.19-7.7-7.89ZM33.32,612.06c-.18-4.68,3.39-9.45,8-10.09l101.78-14.3c46.26-6.51,86,31.31,92.91,80.34,8.65,61.53-32.46,121.59-92.6,130l-38,5.35,0,110.88c.18,4.7-3.85,9.5-8,10.08l-56.45,7.94c-4.63.65-7.54-3.17-7.7-7.87ZM139,729.8c16.19-2.29,29.34-23,26-46.61-2.27-16.21-13.3-27.38-25.79-25.64L105.5,662.3l.22,72.18ZM285,576.68c-.18-4.68,3.39-9.43,7.54-10l124.93-17.55c48.62-6.84,87,27.88,93.68,75.53,7,49.5-15.42,95.12-61,116.61l56.77,111.88c3.17,5.7,0,13.66-6.89,14.64l-59.69,8.4c-3.24.45-6.28-1-7.06-3.25L378.1,755.62l-20.36,2.87-.08,120.34c.2,4.7-3.39,9.43-7.55,10l-57.37,8.07c-4.63.65-8-3.1-7.7-7.89Zm123.23,114.8c21.75-3.06,34.62-25.64,31.5-47.83-2.27-16.19-12.5-28.43-29.14-26.08L357.36,625l0,73.6ZM572.79,536.23c-.18-4.68,3.37-9.43,7.55-10l57.85-8.12c4.15-.6,7.52,3.19,7.7,7.87V838.32c.22,4.7-3.39,9.43-7.55,10l-57.81,8.14c-4.18.58-7.54-3.17-7.72-7.87Zm150.36-21.12c-.18-4.68,3.37-9.43,7.55-10l103.17-14.49C907,480.31,969,541.91,979,613.61c14.11,100.42-47.35,193.5-145,207.23L730.41,835.4c-4.17.58-7.52-3.17-7.24-7.94Zm107.29,236.4c47.65-6.71,80.61-60.87,72.09-121.49-6.11-43.48-34.59-74.88-72.06-69.62l-34.7,4.88,0,191.11ZM1036.83,471c-.18-4.67,3.4-9.43,7.55-10l174.44-24.51c4.62-.65,8,3.12,8.17,7.8l-.32,51.49c.2,4.68-2.92,9.36-7.55,10L1109,521.27l-.25,58.56,89.74-12.62c4.17-.6,8,3.1,8.17,7.8l-.3,51.49c-.23,5.21-3.85,9.5-8,10.08L1109,649.14l0,63.69,110.13-15.47c4.62-.65,7.54,3.19,7.72,7.87l.12,51.42c.22,4.7-3.37,9.43-8,10.08l-174.44,24.52c-4.63.65-8-3.1-7.72-7.87Z"/>
   <path class="cls-2" d="M23.13,205c-.18-4.67,3.39-9.43,8-10.08l101.78-14.3c46.29-6.51,86,31.31,92.93,80.35,8.65,61.55-32.46,121.57-92.62,130L95.3,396.36l0,110.88c.17,4.7-3.87,9.51-8,10.1l-56.44,7.94c-4.65.65-7.54-3.19-7.7-7.89ZM128.84,322.75c16.21-2.27,29.32-23,26-46.59-2.27-16.19-13.28-27.38-25.79-25.64l-33.77,4.75.25,72.16ZM402.46,138c71.73-10.1,138.21,46.64,149.45,126.67,14.63,104.12-50.34,199.11-147.51,212.78-71.25,10-138.06-45.71-149.25-125.29C240.45,247.62,306.22,151.55,402.46,138Zm74.82,146.13c-6.11-43.49-37.11-75.93-74.12-70.73-44.88,6.31-81.54,61-73.47,118.37,6,43,37,75.5,73.59,70.35C449.06,395.73,485.33,341.53,477.27,284.17ZM609.79,122.58c-.18-4.68,3.39-9.43,8-10.08l57.38-8.07c4.17-.58,7.52,3.19,7.72,7.87v252L777.29,351c4.63-.65,7.54,3.19,7.72,7.89l.17,51.41c.18,4.7-3.42,9.45-8,10.1L618,442.75c-4.63.66-8-3.12-8.17-7.82ZM827.7,91.94c-.18-4.68,3.39-9.43,7.55-10l57.83-8.14c4.17-.58,7.52,3.2,7.72,7.89l0,312.35c.18,4.7-3.4,9.45-7.57,10l-57.81,8.14c-4.18.58-7.54-3.19-7.72-7.9ZM959.36,384.4,1004.51,61c.8-4.35,2.66-7.92,7.77-8.63l6.48-.91a7.08,7.08,0,0,1,7.12,3.72L1122,245.46l.93-.13L1226.2,27c1.46-3,3.06-5.16,7.24-5.74l6.94-1c3.22-.45,6.46,2.39,7,6.56l46,310.62a10.28,10.28,0,0,1-8.3,11.54l-56.92,8c-3.7.51-7.46-2.72-8-6.43l-15-143.69-.93.12L1137,369.33c-1.46,3-3.92,5.74-7.16,6.19l-7.41,1a7,7,0,0,1-7.19-4.18L1047.46,229l-.93.13L1032.4,377a9.62,9.62,0,0,1-8.22,8.7l-56.92,8C962.65,394.32,958.35,390.66,959.36,384.4Zm393-366.18c-.18-4.68,3.4-9.45,7.55-10L1417.74.06c4.15-.58,7.52,3.2,7.7,7.89l0,312.35c.18,4.7-3.42,9.45-7.57,10l-57.83,8.14c-4.18.58-7.54-3.19-7.7-7.89ZM22.4,601.13c-.18-4.68,3.39-9.45,8-10.1l101.78-14.3c46.26-6.51,86,31.31,92.91,80.35,8.65,61.53-32.46,121.59-92.6,130l-38,5.35,0,110.88c.18,4.7-3.85,9.5-8,10.08l-56.45,7.94c-4.63.65-7.54-3.17-7.7-7.87ZM128.11,718.87c16.19-2.29,29.34-23,26-46.61-2.27-16.21-13.3-27.38-25.79-25.64l-33.77,4.75.22,72.18Zm146-153.12c-.18-4.68,3.39-9.43,7.54-10l124.93-17.55c48.62-6.84,87,27.88,93.68,75.53,7,49.5-15.42,95.12-61,116.61L496,842.2c3.17,5.7,0,13.66-6.89,14.64l-59.69,8.4c-3.24.45-6.28-1-7.06-3.25L367.18,744.69l-20.36,2.87-.08,120.34c.2,4.7-3.39,9.43-7.55,10L281.82,886c-4.63.65-8-3.1-7.7-7.89Zm123.23,114.8c21.75-3.06,34.62-25.64,31.5-47.84-2.27-16.19-12.5-28.43-29.14-26.08l-53.23,7.47,0,73.6ZM561.87,525.3c-.18-4.68,3.37-9.43,7.55-10l57.85-8.12c4.15-.6,7.52,3.19,7.7,7.87V827.39c.22,4.7-3.39,9.43-7.55,10l-57.81,8.14c-4.18.58-7.54-3.17-7.72-7.87Zm150.36-21.12c-.18-4.68,3.37-9.43,7.55-10L823,479.66c73.12-10.28,135.09,51.32,145.17,123,14.11,100.42-47.35,193.5-145,207.23L719.49,824.47c-4.17.58-7.52-3.17-7.24-7.94Zm107.29,236.4c47.65-6.71,80.61-60.87,72.09-121.49-6.11-43.49-34.59-74.88-72.06-69.62l-34.7,4.88,0,191.11Zm206.38-280.5c-.18-4.67,3.4-9.43,7.55-10l174.44-24.51c4.62-.65,8,3.12,8.17,7.8l-.32,51.49c.2,4.68-2.92,9.36-7.55,10l-110.12,15.47-.25,58.56,89.74-12.62c4.17-.6,8,3.1,8.17,7.8l-.3,51.49c-.23,5.21-3.85,9.5-8,10.08l-89.3,12.55,0,63.69,110.13-15.47c4.62-.65,7.54,3.19,7.72,7.87l.12,51.42c.22,4.7-3.37,9.43-8,10.08l-174.44,24.52c-4.63.65-8-3.1-7.72-7.87Z"/>
   <g transform="translate(21.62 1119.1) rotate(-7.85)" aria-label="INTEGRIAMO LE DIVERSITÀ">
    <path d="m19.108-89.129q0.13088-1.047 0.78528-1.7014 0.78528-0.78528 1.7014-0.78528h12.826q0.91616 0 1.4397 0.78528 0.6544 0.6544 0.39264 1.7014l-12.172 86.643q-0.13088 1.047-0.91616 1.8323-0.6544 0.6544-1.5706 0.6544h-12.826q-0.91616 0-1.5706-0.6544-0.52352-0.78528-0.26176-1.8323z"/>
    <path d="m59.884-90.569q0.13088-1.047 0.78528-1.7014 0.78528-0.6544 1.7014-0.6544h3.4029l39.918 56.54h0.13088l7.0675-52.745q0.13088-1.047 0.78528-1.7014 0.6544-0.78528 1.7014-0.78528h12.695q0.91616 0 1.4397 0.78528 0.6544 0.6544 0.52352 1.7014l-12.434 88.082q-0.13088 1.047-0.91616 1.7014-0.6544 0.6544-1.5706 0.6544h-3.5338l-39.788-58.242h-0.13088l-7.0675 54.446q-0.13088 1.047-0.91616 1.8323-0.6544 0.6544-1.7014 0.6544h-12.564q-0.78528 0-1.4397-0.6544-0.52352-0.6544-0.39264-1.5706z"/>
    <path d="m160.9-75.91h-17.276q-1.047 0-1.5706-0.6544-0.52352-0.78528-0.39264-1.8323l1.5706-10.732q0.13088-1.047 0.78528-1.7014 0.78528-0.78528 1.7014-0.78528h51.959q1.047 0 1.5706 0.78528 0.52352 0.6544 0.39264 1.7014l-1.5706 10.732q-0.13088 1.047-0.91616 1.8323-0.6544 0.6544-1.7014 0.6544h-17.276l-10.34 73.424q-0.13088 1.047-0.91616 1.8323-0.78528 0.6544-1.7014 0.6544h-12.695q-0.91616 0-1.5706-0.6544-0.52352-0.78528-0.39264-1.8323z"/>
    <path d="m213.13-89.129q0.13088-1.047 0.78528-1.7014 0.78528-0.78528 1.7014-0.78528h48.426q1.047 0 1.5706 0.78528 0.52352 0.6544 0.39264 1.7014l-1.5706 10.732q-0.13088 1.047-0.91616 1.8323-0.6544 0.6544-1.7014 0.6544h-33.505l-3.0102 21.464h27.747q0.91616 0 1.4397 0.78528 0.6544 0.6544 0.52352 1.7014l-1.5706 10.863q-0.26176 1.047-1.047 1.8323-0.6544 0.6544-1.5706 0.6544h-27.747l-3.272 22.904h33.636q1.047 0 1.4397 0.78528 0.52352 0.6544 0.39264 1.7014l-1.4397 10.732q-0.13088 1.047-0.91616 1.8323-0.6544 0.6544-1.7014 0.6544h-48.426q-1.047 0-1.5706-0.6544-0.52352-0.78528-0.26176-1.8323z"/>
    <path d="m272.01-39.395q0-11.517 3.7955-21.333 3.7955-9.816 10.34-16.884 6.544-7.1984 15.444-11.256 9.0307-4.0573 19.239-4.0573 8.8998 0 15.575 3.272t11.648 9.1616q0.6544 0.78528 0.52352 1.8323t-1.047 1.8323l-6.9366 6.8058q-2.4867 1.8323-4.319 0-2.6176-2.4867-6.4131-4.4499-3.7955-2.0941-9.9469-2.0941-5.8896 0-11.256 2.8794-5.2352 2.7485-9.2925 7.591-4.0573 4.8426-6.4131 11.125t-2.3558 13.35q0 5.2352 1.5706 9.9469t4.1882 8.2454q2.7485 3.5338 6.4131 5.6278 3.7955 2.0941 8.1146 2.0941 4.5808 0 7.9837-0.91616 3.5338-1.047 5.3661-2.225l1.5706-11.517h-8.3763q-1.047 0-1.5706-0.6544t-0.39264-1.7014l1.4397-10.209q0.39264-2.4867 2.6176-2.4867h23.166q0.91616 0 1.4397 0.78528 0.52352 0.6544 0.39264 1.7014l-4.319 31.411q-0.26176 1.5706-0.91616 2.4867-0.52352 0.91616-1.1779 1.5706-0.52352 0.39264-2.7485 1.8323-2.0941 1.4397-5.8896 3.0102-3.6646 1.4397-8.8998 2.6176-5.1043 1.3088-11.779 1.3088-7.9837 0-14.789-3.1411-6.6749-3.272-11.648-8.769-4.8426-5.497-7.591-12.826-2.7485-7.4602-2.7485-15.967z"/>
    <path d="m369.83-89.129q0.13088-1.047 0.78528-1.7014 0.78528-0.78528 1.7014-0.78528h34.552q4.8426 0 8.8998 1.9632 4.0573 1.8323 6.9366 5.2352 3.0102 3.272 4.5808 7.7219 1.7014 4.4499 1.7014 9.5542 0 12.041-5.7587 19.632-5.6278 7.591-15.051 10.601l10.732 33.505q0.39264 1.3088-0.26176 2.3558-0.52352 1.047-1.9632 1.047h-12.434q-1.047 0-1.8323-0.39264-0.78528-0.52352-1.047-1.7014l-9.5542-33.767h-12.434l-4.7117 33.374q-0.13088 1.047-0.91616 1.8323-0.6544 0.6544-1.5706 0.6544h-12.695q-1.047 0-1.5706-0.6544-0.52352-0.78528-0.26176-1.8323zm28.008 39.264q3.1411 0 5.6278-1.1779 2.4867-1.3088 4.319-3.272 1.8323-2.0941 2.7485-4.8426 1.047-2.7485 1.047-5.8896 0-4.4499-2.4867-7.591-2.3558-3.272-6.0205-3.272h-17.931l-3.6646 26.045z"/>
    <path d="m451.37-89.129q0.13088-1.047 0.78528-1.7014 0.78528-0.78528 1.7014-0.78528h12.826q0.91616 0 1.4397 0.78528 0.6544 0.6544 0.39264 1.7014l-12.172 86.643q-0.13088 1.047-0.91616 1.8323-0.6544 0.6544-1.5706 0.6544h-12.826q-0.91616 0-1.5706-0.6544-0.52352-0.78528-0.26176-1.8323z"/>
    <path d="m470.16 0q-1.4397 0-1.8323-1.047-0.39264-1.047 0.26176-2.3558l49.211-88.082q0.78528-1.4397 2.225-1.4397h1.1779q1.3088 0 1.8323 1.4397l24.082 88.082q0.39264 1.3088-0.39264 2.3558-0.6544 1.047-2.0941 1.047h-11.387q-2.8794 0-3.4029-2.6176l-3.272-14.528h-32.589l-7.591 14.528q-0.52352 1.047-1.5706 1.8323-1.047 0.78528-2.6176 0.78528zm52.221-31.28-6.1514-28.532h-0.26176l-14.266 28.532z"/>
    <path d="m579.12-90.962q0.26176-0.78528 0.78528-1.3088 0.65441-0.6544 1.7014-0.6544h1.8323q1.4397 0 1.8323 1.3088l17.8 59.289h0.26176l35.599-59.289q0.91616-1.3088 2.225-1.3088h1.9632q0.6544 0 1.1779 0.6544 0.6544 0.52352 0.6544 1.3088l1.1779 87.951q0 1.4397-0.78528 2.225-0.78528 0.78528-1.8323 0.78528h-12.564q-1.047 0-1.5706-0.6544-0.39264-0.6544-0.39264-1.3088l1.047-46.986h-0.39264l-27.354 48.818q-0.78528 1.4397-2.225 1.4397h-2.0941q-1.3088 0-1.8323-1.4397l-13.35-48.818h-0.26176l-12.564 46.986q-0.26176 0.6544-0.78528 1.3088-0.52352 0.6544-1.7014 0.6544h-12.434q-1.047 0-1.7014-0.78528-0.52352-0.78528-0.13088-2.225z"/>
    <path d="m663.76-39.264q0-11.125 3.6646-20.81 3.7955-9.816 10.34-17.014 6.544-7.3293 15.444-11.517 9.0307-4.319 19.501-4.319 7.9837 0 14.659 3.272 6.8058 3.272 11.648 8.8998 4.9734 5.6278 7.7219 13.088 2.7485 7.3293 2.7485 15.706 0 10.994-3.7955 20.81-3.7955 9.6851-10.34 16.884-6.544 7.1984-15.575 11.387-8.8998 4.1882-19.239 4.1882-7.9837 0-14.789-3.272-6.6749-3.272-11.648-8.769-4.8426-5.6278-7.591-12.957-2.7485-7.4602-2.7485-15.575zm38.61 23.558q5.6278 0 10.994-2.6176 5.3661-2.7485 9.4234-7.3293 4.0573-4.7117 6.544-10.863 2.4867-6.2822 2.4867-13.35 0-5.2352-1.5706-9.9469-1.5706-4.8426-4.319-8.3763-2.7485-3.5338-6.6749-5.6278-3.7955-2.0941-8.5072-2.0941-5.6278 0-10.994 2.7485-5.2352 2.7485-9.2925 7.4602-4.0573 4.7117-6.544 10.994-2.4867 6.2822-2.4867 13.219 0 5.3661 1.5706 10.078 1.5706 4.5808 4.319 8.1146t6.544 5.6278q3.9264 1.9632 8.5072 1.9632z"/>
    <path d="m801.83-89.129q0.13088-1.047 0.78528-1.7014 0.78528-0.78528 1.8323-0.78528h12.695q0.91616 0 1.4397 0.78528 0.52352 0.6544 0.39264 1.7014l-10.34 73.424h28.924q1.047 0 1.4397 0.78528 0.52352 0.6544 0.39264 1.7014l-1.4397 10.732q-0.13088 1.047-0.91616 1.8323-0.6544 0.6544-1.7014 0.6544h-43.714q-1.047 0-1.5706-0.6544-0.52352-0.78528-0.39264-1.8323z"/>
    <path d="m862.67-89.129q0.13088-1.047 0.78528-1.7014 0.78528-0.78528 1.7014-0.78528h48.426q1.047 0 1.5706 0.78528 0.52352 0.6544 0.39264 1.7014l-1.5706 10.732q-0.13088 1.047-0.91616 1.8323-0.6544 0.6544-1.7014 0.6544h-33.505l-3.0102 21.464h27.747q0.91616 0 1.4397 0.78528 0.6544 0.6544 0.52352 1.7014l-1.5706 10.863q-0.26176 1.047-1.047 1.8323-0.6544 0.6544-1.5706 0.6544h-27.747l-3.272 22.904h33.636q1.047 0 1.4397 0.78528 0.52352 0.6544 0.39264 1.7014l-1.4397 10.732q-0.13088 1.047-0.91616 1.8323-0.6544 0.6544-1.7014 0.6544h-48.426q-1.047 0-1.5706-0.6544-0.52352-0.78528-0.26176-1.8323z"/>
    <path d="m963.39-89.129q0.13088-1.047 0.78528-1.7014 0.78528-0.78528 1.7014-0.78528h28.27q7.7219 0 14.266 3.272 6.544 3.1411 11.256 8.6381t7.3293 12.695q2.6176 7.1984 2.6176 15.182 0 10.601-3.6647 20.025-3.6646 9.4234-10.209 16.491-6.4131 7.0675-15.313 11.256-8.7689 4.0573-19.108 4.0573h-28.401q-0.91616 0-1.4397-0.6544-0.52352-0.78528-0.26176-1.8323zm18.847 73.162q6.0205 0 11.256-2.6176 5.3661-2.7485 9.2925-7.3293 4.0573-4.7117 6.2822-10.994 2.3559-6.4131 2.3559-13.742 0-5.3661-1.4397-9.9469t-4.1882-7.9837q-2.7485-3.4029-6.544-5.2352-3.7955-1.9632-8.5072-1.9632h-12.303l-8.3763 59.812z"/>
    <path d="m1052.9-89.129q0.1309-1.047 0.7853-1.7014 0.7853-0.78528 1.7015-0.78528h12.826q0.9162 0 1.4397 0.78528 0.6544 0.6544 0.3926 1.7014l-12.172 86.643q-0.1309 1.047-0.9162 1.8323-0.6544 0.6544-1.5705 0.6544h-12.826q-0.9161 0-1.5705-0.6544-0.5236-0.78528-0.2618-1.8323z"/>
    <path d="m1081.6-88.213q-0.3926-1.3088 0.3927-2.3558t2.0941-1.047h12.957q0.6544 0 1.1779 0.52352 0.5235 0.39264 0.6544 0.91616l13.481 54.708h0.5236l29.055-54.708q0.2618-0.52352 0.7853-0.91616 0.5235-0.52352 1.3088-0.52352h14.659q1.4396 0 1.8323 1.047 0.3926 1.047-0.2618 2.3558l-49.211 88.082q-0.7852 1.4397-2.2249 1.4397h-1.1779q-1.3088 0-1.8324-1.4397z"/>
    <path d="m1172.5-89.129q0.1309-1.047 0.7853-1.7014 0.7852-0.78528 1.7014-0.78528h48.426q1.047 0 1.5706 0.78528 0.5235 0.6544 0.3926 1.7014l-1.5706 10.732q-0.1308 1.047-0.9161 1.8323-0.6544 0.6544-1.7015 0.6544h-33.505l-3.0103 21.464h27.747q0.9161 0 1.4397 0.78528 0.6544 0.6544 0.5235 1.7014l-1.5706 10.863q-0.2617 1.047-1.047 1.8323-0.6544 0.6544-1.5706 0.6544h-27.746l-3.272 22.904h33.636q1.0471 0 1.4397 0.78528 0.5235 0.6544 0.3926 1.7014l-1.4396 10.732q-0.1309 1.047-0.9162 1.8323-0.6544 0.6544-1.7014 0.6544h-48.426q-1.0471 0-1.5706-0.6544-0.5235-0.78528-0.2618-1.8323z"/>
    <path d="m1243.8-89.129q0.1309-1.047 0.7853-1.7014 0.7853-0.78528 1.7015-0.78528h34.552q4.8425 0 8.8998 1.9632 4.0573 1.8323 6.9367 5.2352 3.0102 3.272 4.5808 7.7219 1.7014 4.4499 1.7014 9.5542 0 12.041-5.7587 19.632-5.6279 7.591-15.051 10.601l10.732 33.505q0.3927 1.3088-0.2617 2.3558-0.5235 1.047-1.9632 1.047h-12.434q-1.0471 0-1.8323-0.39264-0.7853-0.52352-1.0471-1.7014l-9.5542-33.767h-12.434l-4.7117 33.374q-0.1309 1.047-0.9162 1.8323-0.6544 0.6544-1.5705 0.6544h-12.695q-1.047 0-1.5705-0.6544-0.5236-0.78528-0.2618-1.8323zm28.008 39.264q3.1411 0 5.6278-1.1779 2.4867-1.3088 4.319-3.272 1.8324-2.0941 2.7485-4.8426 1.0471-2.7485 1.0471-5.8896 0-4.4499-2.4868-7.591-2.3558-3.272-6.0204-3.272h-17.931l-3.6646 26.045z"/>
    <path d="m1309.8-8.8998q-0.6544-0.6544-0.9161-1.5706-0.1309-0.91616 0.9161-2.3558l5.1044-7.4602q0.9161-1.4397 2.094-1.3088 1.178 0.13088 1.9632 0.78528 0.6544 0.6544 2.0941 1.8323 1.5706 1.047 3.6647 2.225 2.2249 1.047 4.8425 1.9632 2.6176 0.78528 5.6279 0.78528 2.2249 0 4.319-0.78528t3.6646-2.225q1.7015-1.5706 2.6176-3.5338 1.0471-2.0941 1.0471-4.5808 0-4.319-2.8794-7.4602-2.8793-3.272-8.3763-6.9366-3.272-2.0941-6.6749-4.5808-3.272-2.6176-6.0205-5.7587-2.7484-3.1411-4.4499-6.9366-1.7014-3.9264-1.7014-8.8998 0-4.8426 1.7014-9.6851 1.7015-4.9734 5.3661-8.769 3.6646-3.9264 9.1616-6.2822 5.6278-2.4867 13.35-2.4867 4.5808 0 8.3763 1.047 3.9264 1.047 6.9366 2.4867 3.1411 1.3088 5.1043 2.7485 2.0941 1.4397 2.8794 2.225 2.3558 2.3558 0.3926 5.2352l-5.1043 7.1984q-1.7014 2.4867-4.5808 0.26176-0.7853-0.6544-2.2249-1.5706-1.4397-1.047-3.4029-1.9632t-4.3191-1.5706q-2.3558-0.6544-4.8425-0.6544t-4.5808 0.91616q-1.9632 0.78528-3.5338 2.225-1.4397 1.4397-2.2249 3.272-0.7853 1.8323-0.7853 3.7955 0 3.9264 2.7485 6.544 2.7484 2.6176 8.638 6.544 3.272 2.225 6.8058 4.7117t6.4131 5.7587q3.0103 3.272 4.9735 7.4602 1.9632 4.0573 1.9632 9.4234 0 5.7587-2.225 10.863-2.0941 5.1043-6.1514 9.0307-4.0572 3.7955-9.9468 6.0205-5.7588 2.225-12.957 2.225-5.1043 0-9.2924-1.3088-4.1882-1.1779-7.4602-2.8794-3.1411-1.7014-5.2352-3.4029-2.0941-1.7014-2.8794-2.6176z"/>
    <path d="m1391.8-89.129q0.1309-1.047 0.7853-1.7014 0.7852-0.78528 1.7014-0.78528h12.826q0.9162 0 1.4397 0.78528 0.6544 0.6544 0.3927 1.7014l-12.172 86.643q-0.1309 1.047-0.9161 1.8323-0.6544 0.6544-1.5706 0.6544h-12.826q-0.9162 0-1.5706-0.6544-0.5235-0.78528-0.2618-1.8323z"/>
    <path d="m1439.9-75.91h-17.276q-1.047 0-1.5705-0.6544-0.5236-0.78528-0.3927-1.8323l1.5706-10.732q0.1309-1.047 0.7853-1.7014 0.7852-0.78528 1.7014-0.78528h51.959q1.047 0 1.5705 0.78528 0.5235 0.6544 0.3927 1.7014l-1.5706 10.732q-0.1309 1.047-0.9162 1.8323-0.6544 0.6544-1.7014 0.6544h-17.276l-10.34 73.424q-0.1309 1.047-0.9161 1.8323-0.7853 0.6544-1.7015 0.6544h-12.695q-0.9162 0-1.5706-0.6544-0.5235-0.78528-0.3926-1.8323z"/>
    <path d="m1468.2 0q-1.4397 0-1.8323-1.047-0.3927-1.047 0.2617-2.3558l49.211-88.082q0.7853-1.4397 2.225-1.4397h1.1779q1.3088 0 1.8323 1.4397l24.082 88.082q0.3927 1.3088-0.3926 2.3558-0.6544 1.047-2.0941 1.047h-11.387q-2.8793 0-3.4028-2.6176l-3.272-14.528h-32.589l-7.591 14.528q-0.5235 1.047-1.5706 1.8323-1.047 0.78528-2.6176 0.78528zm52.221-31.28-6.1514-28.532h-0.2617l-14.266 28.532zm-11.387-79.444q-0.6544-0.39264-0.9161-1.3088-0.2618-0.91616 0.6544-2.225l3.7955-5.6278q0.9162-1.4397 1.9632-1.4397t1.5706 0.39264l17.93 12.695q0.5235 0.26176 0.6544 1.047 0.2618 0.6544-0.2617 1.4397l-2.6176 4.319q-1.178 1.8323-3.1412 0.78528z" style=""/>
   </g>
   <g transform="translate(16.56 1116.8) rotate(-7.85)" fill="#fdfdfc" aria-label="INTEGRIAMO LE DIVERSITÀ">
    <g fill="#fdfdfc">
     <path d="m19.108-89.129q0.13088-1.047 0.78528-1.7014 0.78528-0.78528 1.7014-0.78528h12.826q0.91616 0 1.4397 0.78528 0.6544 0.6544 0.39264 1.7014l-12.172 86.643q-0.13088 1.047-0.91616 1.8323-0.6544 0.6544-1.5706 0.6544h-12.826q-0.91616 0-1.5706-0.6544-0.52352-0.78528-0.26176-1.8323z"/>
     <path d="m59.884-90.569q0.13088-1.047 0.78528-1.7014 0.78528-0.6544 1.7014-0.6544h3.4029l39.918 56.54h0.13088l7.0675-52.745q0.13088-1.047 0.78528-1.7014 0.6544-0.78528 1.7014-0.78528h12.695q0.91616 0 1.4397 0.78528 0.6544 0.6544 0.52352 1.7014l-12.434 88.082q-0.13088 1.047-0.91616 1.7014-0.6544 0.6544-1.5706 0.6544h-3.5338l-39.788-58.242h-0.13088l-7.0675 54.446q-0.13088 1.047-0.91616 1.8323-0.6544 0.6544-1.7014 0.6544h-12.564q-0.78528 0-1.4397-0.6544-0.52352-0.6544-0.39264-1.5706z"/>
     <path d="m160.9-75.91h-17.276q-1.047 0-1.5706-0.6544-0.52352-0.78528-0.39264-1.8323l1.5706-10.732q0.13088-1.047 0.78528-1.7014 0.78528-0.78528 1.7014-0.78528h51.959q1.047 0 1.5706 0.78528 0.52352 0.6544 0.39264 1.7014l-1.5706 10.732q-0.13088 1.047-0.91616 1.8323-0.6544 0.6544-1.7014 0.6544h-17.276l-10.34 73.424q-0.13088 1.047-0.91616 1.8323-0.78528 0.6544-1.7014 0.6544h-12.695q-0.91616 0-1.5706-0.6544-0.52352-0.78528-0.39264-1.8323z"/>
     <path d="m213.13-89.129q0.13088-1.047 0.78528-1.7014 0.78528-0.78528 1.7014-0.78528h48.426q1.047 0 1.5706 0.78528 0.52352 0.6544 0.39264 1.7014l-1.5706 10.732q-0.13088 1.047-0.91616 1.8323-0.6544 0.6544-1.7014 0.6544h-33.505l-3.0102 21.464h27.747q0.91616 0 1.4397 0.78528 0.6544 0.6544 0.52352 1.7014l-1.5706 10.863q-0.26176 1.047-1.047 1.8323-0.6544 0.6544-1.5706 0.6544h-27.747l-3.272 22.904h33.636q1.047 0 1.4397 0.78528 0.52352 0.6544 0.39264 1.7014l-1.4397 10.732q-0.13088 1.047-0.91616 1.8323-0.6544 0.6544-1.7014 0.6544h-48.426q-1.047 0-1.5706-0.6544-0.52352-0.78528-0.26176-1.8323z"/>
     <path d="m272.01-39.395q0-11.517 3.7955-21.333 3.7955-9.816 10.34-16.884 6.544-7.1984 15.444-11.256 9.0307-4.0573 19.239-4.0573 8.8998 0 15.575 3.272t11.648 9.1616q0.6544 0.78528 0.52352 1.8323t-1.047 1.8323l-6.9366 6.8058q-2.4867 1.8323-4.319 0-2.6176-2.4867-6.4131-4.4499-3.7955-2.0941-9.9469-2.0941-5.8896 0-11.256 2.8794-5.2352 2.7485-9.2925 7.591-4.0573 4.8426-6.4131 11.125t-2.3558 13.35q0 5.2352 1.5706 9.9469t4.1882 8.2454q2.7485 3.5338 6.4131 5.6278 3.7955 2.0941 8.1146 2.0941 4.5808 0 7.9837-0.91616 3.5338-1.047 5.3661-2.225l1.5706-11.517h-8.3763q-1.047 0-1.5706-0.6544t-0.39264-1.7014l1.4397-10.209q0.39264-2.4867 2.6176-2.4867h23.166q0.91616 0 1.4397 0.78528 0.52352 0.6544 0.39264 1.7014l-4.319 31.411q-0.26176 1.5706-0.91616 2.4867-0.52352 0.91616-1.1779 1.5706-0.52352 0.39264-2.7485 1.8323-2.0941 1.4397-5.8896 3.0102-3.6646 1.4397-8.8998 2.6176-5.1043 1.3088-11.779 1.3088-7.9837 0-14.789-3.1411-6.6749-3.272-11.648-8.769-4.8426-5.497-7.591-12.826-2.7485-7.4602-2.7485-15.967z"/>
     <path d="m369.83-89.129q0.13088-1.047 0.78528-1.7014 0.78528-0.78528 1.7014-0.78528h34.552q4.8426 0 8.8998 1.9632 4.0573 1.8323 6.9366 5.2352 3.0102 3.272 4.5808 7.7219 1.7014 4.4499 1.7014 9.5542 0 12.041-5.7587 19.632-5.6278 7.591-15.051 10.601l10.732 33.505q0.39264 1.3088-0.26176 2.3558-0.52352 1.047-1.9632 1.047h-12.434q-1.047 0-1.8323-0.39264-0.78528-0.52352-1.047-1.7014l-9.5542-33.767h-12.434l-4.7117 33.374q-0.13088 1.047-0.91616 1.8323-0.6544 0.6544-1.5706 0.6544h-12.695q-1.047 0-1.5706-0.6544-0.52352-0.78528-0.26176-1.8323zm28.008 39.264q3.1411 0 5.6278-1.1779 2.4867-1.3088 4.319-3.272 1.8323-2.0941 2.7485-4.8426 1.047-2.7485 1.047-5.8896 0-4.4499-2.4867-7.591-2.3558-3.272-6.0205-3.272h-17.931l-3.6646 26.045z"/>
     <path d="m451.37-89.129q0.13088-1.047 0.78528-1.7014 0.78528-0.78528 1.7014-0.78528h12.826q0.91616 0 1.4397 0.78528 0.6544 0.6544 0.39264 1.7014l-12.172 86.643q-0.13088 1.047-0.91616 1.8323-0.6544 0.6544-1.5706 0.6544h-12.826q-0.91616 0-1.5706-0.6544-0.52352-0.78528-0.26176-1.8323z"/>
     <path d="m470.16 0q-1.4397 0-1.8323-1.047-0.39264-1.047 0.26176-2.3558l49.211-88.082q0.78528-1.4397 2.225-1.4397h1.1779q1.3088 0 1.8323 1.4397l24.082 88.082q0.39264 1.3088-0.39264 2.3558-0.6544 1.047-2.0941 1.047h-11.387q-2.8794 0-3.4029-2.6176l-3.272-14.528h-32.589l-7.591 14.528q-0.52352 1.047-1.5706 1.8323-1.047 0.78528-2.6176 0.78528zm52.221-31.28-6.1514-28.532h-0.26176l-14.266 28.532z"/>
     <path d="m579.12-90.962q0.26176-0.78528 0.78528-1.3088 0.65441-0.6544 1.7014-0.6544h1.8323q1.4397 0 1.8323 1.3088l17.8 59.289h0.26176l35.599-59.289q0.91616-1.3088 2.225-1.3088h1.9632q0.6544 0 1.1779 0.6544 0.6544 0.52352 0.6544 1.3088l1.1779 87.951q0 1.4397-0.78528 2.225-0.78528 0.78528-1.8323 0.78528h-12.564q-1.047 0-1.5706-0.6544-0.39264-0.6544-0.39264-1.3088l1.047-46.986h-0.39264l-27.354 48.818q-0.78528 1.4397-2.225 1.4397h-2.0941q-1.3088 0-1.8323-1.4397l-13.35-48.818h-0.26176l-12.564 46.986q-0.26176 0.6544-0.78528 1.3088-0.52352 0.6544-1.7014 0.6544h-12.434q-1.047 0-1.7014-0.78528-0.52352-0.78528-0.13088-2.225z"/>
     <path d="m663.76-39.264q0-11.125 3.6646-20.81 3.7955-9.816 10.34-17.014 6.544-7.3293 15.444-11.517 9.0307-4.319 19.501-4.319 7.9837 0 14.659 3.272 6.8058 3.272 11.648 8.8998 4.9734 5.6278 7.7219 13.088 2.7485 7.3293 2.7485 15.706 0 10.994-3.7955 20.81-3.7955 9.6851-10.34 16.884-6.544 7.1984-15.575 11.387-8.8998 4.1882-19.239 4.1882-7.9837 0-14.789-3.272-6.6749-3.272-11.648-8.769-4.8426-5.6278-7.591-12.957-2.7485-7.4602-2.7485-15.575zm38.61 23.558q5.6278 0 10.994-2.6176 5.3661-2.7485 9.4234-7.3293 4.0573-4.7117 6.544-10.863 2.4867-6.2822 2.4867-13.35 0-5.2352-1.5706-9.9469-1.5706-4.8426-4.319-8.3763-2.7485-3.5338-6.6749-5.6278-3.7955-2.0941-8.5072-2.0941-5.6278 0-10.994 2.7485-5.2352 2.7485-9.2925 7.4602-4.0573 4.7117-6.544 10.994-2.4867 6.2822-2.4867 13.219 0 5.3661 1.5706 10.078 1.5706 4.5808 4.319 8.1146t6.544 5.6278q3.9264 1.9632 8.5072 1.9632z"/>
     <path d="m801.83-89.129q0.13088-1.047 0.78528-1.7014 0.78528-0.78528 1.8323-0.78528h12.695q0.91616 0 1.4397 0.78528 0.52352 0.6544 0.39264 1.7014l-10.34 73.424h28.924q1.047 0 1.4397 0.78528 0.52352 0.6544 0.39264 1.7014l-1.4397 10.732q-0.13088 1.047-0.91616 1.8323-0.6544 0.6544-1.7014 0.6544h-43.714q-1.047 0-1.5706-0.6544-0.52352-0.78528-0.39264-1.8323z"/>
     <path d="m862.67-89.129q0.13088-1.047 0.78528-1.7014 0.78528-0.78528 1.7014-0.78528h48.426q1.047 0 1.5706 0.78528 0.52352 0.6544 0.39264 1.7014l-1.5706 10.732q-0.13088 1.047-0.91616 1.8323-0.6544 0.6544-1.7014 0.6544h-33.505l-3.0102 21.464h27.747q0.91616 0 1.4397 0.78528 0.6544 0.6544 0.52352 1.7014l-1.5706 10.863q-0.26176 1.047-1.047 1.8323-0.6544 0.6544-1.5706 0.6544h-27.747l-3.272 22.904h33.636q1.047 0 1.4397 0.78528 0.52352 0.6544 0.39264 1.7014l-1.4397 10.732q-0.13088 1.047-0.91616 1.8323-0.6544 0.6544-1.7014 0.6544h-48.426q-1.047 0-1.5706-0.6544-0.52352-0.78528-0.26176-1.8323z"/>
     <path d="m963.39-89.129q0.13088-1.047 0.78528-1.7014 0.78528-0.78528 1.7014-0.78528h28.27q7.7219 0 14.266 3.272 6.544 3.1411 11.256 8.6381t7.3293 12.695q2.6176 7.1984 2.6176 15.182 0 10.601-3.6647 20.025-3.6646 9.4234-10.209 16.491-6.4131 7.0675-15.313 11.256-8.7689 4.0573-19.108 4.0573h-28.401q-0.91616 0-1.4397-0.6544-0.52352-0.78528-0.26176-1.8323zm18.847 73.162q6.0205 0 11.256-2.6176 5.3661-2.7485 9.2925-7.3293 4.0573-4.7117 6.2822-10.994 2.3559-6.4131 2.3559-13.742 0-5.3661-1.4397-9.9469t-4.1882-7.9837q-2.7485-3.4029-6.544-5.2352-3.7955-1.9632-8.5072-1.9632h-12.303l-8.3763 59.812z"/>
     <path d="m1052.9-89.129q0.1309-1.047 0.7853-1.7014 0.7853-0.78528 1.7015-0.78528h12.826q0.9162 0 1.4397 0.78528 0.6544 0.6544 0.3926 1.7014l-12.172 86.643q-0.1309 1.047-0.9162 1.8323-0.6544 0.6544-1.5705 0.6544h-12.826q-0.9161 0-1.5705-0.6544-0.5236-0.78528-0.2618-1.8323z"/>
     <path d="m1081.6-88.213q-0.3926-1.3088 0.3927-2.3558t2.0941-1.047h12.957q0.6544 0 1.1779 0.52352 0.5235 0.39264 0.6544 0.91616l13.481 54.708h0.5236l29.055-54.708q0.2618-0.52352 0.7853-0.91616 0.5235-0.52352 1.3088-0.52352h14.659q1.4396 0 1.8323 1.047 0.3926 1.047-0.2618 2.3558l-49.211 88.082q-0.7852 1.4397-2.2249 1.4397h-1.1779q-1.3088 0-1.8324-1.4397z"/>
     <path d="m1172.5-89.129q0.1309-1.047 0.7853-1.7014 0.7852-0.78528 1.7014-0.78528h48.426q1.047 0 1.5706 0.78528 0.5235 0.6544 0.3926 1.7014l-1.5706 10.732q-0.1308 1.047-0.9161 1.8323-0.6544 0.6544-1.7015 0.6544h-33.505l-3.0103 21.464h27.747q0.9161 0 1.4397 0.78528 0.6544 0.6544 0.5235 1.7014l-1.5706 10.863q-0.2617 1.047-1.047 1.8323-0.6544 0.6544-1.5706 0.6544h-27.746l-3.272 22.904h33.636q1.0471 0 1.4397 0.78528 0.5235 0.6544 0.3926 1.7014l-1.4396 10.732q-0.1309 1.047-0.9162 1.8323-0.6544 0.6544-1.7014 0.6544h-48.426q-1.0471 0-1.5706-0.6544-0.5235-0.78528-0.2618-1.8323z"/>
     <path d="m1243.8-89.129q0.1309-1.047 0.7853-1.7014 0.7853-0.78528 1.7015-0.78528h34.552q4.8425 0 8.8998 1.9632 4.0573 1.8323 6.9367 5.2352 3.0102 3.272 4.5808 7.7219 1.7014 4.4499 1.7014 9.5542 0 12.041-5.7587 19.632-5.6279 7.591-15.051 10.601l10.732 33.505q0.3927 1.3088-0.2617 2.3558-0.5235 1.047-1.9632 1.047h-12.434q-1.0471 0-1.8323-0.39264-0.7853-0.52352-1.0471-1.7014l-9.5542-33.767h-12.434l-4.7117 33.374q-0.1309 1.047-0.9162 1.8323-0.6544 0.6544-1.5705 0.6544h-12.695q-1.047 0-1.5705-0.6544-0.5236-0.78528-0.2618-1.8323zm28.008 39.264q3.1411 0 5.6278-1.1779 2.4867-1.3088 4.319-3.272 1.8324-2.0941 2.7485-4.8426 1.0471-2.7485 1.0471-5.8896 0-4.4499-2.4868-7.591-2.3558-3.272-6.0204-3.272h-17.931l-3.6646 26.045z"/>
     <path d="m1309.8-8.8998q-0.6544-0.6544-0.9161-1.5706-0.1309-0.91616 0.9161-2.3558l5.1044-7.4602q0.9161-1.4397 2.094-1.3088 1.178 0.13088 1.9632 0.78528 0.6544 0.6544 2.0941 1.8323 1.5706 1.047 3.6647 2.225 2.2249 1.047 4.8425 1.9632 2.6176 0.78528 5.6279 0.78528 2.2249 0 4.319-0.78528t3.6646-2.225q1.7015-1.5706 2.6176-3.5338 1.0471-2.0941 1.0471-4.5808 0-4.319-2.8794-7.4602-2.8793-3.272-8.3763-6.9366-3.272-2.0941-6.6749-4.5808-3.272-2.6176-6.0205-5.7587-2.7484-3.1411-4.4499-6.9366-1.7014-3.9264-1.7014-8.8998 0-4.8426 1.7014-9.6851 1.7015-4.9734 5.3661-8.769 3.6646-3.9264 9.1616-6.2822 5.6278-2.4867 13.35-2.4867 4.5808 0 8.3763 1.047 3.9264 1.047 6.9366 2.4867 3.1411 1.3088 5.1043 2.7485 2.0941 1.4397 2.8794 2.225 2.3558 2.3558 0.3926 5.2352l-5.1043 7.1984q-1.7014 2.4867-4.5808 0.26176-0.7853-0.6544-2.2249-1.5706-1.4397-1.047-3.4029-1.9632t-4.3191-1.5706q-2.3558-0.6544-4.8425-0.6544t-4.5808 0.91616q-1.9632 0.78528-3.5338 2.225-1.4397 1.4397-2.2249 3.272-0.7853 1.8323-0.7853 3.7955 0 3.9264 2.7485 6.544 2.7484 2.6176 8.638 6.544 3.272 2.225 6.8058 4.7117t6.4131 5.7587q3.0103 3.272 4.9735 7.4602 1.9632 4.0573 1.9632 9.4234 0 5.7587-2.225 10.863-2.0941 5.1043-6.1514 9.0307-4.0572 3.7955-9.9468 6.0205-5.7588 2.225-12.957 2.225-5.1043 0-9.2924-1.3088-4.1882-1.1779-7.4602-2.8794-3.1411-1.7014-5.2352-3.4029-2.0941-1.7014-2.8794-2.6176z"/>
     <path d="m1391.8-89.129q0.1309-1.047 0.7853-1.7014 0.7852-0.78528 1.7014-0.78528h12.826q0.9162 0 1.4397 0.78528 0.6544 0.6544 0.3927 1.7014l-12.172 86.643q-0.1309 1.047-0.9161 1.8323-0.6544 0.6544-1.5706 0.6544h-12.826q-0.9162 0-1.5706-0.6544-0.5235-0.78528-0.2618-1.8323z"/>
    </g>
    <path d="m1439.9-75.91h-17.276q-1.047 0-1.5705-0.6544-0.5236-0.78528-0.3927-1.8323l1.5706-10.732q0.1309-1.047 0.7853-1.7014 0.7852-0.78528 1.7014-0.78528h51.959q1.047 0 1.5705 0.78528 0.5235 0.6544 0.3927 1.7014l-1.5706 10.732q-0.1309 1.047-0.9162 1.8323-0.6544 0.6544-1.7014 0.6544h-17.276l-10.34 73.424q-0.1309 1.047-0.9161 1.8323-0.7853 0.6544-1.7015 0.6544h-12.695q-0.9162 0-1.5706-0.6544-0.5235-0.78528-0.3926-1.8323z"/>
    <path d="m1468.2 0q-1.4397 0-1.8323-1.047-0.3927-1.047 0.2617-2.3558l49.211-88.082q0.7853-1.4397 2.225-1.4397h1.1779q1.3088 0 1.8323 1.4397l24.082 88.082q0.3927 1.3088-0.3926 2.3558-0.6544 1.047-2.0941 1.047h-11.387q-2.8793 0-3.4028-2.6176l-3.272-14.528h-32.589l-7.591 14.528q-0.5235 1.047-1.5706 1.8323-1.047 0.78528-2.6176 0.78528zm52.221-31.28-6.1514-28.532h-0.2617l-14.266 28.532zm-11.387-79.444q-0.6544-0.39264-0.9161-1.3088-0.2618-0.91616 0.6544-2.225l3.7955-5.6278q0.9162-1.4397 1.9632-1.4397t1.5706 0.39264l17.93 12.695q0.5235 0.26176 0.6544 1.047 0.2618 0.6544-0.2617 1.4397l-2.6176 4.319q-1.178 1.8323-3.1412 0.78528z" style=""/>
   </g>
  </g>
 </g>
</svg>
