<svg version="1.1" viewBox="0 0 1388.4 1125.3" xmlns="http://www.w3.org/2000/svg">
 <defs>
  <style>.ppsvg-dark{fill:#1d1e1c;}.cls-2{fill:#fff;}.cls-3,.cls-6{font-size:126.01px;font-family:BrandonGrotesque-BoldItalic, Brandon Grotesque;font-weight:700;font-style:italic;}.cls-4{letter-spacing:-0.02em;}.cls-5{letter-spacing:0.03em;}.cls-6{fill:#fdfdfc;}</style>
 </defs>
 <title>Risorsa 8support34</title>
 <path class="ppsvg-dark" d="m31.46 207.91c-0.18-4.49 3.26-9.08 7.72-9.7l98-13.76c44.57-6.27 82.84 30.15 89.47 77.35 8.33 59.26-31.25 117-89.17 125.18l-36.53 5.15v106.75c0.16 4.52-3.72 9.16-7.74 9.72l-54.33 7.64c-4.48 0.62-7.26-3.07-7.42-7.59zm101.78 113.35c15.6-2.19 28.23-22.14 25-44.85-2.19-15.59-12.79-26.36-24.83-24.68l-32.51 4.57 0.24 69.47zm263.42-177.84c69.06-9.72 133.06 44.9 143.88 122 14.08 100.24-48.47 191.7-142 204.85-68.59 9.64-132.92-44-143.69-120.63-14.16-100.71 49.15-193.2 141.81-206.22zm72 140.69c-5.85-41.87-35.66-73.11-71.33-68.11-43.21 6.07-78.5 58.71-70.74 114 5.82 41.43 35.65 72.69 70.85 67.73 44.09-6.21 79-58.39 71.25-113.62zm127.61-155.57c-0.18-4.51 3.26-9.08 7.7-9.7l55.25-7.77c4-0.56 7.24 3.07 7.43 7.58v242.57l90.88-12.77c4.46-0.62 7.26 3.07 7.43 7.59l0.16 49.49c0.18 4.52-3.29 9.1-7.74 9.72l-153.23 21.54c-4.46 0.64-7.69-3-7.86-7.53zm209.79-29.54c-0.18-4.51 3.26-9.08 7.27-9.64l55.67-7.78c4-0.56 7.24 3.09 7.43 7.59v300.72c0.18 4.52-3.28 9.1-7.29 9.66l-55.66 7.83c-4 0.56-7.26-3.07-7.43-7.61zm126.76 281.61 43.47-311.39c0.77-4.19 2.56-7.62 7.48-8.31l6.23-0.91a6.82 6.82 0 0 1 6.86 3.58l92.51 183.24 0.9-0.13 99.46-210.21c1.41-2.93 2.94-5 7-5.53l6.68-0.94c3.1-0.43 6.22 2.3 6.78 6.31l44.31 299.05a9.9 9.9 0 0 1-8 11.11l-54.8 7.7c-3.56 0.5-7.18-2.62-7.67-6.19l-14.48-138.29-0.9 0.11-64.78 156.29c-1.41 2.93-3.77 5.53-6.89 6l-7.13 1a6.74 6.74 0 0 1-6.92-4l-65.28-138-0.9 0.13-13.6 142.29a9.26 9.26 0 0 1-7.91 8.38l-54.8 7.7c-4.44 0.56-8.59-2.96-7.62-8.99zm378.34-352.54c-0.18-4.51 3.28-9.1 7.27-9.66l55.69-7.83c4-0.56 7.24 3.09 7.42 7.59v300.72c0.18 4.52-3.29 9.1-7.29 9.66l-55.68 7.83c-4 0.56-7.26-3.07-7.42-7.59zm-1280.4 561.2c-0.18-4.51 3.26-9.1 7.74-9.72l98-13.76c44.54-6.27 82.82 30.15 89.45 77.35 8.33 59.24-31.25 117.06-89.15 125.18l-36.54 5.15v106.75c0.18 4.52-3.71 9.14-7.7 9.7l-54.35 7.64c-4.46 0.62-7.26-3.05-7.42-7.58zm101.78 113.35c15.59-2.21 28.25-22.16 25-44.87-2.19-15.6-12.8-26.36-24.83-24.68l-32.51 4.57 0.21 69.49zm140.52-147.41c-0.18-4.51 3.26-9.08 7.26-9.64l120.27-16.9c46.81-6.59 83.73 26.84 90.19 72.72 6.7 47.65-14.85 91.58-58.73 112.26l54.65 107.71c3.05 5.48 0 13.16-6.63 14.1l-57.47 8.09c-3.12 0.43-6-1-6.79-3.13l-53.12-112.94-19.6 2.77-0.09 115.86c0.19 4.52-3.26 9.08-7.27 9.64l-55.23 7.77c-4.46 0.62-7.7-3-7.42-7.59zm118.65 110.52c20.94-2.94 33.29-24.73 30.29-46.06-2.19-15.59-12-27.37-28.05-25.11l-51.25 7.19v70.86zm158.43-149.47c-0.18-4.51 3.25-9.08 7.27-9.64l55.69-7.82c4-0.58 7.24 3.07 7.42 7.58v300.72c0.21 4.52-3.26 9.08-7.27 9.64l-55.66 7.83c-4 0.56-7.26-3.05-7.43-7.58zm144.76-20.33c-0.18-4.51 3.25-9.08 7.27-9.66l99.33-14c70.4-9.89 130.06 49.41 139.76 118.44 13.59 96.73-45.58 186.29-139.58 199.56l-99.8 14c-4 0.56-7.24-3.05-7-7.64zm103.3 227.6c45.88-6.46 77.61-58.6 69.41-117-5.88-41.87-33.3-72.09-69.38-67l-33.41 4.7v184zm198.7-270.06c-0.18-4.49 3.28-9.08 7.27-9.64l167.94-23.59c4.44-0.62 7.7 3 7.86 7.51l-0.3 49.57c0.19 4.51-2.81 9-7.27 9.64l-106 14.9-0.24 56.38 86.4-12.15c4-0.58 7.69 3 7.86 7.51l-0.29 49.57c-0.22 5-3.71 9.14-7.74 9.7l-86 12.08v61.32l106-14.9c4.44-0.62 7.26 3.07 7.43 7.58l0.11 49.51c0.21 4.52-3.25 9.08-7.69 9.7l-167.94 23.61c-4.46 0.62-7.7-3-7.43-7.58z" fill="#1d1e1c"/>
 <path class="cls-2" d="m20.94 197.38c-0.18-4.49 3.26-9.08 7.72-9.7l98-13.76c44.57-6.27 82.84 30.15 89.47 77.35 8.33 59.26-31.25 117-89.17 125.18l-36.53 5.15v106.75c0.16 4.52-3.72 9.16-7.74 9.72l-54.33 7.64c-4.48 0.62-7.26-3.07-7.42-7.59zm101.78 113.35c15.6-2.19 28.23-22.14 25-44.86-2.19-15.59-12.79-26.36-24.83-24.68l-32.51 4.57 0.24 69.47zm263.43-177.83c69.06-9.72 133.06 44.9 143.89 122 14.08 100.25-48.47 191.7-142 204.85-68.59 9.64-132.92-44-143.69-120.63-14.17-100.72 49.14-193.21 141.8-206.22zm72 140.69c-5.88-41.87-35.73-73.1-71.36-68.1-43.21 6.07-78.5 58.71-70.74 114 5.82 41.43 35.65 72.69 70.85 67.73 44.1-6.22 79.03-58.41 71.28-113.64zm127.61-155.59c-0.18-4.51 3.26-9.08 7.71-9.7l55.25-7.77c4-0.56 7.24 3.07 7.43 7.58v242.59l90.85-12.77c4.46-0.62 7.26 3.07 7.43 7.59l0.16 49.49c0.18 4.52-3.29 9.1-7.74 9.72l-153.21 21.53c-4.46 0.64-7.69-3-7.86-7.53zm209.79-29.48c-0.18-4.51 3.26-9.08 7.27-9.64l55.68-7.88c4-0.56 7.24 3.09 7.43 7.59v300.72c0.18 4.52-3.28 9.1-7.29 9.66l-55.64 7.88c-4 0.56-7.26-3.07-7.43-7.61zm126.77 281.57 43.46-311.4c0.77-4.19 2.56-7.63 7.48-8.31l6.23-0.88a6.82 6.82 0 0 1 6.86 3.58l92.51 183.24 0.9-0.13 99.46-210.19c1.41-2.93 2.94-5 7-5.53l6.68-0.94c3.1-0.43 6.22 2.3 6.78 6.31l44.32 299.04a9.9 9.9 0 0 1-8 11.11l-54.8 7.71c-3.56 0.5-7.18-2.62-7.67-6.19l-14.53-138.34-0.9 0.11-64.79 156.29c-1.41 2.93-3.77 5.53-6.89 6l-7.13 1a6.74 6.74 0 0 1-6.92-4l-65.28-138-0.9 0.13-13.6 142.29a9.26 9.26 0 0 1-7.91 8.38l-54.76 7.63c-4.44 0.63-8.58-2.88-7.6-8.91zm378.34-352.54c-0.18-4.51 3.28-9.1 7.27-9.66l55.7-7.83c4-0.56 7.24 3.09 7.42 7.59v300.72c0.18 4.52-3.29 9.1-7.29 9.66l-55.68 7.83c-4 0.56-7.26-3.07-7.42-7.59zm-1280.4 561.2c-0.18-4.51 3.26-9.1 7.74-9.72l98-13.76c44.54-6.27 82.82 30.15 89.45 77.35 8.33 59.24-31.25 117.06-89.15 125.18l-36.54 5.15v106.75c0.18 4.52-3.71 9.14-7.71 9.7l-54.34 7.6c-4.46 0.62-7.26-3.05-7.42-7.58zm101.76 113.35c15.59-2.21 28.25-22.16 25-44.87-2.19-15.6-12.8-26.36-24.83-24.68l-32.51 4.57 0.21 69.49zm140.55-147.42c-0.18-4.51 3.26-9.08 7.26-9.64l120.27-16.9c46.81-6.59 83.73 26.84 90.19 72.72 6.7 47.65-14.85 91.58-58.73 112.27l54.65 107.71c3.05 5.48 0 13.16-6.63 14.1l-57.47 8.06c-3.12 0.43-6-1-6.79-3.13l-53.12-112.87-19.6 2.77-0.08 115.86c0.19 4.52-3.26 9.08-7.27 9.64l-55.23 7.73c-4.46 0.62-7.71-3-7.42-7.59zm118.64 110.53c20.94-2.94 33.33-24.68 30.32-46.05-2.19-15.59-12-27.37-28.05-25.11l-51.25 7.19v70.86zm158.43-149.47c-0.18-4.51 3.25-9.08 7.27-9.64l55.69-7.82c4-0.58 7.24 3.07 7.42 7.58v300.72c0.21 4.52-3.26 9.08-7.27 9.64l-55.66 7.83c-4 0.56-7.26-3.05-7.43-7.58zm144.76-20.33c-0.18-4.51 3.25-9.08 7.27-9.66l99.33-14c70.4-9.9 130.06 49.41 139.76 118.44 13.59 96.68-45.59 186.29-139.59 199.51l-99.8 14c-4 0.56-7.24-3.05-7-7.64zm103.31 227.59c45.88-6.46 77.61-58.6 69.41-117-5.88-41.87-33.3-72.09-69.38-67l-33.41 4.7v184zm198.7-270c-0.18-4.49 3.28-9.08 7.27-9.64l167.94-23.59c4.44-0.62 7.71 3 7.86 7.51l-0.3 49.57c0.19 4.51-2.81 9-7.27 9.64l-106 14.9-0.24 56.38 86.4-12.15c4-0.58 7.69 3 7.86 7.51l-0.29 49.57c-0.22 5-3.71 9.14-7.74 9.7l-86 12.09v61.32l106-14.9c4.44-0.62 7.26 3.07 7.43 7.58l0.11 49.51c0.21 4.52-3.25 9.08-7.69 9.7l-167.89 23.56c-4.46 0.62-7.71-3-7.43-7.58z" fill="#fff"/>
 <g transform="rotate(-7.85 7861.6 396.69)" aria-label="INTEGR ATING DIVERSITY">
  <path d="m18.397-85.813q0.12601-1.0081 0.75606-1.6381 0.75606-0.75606 1.6381-0.75606h12.349q0.88207 0 1.3861 0.75606 0.63005 0.63005 0.37803 1.6381l-11.719 83.419q-0.12601 1.0081-0.88207 1.7641-0.63005 0.63005-1.5121 0.63005h-12.349q-0.88207 0-1.5121-0.63005-0.50404-0.75606-0.25202-1.7641z"/>
  <path d="m57.655-87.199q0.12601-1.0081 0.75606-1.6381 0.75606-0.63005 1.6381-0.63005h3.2763l38.433 54.436h0.12601l6.8045-50.782q0.12601-1.0081 0.75606-1.6381 0.63005-0.75606 1.6381-0.75606h12.223q0.88207 0 1.3861 0.75606 0.63005 0.63005 0.50404 1.6381l-11.971 84.805q-0.12601 1.0081-0.88207 1.6381-0.63005 0.63005-1.5121 0.63005h-3.4023l-38.307-56.074h-0.12601l-6.8045 52.42q-0.12601 1.0081-0.88207 1.7641-0.63005 0.63005-1.6381 0.63005h-12.097q-0.75606 0-1.3861-0.63005-0.50404-0.63005-0.37803-1.5121z"/>
  <path d="m154.92-73.086h-16.633q-1.0081 0-1.5121-0.63005-0.50404-0.75606-0.37803-1.7641l1.5121-10.333q0.12601-1.0081 0.75606-1.6381 0.75606-0.75606 1.6381-0.75606h50.026q1.0081 0 1.5121 0.75606 0.50404 0.63005 0.37803 1.6381l-1.5121 10.333q-0.12601 1.0081-0.88207 1.7641-0.63005 0.63005-1.6381 0.63005h-16.633l-9.9548 70.692q-0.12601 1.0081-0.88207 1.7641-0.75606 0.63005-1.6381 0.63005h-12.223q-0.88207 0-1.5121-0.63005-0.50404-0.75606-0.37803-1.7641z"/>
  <path d="m205.2-85.813q0.12601-1.0081 0.75606-1.6381 0.75606-0.75606 1.6381-0.75606h46.624q1.0081 0 1.5121 0.75606 0.50404 0.63005 0.37803 1.6381l-1.5121 10.333q-0.12601 1.0081-0.88207 1.7641-0.63005 0.63005-1.6381 0.63005h-32.259l-2.8982 20.666h26.714q0.88207 0 1.3861 0.75606 0.63005 0.63005 0.50404 1.6381l-1.5121 10.459q-0.25202 1.0081-1.0081 1.7641-0.63005 0.63005-1.5121 0.63005h-26.714l-3.1502 22.052h32.385q1.0081 0 1.3861 0.75606 0.50404 0.63005 0.37803 1.6381l-1.3861 10.333q-0.12601 1.0081-0.88207 1.7641-0.63005 0.63005-1.6381 0.63005h-46.624q-1.0081 0-1.5121-0.63005-0.50404-0.75606-0.25202-1.7641z"/>
  <path d="m261.89-37.929q0-11.089 3.6543-20.54t9.9548-16.255q6.3005-6.9306 14.869-10.837 8.6947-3.9063 18.523-3.9063 8.5687 0 14.995 3.1503 6.4265 3.1502 11.215 8.8207 0.63005 0.75606 0.50404 1.7641t-1.0081 1.7641l-6.6785 6.5525q-2.3942 1.7641-4.1583 0-2.5202-2.3942-6.1745-4.2843-3.6543-2.0162-9.5768-2.0162-5.6704 0-10.837 2.7722-5.0404 2.6462-8.9467 7.3086t-6.1745 10.711-2.2682 12.853q0 5.0404 1.5121 9.5768 1.5121 4.5364 4.0323 7.9386 2.6462 3.4023 6.1745 5.4184 3.6543 2.0162 7.8126 2.0162 4.4104 0 7.6866-0.88207 3.4023-1.0081 5.1664-2.1422l1.5121-11.089h-8.0646q-1.0081 0-1.5121-0.63005-0.50404-0.63005-0.37803-1.6381l1.3861-9.8288q0.37803-2.3942 2.5202-2.3942h22.304q0.88207 0 1.3861 0.75606 0.50404 0.63005 0.37803 1.6381l-4.1583 30.242q-0.25202 1.5121-0.88207 2.3942-0.50404 0.88207-1.1341 1.5121-0.50404 0.37803-2.6462 1.7641-2.0162 1.3861-5.6704 2.8982-3.5283 1.3861-8.5687 2.5202-4.9144 1.2601-11.341 1.2601-7.6866 0-14.239-3.0242-6.4265-3.1503-11.215-8.4427-4.6624-5.2924-7.3086-12.349-2.6462-7.1826-2.6462-15.373z"/>
  <path d="m356.06-85.813q0.12601-1.0081 0.75606-1.6381 0.75606-0.75606 1.6381-0.75606h33.267q4.6624 0 8.5687 1.8902 3.9063 1.7641 6.6785 5.0404 2.8982 3.1502 4.4104 7.4346 1.6381 4.2843 1.6381 9.1987 0 11.593-5.5444 18.902-5.4184 7.3086-14.491 10.207l10.333 32.259q0.37803 1.2601-0.25202 2.2682-0.50404 1.0081-1.8902 1.0081h-11.971q-1.0081 0-1.7641-0.37803-0.75606-0.50404-1.0081-1.6381l-9.1987-32.511h-11.971l-4.5364 32.133q-0.12601 1.0081-0.88207 1.7641-0.63005 0.63005-1.5121 0.63005h-12.223q-1.0081 0-1.5121-0.63005-0.50404-0.75606-0.25202-1.7641zm26.966 37.803q3.0242 0 5.4184-1.1341 2.3942-1.2601 4.1583-3.1502 1.7641-2.0162 2.6462-4.6624 1.0081-2.6462 1.0081-5.6704 0-4.2843-2.3942-7.3086-2.2682-3.1502-5.7965-3.1502h-17.263l-3.5283 25.076z"/>
  <path d="m413.67 0q-1.3861 0-1.7641-1.0081t0.25202-2.2682l47.38-84.805q0.75606-1.3861 2.1422-1.3861h1.1341q1.2601 0 1.7641 1.3861l23.186 84.805q0.37803 1.2601-0.37803 2.2682-0.63005 1.0081-2.0162 1.0081h-10.963q-2.7722 0-3.2763-2.5202l-3.1502-13.987h-31.376l-7.3086 13.987q-0.50404 1.0081-1.5121 1.7641-1.0081 0.75606-2.5202 0.75606zm50.278-30.116-5.9225-27.47h-0.25202l-13.735 27.47z"/>
  <path d="m515.49-73.086h-16.633q-1.0081 0-1.5121-0.63005-0.50404-0.75606-0.37803-1.7641l1.5121-10.333q0.12601-1.0081 0.75606-1.6381 0.75606-0.75606 1.6381-0.75606h50.026q1.0081 0 1.5121 0.75606 0.50404 0.63005 0.37803 1.6381l-1.5121 10.333q-0.12601 1.0081-0.88207 1.7641-0.63005 0.63005-1.6381 0.63005h-16.633l-9.9548 70.692q-0.12601 1.0081-0.88207 1.7641-0.75606 0.63005-1.6381 0.63005h-12.223q-0.88207 0-1.5121-0.63005-0.50404-0.75606-0.37803-1.7641z" style=""/>
  <path d="m565.77-85.813q0.12601-1.0081 0.75606-1.6381 0.75606-0.75606 1.6381-0.75606h12.349q0.88207 0 1.3861 0.75606 0.63005 0.63005 0.37803 1.6381l-11.719 83.419q-0.12601 1.0081-0.88207 1.7641-0.63005 0.63005-1.5121 0.63005h-12.349q-0.88207 0-1.5121-0.63005-0.50404-0.75606-0.25202-1.7641z" style=""/>
  <path d="m605.03-87.199q0.12601-1.0081 0.75606-1.6381 0.75606-0.63005 1.6381-0.63005h3.2763l38.433 54.436h0.12601l6.8045-50.782q0.12601-1.0081 0.75606-1.6381 0.63005-0.75606 1.6381-0.75606h12.223q0.88207 0 1.3861 0.75606 0.63005 0.63005 0.50404 1.6381l-11.971 84.805q-0.12601 1.0081-0.88207 1.6381-0.63005 0.63005-1.5121 0.63005h-3.4023l-38.307-56.074h-0.12601l-6.8045 52.42q-0.12601 1.0081-0.88207 1.7641-0.63005 0.63005-1.6381 0.63005h-12.097q-0.75606 0-1.3861-0.63005-0.50404-0.63005-0.37803-1.5121z" style=""/>
  <path d="m683.01-37.929q0-11.089 3.6543-20.54t9.9548-16.255q6.3005-6.9306 14.869-10.837 8.6947-3.9063 18.523-3.9063 8.5687 0 14.995 3.1503 6.4265 3.1502 11.215 8.8207 0.63005 0.75606 0.50404 1.7641t-1.0081 1.7641l-6.6785 6.5525q-2.3942 1.7641-4.1583 0-2.5202-2.3942-6.1745-4.2843-3.6543-2.0162-9.5768-2.0162-5.6704 0-10.837 2.7722-5.0404 2.6462-8.9467 7.3086t-6.1745 10.711-2.2682 12.853q0 5.0404 1.5121 9.5768 1.5121 4.5364 4.0323 7.9386 2.6462 3.4023 6.1745 5.4184 3.6543 2.0162 7.8126 2.0162 4.4104 0 7.6866-0.88207 3.4023-1.0081 5.1664-2.1422l1.5121-11.089h-8.0646q-1.0081 0-1.5121-0.63005-0.50404-0.63005-0.37803-1.6381l1.3861-9.8288q0.37803-2.3942 2.5202-2.3942h22.304q0.88207 0 1.3861 0.75606 0.50404 0.63005 0.37803 1.6381l-4.1583 30.242q-0.25202 1.5121-0.88207 2.3942-0.50404 0.88207-1.1341 1.5121-0.50404 0.37803-2.6462 1.7641-2.0162 1.3861-5.6704 2.8982-3.5283 1.3861-8.5687 2.5202-4.9144 1.2601-11.341 1.2601-7.6866 0-14.239-3.0242-6.4265-3.1503-11.215-8.4427-4.6624-5.2924-7.3086-12.349-2.6462-7.1826-2.6462-15.373z" style=""/>
  <path d="m805.48-85.813q0.12601-1.0081 0.75606-1.6381 0.75606-0.75606 1.6381-0.75606h27.218q7.4346 0 13.735 3.1502 6.3005 3.0242 10.837 8.3167t7.0566 12.223 2.5202 14.617q0 10.207-3.5283 19.28-3.5283 9.0727-9.8288 15.877-6.1745 6.8045-14.743 10.837-8.4427 3.9063-18.397 3.9063h-27.344q-0.88207 0-1.3861-0.63005-0.50404-0.75606-0.25202-1.7641zm18.145 70.44q5.7965 0 10.837-2.5202 5.1664-2.6462 8.9467-7.0566 3.9063-4.5364 6.0485-10.585 2.2682-6.1745 2.2682-13.231 0-5.1664-1.3861-9.5768t-4.0323-7.6866-6.3005-5.0404q-3.6543-1.8902-8.1906-1.8902h-11.845l-8.0646 57.587z" style=""/>
  <path d="m891.62-85.813q0.12601-1.0081 0.75606-1.6381 0.75606-0.75606 1.6381-0.75606h12.349q0.88207 0 1.3861 0.75606 0.63005 0.63005 0.37803 1.6381l-11.719 83.419q-0.12601 1.0081-0.88207 1.7641-0.63005 0.63005-1.5121 0.63005h-12.349q-0.88207 0-1.5121-0.63005-0.50404-0.75606-0.25202-1.7641z" style=""/>
  <path d="m919.29-84.931q-0.37803-1.2601 0.37803-2.2682t2.0162-1.0081h12.475q0.63005 0 1.1341 0.50404 0.50404 0.37803 0.63005 0.88207l12.979 52.672h0.50404l27.974-52.672q0.25202-0.50404 0.75606-0.88207 0.50404-0.50404 1.2601-0.50404h14.113q1.3861 0 1.7641 1.0081t-0.25202 2.2682l-47.38 84.805q-0.75606 1.3861-2.1422 1.3861h-1.1341q-1.2601 0-1.7641-1.3861z" style=""/>
  <path d="m1006.8-85.813q0.126-1.0081 0.756-1.6381 0.7561-0.75606 1.6382-0.75606h46.624q1.008 0 1.5121 0.75606 0.504 0.63005 0.378 1.6381l-1.5121 10.333q-0.126 1.0081-0.8821 1.7641-0.63 0.63005-1.6381 0.63005h-32.259l-2.8982 20.666h26.714q0.8821 0 1.3861 0.75606 0.6301 0.63005 0.5041 1.6381l-1.5121 10.459q-0.2521 1.0081-1.0081 1.7641-0.6301 0.63005-1.5121 0.63005h-26.714l-3.1502 22.052h32.385q1.008 0 1.3861 0.75606 0.504 0.63005 0.378 1.6381l-1.3861 10.333q-0.126 1.0081-0.8821 1.7641-0.63 0.63005-1.6381 0.63005h-46.624q-1.0081 0-1.5121-0.63005-0.50404-0.75606-0.25202-1.7641z" style=""/>
  <path d="m1075.5-85.813q0.126-1.0081 0.7561-1.6381 0.756-0.75606 1.6381-0.75606h33.267q4.6624 0 8.5687 1.8902 3.9063 1.7641 6.6785 5.0404 2.8983 3.1502 4.4104 7.4346 1.6381 4.2843 1.6381 9.1987 0 11.593-5.5444 18.902-5.4185 7.3086-14.491 10.207l10.333 32.259q0.3781 1.2601-0.252 2.2682-0.504 1.0081-1.8901 1.0081h-11.971q-1.0081 0-1.7641-0.37803-0.7561-0.50404-1.0081-1.6381l-9.1987-32.511h-11.971l-4.5363 32.133q-0.126 1.0081-0.8821 1.7641-0.6301 0.63005-1.5121 0.63005h-12.223q-1.0081 0-1.5121-0.63005-0.5041-0.75606-0.252-1.7641zm26.966 37.803q3.0243 0 5.4185-1.1341 2.3942-1.2601 4.1583-3.1502 1.7641-2.0162 2.6462-4.6624 1.0081-2.6462 1.0081-5.6704 0-4.2843-2.3942-7.3086-2.2682-3.1502-5.7965-3.1502h-17.263l-3.5283 25.076z" style=""/>
  <path d="m1139-8.5687q-0.63-0.63005-0.882-1.5121-0.126-0.88207 0.882-2.2682l4.9144-7.1826q0.8821-1.3861 2.0162-1.2601t1.8901 0.75606q0.6301 0.63005 2.0162 1.7641 1.5121 1.0081 3.5283 2.1422 2.1421 1.0081 4.6623 1.8902 2.5202 0.75606 5.4185 0.75606 2.1421 0 4.1583-0.75606t3.5283-2.1422q1.6381-1.5121 2.5202-3.4023 1.0081-2.0162 1.0081-4.4104 0-4.1583-2.7723-7.1826-2.7722-3.1502-8.0646-6.6785-3.1502-2.0162-6.4265-4.4104-3.1503-2.5202-5.7965-5.5444t-4.2843-6.6785q-1.6381-3.7803-1.6381-8.5687 0-4.6624 1.6381-9.3247 1.6381-4.7884 5.1664-8.4427 3.5283-3.7803 8.8207-6.0485 5.4184-2.3942 12.853-2.3942 4.4104 0 8.0647 1.0081 3.7803 1.0081 6.6785 2.3942 3.0242 1.2601 4.9144 2.6462 2.0161 1.3861 2.7722 2.1422 2.2682 2.2682 0.378 5.0404l-4.9144 6.9306q-1.6381 2.3942-4.4103 0.25202-0.7561-0.63005-2.1422-1.5121-1.3861-1.0081-3.2762-1.8902-1.8902-0.88207-4.1584-1.5121-2.2681-0.63005-4.6623-0.63005t-4.4104 0.88207q-1.8901 0.75606-3.4023 2.1422-1.3861 1.3861-2.1421 3.1502-0.7561 1.7641-0.7561 3.6543 0 3.7803 2.6462 6.3005t8.3167 6.3005q3.1502 2.1422 6.5525 4.5364t6.1745 5.5444q2.8982 3.1502 4.7884 7.1826 1.8901 3.9063 1.8901 9.0727 0 5.5444-2.1421 10.459-2.0162 4.9144-5.9225 8.6947-3.9063 3.6543-9.5768 5.7965-5.5444 2.1422-12.475 2.1422-4.9144 0-8.9467-1.2601-4.0323-1.1341-7.1825-2.7722-3.0243-1.6381-5.0404-3.2763-2.0162-1.6381-2.7723-2.5202z" style=""/>
  <path d="m1218-85.813q0.126-1.0081 0.756-1.6381 0.7561-0.75606 1.6382-0.75606h12.349q0.8821 0 1.3861 0.75606 0.6301 0.63005 0.3781 1.6381l-11.719 83.419q-0.126 1.0081-0.882 1.7641-0.6301 0.63005-1.5121 0.63005h-12.349q-0.8821 0-1.5121-0.63005-0.5041-0.75606-0.2521-1.7641z" style=""/>
  <path d="m1264.1-73.086h-16.633q-1.0081 0-1.5121-0.63005-0.504-0.75606-0.378-1.7641l1.5121-10.333q0.126-1.0081 0.756-1.6381 0.7561-0.75606 1.6382-0.75606h50.026q1.0081 0 1.5122 0.75606 0.504 0.63005 0.378 1.6381l-1.5121 10.333q-0.126 1.0081-0.8821 1.7641-0.63 0.63005-1.6381 0.63005h-16.633l-9.9548 70.692q-0.126 1.0081-0.8821 1.7641-0.7561 0.63005-1.6381 0.63005h-12.223q-0.8821 0-1.5121-0.63005-0.5041-0.75606-0.3781-1.7641z"/>
  <path d="m1326.4-42.465-19.658-42.717q-0.6301-1.2601 0-2.1422 0.7561-0.88207 2.1422-0.88207h11.845q1.0081 0 1.5121 0.37803 0.5041 0.37803 0.8821 1.3861l13.231 28.982 21.17-29.612q0.252-0.37803 0.7561-0.75606 0.504-0.37803 1.2601-0.37803h13.861q1.3861 0 1.6381 1.0081 0.378 1.0081-0.504 2.2682l-31.754 42.339-5.5445 40.197q-0.126 1.0081-0.8821 1.7641-0.756 0.63005-1.6381 0.63005h-12.223q-1.008 0-1.5121-0.63005-0.378-0.75606-0.252-1.7641z" style=""/>
 </g>
 <g transform="rotate(-7.85 7842.4 431.04)" fill="#fdfdfc" aria-label="INTEGR ATING DIVERSITY">
  <g fill="#fdfdfc">
   <path d="m18.397-85.813q0.12601-1.0081 0.75606-1.6381 0.75606-0.75606 1.6381-0.75606h12.349q0.88207 0 1.3861 0.75606 0.63005 0.63005 0.37803 1.6381l-11.719 83.419q-0.12601 1.0081-0.88207 1.7641-0.63005 0.63005-1.5121 0.63005h-12.349q-0.88207 0-1.5121-0.63005-0.50404-0.75606-0.25202-1.7641z"/>
   <path d="m57.655-87.199q0.12601-1.0081 0.75606-1.6381 0.75606-0.63005 1.6381-0.63005h3.2763l38.433 54.436h0.12601l6.8045-50.782q0.12601-1.0081 0.75606-1.6381 0.63005-0.75606 1.6381-0.75606h12.223q0.88207 0 1.3861 0.75606 0.63005 0.63005 0.50404 1.6381l-11.971 84.805q-0.12601 1.0081-0.88207 1.6381-0.63005 0.63005-1.5121 0.63005h-3.4023l-38.307-56.074h-0.12601l-6.8045 52.42q-0.12601 1.0081-0.88207 1.7641-0.63005 0.63005-1.6381 0.63005h-12.097q-0.75606 0-1.3861-0.63005-0.50404-0.63005-0.37803-1.5121z"/>
   <path d="m154.92-73.086h-16.633q-1.0081 0-1.5121-0.63005-0.50404-0.75606-0.37803-1.7641l1.5121-10.333q0.12601-1.0081 0.75606-1.6381 0.75606-0.75606 1.6381-0.75606h50.026q1.0081 0 1.5121 0.75606 0.50404 0.63005 0.37803 1.6381l-1.5121 10.333q-0.12601 1.0081-0.88207 1.7641-0.63005 0.63005-1.6381 0.63005h-16.633l-9.9548 70.692q-0.12601 1.0081-0.88207 1.7641-0.75606 0.63005-1.6381 0.63005h-12.223q-0.88207 0-1.5121-0.63005-0.50404-0.75606-0.37803-1.7641z"/>
   <path d="m205.2-85.813q0.12601-1.0081 0.75606-1.6381 0.75606-0.75606 1.6381-0.75606h46.624q1.0081 0 1.5121 0.75606 0.50404 0.63005 0.37803 1.6381l-1.5121 10.333q-0.12601 1.0081-0.88207 1.7641-0.63005 0.63005-1.6381 0.63005h-32.259l-2.8982 20.666h26.714q0.88207 0 1.3861 0.75606 0.63005 0.63005 0.50404 1.6381l-1.5121 10.459q-0.25202 1.0081-1.0081 1.7641-0.63005 0.63005-1.5121 0.63005h-26.714l-3.1502 22.052h32.385q1.0081 0 1.3861 0.75606 0.50404 0.63005 0.37803 1.6381l-1.3861 10.333q-0.12601 1.0081-0.88207 1.7641-0.63005 0.63005-1.6381 0.63005h-46.624q-1.0081 0-1.5121-0.63005-0.50404-0.75606-0.25202-1.7641z"/>
   <path d="m261.89-37.929q0-11.089 3.6543-20.54t9.9548-16.255q6.3005-6.9306 14.869-10.837 8.6947-3.9063 18.523-3.9063 8.5687 0 14.995 3.1503 6.4265 3.1502 11.215 8.8207 0.63005 0.75606 0.50404 1.7641t-1.0081 1.7641l-6.6785 6.5525q-2.3942 1.7641-4.1583 0-2.5202-2.3942-6.1745-4.2843-3.6543-2.0162-9.5768-2.0162-5.6704 0-10.837 2.7722-5.0404 2.6462-8.9467 7.3086t-6.1745 10.711-2.2682 12.853q0 5.0404 1.5121 9.5768 1.5121 4.5364 4.0323 7.9386 2.6462 3.4023 6.1745 5.4184 3.6543 2.0162 7.8126 2.0162 4.4104 0 7.6866-0.88207 3.4023-1.0081 5.1664-2.1422l1.5121-11.089h-8.0646q-1.0081 0-1.5121-0.63005-0.50404-0.63005-0.37803-1.6381l1.3861-9.8288q0.37803-2.3942 2.5202-2.3942h22.304q0.88207 0 1.3861 0.75606 0.50404 0.63005 0.37803 1.6381l-4.1583 30.242q-0.25202 1.5121-0.88207 2.3942-0.50404 0.88207-1.1341 1.5121-0.50404 0.37803-2.6462 1.7641-2.0162 1.3861-5.6704 2.8982-3.5283 1.3861-8.5687 2.5202-4.9144 1.2601-11.341 1.2601-7.6866 0-14.239-3.0242-6.4265-3.1503-11.215-8.4427-4.6624-5.2924-7.3086-12.349-2.6462-7.1826-2.6462-15.373z"/>
   <path d="m356.06-85.813q0.12601-1.0081 0.75606-1.6381 0.75606-0.75606 1.6381-0.75606h33.267q4.6624 0 8.5687 1.8902 3.9063 1.7641 6.6785 5.0404 2.8982 3.1502 4.4104 7.4346 1.6381 4.2843 1.6381 9.1987 0 11.593-5.5444 18.902-5.4184 7.3086-14.491 10.207l10.333 32.259q0.37803 1.2601-0.25202 2.2682-0.50404 1.0081-1.8902 1.0081h-11.971q-1.0081 0-1.7641-0.37803-0.75606-0.50404-1.0081-1.6381l-9.1987-32.511h-11.971l-4.5364 32.133q-0.12601 1.0081-0.88207 1.7641-0.63005 0.63005-1.5121 0.63005h-12.223q-1.0081 0-1.5121-0.63005-0.50404-0.75606-0.25202-1.7641zm26.966 37.803q3.0242 0 5.4184-1.1341 2.3942-1.2601 4.1583-3.1502 1.7641-2.0162 2.6462-4.6624 1.0081-2.6462 1.0081-5.6704 0-4.2843-2.3942-7.3086-2.2682-3.1502-5.7965-3.1502h-17.263l-3.5283 25.076z"/>
  </g>
  <path d="m413.67 0q-1.3861 0-1.7641-1.0081t0.25202-2.2682l47.38-84.805q0.75606-1.3861 2.1422-1.3861h1.1341q1.2601 0 1.7641 1.3861l23.186 84.805q0.37803 1.2601-0.37803 2.2682-0.63005 1.0081-2.0162 1.0081h-10.963q-2.7722 0-3.2763-2.5202l-3.1502-13.987h-31.376l-7.3086 13.987q-0.50404 1.0081-1.5121 1.7641-1.0081 0.75606-2.5202 0.75606zm50.278-30.116-5.9225-27.47h-0.25202l-13.735 27.47z"/>
  <path d="m515.49-73.086h-16.633q-1.0081 0-1.5121-0.63005-0.50404-0.75606-0.37803-1.7641l1.5121-10.333q0.12601-1.0081 0.75606-1.6381 0.75606-0.75606 1.6381-0.75606h50.026q1.0081 0 1.5121 0.75606 0.50404 0.63005 0.37803 1.6381l-1.5121 10.333q-0.12601 1.0081-0.88207 1.7641-0.63005 0.63005-1.6381 0.63005h-16.633l-9.9548 70.692q-0.12601 1.0081-0.88207 1.7641-0.75606 0.63005-1.6381 0.63005h-12.223q-0.88207 0-1.5121-0.63005-0.50404-0.75606-0.37803-1.7641z" style=""/>
  <path d="m565.77-85.813q0.12601-1.0081 0.75606-1.6381 0.75606-0.75606 1.6381-0.75606h12.349q0.88207 0 1.3861 0.75606 0.63005 0.63005 0.37803 1.6381l-11.719 83.419q-0.12601 1.0081-0.88207 1.7641-0.63005 0.63005-1.5121 0.63005h-12.349q-0.88207 0-1.5121-0.63005-0.50404-0.75606-0.25202-1.7641z" style=""/>
  <path d="m605.03-87.199q0.12601-1.0081 0.75606-1.6381 0.75606-0.63005 1.6381-0.63005h3.2763l38.433 54.436h0.12601l6.8045-50.782q0.12601-1.0081 0.75606-1.6381 0.63005-0.75606 1.6381-0.75606h12.223q0.88207 0 1.3861 0.75606 0.63005 0.63005 0.50404 1.6381l-11.971 84.805q-0.12601 1.0081-0.88207 1.6381-0.63005 0.63005-1.5121 0.63005h-3.4023l-38.307-56.074h-0.12601l-6.8045 52.42q-0.12601 1.0081-0.88207 1.7641-0.63005 0.63005-1.6381 0.63005h-12.097q-0.75606 0-1.3861-0.63005-0.50404-0.63005-0.37803-1.5121z" style=""/>
  <path d="m683.01-37.929q0-11.089 3.6543-20.54t9.9548-16.255q6.3005-6.9306 14.869-10.837 8.6947-3.9063 18.523-3.9063 8.5687 0 14.995 3.1503 6.4265 3.1502 11.215 8.8207 0.63005 0.75606 0.50404 1.7641t-1.0081 1.7641l-6.6785 6.5525q-2.3942 1.7641-4.1583 0-2.5202-2.3942-6.1745-4.2843-3.6543-2.0162-9.5768-2.0162-5.6704 0-10.837 2.7722-5.0404 2.6462-8.9467 7.3086t-6.1745 10.711-2.2682 12.853q0 5.0404 1.5121 9.5768 1.5121 4.5364 4.0323 7.9386 2.6462 3.4023 6.1745 5.4184 3.6543 2.0162 7.8126 2.0162 4.4104 0 7.6866-0.88207 3.4023-1.0081 5.1664-2.1422l1.5121-11.089h-8.0646q-1.0081 0-1.5121-0.63005-0.50404-0.63005-0.37803-1.6381l1.3861-9.8288q0.37803-2.3942 2.5202-2.3942h22.304q0.88207 0 1.3861 0.75606 0.50404 0.63005 0.37803 1.6381l-4.1583 30.242q-0.25202 1.5121-0.88207 2.3942-0.50404 0.88207-1.1341 1.5121-0.50404 0.37803-2.6462 1.7641-2.0162 1.3861-5.6704 2.8982-3.5283 1.3861-8.5687 2.5202-4.9144 1.2601-11.341 1.2601-7.6866 0-14.239-3.0242-6.4265-3.1503-11.215-8.4427-4.6624-5.2924-7.3086-12.349-2.6462-7.1826-2.6462-15.373z" style=""/>
  <path d="m805.48-85.813q0.12601-1.0081 0.75606-1.6381 0.75606-0.75606 1.6381-0.75606h27.218q7.4346 0 13.735 3.1502 6.3005 3.0242 10.837 8.3167t7.0566 12.223 2.5202 14.617q0 10.207-3.5283 19.28-3.5283 9.0727-9.8288 15.877-6.1745 6.8045-14.743 10.837-8.4427 3.9063-18.397 3.9063h-27.344q-0.88207 0-1.3861-0.63005-0.50404-0.75606-0.25202-1.7641zm18.145 70.44q5.7965 0 10.837-2.5202 5.1664-2.6462 8.9467-7.0566 3.9063-4.5364 6.0485-10.585 2.2682-6.1745 2.2682-13.231 0-5.1664-1.3861-9.5768t-4.0323-7.6866-6.3005-5.0404q-3.6543-1.8902-8.1906-1.8902h-11.845l-8.0646 57.587z" style=""/>
  <path d="m891.62-85.813q0.12601-1.0081 0.75606-1.6381 0.75606-0.75606 1.6381-0.75606h12.349q0.88207 0 1.3861 0.75606 0.63005 0.63005 0.37803 1.6381l-11.719 83.419q-0.12601 1.0081-0.88207 1.7641-0.63005 0.63005-1.5121 0.63005h-12.349q-0.88207 0-1.5121-0.63005-0.50404-0.75606-0.25202-1.7641z" style=""/>
  <path d="m919.29-84.931q-0.37803-1.2601 0.37803-2.2682t2.0162-1.0081h12.475q0.63005 0 1.1341 0.50404 0.50404 0.37803 0.63005 0.88207l12.979 52.672h0.50404l27.974-52.672q0.25202-0.50404 0.75606-0.88207 0.50404-0.50404 1.2601-0.50404h14.113q1.3861 0 1.7641 1.0081t-0.25202 2.2682l-47.38 84.805q-0.75606 1.3861-2.1422 1.3861h-1.1341q-1.2601 0-1.7641-1.3861z" style=""/>
  <path d="m1006.8-85.813q0.126-1.0081 0.756-1.6381 0.7561-0.75606 1.6382-0.75606h46.624q1.008 0 1.5121 0.75606 0.504 0.63005 0.378 1.6381l-1.5121 10.333q-0.126 1.0081-0.8821 1.7641-0.63 0.63005-1.6381 0.63005h-32.259l-2.8982 20.666h26.714q0.8821 0 1.3861 0.75606 0.6301 0.63005 0.5041 1.6381l-1.5121 10.459q-0.2521 1.0081-1.0081 1.7641-0.6301 0.63005-1.5121 0.63005h-26.714l-3.1502 22.052h32.385q1.008 0 1.3861 0.75606 0.504 0.63005 0.378 1.6381l-1.3861 10.333q-0.126 1.0081-0.8821 1.7641-0.63 0.63005-1.6381 0.63005h-46.624q-1.0081 0-1.5121-0.63005-0.50404-0.75606-0.25202-1.7641z" style=""/>
  <path d="m1075.5-85.813q0.126-1.0081 0.7561-1.6381 0.756-0.75606 1.6381-0.75606h33.267q4.6624 0 8.5687 1.8902 3.9063 1.7641 6.6785 5.0404 2.8983 3.1502 4.4104 7.4346 1.6381 4.2843 1.6381 9.1987 0 11.593-5.5444 18.902-5.4185 7.3086-14.491 10.207l10.333 32.259q0.3781 1.2601-0.252 2.2682-0.504 1.0081-1.8901 1.0081h-11.971q-1.0081 0-1.7641-0.37803-0.7561-0.50404-1.0081-1.6381l-9.1987-32.511h-11.971l-4.5363 32.133q-0.126 1.0081-0.8821 1.7641-0.6301 0.63005-1.5121 0.63005h-12.223q-1.0081 0-1.5121-0.63005-0.5041-0.75606-0.252-1.7641zm26.966 37.803q3.0243 0 5.4185-1.1341 2.3942-1.2601 4.1583-3.1502 1.7641-2.0162 2.6462-4.6624 1.0081-2.6462 1.0081-5.6704 0-4.2843-2.3942-7.3086-2.2682-3.1502-5.7965-3.1502h-17.263l-3.5283 25.076z" style=""/>
  <path d="m1139-8.5687q-0.63-0.63005-0.882-1.5121-0.126-0.88207 0.882-2.2682l4.9144-7.1826q0.8821-1.3861 2.0162-1.2601t1.8901 0.75606q0.6301 0.63005 2.0162 1.7641 1.5121 1.0081 3.5283 2.1422 2.1421 1.0081 4.6623 1.8902 2.5202 0.75606 5.4185 0.75606 2.1421 0 4.1583-0.75606t3.5283-2.1422q1.6381-1.5121 2.5202-3.4023 1.0081-2.0162 1.0081-4.4104 0-4.1583-2.7723-7.1826-2.7722-3.1502-8.0646-6.6785-3.1502-2.0162-6.4265-4.4104-3.1503-2.5202-5.7965-5.5444t-4.2843-6.6785q-1.6381-3.7803-1.6381-8.5687 0-4.6624 1.6381-9.3247 1.6381-4.7884 5.1664-8.4427 3.5283-3.7803 8.8207-6.0485 5.4184-2.3942 12.853-2.3942 4.4104 0 8.0647 1.0081 3.7803 1.0081 6.6785 2.3942 3.0242 1.2601 4.9144 2.6462 2.0161 1.3861 2.7722 2.1422 2.2682 2.2682 0.378 5.0404l-4.9144 6.9306q-1.6381 2.3942-4.4103 0.25202-0.7561-0.63005-2.1422-1.5121-1.3861-1.0081-3.2762-1.8902-1.8902-0.88207-4.1584-1.5121-2.2681-0.63005-4.6623-0.63005t-4.4104 0.88207q-1.8901 0.75606-3.4023 2.1422-1.3861 1.3861-2.1421 3.1502-0.7561 1.7641-0.7561 3.6543 0 3.7803 2.6462 6.3005t8.3167 6.3005q3.1502 2.1422 6.5525 4.5364t6.1745 5.5444q2.8982 3.1502 4.7884 7.1826 1.8901 3.9063 1.8901 9.0727 0 5.5444-2.1421 10.459-2.0162 4.9144-5.9225 8.6947-3.9063 3.6543-9.5768 5.7965-5.5444 2.1422-12.475 2.1422-4.9144 0-8.9467-1.2601-4.0323-1.1341-7.1825-2.7722-3.0243-1.6381-5.0404-3.2763-2.0162-1.6381-2.7723-2.5202z" style=""/>
  <path d="m1218-85.813q0.126-1.0081 0.756-1.6381 0.7561-0.75606 1.6382-0.75606h12.349q0.8821 0 1.3861 0.75606 0.6301 0.63005 0.3781 1.6381l-11.719 83.419q-0.126 1.0081-0.882 1.7641-0.6301 0.63005-1.5121 0.63005h-12.349q-0.8821 0-1.5121-0.63005-0.5041-0.75606-0.2521-1.7641z" style=""/>
  <path d="m1264.1-73.086h-16.633q-1.0081 0-1.5121-0.63005-0.504-0.75606-0.378-1.7641l1.5121-10.333q0.126-1.0081 0.756-1.6381 0.7561-0.75606 1.6382-0.75606h50.026q1.0081 0 1.5122 0.75606 0.504 0.63005 0.378 1.6381l-1.5121 10.333q-0.126 1.0081-0.8821 1.7641-0.63 0.63005-1.6381 0.63005h-16.633l-9.9548 70.692q-0.126 1.0081-0.8821 1.7641-0.7561 0.63005-1.6381 0.63005h-12.223q-0.8821 0-1.5121-0.63005-0.5041-0.75606-0.3781-1.7641z"/>
  <path d="m1326.4-42.465-19.658-42.717q-0.6301-1.2601 0-2.1422 0.7561-0.88207 2.1422-0.88207h11.845q1.0081 0 1.5121 0.37803 0.5041 0.37803 0.8821 1.3861l13.231 28.982 21.17-29.612q0.252-0.37803 0.7561-0.75606 0.504-0.37803 1.2601-0.37803h13.861q1.3861 0 1.6381 1.0081 0.378 1.0081-0.504 2.2682l-31.754 42.339-5.5445 40.197q-0.126 1.0081-0.8821 1.7641-0.756 0.63005-1.6381 0.63005h-12.223q-1.008 0-1.5121-0.63005-0.378-0.75606-0.252-1.7641z" style=""/>
 </g>
</svg>
