<svg version="1.1" viewBox="0 0 413.67 98.5" xmlns="http://www.w3.org/2000/svg">
 <defs>
  <style>.cls-1{fill:#fff;}</style>
 </defs>
 <title>Risorsa 6</title>
 <g data-name="Livello 2">
  <g id="HomePage_Fissa" data-name="HomePage Fissa">
   <path class="cls-1" d="M49.4,1.66A1.22,1.22,0,0,1,50.49.57H53a.88.88,0,0,1,.8,1.09L48.48,39.57a1.22,1.22,0,0,1-1.09,1.09H44.87a.88.88,0,0,1-.8-1.09Z"/>
   <path class="cls-1" d="M66.4,1a1.25,1.25,0,0,1,1.26-1H69.1L87.54,32.13h.06L91.89,1.66A1.31,1.31,0,0,1,93.21.57H95a1,1,0,0,1,1,1.09L90.57,40.2a1.25,1.25,0,0,1-1.26,1H87.88L69.38,8.53h-.11l-4.18,31a1.36,1.36,0,0,1-1.32,1.09H61.94A.92.92,0,0,1,61,39.57Z"/>
   <path class="cls-1" d="M101.62,34.65l.92-1c.69-.69,1.2-1,1.83-.29a10.8,10.8,0,0,0,8.25,4c3.84,0,7.45-3.27,7.45-6.93s-2.69-5.73-7.45-8.48c-4.58-2.63-7.67-5.15-7.67-10.42C104.94,6.76,108,0,117.37,0a13.29,13.29,0,0,1,8.88,2.92c.29.23.8.86.06,1.95l-.63.92c-.63.74-1.2,1.09-1.89.52A12.25,12.25,0,0,0,117,3.84a7.52,7.52,0,0,0-7.67,7.22c0,3.21,2.18,5.33,5.78,7.27,5.5,3,9.68,5.78,9.68,11.68,0,6.36-4.58,11.22-12.54,11.22a14.27,14.27,0,0,1-10.71-4.93A1.05,1.05,0,0,1,101.62,34.65Z"/>
   <path class="cls-1" d="M138.32,1.66A1.22,1.22,0,0,1,139.41.57h2.52a.88.88,0,0,1,.8,1.09l-5.33,37.91a1.22,1.22,0,0,1-1.09,1.09H133.8a.88.88,0,0,1-.8-1.09Z"/>
   <path class="cls-1" d="M155.27,1.66A1.22,1.22,0,0,1,156.36.57h20.44a.85.85,0,0,1,.8,1.09l-.23,1.66a1.22,1.22,0,0,1-1.14,1.09h-17l-2,14h14.49a.88.88,0,0,1,.8,1.09l-.23,1.66a1.17,1.17,0,0,1-1.09,1.09H156.76l-2.06,14.6h17a.85.85,0,0,1,.8,1.09l-.23,1.66a1.22,1.22,0,0,1-1.14,1.09H150.75a.85.85,0,0,1-.8-1.09Z"/>
   <path class="cls-1" d="M191.81.8A1.13,1.13,0,0,1,193,0h.8c.57,0,1,.29,1,.63l5.56,31.44h.11L215,.63A1.14,1.14,0,0,1,216.09,0h.8c.57,0,1,.34,1,.8l1.26,38.49a1.25,1.25,0,0,1-1.32,1.37h-2c-.69,0-1-.4-1-.8l-.57-28.63h-.06L200.74,40.6a1.28,1.28,0,0,1-1.09.63h-.74c-.63,0-1-.29-1-.63l-5.27-29.89h-.06L183.9,39.86a1.18,1.18,0,0,1-1.2.8h-2c-.86,0-1.09-.63-.86-1.37Z"/>
   <path class="cls-1" d="M234.35,1.66A1.22,1.22,0,0,1,235.44.57h20.44a.85.85,0,0,1,.8,1.09l-.23,1.66a1.22,1.22,0,0,1-1.14,1.09h-17l-2,14h14.49a.88.88,0,0,1,.8,1.09l-.23,1.66a1.17,1.17,0,0,1-1.09,1.09H235.84l-2.06,14.6h17a.85.85,0,0,1,.8,1.09l-.23,1.66a1.22,1.22,0,0,1-1.14,1.09H229.83a.85.85,0,0,1-.8-1.09Z"/>
   <path class="cls-1" d="M280.73,1.66A1.27,1.27,0,0,1,281.88.57h11.51c5.73,0,9.91,5.27,9.91,11.05,0,7.9-6.07,14.49-13.46,14.49h-8.13l-1.89,13.46a1.33,1.33,0,0,1-1.14,1.09h-2.41a.91.91,0,0,1-.86-1.09ZM290.13,22c4.41,0,8.76-4.52,8.76-10,0-4-2.75-7.1-6.36-7.1h-7.85L282.28,22Z"/>
   <path class="cls-1" d="M313.6,1.66A1.22,1.22,0,0,1,314.69.57h20.44a.85.85,0,0,1,.8,1.09l-.23,1.66a1.22,1.22,0,0,1-1.14,1.09h-17l-2,14h14.49a.88.88,0,0,1,.8,1.09l-.23,1.66a1.17,1.17,0,0,1-1.09,1.09H315.09L313,36.82h17a.85.85,0,0,1,.8,1.09l-.23,1.66a1.22,1.22,0,0,1-1.14,1.09H309.08a.85.85,0,0,1-.8-1.09Z"/>
   <path class="cls-1" d="M346.13,1.66A1.22,1.22,0,0,1,347.21.57H360.1c6.3,0,10.37,5,10.37,11.17a13.66,13.66,0,0,1-9.39,12.77l5,14.49a1.16,1.16,0,0,1-1,1.66h-2.81a.84.84,0,0,1-.74-.52L356.83,25h-9.62l-2.06,14.6a1.22,1.22,0,0,1-1.09,1.09H341.6a.85.85,0,0,1-.8-1.09Zm11.05,19.53c4.87,0,8.76-4.18,8.76-9.39,0-3.78-2.63-7-6.41-7h-9.33l-2.35,16.44Z"/>
   <path class="cls-1" d="M5.33,58.92a1.22,1.22,0,0,1,1.14-1.09h7.1a.91.91,0,0,1,.8,1.09L10.09,89.5H21.77c.57,0,.86.52.8,1.09l-.86,6.24a1.22,1.22,0,0,1-1.14,1.09H.87A.91.91,0,0,1,0,96.84Z"/>
   <path class="cls-1" d="M27.66,73.13a.79.79,0,0,1,.29-1.2c.63-.4,4.07-3,4.7-6.87a6.91,6.91,0,0,1-2.41.4,3.39,3.39,0,0,1-3.38-3.55,4.81,4.81,0,0,1,5-4.64c1.78,0,4.07,1.43,4.07,5.33,0,6.82-4.93,10.48-6.41,11.57-.52.4-.86.29-1,.06Z"/>
   <path class="cls-1" d="M43,58.92A1.22,1.22,0,0,1,44,57.84h7.27a1,1,0,0,1,.86,1.09L48.91,82.58c-.57,4,1.43,6.76,4.58,6.76,3.44,0,6.24-2.75,6.82-6.76l3.26-23.65a1.17,1.17,0,0,1,1.09-1.09h7.22a1,1,0,0,1,.86,1.09L69.41,83C68.09,92.31,61.85,98.5,52.35,98.5c-7.67,0-14-6.76-12.71-15.46Z"/>
   <path class="cls-1" d="M99,57.26a16.68,16.68,0,0,1,11.85,5.38,1,1,0,0,1-.06,1.55l-4.7,4.64a1.07,1.07,0,0,1-1.49.06,8.89,8.89,0,0,0-6.19-2.52c-5.55,0-10.94,6.07-10.94,13.17,0,5.33,3.26,9.79,7.79,9.79A7.16,7.16,0,0,0,99,88.42l.46-3.32H96.78a.87.87,0,0,1-.86-1l.8-5.67a1.22,1.22,0,0,1,1.14-1.09h10.71a.91.91,0,0,1,.8,1.09L107.26,93.8a1.23,1.23,0,0,1-.57.92A27,27,0,0,1,93.4,98.5c-8.88,0-15.86-8.13-15.86-18.27C77.54,67.63,86.53,57.26,99,57.26Z"/>
   <path class="cls-1" d="M120.37,58.92a1.22,1.22,0,0,1,1.09-1.09h7.27a1,1,0,0,1,.86,1.09l-3.27,23.65c-.57,4,1.43,6.76,4.58,6.76,3.44,0,6.24-2.75,6.82-6.76L141,58.92a1.17,1.17,0,0,1,1.09-1.09h7.22a1,1,0,0,1,.86,1.09L146.83,83c-1.32,9.28-7.56,15.46-17.07,15.46-7.67,0-14-6.76-12.71-15.46Z"/>
   <path class="cls-1" d="M150,96.44l21.71-38.54a1.16,1.16,0,0,1,1-.63h.52a.86.86,0,0,1,.8.63l10.77,38.54a1.13,1.13,0,0,1-1.09,1.49h-6.47c-1,0-1.6-.29-1.83-1.43l-1-4.52H161.72l-2.23,4.58a2.39,2.39,0,0,1-2.29,1.37h-6.53C149.86,97.92,149.58,97.18,150,96.44ZM172.2,84.18l-1.78-9.56h-.06l-4.58,9.56Z"/>
   <path class="cls-1" d="M211.37,57.26a16.68,16.68,0,0,1,11.85,5.38,1,1,0,0,1-.06,1.55l-4.7,4.64a1.07,1.07,0,0,1-1.49.06,8.89,8.89,0,0,0-6.19-2.52c-5.55,0-10.94,6.07-10.94,13.17,0,5.33,3.26,9.79,7.79,9.79a7.16,7.16,0,0,0,3.67-.92l.46-3.32h-2.63a.87.87,0,0,1-.86-1l.8-5.67a1.22,1.22,0,0,1,1.14-1.09h10.71a.91.91,0,0,1,.8,1.09L219.61,93.8a1.23,1.23,0,0,1-.57.92,27,27,0,0,1-13.29,3.78c-8.88,0-15.86-8.13-15.86-18.27C189.89,67.63,198.88,57.26,211.37,57.26Z"/>
   <path class="cls-1" d="M233.29,58.92a1.22,1.22,0,0,1,1.14-1.09h7.1a.91.91,0,0,1,.8,1.09L238,89.5h11.68c.57,0,.86.52.8,1.09l-.86,6.24a1.22,1.22,0,0,1-1.14,1.09h-19.7a.91.91,0,0,1-.86-1.09Z"/>
   <path class="cls-1" d="M261.41,58.92a1.22,1.22,0,0,1,1.09-1.09h7.16a.91.91,0,0,1,.8,1.09l-5.33,37.91A1.22,1.22,0,0,1,264,97.92h-7.16a.91.91,0,0,1-.8-1.09Z"/>
   <path class="cls-1" d="M271,96.44l21.71-38.54a1.16,1.16,0,0,1,1-.63h.52a.86.86,0,0,1,.8.63l10.77,38.54a1.13,1.13,0,0,1-1.09,1.49h-6.47c-1,0-1.6-.29-1.83-1.43l-1-4.52H282.77l-2.23,4.58a2.39,2.39,0,0,1-2.29,1.37h-6.53C270.91,97.92,270.63,97.18,271,96.44Zm22.22-12.26-1.78-9.56h-.06l-4.58,9.56Z"/>
   <path class="cls-1" d="M316.78,58.29a1.22,1.22,0,0,1,1.14-1h1.26l17.07,22.11h.06l2.75-20.45a1.17,1.17,0,0,1,1.09-1.09h7a.92.92,0,0,1,.92,1l-5.38,38.66a1.16,1.16,0,0,1-1.09,1h-1.43L323.08,75.7H323l-2.58,21.13a1.28,1.28,0,0,1-1.15,1.09h-7a.91.91,0,0,1-.86-1Z"/>
   <path class="cls-1" d="M350.34,96.84l.12-1,16.78-29.55H357.09a1,1,0,0,1-.86-1.09l.92-6.24a1.28,1.28,0,0,1,1.15-1.09H380.4a.91.91,0,0,1,.86,1.09l-.11.74L364.94,89.5h10c.57,0,.86.52.8,1.09l-.86,6.24a1.28,1.28,0,0,1-1.15,1.09H351.14A.91.91,0,0,1,350.34,96.84Z"/>
   <path class="cls-1" d="M378.85,96.44l21.71-38.54a1.16,1.16,0,0,1,1-.63H402a.86.86,0,0,1,.8.63l10.77,38.54a1.13,1.13,0,0,1-1.09,1.49h-6.47c-1,0-1.6-.29-1.83-1.43l-1-4.52H390.59l-2.23,4.58a2.39,2.39,0,0,1-2.29,1.37h-6.53C378.74,97.92,378.45,97.18,378.85,96.44Zm22.22-12.26-1.78-9.56h-.06l-4.58,9.56Z"/>
  </g>
 </g>
</svg>
