<svg version="1.1" viewBox="0 0 382.98 104.03" xmlns="http://www.w3.org/2000/svg">
 <defs>
  <style>.cls-1{fill:#fff;}</style>
 </defs>
 <title>Risorsa 8</title>
 <g data-name="Livello 2">
  <g id="HomePage_Fissa" data-name="HomePage Fissa">
   <path class="cls-1" d="M9.2,4.23H.79a.82.82,0,0,1-.77-1L.24,1.59a1.17,1.17,0,0,1,1-1H22.4a.82.82,0,0,1,.77,1L23,3.19a1.18,1.18,0,0,1-1.1,1H13.44L8.71,38a1.28,1.28,0,0,1-1.1,1H5.3a.91.91,0,0,1-.83-1Z"/>
   <path class="cls-1" d="M24.88,19.85C26.48,8.85,35.11,0,45.5,0c9.68,0,16.88,8.85,15.29,19.85S50.67,39.59,40.17,39.59C30.49,39.59,23.4,30.85,24.88,19.85Zm32,0c1.26-8.74-4.07-16-11.82-16s-15,7.26-16.28,16,4.07,15.89,11.82,15.89S55.68,28.6,56.89,19.85Z"/>
   <path class="cls-1" d="M88.46,0A14.44,14.44,0,0,1,99.79,5.11a1.08,1.08,0,0,1-.17,1.54L97.7,8.25c-.55.44-.88.33-1.43-.28A11.66,11.66,0,0,0,88,4c-8.36,0-15.78,8.25-15.78,17.87,0,7.31,4.51,13.69,11.27,13.69a19,19,0,0,0,8.74-2.31l1.1-7.86H87.91a.77.77,0,0,1-.77-1l.27-1.87a1.13,1.13,0,0,1,1.1-1H97.2a.83.83,0,0,1,.77.93L96.21,35.2a1.09,1.09,0,0,1-.55.88A26.25,26.25,0,0,1,82.9,39.59c-8.47,0-15.29-7.64-15.29-17.1C67.62,10.12,76.58,0,88.46,0Z"/>
   <path class="cls-1" d="M111.12,1.59a1.17,1.17,0,0,1,1-1H131.8a.82.82,0,0,1,.77,1l-.22,1.59a1.18,1.18,0,0,1-1.1,1H115L113,17.65H127a.84.84,0,0,1,.77,1l-.22,1.59a1.12,1.12,0,0,1-1,1H112.55l-2,14H126.9a.82.82,0,0,1,.77,1L127.45,38a1.18,1.18,0,0,1-1.1,1H106.78a.82.82,0,0,1-.77-1Z"/>
   <path class="cls-1" d="M146.26,4.23h-8.41a.82.82,0,0,1-.77-1l.22-1.59a1.17,1.17,0,0,1,1-1h21.12a.82.82,0,0,1,.77,1L160,3.19a1.18,1.18,0,0,1-1.1,1H150.5L145.77,38a1.28,1.28,0,0,1-1.1,1h-2.31a.91.91,0,0,1-.82-1Z"/>
   <path class="cls-1" d="M167.38,1.59a1.28,1.28,0,0,1,1.1-1h2.36a.88.88,0,0,1,.82,1l-2.31,16.06h19.47l2.25-16.06a1.22,1.22,0,0,1,1.1-1h2.36a.84.84,0,0,1,.77,1L190.21,38a1.17,1.17,0,0,1-1,1H186.8a.88.88,0,0,1-.82-1l2.36-16.66H168.87L166.5,38a1.12,1.12,0,0,1-1,1h-2.36a.91.91,0,0,1-.83-1Z"/>
   <path class="cls-1" d="M207.37,1.59a1.17,1.17,0,0,1,1-1H228a.82.82,0,0,1,.77,1l-.22,1.59a1.18,1.18,0,0,1-1.1,1H211.22l-1.92,13.42h13.91a.84.84,0,0,1,.77,1l-.22,1.59a1.12,1.12,0,0,1-1,1H208.8l-2,14h16.33a.82.82,0,0,1,.77,1L223.7,38a1.18,1.18,0,0,1-1.1,1H203a.82.82,0,0,1-.77-1Z"/>
   <path class="cls-1" d="M238.61,1.59a1.17,1.17,0,0,1,1-1H252c6,0,10,4.84,10,10.72a13.11,13.11,0,0,1-9,12.26l4.78,13.91a1.11,1.11,0,0,1-.94,1.59h-2.69a.81.81,0,0,1-.71-.5L248.89,24h-9.24l-2,14a1.17,1.17,0,0,1-1,1h-2.36a.82.82,0,0,1-.77-1Zm10.61,18.75c4.67,0,8.41-4,8.41-9,0-3.63-2.53-6.76-6.16-6.76h-9l-2.25,15.78Z"/>
   <path class="cls-1" d="M286.68,1.59a1.17,1.17,0,0,1,1-1h19.63a.82.82,0,0,1,.77,1l-.22,1.59a1.18,1.18,0,0,1-1.1,1H290.53L288.38,19.3H302.3a.84.84,0,0,1,.77,1l-.22,1.59a1.22,1.22,0,0,1-1.1,1H287.89l-2.14,15a1.17,1.17,0,0,1-1,1h-2.36a.82.82,0,0,1-.77-1Z"/>
   <path class="cls-1" d="m311.65 19.85c1.59-11 10.23-19.85 20.62-19.85 9.68 0 16.88 8.85 15.29 19.85s-10.12 19.74-20.62 19.74c-9.68 0-16.78-8.74-15.29-19.74zm32 0c1.26-8.74-4.07-16-11.82-16s-15 7.26-16.28 16 4.07 15.89 11.82 15.89 15.07-7.14 16.28-15.89z"/>
   <path class="cls-1" d="M359.61,1.59a1.17,1.17,0,0,1,1-1H373c6,0,10,4.84,10,10.72a13.11,13.11,0,0,1-9,12.26l4.78,13.91a1.11,1.11,0,0,1-.94,1.59h-2.69a.81.81,0,0,1-.71-.5L369.89,24h-9.24l-2,14a1.17,1.17,0,0,1-1,1h-2.36a.82.82,0,0,1-.77-1Zm10.61,18.75c4.67,0,8.41-4,8.41-9,0-3.63-2.53-6.76-6.16-6.76h-9l-2.25,15.78Z"/>
   <path class="cls-1" d="M74.38,55.69a1.17,1.17,0,0,1,1-1H96.16a.88.88,0,0,1,.82,1l-.88,6a1.12,1.12,0,0,1-1,1H82l-1,6.82H91.65a.91.91,0,0,1,.82,1l-.88,6a1.22,1.22,0,0,1-1.1,1H79.88l-1,7.42H91.92c.55,0,.82.5.77,1l-.83,6a1.18,1.18,0,0,1-1.1,1H70a.82.82,0,0,1-.77-1Z"/>
   <path class="cls-1" d="m120.85 54.09c8.52 0 15.34 7.7 15.34 17.21a22.6 22.6 0 0 1-11.44 20.07l4.89 11a1.17 1.17 0 0 1-1 1.65h-7.42a0.78 0.78 0 0 1-0.71-0.55l-3.85-9.84c-0.39 0-0.77 0.05-1.15 0.05-8.47 0-15.34-7.59-15.34-17 0.01-12.47 9.24-22.59 20.68-22.59zm6.32 18.26c0-5.17-3.08-9.46-7.48-9.46-5.33 0-10.5 5.77-10.5 12.59 0 5.11 3.08 9.4 7.42 9.4 5.45 0.01 10.57-5.71 10.57-12.53z"/>
   <path class="cls-1" d="M145.88,55.69a1.17,1.17,0,0,1,1-1h7a.91.91,0,0,1,.83,1L151.6,78.4c-.55,3.85,1.38,6.49,4.4,6.49,3.3,0,6-2.64,6.54-6.49l3.13-22.71a1.12,1.12,0,0,1,1-1h6.93a.91.91,0,0,1,.82,1l-3.19,23.15C170,87.75,164,93.69,154.9,93.69c-7.37,0-13.42-6.49-12.21-14.85Z"/>
   <path class="cls-1" d="M174.32,91.71l20.84-37a1.12,1.12,0,0,1,.93-.61h.5a.83.83,0,0,1,.77.61l10.34,37a1.08,1.08,0,0,1-1,1.43h-6.21c-1,0-1.54-.28-1.76-1.37l-.94-4.34H185.59l-2.14,4.4a2.29,2.29,0,0,1-2.2,1.32H175C174.21,93.14,173.93,92.42,174.32,91.71Zm21.34-11.77-1.7-9.18h-.06l-4.4,9.18Z"/>
   <path class="cls-1" d="M218.2,55.69a1.18,1.18,0,0,1,1.1-1h6.82a.87.87,0,0,1,.77,1l-4.12,29.37H234c.55,0,.82.5.77,1l-.83,6a1.18,1.18,0,0,1-1.1,1H213.91a.88.88,0,0,1-.83-1Z"/>
   <path class="cls-1" d="M245.21,55.69a1.17,1.17,0,0,1,1-1h6.87a.87.87,0,0,1,.77,1l-5.11,36.41a1.17,1.17,0,0,1-1,1h-6.87a.87.87,0,0,1-.77-1Z"/>
   <path class="cls-1" d="M267,62.73h-6.71a.88.88,0,0,1-.82-1l.88-6a1.17,1.17,0,0,1,1-1H283.6a.88.88,0,0,1,.82,1l-.88,6a1.12,1.12,0,0,1-1,1h-6.76l-4.12,29.37a1.22,1.22,0,0,1-1.1,1h-6.82a.91.91,0,0,1-.82-1Z"/>
   <path class="cls-1" d="M295.86,74.61l-8.14-18.37a1.17,1.17,0,0,1,1-1.59h6.93a.75.75,0,0,1,.77.5L301,66.41l7.75-11.27a1,1,0,0,1,.88-.5h7.75c.83,0,1.1.88.6,1.59L304.5,74.55l-2.42,17.54a1.22,1.22,0,0,1-1.1,1h-6.82c-.55,0-.83-.5-.77-1Z"/>
  </g>
 </g>
</svg>
