<svg version="1.1" viewBox="0 0 351.19 98.5" xmlns="http://www.w3.org/2000/svg">
 <defs>
  <style>.cls-1{fill:#fff;}</style>
 </defs>
 <title>Risorsa 8</title>
 <g data-name="Livello 2">
  <g id="HomePage_Fissa" data-name="HomePage Fissa">
   <path class="cls-1" d="M18.16,1.66A1.22,1.22,0,0,1,19.25.57h2.52a.88.88,0,0,1,.8,1.09L17.24,39.57a1.22,1.22,0,0,1-1.09,1.09H13.64a.88.88,0,0,1-.8-1.09Z"/>
   <path class="cls-1" d="M35.16,1a1.25,1.25,0,0,1,1.26-1h1.43L56.3,32.13h.06L60.65,1.66A1.31,1.31,0,0,1,62,.57H63.8a1,1,0,0,1,1,1.09L59.33,40.2a1.24,1.24,0,0,1-1.26,1H56.64L38.14,8.53H38l-4.18,31a1.36,1.36,0,0,1-1.32,1.09H30.7a.92.92,0,0,1-.92-1.09Z"/>
   <path class="cls-1" d="M70.38,34.65l.92-1c.69-.69,1.2-1,1.83-.29a10.8,10.8,0,0,0,8.25,4c3.84,0,7.45-3.27,7.45-6.93S86.13,24.74,81.38,22c-4.58-2.63-7.67-5.15-7.67-10.42C73.7,6.76,76.74,0,86.13,0A13.28,13.28,0,0,1,95,2.92c.29.23.8.86.06,1.95l-.63.92c-.63.74-1.2,1.09-1.89.52a12.25,12.25,0,0,0-6.82-2.46,7.52,7.52,0,0,0-7.67,7.22c0,3.21,2.18,5.33,5.78,7.27,5.5,3,9.68,5.78,9.68,11.68,0,6.36-4.58,11.22-12.54,11.22a14.27,14.27,0,0,1-10.71-4.93A1.05,1.05,0,0,1,70.38,34.65Z"/>
   <path class="cls-1" d="M107.09,1.66A1.22,1.22,0,0,1,108.18.57h2.52a.88.88,0,0,1,.8,1.09l-5.33,37.91a1.22,1.22,0,0,1-1.09,1.09h-2.52a.88.88,0,0,1-.8-1.09Z"/>
   <path class="cls-1" d="M124,1.66A1.22,1.22,0,0,1,125.12.57h20.44a.85.85,0,0,1,.8,1.09l-.23,1.66A1.23,1.23,0,0,1,145,4.41H128l-2,14h14.49a.88.88,0,0,1,.8,1.09l-.23,1.66A1.17,1.17,0,0,1,140,22.22H125.52l-2.06,14.6h17a.85.85,0,0,1,.8,1.09L141,39.57a1.22,1.22,0,0,1-1.15,1.09H119.51a.85.85,0,0,1-.8-1.09Z"/>
   <path class="cls-1" d="M160.57.8a1.13,1.13,0,0,1,1.2-.8h.8c.57,0,1,.29,1,.63l5.56,31.44h.12L183.76.63A1.14,1.14,0,0,1,184.85,0h.8a.93.93,0,0,1,1,.8l1.26,38.49a1.25,1.25,0,0,1-1.32,1.37h-2c-.69,0-1-.4-1-.8L183,11.22H183L169.5,40.6a1.28,1.28,0,0,1-1.09.63h-.75c-.63,0-1-.29-1-.63l-5.27-29.89h-.06l-8.65,29.15a1.18,1.18,0,0,1-1.2.8h-2c-.86,0-1.09-.63-.86-1.37Z"/>
   <path class="cls-1" d="M203.12,1.66A1.22,1.22,0,0,1,204.2.57h20.45a.85.85,0,0,1,.8,1.09l-.23,1.66a1.22,1.22,0,0,1-1.14,1.09h-17l-2,14h14.49a.88.88,0,0,1,.8,1.09l-.23,1.66a1.17,1.17,0,0,1-1.09,1.09H204.6l-2.06,14.6h17a.85.85,0,0,1,.8,1.09l-.23,1.66A1.22,1.22,0,0,1,219,40.66H198.59a.85.85,0,0,1-.8-1.09Z"/>
   <path class="cls-1" d="M249.5,1.66A1.27,1.27,0,0,1,250.64.57h11.51c5.73,0,9.91,5.27,9.91,11.05,0,7.9-6.07,14.49-13.46,14.49h-8.13l-1.89,13.46a1.33,1.33,0,0,1-1.14,1.09H245a.91.91,0,0,1-.86-1.09ZM258.89,22c4.41,0,8.76-4.52,8.76-10,0-4-2.75-7.1-6.36-7.1h-7.85L251,22Z"/>
   <path class="cls-1" d="M282.36,1.66A1.22,1.22,0,0,1,283.45.57H303.9a.85.85,0,0,1,.8,1.09l-.23,1.66a1.23,1.23,0,0,1-1.15,1.09h-17l-2,14h14.49a.88.88,0,0,1,.8,1.09l-.23,1.66a1.17,1.17,0,0,1-1.09,1.09H283.85l-2.06,14.6h17a.85.85,0,0,1,.8,1.09l-.23,1.66a1.22,1.22,0,0,1-1.15,1.09H277.84a.85.85,0,0,1-.8-1.09Z"/>
   <path class="cls-1" d="M314.89,1.66A1.22,1.22,0,0,1,316,.57h12.89c6.3,0,10.36,5,10.36,11.17a13.66,13.66,0,0,1-9.39,12.77l5,14.49a1.16,1.16,0,0,1-1,1.66H331a.84.84,0,0,1-.74-.52L325.6,25H316l-2.06,14.6a1.22,1.22,0,0,1-1.09,1.09h-2.46a.85.85,0,0,1-.8-1.09Zm11.05,19.53c4.87,0,8.76-4.18,8.76-9.39,0-3.78-2.64-7-6.41-7H319l-2.35,16.44Z"/>
   <path class="cls-1" d="M5.33,58.92a1.22,1.22,0,0,1,1.14-1.09h7.1a.91.91,0,0,1,.8,1.09L10.09,89.5H21.77c.57,0,.86.52.8,1.09l-.86,6.24a1.23,1.23,0,0,1-1.15,1.09H.87A.91.91,0,0,1,0,96.84Z"/>
   <path class="cls-1" d="M25.2,96.44,46.9,57.89a1.16,1.16,0,0,1,1-.63h.52a.86.86,0,0,1,.8.63L60,96.44a1.13,1.13,0,0,1-1.09,1.49H52.4c-1,0-1.6-.29-1.83-1.43L49.6,92H36.94l-2.23,4.58a2.39,2.39,0,0,1-2.29,1.37H25.89C25.08,97.92,24.8,97.18,25.2,96.44ZM47.42,84.18l-1.77-9.56h-.06L41,84.18Z"/>
   <path class="cls-1" d="M84.87,58.92A1.22,1.22,0,0,1,86,57.84H98.73c9,0,15.52,8.53,15.52,17.41,0,12.43-9,22.68-21.13,22.68H80.29a.84.84,0,0,1-.74-1.09Zm9,30.53c5.9,0,10.82-6,10.82-13.52,0-5.38-2.92-9.68-7.56-9.68H92.83L89.56,89.45Z"/>
   <path class="cls-1" d="M124.84,58.92a1.22,1.22,0,0,1,1.09-1.09h7.16a.91.91,0,0,1,.8,1.09l-5.33,37.91a1.22,1.22,0,0,1-1.09,1.09h-7.16a.91.91,0,0,1-.8-1.09Z"/>
   <path class="cls-1" d="M139.49,59.32a1.18,1.18,0,0,1,1.09-1.49h7.67a.81.81,0,0,1,.8.63l4.53,20.9H154l10.42-20.9a1.11,1.11,0,0,1,.92-.63h8.25c.8,0,1.09.74.69,1.49L152.55,97.87a1,1,0,0,1-1,.63h-.52a.86.86,0,0,1-.8-.63Z"/>
   <path class="cls-1" d="M180.15,58.92a1.22,1.22,0,0,1,1.09-1.09h21.59a.91.91,0,0,1,.86,1.09l-.92,6.24a1.17,1.17,0,0,1-1.09,1.09H188.05l-1,7.1h11.11a1,1,0,0,1,.86,1.09l-.92,6.24a1.27,1.27,0,0,1-1.15,1.09H185.88l-1.09,7.73h13.63c.57,0,.86.52.8,1.09l-.86,6.24a1.23,1.23,0,0,1-1.15,1.09H175.63a.85.85,0,0,1-.8-1.09Z"/>
   <path class="cls-1" d="M212.45,58.92a1.22,1.22,0,0,1,1.09-1.09H229c6,0,10.08,4.87,10.08,10.77a13.25,13.25,0,0,1-9.39,13.11l5,14.55a1.22,1.22,0,0,1-1.09,1.66h-7.39a.79.79,0,0,1-.8-.52l-4.69-15.18h-2.52l-2.06,14.6A1.22,1.22,0,0,1,215,97.92h-7.1a.85.85,0,0,1-.8-1.09Zm13,16c2.69,0,4.64-2.52,4.64-5.27,0-2-1-3.67-3.09-3.67h-6.59L219.15,75Z"/>
   <path class="cls-1" d="M242.51,92.48l3.09-4.64a1.34,1.34,0,0,1,1.83-.34A12,12,0,0,0,254.08,90a3.51,3.51,0,0,0,3.66-3.49c-.06-2.06-1.32-3.61-3.78-5.21-3.61-2.41-8.53-6-8.53-12,0-6.19,4.29-12.08,13.57-12.08a17.39,17.39,0,0,1,10.88,4.18,1.46,1.46,0,0,1,.34,1.95l-3.61,4.41a1.44,1.44,0,0,1-1.83.29c-.4-.34-3.38-2.58-6.41-2.58-1.95,0-3.66,1.2-3.66,2.92,0,2,1.26,3.09,4.69,5.15,2.86,1.72,8.48,5.38,8.48,12.08S263.3,98.5,253.56,98.5c-6.07,0-10-3-11.05-4.41A1.22,1.22,0,0,1,242.51,92.48Z"/>
   <path class="cls-1" d="M279.84,58.92a1.22,1.22,0,0,1,1.09-1.09h7.16a.91.91,0,0,1,.8,1.09l-5.33,37.91a1.22,1.22,0,0,1-1.09,1.09h-7.16a.91.91,0,0,1-.8-1.09Z"/>
   <path class="cls-1" d="M302.52,66.25h-7a.91.91,0,0,1-.86-1.09l.92-6.24a1.22,1.22,0,0,1,1.09-1.09h23.14a.91.91,0,0,1,.86,1.09l-.92,6.24a1.17,1.17,0,0,1-1.09,1.09h-7l-4.29,30.58a1.27,1.27,0,0,1-1.15,1.09h-7.1a1,1,0,0,1-.86-1.09Z"/>
   <path class="cls-1" d="M316.38,96.44l21.71-38.54a1.16,1.16,0,0,1,1-.63h.52a.86.86,0,0,1,.8.63l10.77,38.54a1.13,1.13,0,0,1-1.09,1.49h-6.47c-1,0-1.6-.29-1.83-1.43l-1-4.52H328.12l-2.23,4.58a2.38,2.38,0,0,1-2.29,1.37h-6.53C316.26,97.92,316,97.18,316.38,96.44ZM338.6,84.18l-1.78-9.56h-.06l-4.58,9.56Zm-4.07-34.59c-.4-.23-.63-.86-.06-1.72l2.24-3.15a.86.86,0,0,1,1.37-.17l8.13,6a.77.77,0,0,1,.17,1.09L345,53.77a1,1,0,0,1-1.49.52Z"/>
  </g>
 </g>
</svg>
