<svg version="1.1" viewBox="0 0 326.41 98.5" xmlns="http://www.w3.org/2000/svg">
 <defs>
  <style>.cls-1{fill:#fff;}</style>
 </defs>
 <title>Risorsa 7</title>
 <g data-name="Livello 2">
  <g id="HomePage_Fissa" data-name="HomePage Fissa">
   <path class="cls-1" d="M5.35,1.66A1.22,1.22,0,0,1,6.43.57H9a.88.88,0,0,1,.8,1.09L4.43,39.57a1.22,1.22,0,0,1-1.09,1.09H.82A.88.88,0,0,1,0,39.57Z"/>
   <path class="cls-1" d="M22.35,1a1.25,1.25,0,0,1,1.26-1H25L43.48,32.13h.06L47.84,1.66A1.31,1.31,0,0,1,49.15.57H51a1,1,0,0,1,1,1.09L46.52,40.2a1.25,1.25,0,0,1-1.26,1H43.83L25.33,8.53h-.11L21,39.57a1.36,1.36,0,0,1-1.32,1.09H17.88A.92.92,0,0,1,17,39.57Z"/>
   <path class="cls-1" d="M57.57,34.65l.92-1c.69-.69,1.2-1,1.83-.29a10.8,10.8,0,0,0,8.25,4c3.84,0,7.45-3.27,7.45-6.93S73.32,24.74,68.56,22c-4.58-2.63-7.67-5.15-7.67-10.42C60.89,6.76,63.92,0,73.32,0a13.29,13.29,0,0,1,8.88,2.92c.29.23.8.86.06,1.95l-.63.92c-.63.74-1.2,1.09-1.89.52a12.25,12.25,0,0,0-6.82-2.46,7.52,7.52,0,0,0-7.67,7.22c0,3.21,2.18,5.33,5.78,7.27,5.5,3,9.68,5.78,9.68,11.68,0,6.36-4.58,11.22-12.54,11.22a14.27,14.27,0,0,1-10.71-4.93A1.05,1.05,0,0,1,57.57,34.65Z"/>
   <path class="cls-1" d="M94.27,1.66A1.22,1.22,0,0,1,95.36.57h2.52a.88.88,0,0,1,.8,1.09L93.36,39.57a1.22,1.22,0,0,1-1.09,1.09H89.75a.88.88,0,0,1-.8-1.09Z"/>
   <path class="cls-1" d="M111.22,1.66A1.22,1.22,0,0,1,112.31.57h20.44a.85.85,0,0,1,.8,1.09l-.23,1.66a1.22,1.22,0,0,1-1.14,1.09h-17l-2,14h14.49a.88.88,0,0,1,.8,1.09l-.23,1.66a1.17,1.17,0,0,1-1.09,1.09H112.71l-2.06,14.6h17a.85.85,0,0,1,.8,1.09l-.23,1.66a1.22,1.22,0,0,1-1.14,1.09H106.7a.85.85,0,0,1-.8-1.09Z"/>
   <path class="cls-1" d="M147.76.8A1.13,1.13,0,0,1,149,0h.8c.57,0,1,.29,1,.63l5.56,31.44h.11L170.95.63A1.14,1.14,0,0,1,172,0h.8c.57,0,1,.34,1,.8l1.26,38.49a1.25,1.25,0,0,1-1.32,1.37h-2c-.69,0-1-.4-1-.8l-.57-28.63h-.06L156.69,40.6a1.28,1.28,0,0,1-1.09.63h-.74c-.63,0-1-.29-1-.63l-5.27-29.89h-.06l-8.65,29.15a1.18,1.18,0,0,1-1.2.8h-2c-.86,0-1.09-.63-.86-1.37Z"/>
   <path class="cls-1" d="M190.3,1.66A1.22,1.22,0,0,1,191.39.57h20.44a.85.85,0,0,1,.8,1.09l-.23,1.66a1.22,1.22,0,0,1-1.14,1.09h-17l-2,14h14.49a.88.88,0,0,1,.8,1.09l-.23,1.66a1.17,1.17,0,0,1-1.09,1.09H191.79l-2.06,14.6h17a.85.85,0,0,1,.8,1.09l-.23,1.66a1.22,1.22,0,0,1-1.14,1.09H185.78a.85.85,0,0,1-.8-1.09Z"/>
   <path class="cls-1" d="M236.68,1.66A1.27,1.27,0,0,1,237.83.57h11.51c5.73,0,9.91,5.27,9.91,11.05,0,7.9-6.07,14.49-13.46,14.49h-8.13l-1.89,13.46a1.33,1.33,0,0,1-1.14,1.09h-2.41a.91.91,0,0,1-.86-1.09ZM246.07,22c4.41,0,8.76-4.52,8.76-10,0-4-2.75-7.1-6.36-7.1h-7.85L238.23,22Z"/>
   <path class="cls-1" d="M269.55,1.66A1.22,1.22,0,0,1,270.64.57h20.44a.85.85,0,0,1,.8,1.09l-.23,1.66a1.22,1.22,0,0,1-1.14,1.09h-17l-2,14H286a.88.88,0,0,1,.8,1.09l-.23,1.66a1.17,1.17,0,0,1-1.09,1.09H271L269,36.82h17a.85.85,0,0,1,.8,1.09l-.23,1.66a1.22,1.22,0,0,1-1.14,1.09H265a.85.85,0,0,1-.8-1.09Z"/>
   <path class="cls-1" d="M302.07,1.66A1.22,1.22,0,0,1,303.16.57H316c6.3,0,10.37,5,10.37,11.17A13.66,13.66,0,0,1,317,24.51L322,39a1.16,1.16,0,0,1-1,1.66h-2.81a.84.84,0,0,1-.74-.52L312.78,25h-9.62l-2.06,14.6A1.22,1.22,0,0,1,300,40.66h-2.46a.85.85,0,0,1-.8-1.09Zm11.05,19.53c4.87,0,8.76-4.18,8.76-9.39,0-3.78-2.63-7-6.41-7h-9.33l-2.35,16.44Z"/>
   <path class="cls-1" d="M14.68,58.92a1.22,1.22,0,0,1,1.09-1.09h7.16a.91.91,0,0,1,.8,1.09L18.4,96.84a1.22,1.22,0,0,1-1.09,1.09H10.15a.91.91,0,0,1-.8-1.09Z"/>
   <path class="cls-1" d="M34.43,58.92a1.23,1.23,0,0,1,1.15-1.09h7.1a.91.91,0,0,1,.8,1.09L39.19,89.5H50.87c.57,0,.86.52.8,1.09l-.86,6.24a1.22,1.22,0,0,1-1.14,1.09H30a.91.91,0,0,1-.86-1.09Z"/>
   <path class="cls-1" d="M76.52,58.92a1.22,1.22,0,0,1,1.09-1.09H93.07c6,0,10.08,4.87,10.08,10.77a13.26,13.26,0,0,1-9.39,13.11l5,14.55a1.22,1.22,0,0,1-1.09,1.66H90.27a.78.78,0,0,1-.8-.52l-4.7-15.18H82.25l-2.06,14.6a1.22,1.22,0,0,1-1.09,1.09H72a.85.85,0,0,1-.8-1.09Zm13,16c2.69,0,4.64-2.52,4.64-5.27,0-2-1-3.67-3.09-3.67H84.48L83.22,75Z"/>
   <path class="cls-1" d="M113.28,58.92a1.22,1.22,0,0,1,1.09-1.09h7.16a.91.91,0,0,1,.8,1.09L117,96.84a1.22,1.22,0,0,1-1.09,1.09h-7.16a.91.91,0,0,1-.8-1.09Z"/>
   <path class="cls-1" d="m126.34 92.48 3.09-4.64a1.34 1.34 0 0 1 1.83-0.34 12 12 0 0 0 6.65 2.5 3.51 3.51 0 0 0 3.67-3.49c-0.06-2.06-1.32-3.61-3.78-5.21-3.61-2.41-8.53-6-8.53-12 0-6.19 4.29-12.08 13.57-12.08a17.39 17.39 0 0 1 10.88 4.18 1.46 1.46 0 0 1 0.34 1.95l-3.61 4.41a1.44 1.44 0 0 1-1.83 0.29c-0.4-0.34-3.38-2.58-6.41-2.58-1.95 0-3.67 1.2-3.67 2.92 0 2 1.26 3.09 4.7 5.15 2.86 1.72 8.48 5.38 8.48 12.08s-4.59 12.88-14.33 12.88c-6.07 0-10-3-11.05-4.41a1.22 1.22 0 0 1 0-1.61z"/>
   <path class="cls-1" d="M163.67,58.92a1.23,1.23,0,0,1,1.15-1.09h12.6c5.73,0,9.91,5.27,9.91,11.34,0,7.62-6,14.2-13.46,14.2h-4.7l-1.89,13.46a1.27,1.27,0,0,1-1.14,1.09h-7c-.57,0-.86-.52-.8-1.09ZM174.5,75c2,0,4-2.29,4-5.21,0-2-1.14-3.55-2.69-3.55h-4.18L170.38,75Z"/>
   <path class="cls-1" d="M196,58.92a1.22,1.22,0,0,1,1.09-1.09h21.59a.91.91,0,0,1,.86,1.09l-.92,6.24a1.17,1.17,0,0,1-1.09,1.09H203.87l-1,7.1H214a1,1,0,0,1,.86,1.09l-.92,6.24a1.27,1.27,0,0,1-1.14,1.09H201.7l-1.09,7.73h13.63c.57,0,.86.52.8,1.09l-.86,6.24A1.23,1.23,0,0,1,213,97.92H191.45a.85.85,0,0,1-.8-1.09Z"/>
   <path class="cls-1" d="M231.19,66.25h-7a.91.91,0,0,1-.86-1.09l.92-6.24a1.22,1.22,0,0,1,1.09-1.09h23.14a.91.91,0,0,1,.86,1.09l-.92,6.24a1.17,1.17,0,0,1-1.09,1.09h-7L236,96.84a1.28,1.28,0,0,1-1.15,1.09h-7.1a1,1,0,0,1-.86-1.09Z"/>
   <path class="cls-1" d="M259.65,66.25h-7a.91.91,0,0,1-.86-1.09l.92-6.24a1.22,1.22,0,0,1,1.09-1.09h23.14a.91.91,0,0,1,.86,1.09l-.92,6.24a1.17,1.17,0,0,1-1.09,1.09h-7l-4.29,30.58a1.28,1.28,0,0,1-1.15,1.09h-7.1a1,1,0,0,1-.86-1.09Z"/>
   <path class="cls-1" d="m300.53 57.26c8.88 0 16 8 16 17.92-0.02 12.89-9.53 23.32-21.53 23.32-8.82 0-16-7.9-16-17.75 0-12.95 9.62-23.49 21.53-23.49zm6.59 19c0-5.38-3.21-9.85-7.79-9.85-5.55 0-10.94 6-10.94 13.11 0 5.33 3.21 9.79 7.73 9.79 5.67 0.02 11-5.93 11-13.03z"/>
  </g>
 </g>
</svg>
