<svg version="1.1" viewBox="0 0 382.98 93.69" xmlns="http://www.w3.org/2000/svg">
 <defs>
  <style>.cls-1{fill:#fff;}</style>
 </defs>
 <title>Risorsa 7</title>
 <g data-name="Livello 2">
  <g id="HomePage_Fissa" data-name="HomePage Fissa">
   <path class="cls-1" d="M9.2,4.23H.79a.82.82,0,0,1-.77-1L.24,1.59a1.17,1.17,0,0,1,1-1H22.4a.82.82,0,0,1,.77,1L23,3.19a1.18,1.18,0,0,1-1.1,1H13.44L8.71,38a1.28,1.28,0,0,1-1.1,1H5.3a.91.91,0,0,1-.83-1Z"/>
   <path class="cls-1" d="M24.88,19.85C26.48,8.85,35.11,0,45.5,0c9.68,0,16.88,8.85,15.29,19.85S50.67,39.59,40.17,39.59C30.49,39.59,23.4,30.85,24.88,19.85Zm32,0c1.26-8.74-4.07-16-11.82-16s-15,7.26-16.28,16,4.07,15.89,11.82,15.89S55.68,28.6,56.89,19.85Z"/>
   <path class="cls-1" d="M88.46,0A14.44,14.44,0,0,1,99.79,5.11a1.08,1.08,0,0,1-.17,1.54L97.7,8.25c-.55.44-.88.33-1.43-.28A11.66,11.66,0,0,0,88,4c-8.36,0-15.78,8.25-15.78,17.87,0,7.31,4.51,13.69,11.27,13.69a19,19,0,0,0,8.74-2.31l1.1-7.86H87.91a.77.77,0,0,1-.77-1l.27-1.87a1.13,1.13,0,0,1,1.1-1H97.2a.83.83,0,0,1,.77.93L96.21,35.2a1.09,1.09,0,0,1-.55.88A26.25,26.25,0,0,1,82.9,39.59c-8.47,0-15.29-7.64-15.29-17.1C67.62,10.12,76.58,0,88.46,0Z"/>
   <path class="cls-1" d="M111.12,1.59a1.17,1.17,0,0,1,1-1H131.8a.82.82,0,0,1,.77,1l-.22,1.59a1.18,1.18,0,0,1-1.1,1H115L113,17.65H127a.84.84,0,0,1,.77,1l-.22,1.59a1.12,1.12,0,0,1-1,1H112.55l-2,14H126.9a.82.82,0,0,1,.77,1L127.45,38a1.18,1.18,0,0,1-1.1,1H106.78a.82.82,0,0,1-.77-1Z"/>
   <path class="cls-1" d="M146.26,4.23h-8.41a.82.82,0,0,1-.77-1l.22-1.59a1.17,1.17,0,0,1,1-1h21.12a.82.82,0,0,1,.77,1L160,3.19a1.18,1.18,0,0,1-1.1,1H150.5L145.77,38a1.28,1.28,0,0,1-1.1,1h-2.31a.91.91,0,0,1-.82-1Z"/>
   <path class="cls-1" d="M167.38,1.59a1.28,1.28,0,0,1,1.1-1h2.36a.88.88,0,0,1,.82,1l-2.31,16.06h19.47l2.25-16.06a1.22,1.22,0,0,1,1.1-1h2.36a.84.84,0,0,1,.77,1L190.21,38a1.17,1.17,0,0,1-1,1H186.8a.88.88,0,0,1-.82-1l2.36-16.66H168.87L166.5,38a1.12,1.12,0,0,1-1,1h-2.36a.91.91,0,0,1-.83-1Z"/>
   <path class="cls-1" d="M207.37,1.59a1.17,1.17,0,0,1,1-1H228a.82.82,0,0,1,.77,1l-.22,1.59a1.18,1.18,0,0,1-1.1,1H211.22l-1.92,13.42h13.91a.84.84,0,0,1,.77,1l-.22,1.59a1.12,1.12,0,0,1-1,1H208.8l-2,14h16.33a.82.82,0,0,1,.77,1L223.7,38a1.18,1.18,0,0,1-1.1,1H203a.82.82,0,0,1-.77-1Z"/>
   <path class="cls-1" d="M238.61,1.59a1.17,1.17,0,0,1,1-1H252c6,0,10,4.84,10,10.72a13.11,13.11,0,0,1-9,12.26l4.78,13.91a1.11,1.11,0,0,1-.94,1.59h-2.69a.81.81,0,0,1-.71-.5L248.89,24h-9.24l-2,14a1.17,1.17,0,0,1-1,1h-2.36a.82.82,0,0,1-.77-1Zm10.61,18.75c4.67,0,8.41-4,8.41-9,0-3.63-2.53-6.76-6.16-6.76h-9l-2.25,15.78Z"/>
   <path class="cls-1" d="M286.68,1.59a1.17,1.17,0,0,1,1-1h19.63a.82.82,0,0,1,.77,1l-.22,1.59a1.18,1.18,0,0,1-1.1,1H290.53L288.38,19.3H302.3a.84.84,0,0,1,.77,1l-.22,1.59a1.22,1.22,0,0,1-1.1,1H287.89l-2.14,15a1.17,1.17,0,0,1-1,1h-2.36a.82.82,0,0,1-.77-1Z"/>
   <path class="cls-1" d="m311.65 19.85c1.59-11 10.23-19.85 20.62-19.85 9.68 0 16.88 8.85 15.29 19.85s-10.12 19.74-20.62 19.74c-9.68 0-16.78-8.74-15.29-19.74zm32 0c1.26-8.74-4.07-16-11.82-16s-15 7.26-16.28 16 4.07 15.89 11.82 15.89 15.07-7.14 16.28-15.89z"/>
   <path class="cls-1" d="M359.61,1.59a1.17,1.17,0,0,1,1-1H373c6,0,10,4.84,10,10.72a13.11,13.11,0,0,1-9,12.26l4.78,13.91a1.11,1.11,0,0,1-.94,1.59h-2.69a.81.81,0,0,1-.71-.5L369.89,24h-9.24l-2,14a1.17,1.17,0,0,1-1,1h-2.36a.82.82,0,0,1-.77-1Zm10.61,18.75c4.67,0,8.41-4,8.41-9,0-3.63-2.53-6.76-6.16-6.76h-9l-2.25,15.78Z"/>
   <path class="cls-1" d="M89.23,55.69a1.17,1.17,0,0,1,1-1h14.85c5.77,0,9.68,4.67,9.68,10.34a12.73,12.73,0,0,1-9,12.59l4.78,14a1.17,1.17,0,0,1-1,1.59h-7.09a.75.75,0,0,1-.77-.5L97.15,78.07H94.73l-2,14a1.17,1.17,0,0,1-1,1H84.89a.82.82,0,0,1-.77-1Zm12.48,15.4c2.58,0,4.45-2.42,4.45-5.06,0-1.92-1-3.52-3-3.52H96.87l-1.21,8.58Z"/>
   <path class="cls-1" d="M124.54,55.69a1.17,1.17,0,0,1,1-1h20.73a.88.88,0,0,1,.82,1l-.88,6a1.12,1.12,0,0,1-1,1H132.13l-1,6.82h10.67a.91.91,0,0,1,.82,1l-.88,6a1.22,1.22,0,0,1-1.1,1H130l-1,7.42h13.09c.55,0,.82.5.77,1l-.83,6a1.18,1.18,0,0,1-1.1,1H120.2a.82.82,0,0,1-.77-1Z"/>
   <path class="cls-1" d="M149.12,87.91l3-4.45a1.29,1.29,0,0,1,1.76-.33,11.56,11.56,0,0,0,6.38,2.42,3.37,3.37,0,0,0,3.52-3.35c-.06-2-1.27-3.46-3.63-5-3.46-2.31-8.19-5.77-8.19-11.49,0-5.94,4.12-11.6,13-11.6a16.7,16.7,0,0,1,10.45,4,1.4,1.4,0,0,1,.33,1.87l-3.46,4.23a1.38,1.38,0,0,1-1.76.27c-.39-.33-3.24-2.47-6.16-2.47-1.87,0-3.52,1.16-3.52,2.8,0,1.92,1.21,3,4.51,4.95,2.75,1.65,8.14,5.17,8.14,11.6s-4.4,12.32-13.75,12.32c-5.83,0-9.57-2.91-10.61-4.23A1.17,1.17,0,0,1,149.12,87.91Z"/>
   <path class="cls-1" d="M185,55.69a1.18,1.18,0,0,1,1.1-1h12.1c5.5,0,9.51,5.06,9.51,10.89,0,7.31-5.77,13.64-12.92,13.64h-4.51l-1.81,12.92a1.22,1.22,0,0,1-1.1,1h-6.71c-.55,0-.82-.5-.77-1Zm10.39,15.45c1.92,0,3.79-2.2,3.79-5,0-1.92-1.1-3.41-2.58-3.41h-4l-1.15,8.41Z"/>
   <path class="cls-1" d="M216,55.69a1.17,1.17,0,0,1,1-1h20.73a.88.88,0,0,1,.82,1l-.88,6a1.12,1.12,0,0,1-1,1H223.59l-1,6.82h10.67a.91.91,0,0,1,.82,1l-.88,6a1.22,1.22,0,0,1-1.1,1H221.5l-1,7.42h13.09c.55,0,.82.5.77,1l-.83,6a1.18,1.18,0,0,1-1.1,1H211.66a.82.82,0,0,1-.77-1Z"/>
   <path class="cls-1" d="M262.42,54.09A14.3,14.3,0,0,1,274,59.21a1.14,1.14,0,0,1-.22,1.54L269,64.93a.88.88,0,0,1-1.27,0,8.31,8.31,0,0,0-5.94-2.53c-5.66,0-10.5,6-10.5,13,0,5.17,2.91,9.46,7.42,9.46,1.87,0,4.45-1.26,6.38-2.86a1,1,0,0,1,1.32.05L270.18,87a1.2,1.2,0,0,1-.27,1.49,17.68,17.68,0,0,1-12.43,5.17c-8.3,0-15.67-7.64-15.67-17.32C241.8,63.83,250.54,54.09,262.42,54.09Z"/>
   <path class="cls-1" d="M284.81,62.73H278.1a.88.88,0,0,1-.82-1l.88-6a1.17,1.17,0,0,1,1-1h22.22a.88.88,0,0,1,.82,1l-.88,6a1.12,1.12,0,0,1-1,1h-6.76l-4.12,29.37a1.22,1.22,0,0,1-1.1,1h-6.82a.91.91,0,0,1-.82-1Z"/>
  </g>
 </g>
</svg>
